<svg width="48" height="48" viewBox="0 0 48 48" fill="none" xmlns="http://www.w3.org/2000/svg">
<path d="M0 24C0 10.7452 10.7452 0 24 0C37.2548 0 48 10.7452 48 24C48 37.2548 37.2548 48 24 48C10.7452 48 0 37.2548 0 24Z" fill="white"/>
<path d="M35.9998 19.5077C35.9862 19.3506 35.9355 19.1988 35.8519 19.0649C35.7683 18.9311 35.6542 18.8188 35.5188 18.7374L24.4959 12.134C24.3436 12.0462 24.1708 12 23.9949 12C23.819 12 23.6462 12.0462 23.4939 12.134L12.471 18.7374C12.3484 18.8107 12.243 18.9093 12.1618 19.0267C12.0806 19.144 12.0254 19.2773 12 19.4177C12 19.4777 12 19.5378 12 19.5978V28.4022C12 28.5758 12.0453 28.7465 12.1314 28.8973C12.2175 29.0482 12.3414 29.1741 12.491 29.2626L23.5139 35.866C23.6662 35.9538 23.839 36 24.0149 36C24.1909 36 24.3637 35.9538 24.516 35.866L35.5389 29.2626C35.6829 29.1704 35.8009 29.043 35.8815 28.8923C35.9622 28.7417 36.003 28.573 35.9998 28.4022V19.5978C35.9998 19.5978 35.9998 19.5378 35.9998 19.5077ZM23.9749 25.0005L20.4075 22.8694L29.4863 17.4367L33.0537 19.5678L23.9749 25.0005ZM23.9749 14.135L27.5423 16.2661L18.4634 21.6988L14.896 19.5678L23.9749 14.135ZM13.9541 21.3387L22.9728 26.7414V33.2046L13.9541 27.8019V21.3387ZM24.9769 33.2046V26.7714L33.9957 21.3687V27.8319L24.9769 33.2046Z" fill="#129474"/>
<circle opacity="0.2" cx="24" cy="24" r="23" stroke="#129474" stroke-width="2"/>
<path d="M24 0.999999C36.7025 0.999998 47 11.2974 47 24C47 36.7025 36.7025 47 24 47C11.2975 47 1 36.7025 0.999999 24" stroke="#129474" stroke-width="2" stroke-linecap="round"/>
</svg>
