<svg width="196" height="56" viewBox="0 0 196 56" fill="none" xmlns="http://www.w3.org/2000/svg">
<path d="M12 53C11.7273 53 11.5455 52.9077 11.3636 52.7231L3.63636 44.8769C1.45455 42.6615 1.45455 38.9692 3.63636 36.6615C5.81818 34.4462 9.45455 34.4462 11.7273 36.6615L12 37.0308L12.2727 36.7538C14.4545 34.5385 18.0909 34.5385 20.3636 36.7538C21.4545 37.8615 22 39.3385 22 40.9077C22 42.4769 21.3636 43.8615 20.3636 44.9692L12.6364 52.8154C12.4545 52.9077 12.2727 53 12 53ZM7.72727 36.9385C6.72727 36.9385 5.72727 37.3077 5 38.0462C3.45455 39.6154 3.45455 42.1077 5 43.5846L12 50.7846L19.0909 43.5846C19.8182 42.8462 20.1818 41.8308 20.1818 40.8154C20.1818 39.8 19.8182 38.7846 19.0909 38.0462C17.5455 36.5692 15.0909 36.5692 13.6364 38.0462L12.7273 38.9692C12.3636 39.3385 11.8182 39.3385 11.4545 38.9692L10.5455 38.0462C9.63636 37.3077 8.72727 36.9385 7.72727 36.9385Z" fill="#1A1D32"/>
<path d="M36 53C35.7273 53 35.5455 52.9077 35.3636 52.7231L27.6364 44.8769C25.4545 42.6615 25.4545 38.9692 27.6364 36.6615C29.8182 34.4462 33.4545 34.4462 35.7273 36.6615L36 37.0308L36.2727 36.7538C38.4545 34.5385 42.0909 34.5385 44.3636 36.7538C45.4545 37.8615 46 39.3385 46 40.9077C46 42.4769 45.3636 43.8615 44.3636 44.9692L36.6364 52.8154C36.4545 52.9077 36.2727 53 36 53Z" fill="#1A1D32"/>
<path d="M8 0L10.3511 4.76393L15.6085 5.52786L11.8042 9.23607L12.7023 14.4721L8 12L3.29772 14.4721L4.19577 9.23607L0.391548 5.52786L5.64886 4.76393L8 0Z" fill="#FFC05E"/>
<path d="M28 0L30.3511 4.76393L35.6085 5.52786L31.8042 9.23607L32.7023 14.4721L28 12L23.2977 14.4721L24.1958 9.23607L20.3915 5.52786L25.6489 4.76393L28 0Z" fill="#FFC05E"/>
<path d="M48 0L50.3511 4.76393L55.6085 5.52786L51.8042 9.23607L52.7023 14.4721L48 12L43.2977 14.4721L44.1958 9.23607L40.3915 5.52786L45.6489 4.76393L48 0Z" fill="#FFC05E"/>
<path d="M68 0L70.3511 4.76393L75.6085 5.52786L71.8042 9.23607L72.7023 14.4721L68 12L63.2977 14.4721L64.1958 9.23607L60.3915 5.52786L65.6489 4.76393L68 0Z" fill="#FFC05E"/>
<path d="M88 0L90.3511 4.76393L95.6085 5.52786L91.8042 9.23607L92.7023 14.4721L88 12L83.2977 14.4721L84.1958 9.23607L80.3915 5.52786L85.6489 4.76393L88 0Z" fill="#FFC05E"/>
<path d="M108 0L110.351 4.76393L115.608 5.52786L111.804 9.23607L112.702 14.4721L108 12L103.298 14.4721L104.196 9.23607L100.392 5.52786L105.649 4.76393L108 0Z" fill="#D6D5D2"/>
<path d="M128 0L130.351 4.76393L135.608 5.52786L131.804 9.23607L132.702 14.4721L128 12L123.298 14.4721L124.196 9.23607L120.392 5.52786L125.649 4.76393L128 0Z" fill="#D6D5D2"/>
<path d="M148 0L150.351 4.76393L155.608 5.52786L151.804 9.23607L152.702 14.4721L148 12L143.298 14.4721L144.196 9.23607L140.392 5.52786L145.649 4.76393L148 0Z" fill="#D6D5D2"/>
<path d="M168 0L170.351 4.76393L175.608 5.52786L171.804 9.23607L172.702 14.4721L168 12L163.298 14.4721L164.196 9.23607L160.392 5.52786L165.649 4.76393L168 0Z" fill="#D6D5D2"/>
<path d="M188 0L190.351 4.76393L195.608 5.52786L191.804 9.23607L192.702 14.4721L188 12L183.298 14.4721L184.196 9.23607L180.392 5.52786L185.649 4.76393L188 0Z" fill="#D6D5D2"/>
<path d="M8 16L10.3511 20.7639L15.6085 21.5279L11.8042 25.2361L12.7023 30.4721L8 28L3.29772 30.4721L4.19577 25.2361L0.391548 21.5279L5.64886 20.7639L8 16Z" fill="#FFC05E"/>
<path d="M28 16L30.3511 20.7639L35.6085 21.5279L31.8042 25.2361L32.7023 30.4721L28 28L23.2977 30.4721L24.1958 25.2361L20.3915 21.5279L25.6489 20.7639L28 16Z" fill="#FFC05E"/>
<path d="M48 16L50.3511 20.7639L55.6085 21.5279L51.8042 25.2361L52.7023 30.4721L48 28L43.2977 30.4721L44.1958 25.2361L40.3915 21.5279L45.6489 20.7639L48 16Z" fill="#FFC05E"/>
<path d="M68 16L70.3511 20.7639L75.6085 21.5279L71.8042 25.2361L72.7023 30.4721L68 28L63.2977 30.4721L64.1958 25.2361L60.3915 21.5279L65.6489 20.7639L68 16Z" fill="#FFC05E"/>
<path d="M108 16L110.351 20.7639L115.608 21.5279L111.804 25.2361L112.702 30.4721L108 28L103.298 30.4721L104.196 25.2361L100.392 21.5279L105.649 20.7639L108 16Z" fill="#D6D5D2"/>
<path d="M128 16L130.351 20.7639L135.608 21.5279L131.804 25.2361L132.702 30.4721L128 28L123.298 30.4721L124.196 25.2361L120.392 21.5279L125.649 20.7639L128 16Z" fill="#D6D5D2"/>
<path d="M148 16L150.351 20.7639L155.608 21.5279L151.804 25.2361L152.702 30.4721L148 28L143.298 30.4721L144.196 25.2361L140.392 21.5279L145.649 20.7639L148 16Z" fill="#D6D5D2"/>
<path d="M168 16L170.351 20.7639L175.608 21.5279L171.804 25.2361L172.702 30.4721L168 28L163.298 30.4721L164.196 25.2361L160.392 21.5279L165.649 20.7639L168 16Z" fill="#D6D5D2"/>
<path d="M188 16L190.351 20.7639L195.608 21.5279L191.804 25.2361L192.702 30.4721L188 28L183.298 30.4721L184.196 25.2361L180.392 21.5279L185.649 20.7639L188 16Z" fill="#D6D5D2"/>
<mask id="mask0_25_59" style="mask-type:alpha" maskUnits="userSpaceOnUse" x="80" y="16" width="16" height="15">
<path d="M88 16L90.3511 20.7639L95.6084 21.5279L91.8042 25.2361L92.7023 30.4721L88 28L83.2977 30.4721L84.1958 25.2361L80.3915 21.5279L85.6489 20.7639L88 16Z" fill="#FF5E5E"/>
</mask>
<g mask="url(#mask0_25_59)">
<path d="M88 16L90.3511 20.7639L95.6085 21.5279L91.8042 25.2361L92.7023 30.4721L88 28L83.2977 30.4721L84.1958 25.2361L80.3915 21.5279L85.6489 20.7639L88 16Z" fill="#FFC05E"/>
<rect x="88" y="16" width="8" height="17" fill="#D6D5D2"/>
</g>
</svg>
