<svg width="19" height="22" viewBox="0 0 19 22" fill="none" xmlns="http://www.w3.org/2000/svg">
<path d="M15.4999 11.813C15.53 15.0559 18.3447 16.135 18.3759 16.1488C18.3521 16.2249 17.9262 17.6866 16.893 19.1965C15.9999 20.5019 15.0729 21.8025 13.6127 21.8294C12.1779 21.8559 11.7165 20.9786 10.0761 20.9786C8.43617 20.9786 7.92356 21.8025 6.56535 21.8559C5.15586 21.9092 4.08254 20.4443 3.18199 19.1437C1.34181 16.4833 -0.0644689 11.626 1.82381 8.34722C2.76186 6.71898 4.43823 5.68791 6.25779 5.66147C7.64187 5.63507 8.94828 6.59264 9.79439 6.59264C10.64 6.59264 12.2275 5.44108 13.8965 5.6102C14.5952 5.63928 16.5564 5.89243 17.8157 7.73578C17.7142 7.79868 15.4756 9.10192 15.4999 11.813ZM12.8033 3.8501C13.5517 2.94431 14.0553 1.68335 13.9179 0.428711C12.8393 0.472062 11.535 1.14748 10.7613 2.05278C10.0679 2.85446 9.4607 4.13761 9.62454 5.36742C10.8268 5.46044 12.055 4.75648 12.8033 3.8501Z" fill="black"/>
</svg>
