<svg width="22" height="22" viewBox="0 0 22 22" fill="none" xmlns="http://www.w3.org/2000/svg">
<path fill-rule="evenodd" clip-rule="evenodd" d="M21.1182 11.2443C21.1182 10.4846 21.0501 9.75403 20.9234 9.05273H10.8325V13.1972H16.5988C16.3504 14.5365 15.5955 15.6712 14.4608 16.431V19.1193H17.9234C19.9494 17.254 21.1182 14.5073 21.1182 11.2443Z" fill="#4285F4"/>
<path fill-rule="evenodd" clip-rule="evenodd" d="M10.8325 21.7147C13.7253 21.7147 16.1507 20.7553 17.9234 19.1189L14.4607 16.4306C13.5013 17.0735 12.274 17.4533 10.8325 17.4533C8.0419 17.4533 5.67989 15.5686 4.83736 13.0361H1.25781V15.8121C3.0208 19.3137 6.64418 21.7147 10.8325 21.7147Z" fill="#34A853"/>
<path fill-rule="evenodd" clip-rule="evenodd" d="M4.83732 13.0359C4.62303 12.393 4.50128 11.7063 4.50128 11.0002C4.50128 10.294 4.62303 9.60731 4.83732 8.96445V6.18848H1.25777C0.532125 7.63491 0.118164 9.27127 0.118164 11.0002C0.118164 12.7291 0.532125 14.3654 1.25777 15.8119L4.83732 13.0359Z" fill="#FBBC05"/>
<path fill-rule="evenodd" clip-rule="evenodd" d="M10.8325 4.5475C12.4055 4.5475 13.8179 5.08808 14.9283 6.14977L18.0013 3.07672C16.1458 1.34782 13.7205 0.286133 10.8325 0.286133C6.64418 0.286133 3.0208 2.68711 1.25781 6.18873L4.83736 8.9647C5.67989 6.43224 8.0419 4.5475 10.8325 4.5475Z" fill="#EA4335"/>
</svg>
