<svg width="23" height="23" viewBox="0 0 23 23" fill="none" xmlns="http://www.w3.org/2000/svg">
<circle cx="11.5" cy="11.5" r="11.5" fill="#DC2A2A"/>
<path d="M12.2461 12.3867C12.2227 12.9844 11.9062 13.3008 11.3438 13.3008C10.7695 13.3008 10.4531 12.9844 10.4297 12.3867L10.2891 6.70312C10.2656 6.10547 10.7109 5.68359 11.3438 5.68359C11.9531 5.68359 12.4219 6.11719 12.3984 6.71484L12.2461 12.3867Z" fill="white" />
<path d="M12.5859 15.7617C12.5859 16.418 12.0117 16.9336 11.3438 16.9336C10.6875 16.9336 10.1133 16.4062 10.1133 15.7617C10.1133 15.0938 10.6758 14.5781 11.3438 14.5781C12.0234 14.5781 12.5859 15.0938 12.5859 15.7617Z" fill="white" />
</svg>
