<svg width="23" height="23" viewBox="0 0 23 23" fill="none" xmlns="http://www.w3.org/2000/svg">
<circle cx="11.5" cy="11.5" r="11.5" fill="#6A95AB"/>
<path d="M12.7383 6.01172C12.7383 6.82031 12.1055 7.47656 11.2734 7.47656C10.4648 7.47656 9.80859 6.82031 9.80859 6.01172C9.80859 5.17969 10.4648 4.53516 11.2734 4.53516C12.1055 4.53516 12.7383 5.17969 12.7383 6.01172Z" fill="white"/>
<path d="M13.9219 17.4375H9.41016C8.95312 17.4375 8.57812 17.0977 8.57812 16.6172C8.57812 16.1719 8.95312 15.8203 9.41016 15.8203H10.7695V10.8984H9.60938C9.14062 10.8984 8.77734 10.5586 8.77734 10.0781C8.77734 9.63281 9.14062 9.28125 9.60938 9.28125H11.707C12.2812 9.28125 12.5977 9.69141 12.5977 10.3125V15.8203H13.9219C14.3906 15.8203 14.7656 16.1719 14.7656 16.6172C14.7656 17.0977 14.3906 17.4375 13.9219 17.4375Z" fill="white"/>
</svg>
