<svg width="23" height="23" viewBox="0 0 23 23" fill="none" xmlns="http://www.w3.org/2000/svg">
<circle cx="11.5" cy="11.5" r="11.5" fill="currentColor"/>
<path d="M11.0742 16.0898C10.8516 16.4414 10.5352 16.6289 10.1484 16.6289C9.77344 16.6289 9.46875 16.4648 9.17578 16.1016L6.50391 12.8203C6.33984 12.5977 6.23438 12.3633 6.23438 12.1055C6.23438 11.6016 6.63281 11.1914 7.13672 11.1914C7.45312 11.1914 7.69922 11.2969 7.96875 11.6484L10.1133 14.4023L14.6484 7.125C14.8594 6.78516 15.1523 6.60938 15.4453 6.60938C15.9375 6.60938 16.3945 6.94922 16.3945 7.46484C16.3945 7.71094 16.2539 7.96875 16.125 8.17969L11.0742 16.0898Z" fill="white"/>
</svg>
