<svg width="24" height="22" viewBox="0 0 24 22" fill="none" xmlns="http://www.w3.org/2000/svg">
<path d="M20.1562 21.082H3.10547C1.20703 21.082 0 19.6992 0 17.9766C0 17.4609 0.128906 16.9453 0.410156 16.4531L8.95312 1.55859C9.53906 0.539062 10.582 0 11.625 0C12.6797 0 13.7109 0.539062 14.2969 1.55859L22.8398 16.4531C23.1211 16.9336 23.2617 17.4609 23.2617 17.9766C23.2617 19.6992 22.0547 21.082 20.1562 21.082Z" fill="#FEA838"/>
<path d="M12.5273 12.6211C12.5039 13.2188 12.1875 13.5352 11.6367 13.5352C11.0508 13.5352 10.7344 13.207 10.7227 12.6211L10.5703 6.9375C10.5469 6.33984 10.9922 5.90625 11.625 5.90625C12.2344 5.90625 12.7031 6.35156 12.6797 6.9375L12.5273 12.6211Z" fill="white"/>
<path d="M12.8672 15.9844C12.8672 16.6523 12.293 17.1562 11.6367 17.1562C10.9688 17.1562 10.3945 16.6406 10.3945 15.9844C10.3945 15.3281 10.957 14.8125 11.6367 14.8125C12.3047 14.8125 12.8672 15.3164 12.8672 15.9844Z" fill="white"/>
</svg>
