<svg width="16" height="16" viewBox="0 0 16 16" fill="none" xmlns="http://www.w3.org/2000/svg">
<g clip-path="url(#clip0)">
<g clip-path="url(#clip1)">
<path d="M12.2426 10.8284L9.41421 7.99993L12.2426 5.1715C12.6669 4.74724 12.6669 4.18155 12.2426 3.75729C11.8184 3.33303 11.2527 3.33302 10.8284 3.75729L8 6.58572L5.17157 3.75729C4.74731 3.33302 4.18162 3.33303 3.75736 3.75729C3.3331 4.18155 3.3331 4.74724 3.75736 5.1715L6.58579 7.99993L3.75736 10.8284C3.3331 11.2526 3.3331 11.8183 3.75736 12.2426C4.18162 12.6668 4.74731 12.6668 5.17157 12.2426L8 9.41414L10.8284 12.2426C11.2527 12.6668 11.8184 12.6668 12.2426 12.2426C12.6669 11.8183 12.6669 11.2526 12.2426 10.8284Z" fill="#1A1D32"/>
</g>
</g>
<defs>
<clipPath id="clip0">
<rect width="16" height="16" fill="white"/>
</clipPath>
<clipPath id="clip1">
<rect width="12" height="12" fill="white" transform="translate(8 -0.485352) rotate(45)"/>
</clipPath>
</defs>
</svg>
