<svg width="16" height="16" viewBox="0 0 16 16" fill="none" xmlns="http://www.w3.org/2000/svg">
<path d="M14.79 13.81L12.2 11.22C13.04 10.17 13.6 8.77 13.6 7.3C13.6 3.8 10.8 1 7.3 1C3.8 1 1 3.8 1 7.3C1 10.8 3.8 13.6 7.3 13.6C8.77 13.6 10.17 13.11 11.22 12.2L13.81 14.79C13.95 14.93 14.16 15 14.3 15C14.44 15 14.65 14.93 14.79 14.79C15.07 14.51 15.07 14.09 14.79 13.81ZM2.4 7.3C2.4 4.57 4.57 2.4 7.3 2.4C10.03 2.4 12.2 4.57 12.2 7.3C12.2 8.63 11.64 9.89 10.8 10.73C9.89 11.64 8.7 12.13 7.37 12.13C4.57 12.2 2.4 10.03 2.4 7.3Z" fill="#1A1D32"/>
</svg>
