<svg width="68" height="48" viewBox="0 0 68 48" fill="none" xmlns="http://www.w3.org/2000/svg">
<title>Amazon</title>
<g id="Property 1=Payment, Property 2=Amazon">
<g id="Frame 912">
<g id="Group">
<path id="Vector" fill-rule="evenodd" clip-rule="evenodd" d="M28.0971 26.8224C26.0277 28.2441 23.0274 29 20.4437 29C16.8229 29 13.5622 27.7541 11.0946 25.6802C10.901 25.5172 11.0736 25.2948 11.3065 25.4209C13.9686 26.8629 17.261 27.7314 20.661 27.7314C22.9548 27.7314 25.4763 27.2882 27.7964 26.3721C28.1463 26.2342 28.4398 26.5868 28.0971 26.8224Z" fill="#F79C34"/>
<path id="Vector_2" fill-rule="evenodd" clip-rule="evenodd" d="M28.9586 25.9068C28.6937 25.5915 27.209 25.7574 26.5418 25.8318C26.3397 25.8546 26.3083 25.6901 26.4904 25.5711C27.675 24.7965 29.6163 25.02 29.8419 25.2796C30.069 25.541 29.7819 27.3527 28.6722 28.217C28.5012 28.3499 28.3387 28.279 28.4145 28.1036C28.6645 27.5228 29.2235 26.2228 28.9586 25.9068Z" fill="#F79C34"/>
<path id="Vector_3" fill-rule="evenodd" clip-rule="evenodd" d="M26.5889 20.1V19.3475C26.5895 19.2329 26.6821 19.1567 26.7938 19.157L30.4175 19.1567C30.5333 19.1567 30.6265 19.235 30.6265 19.3466V19.9919C30.6253 20.1002 30.5272 20.2414 30.3537 20.4655L28.4765 22.9603C29.1732 22.9452 29.9102 23.0424 30.5434 23.3734C30.6862 23.4481 30.7246 23.5589 30.7357 23.6673V24.4702C30.7357 24.5809 30.6056 24.7088 30.4685 24.6424C29.3534 24.0984 27.8734 24.0391 26.6399 24.6489C26.514 24.7115 26.3823 24.5851 26.3823 24.4743V23.711C26.3823 23.589 26.3849 23.3799 26.5172 23.1939L28.6916 20.2898L26.7982 20.2895C26.6824 20.2895 26.5895 20.2128 26.5889 20.1Z" fill="#333E47"/>
<path id="Vector_4" fill-rule="evenodd" clip-rule="evenodd" d="M13.3706 24.7999H12.2681C12.1631 24.7937 12.0794 24.7204 12.0708 24.6265L12.0718 19.3597C12.0718 19.2546 12.1669 19.1704 12.2846 19.1704L13.3113 19.1701C13.4185 19.1751 13.5048 19.2507 13.5114 19.347V20.0345H13.5324C13.7998 19.3695 14.3039 19.0591 14.9832 19.0591C15.6726 19.0591 16.105 19.3695 16.4137 20.0345C16.6811 19.3695 17.2884 19.0591 17.9365 19.0591C18.3997 19.0591 18.9038 19.2366 19.2125 19.6355C19.5624 20.0791 19.4907 20.7217 19.4907 21.2869L19.4895 24.6106C19.4895 24.7154 19.3946 24.7999 19.2769 24.7999H18.176C18.065 24.7934 17.9781 24.7119 17.9781 24.6109L17.9777 21.8187C17.9777 21.5973 17.9984 21.0433 17.9467 20.8327C17.8645 20.4777 17.6177 20.3779 17.2988 20.3779C17.0311 20.3779 16.7531 20.5442 16.6399 20.81C16.5266 21.0763 16.5371 21.5193 16.5371 21.8187V24.6106C16.5371 24.7154 16.4419 24.7999 16.3245 24.7999H15.2233C15.1126 24.7934 15.0254 24.7119 15.0254 24.6109L15.0241 21.8187C15.0241 21.2314 15.1272 20.3673 14.3452 20.3673C13.5527 20.3673 13.5838 21.2092 13.5838 21.8187L13.5831 24.6106C13.5831 24.7154 13.488 24.7999 13.3706 24.7999Z" fill="#333E47"/>
<path id="Vector_5" fill-rule="evenodd" clip-rule="evenodd" d="M33.756 20.1343C32.9432 20.1343 32.8918 21.1646 32.8918 21.8075C32.8918 22.4504 32.8816 23.8248 33.7462 23.8248C34.6002 23.8248 34.6414 22.7165 34.6414 22.0405C34.6414 21.5973 34.6205 21.0651 34.4765 20.644C34.3531 20.2781 34.1059 20.1343 33.756 20.1343ZM33.7462 19.0591C35.3822 19.0591 36.267 20.3673 36.267 22.0296C36.267 23.6361 35.2896 24.9109 33.7462 24.9109C32.1405 24.9109 31.2659 23.603 31.2659 21.9741C31.2659 20.3336 32.1507 19.0591 33.7462 19.0591Z" fill="#333E47"/>
<path id="Vector_6" fill-rule="evenodd" clip-rule="evenodd" d="M38.389 24.7999H37.2904C37.1803 24.7934 37.0927 24.7119 37.0927 24.6109L37.0908 19.3423C37.1003 19.2457 37.1917 19.1704 37.3027 19.1704L38.3253 19.1701C38.4217 19.1748 38.501 19.2357 38.5213 19.3175V20.1231H38.5419C38.8509 19.4025 39.2827 19.0591 40.0441 19.0591C40.5381 19.0591 41.0219 19.2253 41.3306 19.6798C41.6187 20.1009 41.6187 20.81 41.6187 21.32V24.6342C41.6066 24.7275 41.5165 24.7999 41.4074 24.7999H40.3024C40.2002 24.794 40.1181 24.724 40.106 24.6342V21.7747C40.106 21.1983 40.1783 20.3558 39.4166 20.3558C39.1492 20.3558 38.902 20.522 38.7786 20.7769C38.6241 21.0985 38.6035 21.4198 38.6035 21.7747V24.6106C38.6016 24.7154 38.5064 24.7999 38.389 24.7999Z" fill="#333E47"/>
<path id="Vector_7" fill-rule="evenodd" clip-rule="evenodd" d="M24.8114 24.7871C24.7387 24.8479 24.6337 24.852 24.5512 24.811C24.1851 24.5278 24.1194 24.397 23.9192 24.1271C23.3142 24.7008 22.8856 24.873 22.1017 24.873C21.1737 24.873 20.4517 24.3397 20.4517 23.2736C20.4517 22.4406 20.9367 21.8742 21.6274 21.5966C22.2254 21.3521 23.0608 21.3078 23.7003 21.241V21.1078C23.7003 20.863 23.721 20.5748 23.5661 20.3637C23.4319 20.1747 23.1743 20.097 22.9475 20.097C22.5268 20.097 22.1534 20.2975 22.0614 20.713C22.0421 20.8054 21.9697 20.8973 21.8701 20.902L20.8013 20.7942C20.7112 20.775 20.6109 20.7077 20.6366 20.5795C20.8793 19.3897 22.0208 19.0188 23.0582 19.0088H23.1401C23.6712 19.015 24.3494 19.1505 24.7625 19.5194C25.299 19.986 25.247 20.6079 25.247 21.2856V22.8841C25.247 23.3652 25.4617 23.576 25.6632 23.835C25.7339 23.9286 25.7495 24.0394 25.6597 24.1079C25.4345 24.2836 25.0344 24.6069 24.8145 24.7894L24.8114 24.7871ZM23.7003 22.2852C23.7003 22.6851 23.7105 23.0182 23.4941 23.3737C23.3187 23.6622 23.0401 23.84 22.7308 23.84C22.3082 23.84 22.0608 23.5403 22.0608 23.0958C22.0608 22.2217 22.9028 22.0629 23.7003 22.0629V22.2852Z" fill="#333E47"/>
<path id="Vector_8" fill-rule="evenodd" clip-rule="evenodd" d="M10.36 24.7871C10.287 24.8479 10.1817 24.852 10.0996 24.811C9.73312 24.5278 9.66745 24.397 9.46758 24.1271C8.86226 24.7008 8.43397 24.873 7.65004 24.873C6.72207 24.873 6 24.3397 6 23.2736C6 22.4406 6.48445 21.8742 7.17574 21.5966C7.77376 21.3521 8.60909 21.3078 9.24836 21.241V21.1078C9.24836 20.863 9.2693 20.5748 9.11448 20.3637C8.98028 20.1747 8.72235 20.097 8.49583 20.097C8.07516 20.097 7.70111 20.2975 7.60974 20.713C7.59071 20.8054 7.51806 20.8973 7.41812 20.902L6.34961 20.7942C6.2592 20.775 6.15894 20.7077 6.18496 20.5795C6.42702 19.3897 7.56882 19.0188 8.60656 19.0088H8.68841C9.21949 19.015 9.89778 19.1505 10.3108 19.5194C10.847 19.986 10.7953 20.6079 10.7953 21.2856V22.8841C10.7953 23.3652 11.0101 23.576 11.2115 23.835C11.2816 23.9286 11.2978 24.0394 11.208 24.1079C10.9828 24.2836 10.5824 24.6069 10.3626 24.7894L10.36 24.7871ZM9.24836 22.2852C9.24836 22.6851 9.25883 23.0182 9.04214 23.3737C8.86702 23.6622 8.58847 23.84 8.27883 23.84C7.85625 23.84 7.60879 23.5403 7.60879 23.0958C7.60879 22.2217 8.4511 22.0629 9.24836 22.0629V22.2852Z" fill="#333E47"/>
<path id="Vector_9" fill-rule="evenodd" clip-rule="evenodd" d="M56.6884 26.6898C56.6884 26.5563 56.6884 26.4364 56.6884 26.3029C56.6884 26.1928 56.7464 26.1169 56.8698 26.1237C57.1002 26.1541 57.426 26.1845 57.6573 26.1402C57.9593 26.0817 58.176 25.8824 58.3042 25.6092C58.4847 25.2247 58.6043 24.9147 58.6798 24.7112L56.3864 19.4228C56.3476 19.3331 56.3362 19.1665 56.5288 19.1665H57.3305C57.4834 19.1665 57.5456 19.2569 57.5799 19.3455L59.2426 23.641L60.8298 19.3455C60.8622 19.2575 60.9272 19.1665 61.0789 19.1665H61.8349C62.0262 19.1665 62.0154 19.3328 61.9773 19.4228L59.7023 24.8763C59.4079 25.6021 59.0158 26.7583 58.1325 26.9591C57.6896 27.0669 57.1309 27.0279 56.8029 26.9C56.7201 26.8613 56.6884 26.758 56.6884 26.6898Z" fill="#333E47"/>
<path id="Vector_10" fill-rule="evenodd" clip-rule="evenodd" d="M55.6189 24.478C55.6189 24.5763 55.5323 24.6569 55.426 24.6569H54.8607C54.7386 24.6569 54.6551 24.5748 54.6396 24.478L54.5828 24.1197C54.323 24.3244 54.0041 24.5042 53.6583 24.6294C52.9933 24.8698 52.2269 24.9097 51.5771 24.5382C51.1073 24.2698 50.8579 23.745 50.8579 23.2037C50.8579 22.785 50.9965 22.3698 51.304 22.0682C51.7142 21.6563 52.3087 21.454 53.0267 21.454C53.4603 21.454 54.0809 21.5016 54.5323 21.6389V20.918C54.5323 20.1851 54.2008 19.8679 53.3268 19.8679C52.6586 19.8679 52.1475 19.9618 51.4363 20.1676C51.3224 20.1712 51.2557 20.0906 51.2557 19.9922V19.5812C51.2557 19.4825 51.3462 19.3871 51.4442 19.3582C51.9521 19.1521 52.6716 19.0236 53.4365 19C54.4337 19 55.6189 19.2094 55.6189 20.6369V24.478ZM54.5323 23.4255V22.3379C54.1529 22.2413 53.5251 22.2011 53.282 22.2011C52.8982 22.2011 52.4778 22.2856 52.2583 22.5056C52.0942 22.6668 52.02 22.8984 52.02 23.1222C52.02 23.4116 52.1276 23.7019 52.3788 23.8454C52.6707 24.03 53.1234 24.0075 53.5489 23.895C53.9578 23.7869 54.3417 23.5959 54.5323 23.4255Z" fill="#333E47"/>
<path id="Vector_11" fill-rule="evenodd" clip-rule="evenodd" d="M47.2832 19.8843C48.5376 19.8843 48.8793 20.8024 48.8793 21.8537C48.8863 22.5625 48.7464 23.1944 48.3521 23.5562C48.057 23.827 47.7274 23.9008 47.2312 23.9008C46.7896 23.9008 46.2087 23.6864 45.7747 23.3878V20.3819C46.2265 20.0588 46.8029 19.8843 47.2832 19.8843ZM45.5824 26.8784H44.8251C44.7192 26.8784 44.6326 26.7978 44.6326 26.6994C44.6326 24.2513 44.6326 21.8029 44.6326 19.3548C44.6326 19.2565 44.7192 19.1759 44.8251 19.1759H45.4048C45.5266 19.1759 45.61 19.258 45.6256 19.3548L45.6865 19.7396C46.2293 19.291 46.9282 19.0034 47.5941 19.0034C49.4593 19.0034 50.0725 20.4339 50.0725 21.9214C50.0725 23.5128 49.1344 24.7914 47.5478 24.7914C46.8797 24.7914 46.255 24.562 45.7747 24.1633V26.6994C45.7747 26.7978 45.6881 26.8784 45.5824 26.8784Z" fill="#333E47"/>
</g>
</g>
</g>
</svg>
