<svg width="40" height="40" viewBox="0 0 40 40" fill="none" xmlns="http://www.w3.org/2000/svg">
<rect width="40" height="40" fill="white"/>
<path d="M28.0011 19.7505C28.0413 24.0743 31.7942 25.5131 31.8358 25.5315C31.8041 25.633 31.2361 27.582 29.8586 29.5952C28.6677 31.3357 27.4318 33.0698 25.4848 33.1057C23.5717 33.141 22.9565 31.9712 20.7693 31.9712C18.5828 31.9712 17.8993 33.0698 16.0883 33.141C14.209 33.2121 12.7779 31.2588 11.5772 29.5247C9.12363 25.9775 7.2486 19.5011 9.76629 15.1294C11.017 12.9584 13.2522 11.5837 15.6783 11.5484C17.5237 11.5132 19.2656 12.79 20.3937 12.79C21.5212 12.79 23.6379 11.2546 25.8632 11.4801C26.7948 11.5188 29.4097 11.8564 31.0888 14.3142C30.9535 14.398 27.9687 16.1357 28.0011 19.7505ZM24.4057 9.13327C25.4034 7.92554 26.075 6.24427 25.8918 4.57141C24.4536 4.62921 22.7145 5.52977 21.6829 6.73684C20.7585 7.80575 19.9488 9.51661 20.1673 11.1564C21.7703 11.2804 23.4079 10.3418 24.4057 9.13327Z" fill="black"/>
</svg>
