<svg width="36" height="31" viewBox="0 -5 36 41" fill="none" xmlns="http://www.w3.org/2000/svg">
    <path fill-rule="evenodd" clip-rule="evenodd"
        d="M8.60372 22.7771C8.14057 22.7771 7.76651 23.1512 7.76651 23.5966V29.7787C7.76651 30.2419 8.14057 30.616 8.60372 30.616C9.06686 30.616 9.44093 30.2419 9.44093 29.7787V23.5966C9.44093 23.1512 9.06686 22.7771 8.60372 22.7771ZM8.60367 19.695C8.08713 19.695 7.65962 20.1226 7.65962 20.6392C7.65962 21.1559 8.08713 21.6013 8.60367 21.6013C9.12026 21.6013 9.54778 21.1737 9.54778 20.6392C9.54778 20.1226 9.12026 19.695 8.60367 19.695ZM16.7621 23.5966C16.7621 23.0799 16.3524 22.884 15.9783 22.884H11.8279C11.4182 22.884 11.0975 23.2046 11.0975 23.5966C11.0975 24.0064 11.4182 24.3271 11.8279 24.3271H14.5533L11.0263 29.2442C10.9194 29.3867 10.866 29.5827 10.866 29.743C10.866 30.2597 11.2757 30.5448 11.6319 30.5448H16.0318C16.4415 30.5448 16.7621 30.2241 16.7621 29.8143C16.7621 29.4046 16.4415 29.0839 16.0318 29.0839H13.0748L16.5305 24.2736C16.7087 24.0242 16.7621 23.8104 16.7621 23.5966ZM4.54232 27.4805C4.54232 28.496 4.09699 29.1196 3.08162 29.1196C2.06631 29.1196 1.63879 28.496 1.63879 27.4805V24.3271H3.15288C4.38198 24.3271 4.54232 25.0041 4.54232 25.7524V27.4805ZM6.21674 25.7167C6.21674 23.9886 5.30827 22.8662 3.18851 22.8662H1.65661V20.5323C1.65661 20.0691 1.28254 19.695 0.837212 19.695C0.374069 19.695 0 20.0691 0 20.5323V27.4805C0 29.2086 0.926242 30.6161 3.11726 30.6161C5.29045 30.6161 6.23455 29.1908 6.23455 27.4805V25.7524V25.7167H6.21674ZM23.2995 22.7771C22.8364 22.7771 22.4623 23.1512 22.4623 23.6144V27.4805C22.4623 28.4959 22.0169 29.1195 21.0016 29.1195C19.9863 29.1195 19.5587 28.4959 19.5587 27.4805V23.6144C19.5587 23.1512 19.1847 22.7771 18.7393 22.7771C18.2762 22.7771 17.9021 23.1512 17.9021 23.6144V27.4805C17.9021 29.2085 18.8284 30.616 21.0194 30.616C23.1926 30.616 24.1367 29.1907 24.1367 27.4805V23.6144C24.1189 23.1512 23.7448 22.7771 23.2995 22.7771ZM36 25.9306C36 24.2024 35.1988 22.7949 33.0256 22.7949C32.0458 22.7949 31.3511 23.08 30.8699 23.561C30.3892 23.0978 29.6945 22.7949 28.7147 22.7949C26.5414 22.7949 25.7399 24.2202 25.7399 25.9306V29.7966C25.7399 30.2598 26.1139 30.6339 26.5592 30.6339C27.0223 30.6339 27.3965 30.2598 27.3965 29.7966V25.9306C27.3965 24.9151 27.7169 24.2915 28.7147 24.2915C29.7299 24.2915 30.0329 24.9151 30.0329 25.9306V29.7966C30.0329 30.2598 30.4071 30.6339 30.852 30.6339C31.3153 30.6339 31.6895 30.2598 31.6895 29.7966V25.9306C31.6895 24.9151 32.01 24.2915 33.0077 24.2915C34.0229 24.2915 34.3259 24.9151 34.3259 25.9306V29.7966C34.3259 30.2598 34.6997 30.6339 35.1451 30.6339C35.6083 30.6339 35.9825 30.2598 35.9825 29.7966L36 25.9306Z"
        fill="#05C0C7" />
    <path fill-rule="evenodd" clip-rule="evenodd"
        d="M15.0462 5.75875C15.634 6.18635 16.4534 6.06164 16.8809 5.47371L18.4129 3.35363C18.8404 2.76571 18.7157 1.94618 18.1279 1.5186C17.54 1.09103 16.7206 1.21573 16.2931 1.80365L14.7434 3.92373C14.3337 4.51166 14.4584 5.33119 15.0462 5.75875ZM22.0645 2.76571C21.4767 2.33813 20.6573 2.46284 20.2298 3.05076L14.0665 11.5311C13.639 12.119 13.7636 12.9385 14.3515 13.3661C14.9393 13.7937 15.7587 13.669 16.1862 13.081L22.3495 4.60073C22.7949 4.01281 22.6524 3.19329 22.0645 2.76571ZM14.4584 2.08872C14.8859 1.5008 14.7612 0.681274 14.1734 0.253697C13.5855 -0.173882 12.7661 -0.0491716 12.3386 0.538749C11.9111 1.12667 12.0358 1.9462 12.6236 2.37377C13.2115 2.80135 14.0309 2.67664 14.4584 2.08872ZM23.8102 13.7402C23.2224 13.3126 22.403 13.4374 21.9755 14.0253C21.548 14.6132 21.6727 15.4327 22.2605 15.8603C22.8484 16.2879 23.6678 16.1632 24.0953 15.5753C24.5228 14.9873 24.3981 14.1678 23.8102 13.7402ZM21.4055 10.373C20.8177 9.94548 19.9983 10.0702 19.5708 10.6581L18.021 12.7782C17.5935 13.3661 17.7182 14.1856 18.306 14.6132C18.8938 15.0408 19.7132 14.9161 20.1408 14.3281L21.6905 12.2081C22.118 11.6202 21.9933 10.8006 21.4055 10.373Z"
        fill="#05C0C7" />
</svg>