<svg width="140" height="80" viewBox="-50 0 140 40" fill="none" xmlns="http://www.w3.org/2000/svg">
<svg width="40" height="40" viewBox="50 0 40 40" fill="none" xmlns="http://www.w3.org/2000/svg">
<rect width="40" height="40" fill="white"/>
<path d="M17.4669 25.2565H14.3887L16.314 13.3516H19.3921L17.4669 25.2565Z" fill="#00579F"/>
<path d="M28.6261 13.6426C28.0189 13.4017 27.0559 13.1357 25.8652 13.1357C22.8253 13.1357 20.6846 14.7568 20.6715 17.0743C20.6463 18.7842 22.2042 19.7339 23.3693 20.304C24.5603 20.8866 24.9651 21.2669 24.9651 21.7862C24.953 22.5837 24.0028 22.9514 23.1165 22.9514C21.8875 22.9514 21.229 22.7618 20.2283 22.3181L19.823 22.1279L19.3922 24.8003C20.1142 25.1292 21.4443 25.4211 22.8253 25.4339C26.0552 25.4339 28.158 23.838 28.1829 21.3682C28.1952 20.013 27.3725 18.9746 25.599 18.126C24.5224 17.5813 23.863 17.214 23.863 16.6567C23.8757 16.15 24.4207 15.6311 25.6361 15.6311C26.6368 15.6056 27.372 15.8462 27.929 16.0869L28.2075 16.2133L28.6261 13.6426Z" fill="#00579F"/>
<path d="M32.7169 21.039C32.9704 20.3551 33.9459 17.7081 33.9459 17.7081C33.9331 17.7335 34.1989 17.0115 34.3509 16.5683L34.566 17.5941C34.566 17.5941 35.1489 20.4438 35.2755 21.039C34.7944 21.039 33.3249 21.039 32.7169 21.039ZM36.5166 13.3516H34.1356C33.4013 13.3516 32.8435 13.5667 32.5267 14.3393L27.9543 25.2563H31.1842C31.1842 25.2563 31.716 23.787 31.8303 23.4705C32.1846 23.4705 35.3267 23.4705 35.7825 23.4705C35.8709 23.8885 36.1498 25.2563 36.1498 25.2563H39L36.5166 13.3516Z" fill="#00579F"/>
<path d="M11.8169 13.3516L8.80233 21.4696L8.47291 19.8232C7.91557 17.9234 6.16764 15.8593 4.21704 14.833L6.97832 25.2439H10.2335L15.0719 13.3516H11.8169Z" fill="#00579F"/>
<path d="M6.00325 13.3516H1.05067L1 13.5921C4.86333 14.58 7.42193 16.9614 8.47315 19.8237L7.39652 14.3523C7.21927 13.5919 6.67455 13.3766 6.00325 13.3516Z" fill="#FAA61A"/>
</svg>
<svg width="40" height="40" viewBox="0 0 40 40" fill="none" xmlns="http://www.w3.org/2000/svg">
<rect width="40" height="40" fill="white"/>
<path d="M37.2464 33.6202V33.693H37.3136C37.3284 33.693 37.3411 33.6895 37.3503 33.6838C37.3588 33.6782 37.3638 33.6683 37.3638 33.6562C37.3638 33.6442 37.3588 33.635 37.3503 33.6294C37.3411 33.623 37.3284 33.6202 37.3136 33.6202H37.2464ZM37.3143 33.5692C37.3489 33.5692 37.3758 33.577 37.3949 33.5926C37.414 33.6081 37.4232 33.6294 37.4232 33.6562C37.4232 33.6789 37.4161 33.6973 37.4005 33.7121C37.3857 33.7263 37.3645 33.7355 37.3362 33.739L37.4253 33.8416H37.356L37.2732 33.7397H37.2464V33.8416H37.1884V33.5692H37.3143ZM37.2966 33.9356C37.3284 33.9356 37.3581 33.9293 37.385 33.9172C37.4126 33.9052 37.4366 33.8889 37.4571 33.8684C37.4776 33.8479 37.4939 33.8239 37.5059 33.7956C37.5172 33.768 37.5236 33.7383 37.5236 33.7065C37.5236 33.6746 37.5172 33.6449 37.5059 33.6173C37.4939 33.5898 37.4776 33.565 37.4571 33.5445C37.4366 33.524 37.4126 33.5077 37.385 33.4957C37.3581 33.4844 37.3284 33.4787 37.2966 33.4787C37.2648 33.4787 37.2344 33.4844 37.2068 33.4957C37.1785 33.5077 37.1537 33.524 37.1332 33.5445C37.1127 33.565 37.0964 33.5898 37.0851 33.6173C37.0731 33.6449 37.0675 33.6746 37.0675 33.7065C37.0675 33.7383 37.0731 33.768 37.0851 33.7956C37.0964 33.8239 37.1127 33.8479 37.1332 33.8684C37.1537 33.8889 37.1785 33.9052 37.2068 33.9172C37.2344 33.9293 37.2648 33.9356 37.2966 33.9356ZM37.2966 33.4129C37.3383 33.4129 37.3765 33.4207 37.4133 33.4363C37.4493 33.4511 37.4804 33.4723 37.508 33.4992C37.5349 33.5254 37.5561 33.5565 37.5717 33.5926C37.5872 33.6279 37.595 33.6661 37.595 33.7065C37.595 33.7468 37.5872 33.785 37.5717 33.8203C37.5561 33.8557 37.5349 33.8868 37.508 33.9137C37.4804 33.9399 37.4493 33.9611 37.4133 33.9767C37.3765 33.9922 37.3383 34 37.2966 34C37.2542 34 37.2153 33.9922 37.1785 33.9767C37.1417 33.9611 37.1099 33.9399 37.083 33.9137C37.0561 33.8868 37.0349 33.8557 37.0194 33.8203C37.0038 33.785 36.996 33.7468 36.996 33.7065C36.996 33.6661 37.0038 33.6279 37.0194 33.5926C37.0349 33.5565 37.0561 33.5254 37.083 33.4992C37.1099 33.4723 37.1417 33.4511 37.1785 33.4363C37.2153 33.4207 37.2542 33.4129 37.2966 33.4129ZM9.74385 32.364C9.74385 31.8448 10.084 31.4183 10.6399 31.4183C11.171 31.4183 11.5295 31.8264 11.5295 32.364C11.5295 32.9015 11.171 33.3096 10.6399 33.3096C10.084 33.3096 9.74385 32.8831 9.74385 32.364ZM12.1349 32.364V30.8871H11.4927V31.2457C11.2891 30.9797 10.98 30.8128 10.5599 30.8128C9.73183 30.8128 9.08263 31.4621 9.08263 32.364C9.08263 33.2665 9.73183 33.9151 10.5599 33.9151C10.98 33.9151 11.2891 33.7482 11.4927 33.4822V33.8409H12.1349V32.364ZM33.8342 32.364C33.8342 31.8448 34.1744 31.4183 34.7302 31.4183C35.262 31.4183 35.6198 31.8264 35.6198 32.364C35.6198 32.9015 35.262 33.3096 34.7302 33.3096C34.1744 33.3096 33.8342 32.8831 33.8342 32.364ZM36.2259 32.364V29.7009H35.5831V31.2457C35.3794 30.9797 35.0704 30.8128 34.6503 30.8128C33.8222 30.8128 33.173 31.4621 33.173 32.364C33.173 33.2665 33.8222 33.9151 34.6503 33.9151C35.0704 33.9151 35.3794 33.7482 35.5831 33.4822V33.8409H36.2259V32.364ZM20.1056 31.3878C20.5193 31.3878 20.7852 31.6474 20.8531 32.1044H19.3206C19.3892 31.6778 19.648 31.3878 20.1056 31.3878ZM20.1183 30.8128C19.2527 30.8128 18.6473 31.443 18.6473 32.364C18.6473 33.3033 19.2774 33.9151 20.1614 33.9151C20.6062 33.9151 21.0136 33.8041 21.3721 33.5013L21.0574 33.0253C20.8099 33.2226 20.4945 33.3344 20.1982 33.3344C19.7845 33.3344 19.4076 33.1427 19.3149 32.6108H21.5079C21.5143 32.5309 21.5206 32.4502 21.5206 32.364C21.5143 31.443 20.9457 30.8128 20.1183 30.8128ZM27.8719 32.364C27.8719 31.8448 28.2121 31.4183 28.7679 31.4183C29.299 31.4183 29.6575 31.8264 29.6575 32.364C29.6575 32.9015 29.299 33.3096 28.7679 33.3096C28.2121 33.3096 27.8719 32.8831 27.8719 32.364ZM30.2629 32.364V30.8871H29.6208V31.2457C29.4164 30.9797 29.1081 30.8128 28.688 30.8128C27.8599 30.8128 27.2107 31.4621 27.2107 32.364C27.2107 33.2665 27.8599 33.9151 28.688 33.9151C29.1081 33.9151 29.4164 33.7482 29.6208 33.4822V33.8409H30.2629V32.364ZM24.2454 32.364C24.2454 33.2601 24.8692 33.9151 25.8211 33.9151C26.2659 33.9151 26.5622 33.8161 26.8832 33.5629L26.5749 33.0437C26.3338 33.217 26.0806 33.3096 25.802 33.3096C25.2892 33.3033 24.9123 32.9326 24.9123 32.364C24.9123 31.7953 25.2892 31.4246 25.802 31.4183C26.0806 31.4183 26.3338 31.5109 26.5749 31.6842L26.8832 31.165C26.5622 30.9118 26.2659 30.8128 25.8211 30.8128C24.8692 30.8128 24.2454 31.4678 24.2454 32.364ZM32.5245 30.8128C32.1539 30.8128 31.9128 30.9861 31.7459 31.2457V30.8871H31.1094V33.8409H31.7522V32.185C31.7522 31.6962 31.9623 31.4246 32.3823 31.4246C32.5125 31.4246 32.6482 31.443 32.784 31.4989L32.982 30.8934C32.8399 30.8375 32.6546 30.8128 32.5245 30.8128ZM15.3108 31.1219C15.0018 30.9182 14.5761 30.8128 14.1065 30.8128C13.3583 30.8128 12.8767 31.1714 12.8767 31.7585C12.8767 32.2402 13.2352 32.5372 13.8957 32.6299L14.1991 32.6731C14.5513 32.7226 14.7175 32.8152 14.7175 32.9822C14.7175 33.2106 14.4827 33.3408 14.0443 33.3408C13.5994 33.3408 13.2784 33.1986 13.062 33.0317L12.7593 33.5317C13.1115 33.7913 13.5563 33.9151 14.0379 33.9151C14.8908 33.9151 15.3851 33.5134 15.3851 32.951C15.3851 32.4319 14.9961 32.1602 14.3533 32.0676L14.0506 32.0237C13.7727 31.9869 13.5499 31.9318 13.5499 31.7337C13.5499 31.5173 13.76 31.3878 14.1121 31.3878C14.4891 31.3878 14.854 31.53 15.0329 31.6411L15.3108 31.1219ZM23.5962 30.8128C23.2257 30.8128 22.9845 30.9861 22.8183 31.2457V30.8871H22.1819V33.8409H22.824V32.185C22.824 31.6962 23.034 31.4246 23.4541 31.4246C23.5842 31.4246 23.72 31.443 23.8558 31.4989L24.0538 30.8934C23.9116 30.8375 23.7264 30.8128 23.5962 30.8128ZM18.1162 30.8871H17.0661V29.9909H16.4169V30.8871H15.8179V31.4741H16.4169V32.8216C16.4169 33.507 16.6828 33.9151 17.4423 33.9151C17.7209 33.9151 18.042 33.8288 18.2457 33.6867L18.0604 33.1364C17.8687 33.2474 17.6587 33.3033 17.4918 33.3033C17.1707 33.3033 17.0661 33.1052 17.0661 32.8089V31.4741H18.1162V30.8871ZM8.51476 33.8409V31.9869C8.51476 31.2888 8.06994 30.8192 7.35285 30.8128C6.97592 30.8064 6.58697 30.9238 6.3147 31.3383C6.11103 31.0108 5.78996 30.8128 5.33878 30.8128C5.02337 30.8128 4.71504 30.9054 4.47389 31.2513V30.8871H3.83105V33.8409H4.47955V32.2034C4.47955 31.6906 4.76383 31.4183 5.203 31.4183C5.62943 31.4183 5.84512 31.6962 5.84512 32.197V33.8409H6.49432V32.2034C6.49432 31.6906 6.79063 31.4183 7.21707 31.4183C7.65552 31.4183 7.86556 31.6962 7.86556 32.197V33.8409H8.51476Z" fill="#231F20"/>
<path d="M37.6416 24.0176V23.5861H37.5292L37.399 23.8825L37.2696 23.5861H37.1565V24.0176H37.2364V23.6922L37.358 23.973H37.4408L37.5624 23.6915V24.0176H37.6416ZM36.9281 24.0176V23.6597H37.0723V23.5868H36.7046V23.6597H36.8489V24.0176H36.9281Z" fill="#F79410"/>
<path d="M24.856 25.8735H15.1239V8.37988H24.856V25.8735Z" fill="#FF5F00"/>
<path d="M15.7477 17.1254C15.7477 13.5768 17.4089 10.4157 19.9958 8.37863C18.1041 6.889 15.7166 5.9999 13.1219 5.9999C6.97931 5.9999 2 10.9809 2 17.1254C2 23.27 6.97931 28.251 13.1219 28.251C15.7166 28.251 18.1041 27.3619 19.9958 25.8722C17.4089 23.8351 15.7477 20.6741 15.7477 17.1254Z" fill="#EB001B"/>
<path d="M37.9815 17.1254C37.9815 23.27 33.0022 28.251 26.8596 28.251C24.2649 28.251 21.8774 27.3619 19.985 25.8722C22.5726 23.8351 24.2338 20.6741 24.2338 17.1254C24.2338 13.5768 22.5726 10.4157 19.985 8.37863C21.8774 6.889 24.2649 5.9999 26.8596 5.9999C33.0022 5.9999 37.9815 10.9809 37.9815 17.1254Z" fill="#F79E1B"/>
</svg>
</svg>


