<svg width="48" height="40" viewBox="0 0 48 40" fill="none" xmlns="http://www.w3.org/2000/svg">
<path d="M35.234 7H12.766C5.74468 7 0 12.7447 0 19.766C0 26.7872 5.74468 32.5319 12.766 32.5319H35.234C42.2553 32.5319 48 26.7872 48 19.766C48 12.7447 42.2553 7 35.234 7Z" fill="white"/>
<path d="M35.234 8.03404C36.8106 8.03404 38.3426 8.34681 39.7851 8.95957C41.183 9.55319 42.434 10.4021 43.5191 11.4809C44.5979 12.5596 45.4468 13.817 46.0404 15.2149C46.6532 16.6574 46.966 18.1894 46.966 19.766C46.966 21.3426 46.6532 22.8745 46.0404 24.317C45.4468 25.7149 44.5979 26.966 43.5191 28.0511C42.4404 29.1298 41.183 29.9787 39.7851 30.5723C38.3426 31.1851 36.8106 31.4979 35.234 31.4979H12.766C11.1894 31.4979 9.65745 31.1851 8.21489 30.5723C6.81702 29.9787 5.56596 29.1298 4.48085 28.0511C3.40213 26.9723 2.55319 25.7149 1.95957 24.317C1.34681 22.8745 1.03404 21.3426 1.03404 19.766C1.03404 18.1894 1.34681 16.6574 1.95957 15.2149C2.55319 13.817 3.40213 12.566 4.48085 11.4809C5.55957 10.4021 6.81702 9.55319 8.21489 8.95957C9.65745 8.34681 11.1894 8.03404 12.766 8.03404H35.234ZM35.234 7H12.766C5.74468 7 0 12.7447 0 19.766C0 26.7872 5.74468 32.5319 12.766 32.5319H35.234C42.2553 32.5319 48 26.7872 48 19.766C48 12.7447 42.2553 7 35.234 7Z" fill="#3C4043"/>
<path d="M22.8896 20.6723V24.534H21.6641V14.9978H24.913C25.7364 14.9978 26.4385 15.2723 27.013 15.8212C27.6002 16.3701 27.8938 17.0404 27.8938 17.8318C27.8938 18.6425 27.6002 19.3127 27.013 19.8552C26.4449 20.3978 25.7428 20.6659 24.913 20.6659H22.8896V20.6723ZM22.8896 16.1723V19.4978H24.9385C25.4236 19.4978 25.8321 19.3318 26.1513 19.0063C26.4768 18.6808 26.6428 18.285 26.6428 17.8382C26.6428 17.3978 26.4768 17.0084 26.1513 16.6829C25.8321 16.3446 25.43 16.1787 24.9385 16.1787H22.8896V16.1723Z" fill="#3C4043"/>
<path d="M31.0983 17.7935C32.0047 17.7935 32.7196 18.036 33.243 18.5211C33.7664 19.0062 34.0281 19.6701 34.0281 20.5126V24.5339H32.86V23.6275H32.8089C32.3047 24.3743 31.6281 24.7445 30.7855 24.7445C30.0642 24.7445 29.4642 24.5339 28.9791 24.1062C28.494 23.6786 28.2515 23.1488 28.2515 22.5105C28.2515 21.8339 28.5068 21.2977 29.0174 20.902C29.5281 20.4998 30.211 20.302 31.06 20.302C31.7876 20.302 32.3876 20.436 32.8536 20.7041V20.4232C32.8536 19.9956 32.6876 19.6381 32.3493 19.3381C32.011 19.0381 31.6153 18.8913 31.1621 18.8913C30.4791 18.8913 29.9366 19.1786 29.5408 19.7594L28.4621 19.0828C29.0557 18.2211 29.9366 17.7935 31.0983 17.7935ZM29.5153 22.5296C29.5153 22.8488 29.6493 23.1169 29.9238 23.3275C30.1919 23.5381 30.511 23.6466 30.8749 23.6466C31.3919 23.6466 31.8515 23.4552 32.2536 23.0722C32.6557 22.6892 32.86 22.2424 32.86 21.7254C32.477 21.4254 31.9472 21.2722 31.2642 21.2722C30.7664 21.2722 30.3515 21.3935 30.0196 21.6296C29.6813 21.8786 29.5153 22.1786 29.5153 22.5296Z" fill="#3C4043"/>
<path d="M40.6919 18.0043L36.6068 27.4H35.3429L36.8621 24.1128L34.1685 18.0043H35.5025L37.4429 22.6894H37.4685L39.3578 18.0043H40.6919Z" fill="#3C4043"/>
<path d="M18.015 19.8936C18.015 19.494 17.9793 19.1117 17.9129 18.744H12.7759V20.8504L15.7344 20.851C15.6144 21.5519 15.2282 22.1493 14.6365 22.5476V23.9142H16.3976C17.4259 22.9625 18.015 21.5557 18.015 19.8936Z" fill="#4285F4"/>
<path d="M14.6365 22.5477C14.1462 22.8783 13.515 23.0717 12.7765 23.0717C11.3499 23.0717 10.1396 22.1104 9.70624 20.8147H7.88965V22.2241C8.78965 24.01 10.6394 25.2355 12.7765 25.2355C14.2535 25.2355 15.4943 24.7498 16.3975 23.9136L14.6365 22.5477Z" fill="#34A853"/>
<path d="M9.5361 19.7691C9.5361 19.4053 9.59674 19.0536 9.70717 18.723V17.3136H7.89057C7.51844 18.0521 7.30908 18.8857 7.30908 19.7691C7.30908 20.6525 7.51908 21.4862 7.89057 22.2247L9.70717 20.8153C9.59674 20.4847 9.5361 20.133 9.5361 19.7691Z" fill="#FABB05"/>
<path d="M12.7765 16.466C13.5826 16.466 14.3045 16.7436 14.8745 17.2862L16.4352 15.7268C15.4873 14.844 14.2516 14.3021 12.7765 14.3021C10.6401 14.3021 8.78965 15.5277 7.88965 17.3136L9.70624 18.723C10.1396 17.4272 11.3499 16.466 12.7765 16.466Z" fill="#E94235"/>
</svg>
