<svg width="68" height="48" viewBox="0 0 68 48" fill="none" xmlns="http://www.w3.org/2000/svg">
<title>iDEAL</title>
<g id="Property 1=Payment, Property 2=iDEAL">
<g id="Frame 911">
<path id="Vector" d="M15.6582 7.70898V40.3113H34.4255C46.8055 40.3113 52.1741 33.2895 52.1741 23.9782C52.1741 14.7031 46.8055 7.70898 34.4255 7.70898H15.6582Z" fill="white"/>
<path id="Vector_2" d="M17.6865 9.76465H34.4279C45.7908 9.76465 50.1462 16.0492 50.1462 23.9771C50.1462 33.4833 44.0641 38.2533 34.4279 38.2533H17.6865V9.76465ZM19.3095 11.4084V36.6106H34.4279C43.5555 36.6106 48.5217 32.3029 48.5217 23.9771C48.5217 15.4206 43.1382 11.4079 34.4279 11.4079H19.3095V11.4084Z" fill="black"/>
<path id="Vector_3" d="M21.3379 25.8311H26.1776V34.5549H21.3379V25.8311Z" fill="black"/>
<path id="Vector_4" d="M23.7573 24.4813C25.4185 24.4813 26.7651 23.1174 26.7651 21.435C26.7651 19.7525 25.4185 18.3887 23.7573 18.3887C22.0962 18.3887 20.7495 19.7525 20.7495 21.435C20.7495 23.1174 22.0962 24.4813 23.7573 24.4813Z" fill="black"/>
<path id="Vector_5" d="M36.3268 22.8596V24.2722H32.8784V18.6037H36.2166V20.0158H34.2726V20.6721H36.1109V22.0847H34.2726V22.8601L36.3268 22.8596ZM36.9301 24.2732L38.6176 18.6017H40.6013L42.2883 24.2732H40.837L40.5204 23.1761H38.6965L38.3794 24.2732H36.9301ZM39.1053 21.7651H40.1146L39.6516 20.163H39.5673L39.1053 21.7651ZM42.9894 18.6022H44.3846V22.8601H46.4497C45.8831 15.1342 39.8833 13.4648 34.4284 13.4648H28.6148V18.6052H29.4751C31.044 18.6052 32.018 19.6826 32.018 21.4163C32.018 23.2053 31.0673 24.2732 29.4751 24.2732H28.6148V34.5578H34.4289C43.2935 34.5578 46.3807 30.3879 46.4899 24.2722H42.9894V18.6022ZM28.6138 20.0173V22.8601H29.4751C30.072 22.8601 30.6238 22.6852 30.6238 21.4158C30.6238 20.1761 30.01 20.0173 29.4751 20.0173H28.6138Z" fill="#D50072"/>
</g>
</g>
</svg>
