<svg width="68" height="48" viewBox="0 0 68 48" fill="none" xmlns="http://www.w3.org/2000/svg">
<g clip-path="url(#clip0)">
<path d="M39.1943 10.7222H28.0457V30.7603H39.1943V10.7222Z" fill="#6B6DB8"/>
<path d="M28.7459 20.7413C28.7459 16.6749 30.6435 13.0604 33.6142 10.7222C31.4455 9.01659 28.712 8 25.7413 8C18.7042 8 13 13.7042 13 20.7413C13 27.7783 18.7042 33.4825 25.7413 33.4825C28.712 33.4825 31.4455 32.4659 33.6142 30.7603C30.6548 28.4222 28.7459 24.8076 28.7459 20.7413Z" fill="#D82E2B"/>
<path d="M54.2284 20.7413C54.2284 27.7783 48.5242 33.4825 41.4872 33.4825C38.5165 33.4825 35.783 32.4659 33.6143 30.7603C36.5737 28.4222 38.4826 24.8076 38.4826 20.7413C38.4826 16.6749 36.585 13.0604 33.6143 10.7222C35.783 9.01659 38.5165 8 41.4872 8C48.5242 8 54.2284 13.7042 54.2284 20.7413Z" fill="#4098D9"/>
<path d="M42.9556 36.4196C43.1024 36.4196 43.317 36.4535 43.4752 36.5099L43.2492 37.199C43.0911 37.1312 42.933 37.1086 42.7861 37.1086C42.3004 37.1086 42.0632 37.4249 42.0632 37.9784V39.876H41.329V36.4987H42.0632V36.9053C42.2552 36.6229 42.5376 36.4196 42.9556 36.4196ZM40.2447 37.1764H39.0473V38.7013C39.0473 39.0401 39.1716 39.266 39.533 39.266C39.7251 39.266 39.9623 39.1983 40.1882 39.074L40.4028 39.7066C40.1656 39.8647 39.8041 39.9664 39.4879 39.9664C38.6181 39.9664 38.3131 39.5032 38.3131 38.7126V37.1651H37.6241V36.4874H38.3131V35.4595H39.0586V36.4874H40.2559V37.1764H40.2447ZM30.8242 37.8993C30.9033 37.4136 31.197 37.0747 31.7279 37.0747C32.2023 37.0747 32.5073 37.3684 32.5863 37.8993H30.8242ZM33.3431 38.193C33.3318 37.1425 32.688 36.4196 31.7392 36.4196C30.7452 36.4196 30.0562 37.1425 30.0562 38.193C30.0562 39.266 30.7791 39.9664 31.7957 39.9664C32.3039 39.9664 32.7671 39.8421 33.185 39.4919L32.8235 38.9498C32.5412 39.1757 32.1797 39.2999 31.8408 39.2999C31.3664 39.2999 30.9372 39.0853 30.8242 38.4754H33.3318C33.3318 38.385 33.3431 38.2946 33.3431 38.193ZM36.5736 37.3684C36.3703 37.2442 35.9524 37.0747 35.5232 37.0747C35.1165 37.0747 34.8793 37.2216 34.8793 37.4701C34.8793 37.696 35.1391 37.7637 35.4554 37.7976L35.8055 37.8428C36.5397 37.9445 36.9916 38.2607 36.9916 38.8594C36.9916 39.5032 36.4268 39.9664 35.4441 39.9664C34.8906 39.9664 34.3823 39.8195 33.9757 39.5258L34.3258 38.9498C34.5743 39.1418 34.9471 39.2999 35.4554 39.2999C35.9524 39.2999 36.2235 39.1531 36.2235 38.8933C36.2235 38.7013 36.0315 38.5996 35.6248 38.5431L35.2747 38.4979C34.5179 38.3963 34.1112 38.0461 34.1112 37.504C34.1112 36.8262 34.6647 36.4196 35.5232 36.4196C36.0653 36.4196 36.551 36.5438 36.9012 36.7697L36.5736 37.3684ZM45.6552 37.1199C45.5083 37.1199 45.3615 37.1425 45.2372 37.199C45.113 37.2554 45 37.3232 44.8984 37.4249C44.808 37.5152 44.7289 37.6395 44.6725 37.7637C44.616 37.8993 44.5934 38.0461 44.5934 38.2043C44.5934 38.3624 44.616 38.5092 44.6725 38.6448C44.7289 38.7803 44.7967 38.8933 44.8984 38.9837C44.9887 39.074 45.1017 39.1531 45.2372 39.2096C45.3728 39.266 45.5083 39.2886 45.6552 39.2886C45.802 39.2886 45.9489 39.266 46.0731 39.2096C46.2086 39.1531 46.3216 39.0853 46.412 38.9837C46.5136 38.8933 46.5814 38.769 46.6379 38.6448C46.6944 38.5092 46.7169 38.3624 46.7169 38.2043C46.7169 38.0461 46.6944 37.8993 46.6379 37.7637C46.5814 37.6282 46.5136 37.5152 46.412 37.4249C46.3216 37.3345 46.2086 37.2554 46.0731 37.199C45.9376 37.1425 45.802 37.1199 45.6552 37.1199ZM45.6552 36.4196C45.915 36.4196 46.1635 36.4648 46.3894 36.5551C46.6153 36.6455 46.8073 36.7697 46.9654 36.9279C47.1236 37.086 47.2591 37.278 47.3495 37.4927C47.4399 37.7073 47.485 37.9445 47.485 38.2043C47.485 38.4641 47.4399 38.7013 47.3495 38.9159C47.2591 39.1305 47.1349 39.3225 46.9654 39.4807C46.8073 39.6388 46.604 39.763 46.3894 39.8534C46.1635 39.9438 45.9263 39.989 45.6552 39.989C45.3841 39.989 45.1469 39.9438 44.921 39.8534C44.6951 39.763 44.503 39.6388 44.3449 39.4807C44.1868 39.3225 44.0512 39.1305 43.9609 38.9159C43.8705 38.7013 43.8253 38.4641 43.8253 38.2043C43.8253 37.9445 43.8705 37.7073 43.9609 37.4927C44.0512 37.278 44.1755 37.086 44.3449 36.9279C44.503 36.7697 44.6951 36.6455 44.921 36.5551C45.1469 36.4648 45.3841 36.4196 45.6552 36.4196ZM26.5207 38.193C26.5207 37.5943 26.9047 37.1086 27.5486 37.1086C28.1585 37.1086 28.5652 37.5717 28.5652 38.193C28.5652 38.8142 28.1585 39.2773 27.5486 39.2773C26.9047 39.2773 26.5207 38.7916 26.5207 38.193ZM29.2542 38.193V36.4987H28.52V36.9053C28.2828 36.6003 27.9326 36.4083 27.4469 36.4083C26.4981 36.4083 25.7526 37.1538 25.7526 38.1817C25.7526 39.2096 26.4981 39.9551 27.4469 39.9551C27.9326 39.9551 28.2828 39.763 28.52 39.4581V39.8647H29.2542V38.193ZM25.1087 39.8873V37.7637C25.1087 36.9618 24.6005 36.4309 23.7759 36.4196C23.3467 36.4083 22.8948 36.5438 22.5899 37.0182C22.3527 36.6455 21.9912 36.4196 21.4716 36.4196C21.1102 36.4196 20.76 36.5212 20.4776 36.9166V36.4987H19.7434V39.876H20.4889V38.001C20.4889 37.4136 20.8165 37.0973 21.3135 37.0973C21.7992 37.0973 22.0477 37.4136 22.0477 37.9897V39.876H22.7932V38.001C22.7932 37.4136 23.132 37.0973 23.6177 37.0973C24.126 37.0973 24.3632 37.4136 24.3632 37.9897V39.876H25.1087V39.8873Z" fill="#121110"/>
</g>
<defs>
<clipPath id="clip0">
<rect width="41.2284" height="32" fill="white" transform="translate(13 8)"/>
</clipPath>
</defs>
</svg>
