<svg width="68" height="48" viewBox="0 0 68 48" fill="none" xmlns="http://www.w3.org/2000/svg">
<title>Mastercard</title>
<g id="Property 1=Payment, Property 2=Mastercard">
<g id="Group">
<g id="Group_2">
<path id="Vector" d="M51.2423 39.6324V39.7133H51.3169C51.3333 39.7133 51.3475 39.7093 51.3577 39.7031C51.3671 39.6968 51.3726 39.6858 51.3726 39.6725C51.3726 39.6591 51.3671 39.6489 51.3577 39.6426C51.3475 39.6356 51.3333 39.6324 51.3169 39.6324H51.2423ZM51.3176 39.576C51.3561 39.576 51.3859 39.5846 51.4071 39.6019C51.4283 39.6191 51.4384 39.6426 51.4384 39.6725C51.4384 39.6976 51.4306 39.718 51.4133 39.7344C51.3969 39.7501 51.3733 39.7603 51.342 39.7642L51.4408 39.878H51.3639L51.2721 39.765H51.2423V39.878H51.178V39.576H51.3176ZM51.298 39.9823C51.3333 39.9823 51.3663 39.9753 51.3961 39.9619C51.4267 39.9486 51.4534 39.9305 51.4761 39.9078C51.4989 39.885 51.5169 39.8584 51.5302 39.827C51.5428 39.7964 51.5498 39.7635 51.5498 39.7282C51.5498 39.6929 51.5428 39.6599 51.5302 39.6293C51.5169 39.5987 51.4989 39.5713 51.4761 39.5485C51.4534 39.5258 51.4267 39.5077 51.3961 39.4944C51.3663 39.4818 51.3333 39.4756 51.298 39.4756C51.2627 39.4756 51.229 39.4818 51.1984 39.4944C51.167 39.5077 51.1396 39.5258 51.1168 39.5485C51.0941 39.5713 51.076 39.5987 51.0635 39.6293C51.0501 39.6599 51.0439 39.6929 51.0439 39.7282C51.0439 39.7635 51.0501 39.7964 51.0635 39.827C51.076 39.8584 51.0941 39.885 51.1168 39.9078C51.1396 39.9305 51.167 39.9486 51.1984 39.9619C51.229 39.9753 51.2627 39.9823 51.298 39.9823ZM51.298 39.4026C51.3443 39.4026 51.3867 39.4112 51.4275 39.4285C51.4675 39.445 51.502 39.4685 51.5326 39.4983C51.5624 39.5273 51.5859 39.5618 51.6032 39.6019C51.6204 39.6411 51.6291 39.6834 51.6291 39.7282C51.6291 39.7729 51.6204 39.8152 51.6032 39.8545C51.5859 39.8937 51.5624 39.9282 51.5326 39.958C51.502 39.987 51.4675 40.0106 51.4275 40.0278C51.3867 40.0451 51.3443 40.0537 51.298 40.0537C51.251 40.0537 51.2078 40.0451 51.167 40.0278C51.1262 40.0106 51.0909 39.987 51.0611 39.958C51.0313 39.9282 51.0078 39.8937 50.9905 39.8545C50.9733 39.8152 50.9646 39.7729 50.9646 39.7282C50.9646 39.6834 50.9733 39.6411 50.9905 39.6019C51.0078 39.5618 51.0313 39.5273 51.0611 39.4983C51.0909 39.4685 51.1262 39.445 51.167 39.4285C51.2078 39.4112 51.251 39.4026 51.298 39.4026ZM20.7343 38.2392C20.7343 37.6634 21.1116 37.1904 21.7282 37.1904C22.3173 37.1904 22.715 37.643 22.715 38.2392C22.715 38.8354 22.3173 39.2881 21.7282 39.2881C21.1116 39.2881 20.7343 38.815 20.7343 38.2392ZM23.3866 38.2392V36.6013H22.6743V36.999C22.4483 36.704 22.1055 36.5189 21.6395 36.5189C20.7209 36.5189 20.0008 37.239 20.0008 38.2392C20.0008 39.2402 20.7209 39.9596 21.6395 39.9596C22.1055 39.9596 22.4483 39.7744 22.6743 39.4795V39.8772H23.3866V38.2392ZM47.4573 38.2392C47.4573 37.6634 47.8346 37.1904 48.4512 37.1904C49.0411 37.1904 49.438 37.643 49.438 38.2392C49.438 38.8354 49.0411 39.2881 48.4512 39.2881C47.8346 39.2881 47.4573 38.815 47.4573 38.2392ZM50.1103 38.2392V35.2857H49.3973V36.999C49.1713 36.704 48.8285 36.5189 48.3625 36.5189C47.4439 36.5189 46.7238 37.239 46.7238 38.2392C46.7238 39.2402 47.4439 39.9596 48.3625 39.9596C48.8285 39.9596 49.1713 39.7744 49.3973 39.4795V39.8772H50.1103V38.2392ZM32.2283 37.1567C32.6872 37.1567 32.9822 37.4446 33.0575 37.9513H31.3576C31.4337 37.4783 31.7208 37.1567 32.2283 37.1567ZM32.2424 36.5189C31.2823 36.5189 30.6107 37.2178 30.6107 38.2392C30.6107 39.281 31.3097 39.9596 32.2903 39.9596C32.7837 39.9596 33.2356 39.8364 33.6333 39.5007L33.2842 38.9727C33.0097 39.1916 32.6598 39.3155 32.3311 39.3155C31.8722 39.3155 31.4541 39.1029 31.3513 38.513H33.7839C33.791 38.4244 33.7981 38.3349 33.7981 38.2392C33.791 37.2178 33.1603 36.5189 32.2424 36.5189ZM40.8434 38.2392C40.8434 37.6634 41.2207 37.1904 41.8373 37.1904C42.4264 37.1904 42.8242 37.643 42.8242 38.2392C42.8242 38.8354 42.4264 39.2881 41.8373 39.2881C41.2207 39.2881 40.8434 38.815 40.8434 38.2392ZM43.4957 38.2392V36.6013H42.7834V36.999C42.5567 36.704 42.2146 36.5189 41.7487 36.5189C40.83 36.5189 40.1099 37.239 40.1099 38.2392C40.1099 39.2402 40.83 39.9596 41.7487 39.9596C42.2146 39.9596 42.5567 39.7744 42.7834 39.4795V39.8772H43.4957V38.2392ZM36.8206 38.2392C36.8206 39.2332 37.5125 39.9596 38.5684 39.9596C39.0619 39.9596 39.3905 39.8497 39.7467 39.5689L39.4047 38.9931C39.1372 39.1853 38.8563 39.2881 38.5472 39.2881C37.9785 39.281 37.5604 38.8699 37.5604 38.2392C37.5604 37.6085 37.9785 37.1975 38.5472 37.1904C38.8563 37.1904 39.1372 37.2932 39.4047 37.4854L39.7467 36.9096C39.3905 36.6287 39.0619 36.5189 38.5684 36.5189C37.5125 36.5189 36.8206 37.2453 36.8206 38.2392ZM46.0044 36.5189C45.5934 36.5189 45.3259 36.7111 45.1407 36.999V36.6013H44.4347V39.8772H45.1478V38.0408C45.1478 37.4987 45.3808 37.1975 45.8467 37.1975C45.9911 37.1975 46.1417 37.2178 46.2923 37.2798L46.512 36.6083C46.3543 36.5463 46.1488 36.5189 46.0044 36.5189ZM26.9096 36.8617C26.5668 36.6358 26.0945 36.5189 25.5737 36.5189C24.7437 36.5189 24.2095 36.9166 24.2095 37.5677C24.2095 38.1019 24.6072 38.4314 25.3399 38.5342L25.6764 38.582C26.0671 38.637 26.2514 38.7397 26.2514 38.9249C26.2514 39.1782 25.991 39.3226 25.5046 39.3226C25.0112 39.3226 24.655 39.1649 24.415 38.9798L24.0792 39.5344C24.4699 39.8223 24.9633 39.9596 25.4976 39.9596C26.4436 39.9596 26.992 39.514 26.992 38.8903C26.992 38.3145 26.5605 38.0133 25.8474 37.9105L25.5117 37.8619C25.2034 37.8211 24.9563 37.7599 24.9563 37.5403C24.9563 37.3002 25.1893 37.1567 25.5799 37.1567C25.9981 37.1567 26.4028 37.3143 26.6013 37.4375L26.9096 36.8617ZM36.1005 36.5189C35.6894 36.5189 35.4219 36.7111 35.2376 36.999V36.6013H34.5315V39.8772H35.2438V38.0408C35.2438 37.4987 35.4768 37.1975 35.9428 37.1975C36.0871 37.1975 36.2378 37.2178 36.3884 37.2798L36.608 36.6083C36.4503 36.5463 36.2448 36.5189 36.1005 36.5189ZM30.0216 36.6013H28.8567V35.6073H28.1365V36.6013H27.4721V37.2524H28.1365V38.7468C28.1365 39.5069 28.4315 39.9596 29.274 39.9596C29.5831 39.9596 29.9392 39.8639 30.1652 39.7062L29.9596 39.0959C29.747 39.219 29.5141 39.281 29.3289 39.281C28.9728 39.281 28.8567 39.0614 28.8567 38.7327V37.2524H30.0216V36.6013ZM19.3708 39.8772V37.8211C19.3708 37.0468 18.8774 36.5259 18.082 36.5189C17.6638 36.5118 17.2324 36.642 16.9304 37.1017C16.7044 36.7385 16.3483 36.5189 15.8478 36.5189C15.4979 36.5189 15.1559 36.6216 14.8884 37.0053V36.6013H14.1753V39.8772H14.8947V38.0612C14.8947 37.4924 15.21 37.1904 15.6972 37.1904C16.1702 37.1904 16.4095 37.4987 16.4095 38.0541V39.8772H17.1296V38.0612C17.1296 37.4924 17.4583 37.1904 17.9313 37.1904C18.4177 37.1904 18.6507 37.4987 18.6507 38.0541V39.8772H19.3708Z" fill="#231F20"/>
</g>
<g id="Group_3">
<path id="Vector_2" d="M51.681 28.9834V28.5049H51.5563L51.412 28.8336L51.2684 28.5049H51.1429V28.9834H51.2315V28.6225L51.3665 28.934H51.4582L51.5932 28.6218V28.9834H51.681ZM50.8895 28.9834V28.5865H51.0495V28.5057H50.6416V28.5865H50.8016V28.9834H50.8895Z" fill="#F79410"/>
</g>
<path id="Vector_3" d="M37.498 31.0412H26.7024V11.6396H37.498V31.0412Z" fill="#FF5F00"/>
<g id="Group_4">
<path id="Vector_4" d="M27.3942 21.3388C27.3942 17.4031 29.2369 13.8973 32.1065 11.638C30.008 9.98592 27.3596 8.99984 24.4814 8.99984C17.6675 8.99984 12.144 14.5241 12.144 21.3388C12.144 28.1535 17.6675 33.6777 24.4814 33.6777C27.3596 33.6777 30.008 32.6917 32.1065 31.0396C29.2369 28.7803 27.3942 25.2745 27.3942 21.3388Z" fill="#EB001B"/>
</g>
<g id="Group_5">
<path id="Vector_5" d="M52.0582 21.3388C52.0582 28.1535 46.5347 33.6777 39.7208 33.6777C36.8426 33.6777 34.1942 32.6917 32.095 31.0396C34.9654 28.7803 36.8081 25.2745 36.8081 21.3388C36.8081 17.4031 34.9654 13.8973 32.095 11.638C34.1942 9.98592 36.8426 8.99984 39.7208 8.99984C46.5347 8.99984 52.0582 14.5241 52.0582 21.3388Z" fill="#F79E1B"/>
</g>
</g>
</g>
</svg>
