<svg width="68" height="48" viewBox="0 0 68 48" fill="none" xmlns="http://www.w3.org/2000/svg">
<path d="M20.3356 31.4346L20.2325 32.2196C20.1859 32.6065 20.4909 32.9467 20.8862 32.9467H46.4188C46.8155 32.9467 47.1205 32.6065 47.0753 32.2196L46.9694 31.4346C46.9059 30.8233 47.3521 30.2642 47.962 30.2006C48.5762 30.1343 49.1183 30.5818 49.1819 31.1918L49.2807 31.9556C49.4798 33.6626 48.5112 35.162 46.7859 35.162H20.5205C18.7952 35.162 17.8266 33.664 18.0257 31.9556L18.1245 31.1918C18.1895 30.5818 18.7302 30.1343 19.3416 30.2006C19.9529 30.2656 20.3977 30.8233 20.3356 31.4346Z" fill="#D60510"/>
<path d="M43.9377 25.5149C45.1802 25.5177 46.1699 24.6127 46.1445 23.4211C46.1191 22.2012 45.0094 21.4133 43.7711 21.4119H41.2721C40.7186 21.4119 40.264 20.9517 40.264 20.3756C40.264 19.7981 40.7172 19.3365 41.2721 19.3365H42.9424C44.0676 19.2913 44.936 18.6093 44.9896 17.5448C45.0461 16.4054 44.0662 15.5498 42.8675 15.5498H38.8154L38.7985 25.5163H43.9377V25.5149ZM47.01 17.5377C47.01 18.5769 46.6415 19.1656 46.0316 19.8899L45.9709 19.9633L46.0556 20.0156C47.2627 20.7512 48.1056 21.8637 48.1678 23.4253C48.2609 25.7521 46.29 27.6765 43.949 27.6723H37.7791C37.179 27.6723 36.6934 27.1724 36.6934 26.5583V14.5911C36.6934 13.9741 37.179 13.4771 37.7763 13.4771L42.8704 13.4912C45.0913 13.4926 47.01 15.1248 47.01 17.5377Z" fill="black"/>
<path d="M27.1238 23.5693L27.152 23.6541L27.1831 23.5693C27.4697 22.7815 27.8142 21.909 28.1798 20.9573C28.5568 19.9563 28.9324 18.9991 29.3079 18.087C29.6877 17.1608 30.0464 16.3348 30.3895 15.6148C30.7311 14.8792 31.0149 14.3737 31.2338 14.097C31.5712 13.6932 32.0174 13.4899 32.5722 13.4899H32.8278C33.1681 13.4899 33.4335 13.5788 33.6326 13.7482C33.8147 13.9078 33.9234 14.0913 33.9545 14.3017L35.5485 26.667C35.5485 26.9861 35.4567 27.2318 35.276 27.4153C35.0953 27.5862 34.8369 27.6709 34.4995 27.6709C34.162 27.6709 33.8938 27.5904 33.6975 27.4337C33.4801 27.277 33.3558 27.0708 33.3248 26.8153C33.2711 26.4044 33.2217 25.947 33.1723 25.4457C33.1017 24.9459 32.8532 22.7886 32.7826 22.245C32.7177 21.6845 32.2687 18.1915 32.1162 16.9222L32.1021 16.8149L31.591 17.8865C31.4173 18.255 31.2295 18.6983 31.0234 19.2137C30.8201 19.729 30.6111 20.274 30.4064 20.8486C30.1833 21.4063 29.1964 24.2273 29.1964 24.2273C29.1046 24.4828 28.931 24.9982 28.7743 25.4726C28.6147 25.9441 28.4693 26.3705 28.4298 26.4524C28.1954 26.9183 27.7379 27.2261 27.1562 27.2304C26.5675 27.2275 26.11 26.9183 25.8785 26.4524C25.8361 26.3705 25.6907 25.9427 25.5311 25.4726C25.3716 24.9982 25.2022 24.4828 25.1062 24.2273C25.1062 24.2273 24.1192 21.4063 23.899 20.8486C23.6929 20.274 23.4867 19.7304 23.2806 19.2137C23.0745 18.6983 22.8867 18.255 22.7172 17.8865L22.2033 16.8149L22.192 16.9222C22.0367 18.1915 21.592 21.6845 21.5242 22.245C21.4536 22.7886 21.2051 24.9459 21.1373 25.4457C21.0851 25.947 21.0343 26.4044 20.9806 26.8153C20.9496 27.0708 20.8253 27.277 20.6107 27.4337C20.4116 27.5904 20.1448 27.6709 19.8059 27.6709C19.4685 27.6709 19.2129 27.5862 19.0322 27.4153C18.8515 27.2318 18.7597 26.9833 18.7583 26.667L20.3523 14.3017C20.3876 14.0913 20.4935 13.9078 20.6756 13.7482C20.8733 13.5788 21.143 13.4899 21.4776 13.4899H21.736C22.2923 13.4899 22.737 13.6946 23.073 14.097C23.2933 14.3737 23.5743 14.8778 23.9173 15.6148C24.2619 16.3348 24.6205 17.1608 24.9989 18.087C25.3744 18.9991 25.7514 19.9563 26.1298 20.9573C26.4926 21.909 26.8371 22.7815 27.1238 23.5693Z" fill="black"/>
<path d="M23.9948 6H43.3885C45.2155 6 46.1247 7.37236 46.3379 9.18099L46.4198 9.75986C46.4848 10.3811 46.0287 10.9374 45.4188 11.0023C44.8074 11.0673 44.2582 10.6183 44.1947 9.99706L44.117 9.4436C44.0351 8.75601 43.7443 8.22655 43.0454 8.22655H24.3379C23.639 8.22655 23.3481 8.75601 23.2662 9.4436L23.1914 9.99706C23.1279 10.6183 22.5801 11.0687 21.9645 11.0023C21.3531 10.9374 20.8971 10.3811 20.9635 9.75986L21.0453 9.18099C21.2614 7.37094 22.1692 6 23.9948 6Z" fill="#D60510"/>
<path d="M31.2245 39.4889C31.1683 39.7061 31.1103 39.9382 31.0493 40.185C30.9883 40.4307 30.9274 40.6669 30.8676 40.8918C30.8084 41.1168 30.7527 41.3133 30.6983 41.4838C30.645 41.6537 30.6 41.7697 30.5645 41.8324C30.5017 41.9437 30.3905 41.9988 30.2324 41.9988C30.188 41.9988 30.1312 41.9899 30.0596 41.9715C29.9885 41.9538 29.9299 41.9035 29.8814 41.8212C29.8459 41.7584 29.8015 41.6365 29.7476 41.4542C29.6943 41.2724 29.6387 41.0641 29.5783 40.8267C29.5191 40.5899 29.4605 40.3389 29.4001 40.0743C29.3409 39.8097 29.2871 39.5652 29.2397 39.3368C29.1923 39.1106 29.1521 38.9159 29.1207 38.7566C29.0893 38.5962 29.0716 38.5021 29.0674 38.4695C29.0633 38.45 29.0615 38.4364 29.0615 38.4281V38.4044C29.0615 38.3375 29.0864 38.2825 29.1385 38.241C29.1894 38.1996 29.2533 38.1789 29.3285 38.1789C29.4001 38.1789 29.4575 38.1949 29.5013 38.2239C29.5446 38.2523 29.5759 38.3056 29.5955 38.3802C29.5955 38.3879 29.6073 38.4459 29.628 38.5524C29.6505 38.6584 29.6783 38.7951 29.7115 38.9603C29.7458 39.1266 29.7831 39.3113 29.8246 39.5167C29.866 39.7221 29.9092 39.9305 29.9554 40.1418C30.0004 40.352 30.0465 40.5556 30.0921 40.7545C30.1371 40.951 30.1797 41.1215 30.22 41.263C30.259 41.1292 30.3023 40.9759 30.3508 40.8036C30.3982 40.6325 30.4461 40.4544 30.4935 40.272C30.5408 40.0879 30.5858 39.905 30.6302 39.7215C30.6734 39.5374 30.7137 39.3669 30.7521 39.2095C30.7894 39.0514 30.822 38.9117 30.8492 38.7898C30.8765 38.6667 30.8984 38.5761 30.9149 38.5163C30.9345 38.4417 30.9718 38.3825 31.0268 38.3393C31.0836 38.2961 31.1499 38.2736 31.2293 38.2736C31.3157 38.2736 31.3873 38.2973 31.4435 38.3423C31.4974 38.3879 31.5341 38.4465 31.5495 38.5163C31.5939 38.7099 31.6407 38.9265 31.6922 39.1651C31.7431 39.4031 31.7975 39.6452 31.8526 39.8896C31.9088 40.1341 31.9668 40.3744 32.0248 40.6095C32.0846 40.8445 32.142 41.0528 32.1977 41.234C32.2368 41.0925 32.28 40.922 32.3256 40.7255C32.3705 40.5266 32.4167 40.3241 32.4641 40.1152C32.512 39.9068 32.5576 39.699 32.6008 39.4936C32.6452 39.2888 32.6843 39.1041 32.721 38.9401C32.7565 38.7768 32.7849 38.643 32.8068 38.5412C32.8287 38.4382 32.8394 38.3849 32.8394 38.3807C32.8589 38.3062 32.8903 38.2529 32.9347 38.2245C32.9779 38.1949 33.0359 38.1795 33.1069 38.1795C33.1815 38.1795 33.2454 38.2002 33.2964 38.2416C33.3484 38.2831 33.3739 38.3381 33.3739 38.405V38.4287C33.3739 38.4364 33.3721 38.4506 33.368 38.4701C33.365 38.5027 33.3455 38.5968 33.3112 38.7572C33.2786 38.9165 33.2377 39.1112 33.1904 39.3373C33.1424 39.5652 33.0892 39.8091 33.0294 40.072C32.9714 40.3342 32.9122 40.584 32.8553 40.8202C32.7973 41.057 32.7423 41.2659 32.6884 41.4453C32.6351 41.6241 32.5902 41.746 32.5546 41.8087C32.5073 41.8916 32.4475 41.9443 32.3741 41.9662C32.3001 41.9881 32.2421 41.9988 32.1989 41.9988C32.1823 41.9988 32.1598 41.997 32.1272 41.9928C32.0959 41.9881 32.0621 41.981 32.026 41.9686C31.9905 41.9573 31.955 41.9384 31.9201 41.9129C31.8834 41.8863 31.8561 41.852 31.8366 41.8087C31.8011 41.7342 31.7579 41.6093 31.7087 41.4364C31.6596 41.2624 31.6057 41.067 31.5483 40.8474C31.4915 40.6278 31.4341 40.3993 31.379 40.1602C31.3234 39.9216 31.2713 39.6973 31.2245 39.4889Z" fill="black"/>
<path d="M34.3311 40.904C34.2713 41.094 34.2192 41.2687 34.1736 41.4303C34.1274 41.5919 34.0854 41.725 34.0457 41.8275C34.0014 41.9423 33.9149 41.9997 33.7841 41.9997C33.6929 41.9997 33.6266 41.9772 33.5846 41.9316C33.5432 41.8855 33.5225 41.8275 33.5225 41.7564C33.5225 41.7292 33.5266 41.7031 33.5343 41.6789C33.542 41.6564 33.5669 41.5747 33.6089 41.4368C33.6503 41.2994 33.7042 41.1272 33.7723 40.9218C33.8392 40.7164 33.9137 40.4914 33.9942 40.2475C34.0759 40.0031 34.1594 39.761 34.247 39.5218C34.3334 39.2827 34.4193 39.0595 34.5027 38.8535C34.5856 38.6463 34.6632 38.4788 34.7336 38.3533C34.7662 38.2864 34.8082 38.2402 34.8615 38.2165C34.9153 38.1929 34.9875 38.181 35.0793 38.181C35.1669 38.181 35.2403 38.1958 35.3013 38.2225C35.3634 38.2509 35.4055 38.2982 35.4291 38.3651C35.4854 38.4829 35.5523 38.6422 35.6286 38.8411C35.7056 39.0405 35.7873 39.256 35.8713 39.4869C35.9572 39.7177 36.0406 39.9539 36.1241 40.1937C36.2076 40.4346 36.2845 40.6589 36.3532 40.8661C36.4218 41.0727 36.4822 41.2497 36.5314 41.3959C36.5805 41.5421 36.6119 41.6368 36.6237 41.6789C36.6308 41.7037 36.6355 41.7292 36.6355 41.7564C36.6355 41.8275 36.6119 41.8855 36.5639 41.9316C36.5166 41.9766 36.4467 41.9997 36.3561 41.9997C36.2887 41.9997 36.2383 41.9849 36.204 41.9541C36.1714 41.9257 36.1442 41.8825 36.1241 41.8275C36.085 41.725 36.0377 41.5919 35.9844 41.4303C35.9311 41.2692 35.8743 41.094 35.8151 40.904H34.3311ZM35.6499 40.3884C35.5665 40.1321 35.4877 39.8959 35.412 39.6816C35.3362 39.4662 35.2598 39.2619 35.1799 39.0684C35.1604 39.0252 35.1397 38.976 35.1178 38.9168C35.0959 38.8606 35.0834 38.8263 35.0793 38.8144C35.0752 38.8174 35.0615 38.8505 35.0408 38.9115C35.0183 38.9725 34.9976 39.0246 34.9781 39.0678C34.8993 39.2613 34.8224 39.4662 34.7484 39.681C34.6756 39.8953 34.5969 40.1315 34.5146 40.3878H35.6499V40.3884Z" fill="black"/>
<path d="M37.6637 40.5069C37.6441 40.488 37.6252 40.4655 37.6074 40.4418C37.5891 40.4193 37.5701 40.3909 37.5506 40.3595C37.4944 40.2808 37.4358 40.1855 37.3695 40.0724C37.3038 39.9605 37.2387 39.8404 37.1729 39.7149C37.1078 39.5882 37.0451 39.4603 36.9841 39.3325C36.922 39.2046 36.8663 39.0856 36.8178 38.9755C36.7675 38.8642 36.7254 38.7684 36.6899 38.6884C36.6532 38.6067 36.6307 38.5499 36.6242 38.5185C36.6165 38.499 36.6118 38.4842 36.6094 38.4742C36.6082 38.4641 36.6064 38.4493 36.6064 38.4298C36.6064 38.3587 36.6313 38.2989 36.6804 38.2528C36.7308 38.2048 36.7982 38.1811 36.8858 38.1811C36.9646 38.1811 37.0208 38.2007 37.0551 38.2403C37.0883 38.2806 37.1143 38.3202 37.1291 38.3593C37.1368 38.38 37.1564 38.4221 37.186 38.4889C37.2156 38.557 37.2517 38.6393 37.2949 38.7376C37.3381 38.8358 37.3884 38.9448 37.4435 39.0631C37.5003 39.1821 37.5553 39.2981 37.6134 39.413C37.6702 39.5272 37.7264 39.6362 37.7797 39.7415C37.833 39.8457 37.8839 39.9315 37.9312 39.999C38.007 39.8842 38.0875 39.7403 38.1751 39.5663C38.2615 39.3923 38.345 39.2212 38.4237 39.0519C38.5031 38.882 38.5711 38.7316 38.6291 38.6014C38.686 38.4706 38.7203 38.3901 38.7333 38.3587C38.7493 38.3197 38.7736 38.28 38.8073 38.2397C38.8405 38.2007 38.8979 38.1805 38.9766 38.1805C39.0642 38.1805 39.1317 38.2042 39.182 38.2522C39.2312 38.2983 39.256 38.3581 39.256 38.4292C39.256 38.4487 39.2548 38.4635 39.2531 38.4736C39.2513 38.4836 39.246 38.4984 39.2395 38.518C39.227 38.5493 39.2039 38.6062 39.1708 38.6902C39.1376 38.7725 39.095 38.8702 39.0453 38.9803C38.9962 39.0904 38.9411 39.2105 38.8801 39.3384C38.818 39.4674 38.7552 39.5941 38.6901 39.7208C38.6244 39.8463 38.5593 39.9676 38.4936 40.0819C38.4285 40.1961 38.3675 40.2932 38.3125 40.3719C38.2769 40.4229 38.2385 40.469 38.1994 40.5075V41.7334C38.1994 41.8122 38.1751 41.8761 38.1248 41.9264C38.0757 41.9744 38.0117 42.0004 37.9318 42.0004C37.8519 42.0004 37.7886 41.975 37.7389 41.9264C37.6885 41.8761 37.6643 41.8122 37.6643 41.7334V40.5069H37.6637Z" fill="black"/>
</svg>
