<svg width="68" height="48" viewBox="0 0 68 48" fill="none" xmlns="http://www.w3.org/2000/svg">
<path d="M25.2078 38.5598C25.2078 38.356 25.3594 38.2031 25.5617 38.2031C25.7639 38.2031 25.9156 38.356 25.9156 38.5598V40.42C25.9156 40.8532 25.7386 41.2354 25.4606 41.5157C25.1825 41.796 24.8033 41.9744 24.3736 41.9744C23.9438 41.9744 23.5646 41.796 23.2866 41.5157C23.0085 41.2354 22.8315 40.8532 22.8315 40.42V38.5598C22.8315 38.356 22.9832 38.2031 23.1854 38.2031C23.3877 38.2031 23.5394 38.356 23.5394 38.5598V40.42C23.5394 40.6493 23.6405 40.8786 23.7921 41.0315C23.9438 41.1844 24.1713 41.2864 24.3988 41.2864C24.6264 41.2864 24.8539 41.1844 25.0055 41.0315C25.1572 40.8786 25.2583 40.6493 25.2583 40.42V38.5598H25.2078Z" fill="#373536"/>
<path d="M28.4682 41.2864C28.6704 41.2864 28.8221 41.4393 28.8221 41.6431C28.8221 41.847 28.6704 41.9999 28.4682 41.9999H27.5329C27.179 41.9999 26.8503 41.847 26.6228 41.6177C26.3953 41.3883 26.2437 41.0571 26.2437 40.7003V38.5853C26.2437 38.3815 26.3953 38.2286 26.5976 38.2286C26.7998 38.2286 26.9515 38.3815 26.9515 38.5853V40.7003C26.9515 40.8787 27.0273 41.0316 27.1284 41.1335C27.2295 41.2354 27.3812 41.3119 27.5582 41.3119H28.4682V41.2864Z" fill="#373536"/>
<path d="M22.6794 41.5921C22.7047 41.7705 22.5783 41.9488 22.376 41.9743C22.1991 41.9998 22.0221 41.8724 21.9969 41.6685L21.6935 39.1713L20.6571 41.6176C20.5812 41.7959 20.379 41.8724 20.202 41.7959C20.1262 41.7705 20.0504 41.694 20.0251 41.6176L18.9886 39.1713L18.6853 41.6685C18.66 41.8469 18.4831 41.9998 18.3061 41.9743C18.1292 41.9488 17.9775 41.7705 18.0028 41.5921L18.3567 38.6872C18.382 38.5088 18.4831 38.3304 18.66 38.254C18.6853 38.254 18.7106 38.2285 18.7359 38.2285H18.7611C18.7864 38.2285 18.8117 38.203 18.8623 38.203C19.0392 38.1775 19.2162 38.2285 19.3426 38.3559C19.3678 38.3814 19.3931 38.4069 19.4184 38.4324C19.4437 38.4578 19.4437 38.4833 19.469 38.5088C19.469 38.5088 19.4942 38.5343 19.4942 38.5598L20.379 40.6493L21.2638 38.5598C21.3396 38.3814 21.4913 38.2795 21.6682 38.2285C21.6935 38.2285 21.7441 38.2285 21.7693 38.203C21.7946 38.203 21.8199 38.203 21.8452 38.203H21.8705C22.0474 38.2285 22.1991 38.3304 22.3002 38.4833C22.3255 38.5088 22.3255 38.5598 22.3508 38.5853C22.3508 38.6107 22.376 38.6362 22.376 38.6617C22.376 38.6872 22.376 38.6872 22.376 38.7127L22.6794 41.5921Z" fill="#373536"/>
<path d="M29.9592 41.6175C29.9592 41.8214 29.8075 41.9743 29.6053 41.9743C29.4284 41.9743 29.2514 41.8214 29.2514 41.6175V38.891H28.2655C28.0633 38.891 27.9116 38.7381 27.9116 38.5342C27.9116 38.3304 28.0633 38.1775 28.2655 38.1775H29.58H30.8945C31.0968 38.1775 31.2485 38.3304 31.2485 38.5342C31.2485 38.7381 31.0968 38.891 30.8945 38.891H29.9087V41.6175H29.9592Z" fill="#373536"/>
<path d="M32.1082 41.6175C32.1082 41.8214 31.9565 41.9743 31.7543 41.9743C31.5521 41.9743 31.4004 41.8214 31.4004 41.6175V38.5342C31.4004 38.3304 31.5521 38.1775 31.7543 38.1775C31.9565 38.1775 32.1082 38.3304 32.1082 38.5342V41.6175Z" fill="#373536"/>
<path d="M39.1352 41.5921C39.1604 41.7705 39.034 41.9489 38.8318 41.9744C38.6549 41.9998 38.4779 41.8724 38.4526 41.6686L38.3262 40.7003H37.1381C36.9359 40.7003 36.7842 40.5474 36.7842 40.3435C36.7842 40.1397 36.9359 39.9868 37.1381 39.9868H38.2504L38.2251 39.732V39.7065C38.2251 39.6555 38.1998 39.5791 38.1746 39.5281C38.1493 39.4517 38.124 39.4007 38.0987 39.3497C37.9723 39.0694 37.7195 38.8911 37.4162 38.8911C37.3656 38.8911 37.2898 38.8911 37.2392 38.9166C37.1887 38.9166 37.1381 38.942 37.0876 38.9675C36.8348 39.0949 36.6578 39.4007 36.6073 39.732L36.405 41.6431C36.3797 41.8215 36.2028 41.9744 36.0258 41.9489C35.8489 41.9234 35.6972 41.745 35.7225 41.5667L35.9247 39.6555C36.0006 39.0949 36.3039 38.5853 36.7842 38.356C36.8853 38.305 36.9864 38.2795 37.0876 38.254C37.1887 38.2285 37.3151 38.2031 37.4162 38.2031C38.0229 38.2031 38.4779 38.5598 38.7307 39.044C38.7813 39.1459 38.8065 39.2478 38.8571 39.3497C38.8824 39.4262 38.9077 39.5281 38.9077 39.63V39.6555L39.1352 41.5921Z" fill="#373536"/>
<path d="M40.198 41.6176C40.198 41.8215 40.0464 41.9744 39.8441 41.9744C39.6419 41.9744 39.4902 41.8215 39.4902 41.6176V38.7637C39.4902 38.7382 39.4902 38.7127 39.4902 38.7127C39.4902 38.6618 39.5155 38.6363 39.5155 38.6108C39.5155 38.5853 39.5408 38.5598 39.5408 38.5598C39.5913 38.4579 39.6925 38.3815 39.8189 38.3305C39.8441 38.3305 39.8441 38.3305 39.8694 38.3305H39.8947C39.92 38.3305 39.9453 38.3305 39.9705 38.3305C40.1222 38.3305 40.2486 38.4069 40.3244 38.5089L42.1445 40.8532V38.5853C42.1445 38.3815 42.2962 38.2286 42.4984 38.2286C42.7007 38.2286 42.8523 38.3815 42.8523 38.5853V41.4393C42.8523 41.5922 42.7765 41.7196 42.6754 41.8215C42.6501 41.847 42.6248 41.847 42.5996 41.8725C42.5743 41.8725 42.5743 41.8979 42.549 41.8979H42.5237C42.3973 41.9489 42.2709 41.9234 42.1445 41.8725C42.1193 41.8725 42.1193 41.847 42.094 41.847C42.0687 41.8215 42.0434 41.8215 42.0181 41.796C41.9929 41.796 41.9929 41.7705 41.9676 41.7451V41.7196L40.1475 39.3753V41.6176H40.198Z" fill="#373536"/>
<path d="M45.5564 41.2864C45.7586 41.2864 45.9103 41.4392 45.9103 41.6431C45.9103 41.847 45.7586 41.9998 45.5564 41.9998H44.5452C44.1661 41.9998 43.8374 41.847 43.5846 41.5921C43.3318 41.3373 43.1802 41.0061 43.1802 40.6238V39.5791C43.1802 39.1969 43.3318 38.8656 43.5846 38.6108C43.8374 38.356 44.1661 38.2031 44.5452 38.2031H45.5564C45.7586 38.2031 45.9103 38.356 45.9103 38.5598C45.9103 38.7637 45.7586 38.9166 45.5564 38.9166H44.5452C44.3683 38.9166 44.1913 38.993 44.0649 39.1204C43.9385 39.2478 43.8627 39.4007 43.8627 39.6046V40.6493C43.8627 40.8277 43.9385 41.0061 44.0649 41.1335C44.1913 41.2609 44.343 41.3373 44.5452 41.3373H45.5564V41.2864Z" fill="#373536"/>
<path d="M47.5545 38.2031C47.9842 38.2031 48.3887 38.3814 48.6921 38.6617C48.9954 38.942 49.1724 39.3497 49.1724 39.7575V40.3945C49.1724 40.8277 48.9954 41.2099 48.6921 41.5157C48.414 41.796 48.0095 41.9744 47.5798 41.9744C47.15 41.9744 46.7456 41.796 46.4422 41.5157C46.1389 41.2354 45.9619 40.8532 45.9619 40.42V39.7829C45.9619 39.3497 46.1389 38.9675 46.4422 38.6617C46.695 38.3814 47.0995 38.2031 47.5545 38.2031ZM47.5545 38.8911C47.3017 38.8911 47.0742 38.993 46.8972 39.1459C46.7456 39.2988 46.6444 39.5281 46.6444 39.7575V40.3945C46.6444 40.6238 46.7456 40.8532 46.8972 41.0061C47.0742 41.1589 47.3017 41.2609 47.5545 41.2609C47.8073 41.2609 48.0348 41.1589 48.2117 41.0061C48.3634 40.8532 48.4645 40.6238 48.4645 40.3945V39.7575C48.4645 39.5281 48.3634 39.2988 48.2117 39.1459C48.0348 38.993 47.8073 38.8911 47.5545 38.8911Z" fill="#373536"/>
<path d="M32.3853 40.0632V38.5598C32.3853 38.5088 32.3853 38.4579 32.4105 38.4324C32.4358 38.3814 32.4611 38.356 32.4864 38.305C32.5369 38.254 32.6128 38.2031 32.7139 38.2031H32.7392H34.0537C34.357 38.2031 34.6351 38.3305 34.8373 38.5343C35.0396 38.7382 35.1659 39.0185 35.1659 39.3243C35.1659 39.5281 35.1154 39.732 34.989 39.9103C35.0648 39.9613 35.1154 40.0123 35.1912 40.0632L35.2165 40.0887C35.3935 40.2926 35.5199 40.5729 35.5199 40.8532C35.5199 41.1589 35.3935 41.4392 35.1912 41.6431C34.989 41.847 34.7109 41.9744 34.4076 41.9744H32.7392C32.5369 41.9744 32.3853 41.8215 32.3853 41.6176V40.0632V40.0632ZM33.0678 38.8911V40.0632V41.2864H34.3823C34.5087 41.2864 34.6098 41.2354 34.6856 41.1589C34.7615 41.0825 34.812 40.9806 34.812 40.8532C34.812 40.7512 34.7615 40.6493 34.6856 40.5474H34.6604C34.5845 40.4709 34.4834 40.42 34.357 40.42H34.0284H33.902C33.725 40.42 33.5481 40.2671 33.5481 40.0632C33.5481 39.8849 33.6998 39.7065 33.902 39.7065H34.0284H34.0537C34.1548 39.7065 34.2559 39.6555 34.3065 39.5791C34.3823 39.5026 34.4329 39.4007 34.4329 39.2988C34.4329 39.1969 34.3823 39.0949 34.3065 39.0185C34.2306 38.942 34.1295 38.8911 34.0284 38.8911H33.0678V38.8911Z" fill="#373536"/>
<path fill-rule="evenodd" clip-rule="evenodd" d="M25.1952 6H43.4208H44.3826C45.739 6 46.8242 7.16843 46.8242 8.61032V9.85333C46.8242 11.6184 44.4566 11.6184 44.4566 9.85333V9.1821C44.4566 8.75948 44.1113 8.38658 43.6674 8.38658H24.4554C24.0361 8.38658 23.6662 8.73462 23.6662 9.1821V9.85333C23.6662 11.6184 21.3972 11.5935 21.3972 9.90305V8.61032C21.3972 7.16843 22.507 6 23.8635 6H25.1952ZM33.9997 35.161H46.4296C49.2658 35.161 49.2904 32.128 49.0191 30.6116C48.8712 29.5923 47.1695 29.6172 46.9722 30.6116V31.78C46.9722 32.3269 46.5282 32.7495 46.0103 32.7495H33.9997H33.0379H22.1371C21.5945 32.7495 21.1753 32.3021 21.1753 31.78V30.6116C20.978 29.6172 19.2763 29.5923 19.1283 30.6116C18.8323 32.1032 18.857 35.161 21.7178 35.161H33.0379H33.9997Z" fill="#1866AC"/>
<path fill-rule="evenodd" clip-rule="evenodd" d="M41.6702 19.3748H43.6432V19.35C44.5557 19.2008 45.2462 18.4301 45.2462 17.4606C45.2462 16.4165 44.4077 15.5712 43.3719 15.5712H39.3766V25.5153H44.4324C45.4929 25.5153 46.3807 24.6203 46.3807 23.5513C46.3807 22.4823 45.4929 21.5874 44.4324 21.5874H43.6432H41.6702C41.0783 21.5874 40.585 21.0902 40.585 20.4935C40.585 19.872 41.0783 19.3748 41.6702 19.3748ZM46.3561 20.3692C47.6878 20.9907 48.6003 22.3083 48.6003 23.7999C48.6003 25.913 46.7753 27.6284 44.5557 27.6284H38.2914C37.6995 27.6284 37.231 27.1809 37.231 26.634V14.6265C37.231 14.0547 37.6995 13.5824 38.2668 13.5824H43.4706C45.6655 13.5824 47.4412 15.3972 47.4412 17.5849C47.4659 18.6539 47.0219 19.6483 46.3561 20.3692Z" fill="#373536"/>
<path d="M36.2451 26.41C36.319 27.106 35.8258 27.7276 35.1352 27.8021C34.4447 27.8767 33.8281 27.3795 33.7542 26.6834L32.7183 17.162L29.0683 26.4597V26.4845V26.5094V26.5343V26.5591V26.584C28.9943 26.7083 28.9203 26.8326 28.8217 26.9072L28.797 26.932C28.723 26.9817 28.649 27.0315 28.575 27.0812L28.5011 27.1309H28.4764H28.4517H28.4271H28.4024H28.3777H28.3531H28.3284H28.3038C28.1804 27.1806 28.0571 27.2055 27.9338 27.2055H27.9092H27.8845H27.8598H27.8352H27.8105H27.7858C27.6379 27.2055 27.5146 27.1806 27.3666 27.1309H27.3419H27.3173H27.2926H27.2679H27.2433H27.2186H27.194H27.1693C27.0953 27.0812 27.046 27.0563 26.972 27.0066C26.9473 27.0066 26.9473 26.9817 26.9227 26.9817L26.898 26.9569L26.8733 26.932C26.8487 26.9072 26.8487 26.9072 26.8487 26.8823C26.7994 26.8326 26.75 26.758 26.7254 26.6834V26.6586V26.6337V26.6088V26.584V26.5591V26.5343V26.5094V26.4845L23.1 17.162L22.0642 26.6834C21.9902 27.3795 21.3736 27.8767 20.6831 27.8021C19.9925 27.7276 19.4993 27.106 19.5733 26.41L20.7817 15.1732C20.8064 15.0489 20.831 14.9246 20.8557 14.7754C20.905 14.6511 20.9544 14.5268 21.0037 14.4025C21.3243 13.8059 21.8915 13.4081 22.5574 13.3087C22.5821 13.3087 22.6067 13.3087 22.6314 13.3087C22.7301 13.3087 22.8534 13.2838 22.952 13.3087C23.0753 13.3087 23.2233 13.3335 23.3219 13.3584C23.9632 13.5075 24.5304 13.955 24.777 14.6262L27.8845 22.5566L30.992 14.6262C31.2632 13.955 31.8058 13.5075 32.447 13.3584C32.5704 13.3335 32.6937 13.3087 32.817 13.3087C32.9156 13.3087 33.0389 13.3087 33.1376 13.3087C33.1623 13.3087 33.1869 13.3087 33.2116 13.3087C33.9021 13.4081 34.4694 13.8059 34.7653 14.4025C34.8393 14.5268 34.8886 14.6511 34.9133 14.7754C34.9626 14.8997 34.9873 15.024 34.9873 15.1732L36.2451 26.41Z" fill="#373536"/>
</svg>
