<svg width="68" height="48" viewBox="0 0 68 48" fill="none" xmlns="http://www.w3.org/2000/svg">
<title>Paypal</title>
<g id="Property 1=Payment, Property 2=Paypal">
<g id="Group">
<path id="Vector" d="M40.2849 32.3203H37.4903C37.2953 32.3203 37.1393 32.4648 37.1003 32.6487L35.9695 39.8986C35.9435 40.043 36.0605 40.1744 36.2034 40.1744H37.6333C37.7632 40.1744 37.8802 40.0824 37.9062 39.938L38.2312 37.8891C38.2572 37.6921 38.4262 37.5607 38.6211 37.5607H39.505C41.3508 37.5607 42.4167 36.6545 42.6897 34.8683C42.8196 34.0934 42.6897 33.4761 42.3387 33.0427C41.9228 32.5699 41.2208 32.3203 40.2849 32.3203ZM40.6099 34.9602C40.4539 35.9715 39.687 35.9715 38.9461 35.9715H38.5302L38.8291 34.0803C38.8421 33.9621 38.9461 33.8832 39.0631 33.8832H39.2581C39.765 33.8832 40.246 33.8832 40.4799 34.1722C40.6099 34.3429 40.6619 34.6056 40.6099 34.9602Z" fill="#009ADE"/>
<path id="Vector_2" d="M20.3191 32.3203H17.5245C17.3295 32.3203 17.1735 32.4648 17.1345 32.6487L16.0036 39.8986C15.9776 40.043 16.0946 40.1744 16.2376 40.1744H17.5764C17.7714 40.1744 17.9274 40.0299 17.9664 39.846L18.2654 37.8891C18.2914 37.6921 18.4603 37.5607 18.6553 37.5607H19.5392C21.385 37.5607 22.4509 36.6545 22.7238 34.8683C22.8538 34.0934 22.7238 33.4761 22.3729 33.0427C21.9699 32.5699 21.255 32.3203 20.3191 32.3203ZM20.6441 34.9602C20.4881 35.9715 19.7212 35.9715 18.9803 35.9715H18.5643L18.8633 34.0803C18.8763 33.9621 18.9803 33.8832 19.0973 33.8832H19.2922C19.7992 33.8832 20.2801 33.8832 20.5141 34.1722C20.6571 34.3429 20.6961 34.6056 20.6441 34.9602Z" fill="#002F87"/>
<path id="Vector_3" d="M28.6901 34.9336H27.3512C27.2343 34.9336 27.1433 35.0124 27.1173 35.1306L27.0523 35.5115L26.9613 35.3802C26.6753 34.9599 26.0254 34.8154 25.3755 34.8154C23.8937 34.8154 22.6328 35.9449 22.3858 37.5341C22.2558 38.3222 22.4378 39.0839 22.8798 39.6093C23.2827 40.0953 23.8677 40.2923 24.5696 40.2923C25.7654 40.2923 26.4283 39.5174 26.4283 39.5174L26.3634 39.8982C26.3374 40.0427 26.4543 40.1741 26.5973 40.1741H27.8062C28.0012 40.1741 28.1571 40.0296 28.1961 39.8457L28.9241 35.2094C28.9371 35.065 28.8331 34.9336 28.6901 34.9336ZM26.8183 37.5604C26.6883 38.3353 26.0774 38.8475 25.3105 38.8475C24.9205 38.8475 24.6086 38.7162 24.4136 38.4798C24.2186 38.2434 24.1406 37.9019 24.2056 37.5341C24.3226 36.7724 24.9465 36.2339 25.7134 36.2339C26.0904 36.2339 26.4024 36.3652 26.6103 36.6016C26.7923 36.8512 26.8833 37.1927 26.8183 37.5604Z" fill="#002F87"/>
<path id="Vector_4" d="M48.6427 34.9336H47.3039C47.1869 34.9336 47.0959 35.0124 47.0699 35.1306L47.0049 35.5115L46.9139 35.3802C46.628 34.9599 45.978 34.8154 45.3281 34.8154C43.8463 34.8154 42.5854 35.9449 42.3385 37.5341C42.2085 38.3222 42.3905 39.0839 42.8324 39.6093C43.2354 40.0953 43.8203 40.2923 44.5222 40.2923C45.7181 40.2923 46.381 39.5174 46.381 39.5174L46.316 39.8982C46.29 40.0427 46.407 40.1741 46.55 40.1741H47.7588C47.9538 40.1741 48.1098 40.0296 48.1488 39.8457L48.8767 35.2094C48.9027 35.065 48.7857 34.9336 48.6427 34.9336ZM46.7709 37.5604C46.641 38.3353 46.03 38.8475 45.2631 38.8475C44.8732 38.8475 44.5612 38.7162 44.3662 38.4798C44.1712 38.2434 44.0933 37.9019 44.1582 37.5341C44.2752 36.7724 44.8992 36.2339 45.6661 36.2339C46.043 36.2339 46.355 36.3652 46.563 36.6016C46.7579 36.8512 46.8359 37.1927 46.7709 37.5604Z" fill="#009ADE"/>
<path id="Vector_5" d="M35.8258 34.9336H34.474C34.344 34.9336 34.227 34.9993 34.149 35.1043L32.2902 37.8624L31.4973 35.2094C31.4453 35.0387 31.3023 34.9336 31.1204 34.9336H29.7945C29.6385 34.9336 29.5216 35.0912 29.5736 35.2488L31.0554 39.6487L29.6645 41.6319C29.5606 41.7895 29.6645 41.9996 29.8595 41.9996H31.2114C31.3413 41.9996 31.4583 41.934 31.5363 41.8289L36.0208 35.3013C36.1248 35.1437 36.0078 34.9336 35.8258 34.9336Z" fill="#002F87"/>
<path id="Vector_6" d="M50.2286 32.5173L49.0847 39.8986C49.0587 40.043 49.1757 40.1744 49.3187 40.1744H50.4755C50.6705 40.1744 50.8265 40.0299 50.8655 39.846L51.9963 32.5961C52.0223 32.4516 51.9054 32.3203 51.7624 32.3203H50.4755C50.3325 32.3203 50.2416 32.3991 50.2286 32.5173Z" fill="#009ADE"/>
<path id="Vector_7" d="M42.7153 11.9896C43.0012 10.164 42.7153 8.92945 41.7404 7.79993C40.6615 6.56534 38.7247 6.02686 36.242 6.02686H29.0279C28.5209 6.02686 28.092 6.39461 28.014 6.90683L25.0114 26.1611C24.9464 26.542 25.2453 26.8835 25.6223 26.8835H30.0808L29.7688 28.8536C29.7168 29.1819 29.9768 29.484 30.3017 29.484H34.0453C34.4872 29.484 34.8642 29.1556 34.9422 28.7091L34.9812 28.5121L35.6831 23.9809L35.7351 23.7313C35.8001 23.2848 36.177 22.9564 36.632 22.9564H37.1909C40.8305 22.9564 43.6771 21.4592 44.509 17.1513C44.86 15.3519 44.678 13.8415 43.7551 12.7777C43.4692 12.4625 43.1182 12.1998 42.7153 11.9896Z" fill="#009ADE"/>
<path id="Vector_8" d="M42.7153 11.9896C43.0012 10.164 42.7153 8.92944 41.7404 7.79993C40.6615 6.56534 38.7247 6.02686 36.242 6.02686H29.0279C28.5209 6.02686 28.092 6.39461 28.014 6.90683L25.0114 26.1611C24.9464 26.542 25.2453 26.8835 25.6223 26.8835H30.0808L31.1986 19.7124L31.1596 19.9356C31.2376 19.4234 31.6666 19.0557 32.1735 19.0557H34.2923C38.4518 19.0557 41.7014 17.3483 42.6633 12.4099C42.6763 12.2655 42.6893 12.121 42.7153 11.9896Z" fill="#002169"/>
<path id="Vector_9" d="M32.3817 12.0022C32.4337 11.7001 32.6286 11.4506 32.8886 11.3192C33.0056 11.2667 33.1356 11.2273 33.2786 11.2273H38.9329C39.6088 11.2273 40.2327 11.2667 40.8047 11.3586C40.9736 11.3849 41.1296 11.4112 41.2856 11.4506C41.4416 11.49 41.5846 11.5294 41.7406 11.5688C41.8185 11.595 41.8835 11.6082 41.9485 11.6344C42.2345 11.7264 42.4945 11.8446 42.7284 11.9628C43.0144 10.1372 42.7284 8.90259 41.7536 7.77307C40.6747 6.53849 38.7379 6 36.2552 6H29.0411C28.5341 6 28.1052 6.36775 28.0272 6.87997L25.0245 26.1343C24.9596 26.5151 25.2585 26.8566 25.6355 26.8566H30.0939L31.2118 19.6855L32.3817 12.0022Z" fill="#002F87"/>
</g>
</g>
</svg>
