<svg id="Layer_1" data-name="Layer 1" xmlns="http://www.w3.org/2000/svg" viewBox="0 0 47.53 48"><defs><style>.cls-1{fill:#009ade;}.cls-2{fill:#002f87;}.cls-3{fill:#002169;}</style></defs><g id="Property_1_Payment_Property_2_Paypal" data-name="Property 1=Payment, Property 2=Paypal"><g id="Group"><path id="Vector" class="cls-1" d="M32,34.63H28.41a.5.5,0,0,0-.49.42l-1.45,9.27a.31.31,0,0,0,.3.35H28.6a.35.35,0,0,0,.34-.3l.42-2.62a.49.49,0,0,1,.5-.42H31a3.68,3.68,0,0,0,4.07-3.44,2.89,2.89,0,0,0-.45-2.34A3.39,3.39,0,0,0,32,34.63ZM32.4,38c-.2,1.3-1.18,1.3-2.13,1.3h-.53l.38-2.42a.29.29,0,0,1,.3-.25h.25c.65,0,1.26,0,1.56.37A1.28,1.28,0,0,1,32.4,38Z"/><path id="Vector_2" data-name="Vector 2" class="cls-2" d="M6.47,34.63H2.9a.52.52,0,0,0-.5.42L1,44.32a.3.3,0,0,0,.3.35H3a.52.52,0,0,0,.5-.42l.38-2.5a.49.49,0,0,1,.5-.42H5.48a3.68,3.68,0,0,0,4.06-3.44,2.89,2.89,0,0,0-.44-2.34A3.38,3.38,0,0,0,6.47,34.63ZM6.89,38c-.2,1.3-1.18,1.3-2.13,1.3H4.23l.38-2.42a.29.29,0,0,1,.3-.25h.25c.65,0,1.26,0,1.56.37A1.28,1.28,0,0,1,6.89,38Z"/><path id="Vector_3" data-name="Vector 3" class="cls-2" d="M17.17,38H15.46a.3.3,0,0,0-.3.25l-.08.49L15,38.54a2.44,2.44,0,0,0-2-.72,4,4,0,0,0-3.82,3.47A3.35,3.35,0,0,0,9.74,44a2.66,2.66,0,0,0,2.16.87,3.29,3.29,0,0,0,2.38-1l-.08.48a.3.3,0,0,0,.29.36H16a.52.52,0,0,0,.5-.42l.93-5.93A.32.32,0,0,0,17.17,38Zm-2.39,3.36A1.91,1.91,0,0,1,12.85,43a1.45,1.45,0,0,1-1.15-.47,1.49,1.49,0,0,1-.26-1.21,1.93,1.93,0,0,1,1.93-1.66,1.47,1.47,0,0,1,1.14.47A1.64,1.64,0,0,1,14.78,41.33Z"/><path id="Vector_4" data-name="Vector 4" class="cls-1" d="M42.66,38H41a.31.31,0,0,0-.3.25l-.08.49-.12-.17a2.41,2.41,0,0,0-2-.72,3.94,3.94,0,0,0-3.82,3.47A3.27,3.27,0,0,0,35.24,44a2.64,2.64,0,0,0,2.16.87,3.25,3.25,0,0,0,2.37-1l-.08.48a.31.31,0,0,0,.3.36h1.54a.52.52,0,0,0,.5-.42L43,38.32A.3.3,0,0,0,42.66,38Zm-2.39,3.36A1.89,1.89,0,0,1,38.35,43a1.45,1.45,0,0,1-1.15-.47,1.49,1.49,0,0,1-.27-1.21,1.93,1.93,0,0,1,1.93-1.66,1.33,1.33,0,0,1,1.41,1.7Z"/><path id="Vector_5" data-name="Vector 5" class="cls-2" d="M26.29,38H24.56a.51.51,0,0,0-.42.22l-2.37,3.52-1-3.39a.5.5,0,0,0-.49-.35H18.58a.3.3,0,0,0-.28.4L20.19,44l-1.78,2.53a.3.3,0,0,0,.25.47h1.73a.51.51,0,0,0,.42-.22l5.73-8.34A.31.31,0,0,0,26.29,38Z"/><path id="Vector_6" data-name="Vector 6" class="cls-1" d="M44.69,34.88l-1.46,9.44a.3.3,0,0,0,.3.35H45a.51.51,0,0,0,.49-.42L47,35a.31.31,0,0,0-.3-.35H45A.29.29,0,0,0,44.69,34.88Z"/><path id="Vector_7" data-name="Vector 7" class="cls-1" d="M35.09,8.65c.37-2.33,0-3.91-1.25-5.35S30,1,26.82,1H17.6a1.31,1.31,0,0,0-1.3,1.13l-3.83,24.6a.79.79,0,0,0,.78.92H19l-.4,2.52a.7.7,0,0,0,.68.81H24a1.18,1.18,0,0,0,1.15-1l.05-.25L26.1,24l.07-.32a1.15,1.15,0,0,1,1.15-1H28c4.65,0,8.29-1.92,9.35-7.42.45-2.3.22-4.23-1-5.59A5,5,0,0,0,35.09,8.65Z"/><path id="Vector_8" data-name="Vector 8" class="cls-3" d="M35.09,8.65c.37-2.33,0-3.91-1.25-5.35S30,1,26.82,1H17.6a1.31,1.31,0,0,0-1.3,1.13l-3.83,24.6a.79.79,0,0,0,.78.92H19l1.42-9.16-.05.29a1.31,1.31,0,0,1,1.3-1.13h2.71c5.31,0,9.46-2.18,10.69-8.49C35,9,35.06,8.82,35.09,8.65Z"/><path id="Vector_9" data-name="Vector 9" class="cls-2" d="M21.89,8.67a1.17,1.17,0,0,1,.64-.87,1.19,1.19,0,0,1,.5-.12h7.23a14.85,14.85,0,0,1,2.39.17,6,6,0,0,1,.61.11l.58.16.27.08a7.16,7.16,0,0,1,1,.42c.36-2.33,0-3.91-1.25-5.35S30,1,26.84,1H17.62a1.31,1.31,0,0,0-1.3,1.12L12.48,26.73a.8.8,0,0,0,.79.92H19l1.43-9.16Z"/></g></g></svg>