<svg width="68" height="48" viewBox="0 0 68 48" fill="none" xmlns="http://www.w3.org/2000/svg">
<title>SEPA</title>
<g id="Property 1=Payment, Property 2=Sepa">
<g id="sepa 1">
<g id="Ebene 2">
<path id="Vector" d="M60.3081 35.8648H7.69215C7.38114 35.8648 7.13232 35.5939 7.13232 35.2553V12.7453C7.13232 12.4066 7.38114 12.1357 7.69215 12.1357H60.3081C60.6192 12.1357 60.868 12.4066 60.868 12.7453V35.2469C60.868 35.5855 60.6192 35.8648 60.3081 35.8648Z" fill="white"/>
</g>
<g id="Ebene 1">
<path id="Vector_2" d="M60.4324 36H7.55983C7.24881 36 7 35.7206 7 35.382V12.618C7 12.2794 7.24881 12 7.55983 12H60.4324C60.7434 12 60.9922 12.2794 60.9922 12.618V35.382C61 35.7206 60.7434 36 60.4324 36ZM7.55983 12.3471C7.41987 12.3471 7.31102 12.4656 7.31102 12.618V35.382C7.31102 35.5344 7.41987 35.6529 7.55983 35.6529H60.4324C60.5724 35.6529 60.6812 35.5344 60.6812 35.382V12.618C60.6812 12.4656 60.5724 12.3471 60.4324 12.3471H7.55983Z" fill="#AEB2BD"/>
<path id="Vector_3" d="M34.4236 24.9438C33.7005 24.9438 33.0318 24.7575 32.4875 24.4358L32.6742 23.1237C33.2262 23.4369 33.7938 23.6231 34.4081 23.6231C35.0923 23.6231 35.3878 23.3522 35.3878 22.8782C35.3878 21.8115 32.5109 22.2602 32.5109 19.9829C32.5109 18.8316 33.1951 17.9004 34.7735 17.9004C35.38 17.9004 36.0409 18.0358 36.523 18.2559L36.3597 19.5343C35.8465 19.3565 35.3256 19.2464 34.8513 19.2464C34.0737 19.2464 33.8716 19.5343 33.8716 19.8983C33.8716 20.9565 36.7485 20.4739 36.7485 22.7766C36.7407 24.1141 35.8854 24.9438 34.4236 24.9438Z" fill="#005DA1"/>
<path id="Vector_4" d="M42.1526 23.4795V24.8086H37.9072V18.0107H42.1526V19.3652H39.3146V20.7197H41.6239V21.9388H39.3146V23.488H42.1526V23.4795Z" fill="#005DA1"/>
<path id="Vector_5" d="M45.6358 22.6076H44.8038V24.8171H43.3965V18.0107H45.6358C47.3697 18.0107 48.0772 18.7557 48.0772 20.3388C48.0772 21.7779 47.3774 22.6076 45.6358 22.6076ZM45.6358 19.2975H44.8038V21.3801H45.6358C46.3278 21.3801 46.631 21.1938 46.631 20.3388C46.631 19.5176 46.3667 19.2975 45.6358 19.2975Z" fill="#005DA1"/>
<path id="Vector_6" d="M52.3693 23.4965H50.1067L49.7568 24.8171H48.2717L50.4333 18.0107H52.105L54.2899 24.8171H52.7192L52.3693 23.4965ZM51.0709 19.8816L50.4488 22.2097H52.0428L51.4441 19.8816L51.2808 19.1621H51.2575L51.0709 19.8816Z" fill="#005DA1"/>
<path id="Vector_7" d="M34.3769 29.2277L34.3614 29.871H32.5264V26.7134H33.1873V29.2277H34.3769Z" fill="#005DA1"/>
<path id="Vector_8" d="M36.1265 29.6251H36.1187C35.9788 29.8113 35.7533 29.9129 35.4811 29.9129C35.0379 29.9129 34.7502 29.642 34.7502 29.0664C34.7502 28.5923 35.0535 28.2706 35.5822 28.2706C35.7533 28.2706 35.9088 28.296 36.0332 28.3383V28.1944C36.0332 27.9404 35.9088 27.8219 35.59 27.8219C35.3334 27.8219 35.1623 27.8642 34.9446 27.9574L34.898 27.4325C35.1312 27.3224 35.4034 27.2632 35.6988 27.2632C36.3909 27.2632 36.6319 27.5849 36.6319 28.2875V29.8706H36.1731L36.1265 29.6251ZM36.041 28.7785C35.9865 28.7531 35.8699 28.7277 35.7066 28.7277C35.4423 28.7277 35.3178 28.8378 35.3178 29.0664C35.3178 29.3119 35.45 29.405 35.6522 29.405C35.8543 29.405 36.041 29.2695 36.041 29.1087V28.7785Z" fill="#005DA1"/>
<path id="Vector_9" d="M37.9305 29.9217C37.6506 29.9217 37.394 29.8624 37.1918 29.7439L37.254 29.2021C37.4484 29.3206 37.7205 29.3799 37.9227 29.3799C38.1637 29.3799 38.2648 29.2783 38.2648 29.1259C38.2648 28.7196 37.1763 28.9566 37.1763 28.0593C37.1763 27.6021 37.464 27.272 38.0626 27.272C38.2959 27.272 38.5292 27.3228 38.7313 27.4074L38.6847 27.9408C38.4903 27.8561 38.2337 27.8138 38.0549 27.8138C37.8605 27.8138 37.7516 27.8984 37.7516 28.0254C37.7516 28.4148 38.8246 28.1778 38.8246 29.0582C38.8246 29.5831 38.568 29.9217 37.9305 29.9217Z" fill="#005DA1"/>
<path id="Vector_10" d="M40.0063 27.8056V29.1093C40.0063 29.304 40.0996 29.3887 40.2863 29.3887C40.3485 29.3887 40.4262 29.3802 40.4729 29.3633L40.504 29.8374C40.4262 29.8797 40.2707 29.9051 40.0996 29.9051C39.6331 29.9051 39.3999 29.6088 39.3999 29.1262V27.7971H39.1355V27.3231H39.4232L39.5243 26.7474L39.9986 26.7051V27.3315H40.5195V27.8225H40.0063V27.8056Z" fill="#005DA1"/>
<path id="Vector_11" d="M41.6859 29.9217C41.4059 29.9217 41.1494 29.8624 40.9472 29.7439L41.0094 29.2021C41.2038 29.3206 41.4759 29.3799 41.6781 29.3799C41.9191 29.3799 42.0202 29.2783 42.0202 29.1259C42.0202 28.7196 40.9316 28.9566 40.9316 28.0593C40.9316 27.6021 41.2193 27.272 41.818 27.272C42.0513 27.272 42.2846 27.3228 42.4867 27.4074L42.4401 27.9408C42.2457 27.8561 41.9891 27.8138 41.8103 27.8138C41.6159 27.8138 41.507 27.8984 41.507 28.0254C41.507 28.4148 42.58 28.1778 42.58 29.0582C42.58 29.5831 42.3234 29.9217 41.6859 29.9217Z" fill="#005DA1"/>
<path id="Vector_12" d="M44.6174 27.9406C44.5007 27.8983 44.353 27.8644 44.2208 27.8644C43.7854 27.8644 43.6377 28.0591 43.6377 28.6009C43.6377 29.1512 43.8398 29.3628 44.2053 29.3628C44.3608 29.3628 44.5085 29.3289 44.6329 29.2697L44.6718 29.7776C44.5318 29.8707 44.3219 29.9215 44.0731 29.9215C43.3811 29.9215 43.0156 29.4898 43.0156 28.6009C43.0156 27.7543 43.3344 27.2803 44.0886 27.2803C44.283 27.2803 44.5085 27.3226 44.6562 27.3903L44.6174 27.9406Z" fill="#005DA1"/>
<path id="Vector_13" d="M46.5923 29.8711V28.2457C46.5923 27.9832 46.4757 27.8478 46.2191 27.8478C46.0481 27.8478 45.8925 27.9325 45.8226 28.0425V29.8711H45.2239V26.5949L45.8226 26.561V27.1452L45.8148 27.4838L45.8226 27.4922C45.9936 27.3314 46.2113 27.2721 46.4057 27.2721C46.9033 27.2721 47.191 27.6362 47.191 28.2457V29.8711H46.5923Z" fill="#005DA1"/>
<path id="Vector_14" d="M47.8286 29.8707V27.3395L48.3107 27.3141L48.3651 27.7374H48.3729C48.5206 27.4327 48.7461 27.2803 49.0183 27.2803C49.1193 27.2803 49.2126 27.2972 49.2748 27.3141L49.236 27.9575C49.166 27.9321 49.0727 27.9152 48.9794 27.9152C48.6684 27.9152 48.4351 28.1607 48.4351 28.5924V29.8707H47.8286Z" fill="#005DA1"/>
<path id="Vector_15" d="M50.1534 27.0431C49.9201 27.0431 49.8113 26.9754 49.8113 26.7637C49.8113 26.586 49.9201 26.4844 50.1534 26.4844C50.3867 26.4844 50.4955 26.5775 50.4955 26.7637C50.4877 26.95 50.3867 27.0431 50.1534 27.0431ZM49.8424 29.8706V27.3394L50.4566 27.314V29.8791H49.8424V29.8706Z" fill="#005DA1"/>
<path id="Vector_16" d="M51.3196 29.8711V27.8055H51.0242V27.323H51.3196V27.2129C51.3196 26.8319 51.5607 26.5103 52.1205 26.5103C52.2527 26.5103 52.4004 26.5272 52.5015 26.561L52.4626 26.9843C52.3926 26.9674 52.3149 26.9589 52.2371 26.9589C52.0039 26.9589 51.9106 27.0605 51.9106 27.2214V27.3145H52.4082V27.797H51.9106V29.8626H51.3196V29.8711Z" fill="#005DA1"/>
<path id="Vector_17" d="M53.6445 27.8056V29.1093C53.6445 29.304 53.7378 29.3887 53.9244 29.3887C53.9866 29.3887 54.0644 29.3802 54.1111 29.3633L54.1422 29.8374C54.0644 29.8797 53.9089 29.9051 53.7378 29.9051C53.2713 29.9051 53.038 29.6088 53.038 29.1262V27.7971H52.7737V27.3231H53.0614L53.1625 26.7474L53.6368 26.7051V27.3315H54.1577V27.8225H53.6445V27.8056Z" fill="#005DA1"/>
<path id="Vector_18" d="M21.8433 19.5007L19.1607 17.3081L16.4782 15.1155C16.2916 14.9631 16.0273 15.0055 15.8873 15.2086L13.5236 18.6203C13.4847 18.6711 13.4614 18.7303 13.4536 18.798C13.4147 18.9758 13.4692 19.1621 13.6091 19.2806L15.2109 20.5843L17.3724 22.3536L18.9741 23.6573C19.1141 23.7758 19.3007 23.7758 19.4407 23.6827C19.4951 23.6488 19.534 23.615 19.5728 23.5557L21.9366 20.1356C22.061 19.9409 22.0299 19.6531 21.8433 19.5007ZM16.2994 15.3695L17.8934 16.6732L18.9741 17.5536L20.0627 18.4425L21.6644 19.7462C21.7266 19.797 21.7344 19.8901 21.6955 19.9578L21.3145 20.5335L19.5029 19.052L17.5435 17.452L15.724 15.979L16.105 15.4033C16.1517 15.3356 16.2372 15.3187 16.2994 15.3695ZM19.324 23.3864C19.3007 23.4118 19.2774 23.4287 19.2463 23.4372C19.2152 23.4457 19.1763 23.4372 19.1452 23.4118L17.5357 22.0996L15.3819 20.3388L13.7802 19.0181C13.7491 18.9928 13.7335 18.9589 13.7258 18.925C13.7258 18.8912 13.7258 18.8573 13.7491 18.8234L14.1845 18.1885C14.1845 18.1885 14.6666 17.5113 15.0865 16.9017L16.8981 18.3832L18.8575 19.9832L20.6692 21.4647C20.2493 22.0742 19.7672 22.7515 19.7672 22.7515L19.324 23.3864Z" fill="#AEB2BD"/>
<g id="Group">
<path id="Vector_19" d="M22.3253 24.7323L26.3685 18.8402L26.7806 18.2476C26.7806 18.2476 26.7883 18.2307 26.7961 18.2307C26.8272 18.1883 26.8194 18.1291 26.7806 18.0952L25.6376 17.1894C25.5987 17.1555 25.5443 17.1725 25.5132 17.2148C25.5054 17.2233 25.4976 17.2317 25.4976 17.2317L25.3421 17.4434L20.3425 24.7238H14.8376L12.7771 32.1227H26.5473L24.6035 24.7238L22.3253 24.7323ZM13.1503 31.8349L15.032 25.0201H20.1404L19.6972 25.6635L19.0674 26.6201L18.9974 26.764L18.9274 26.9248L18.8574 27.1111L18.7875 27.3058L18.7175 27.5174L18.6475 27.7291L18.5853 27.9407L18.5231 28.1439L18.4687 28.3386L18.4143 28.5164L18.3676 28.6772L18.3365 28.8127L18.3132 28.9143L18.2898 28.9735C18.2898 28.9735 18.2821 28.9905 18.2743 29.0074C18.2587 29.0243 18.181 29.1005 18.1188 29.0497C18.0566 28.9989 18.0644 28.8296 18.0721 28.745C18.0877 28.491 18.111 28.237 18.1266 27.9915C18.1343 27.9069 18.0333 27.8561 17.9711 27.8899C17.6911 28.0677 17.5201 28.2793 17.3646 28.5248C17.3801 28.4656 17.3957 28.4063 17.4112 28.3555C17.4734 28.0931 17.5667 27.8307 17.6056 27.5598C17.6289 27.4074 17.5901 27.2296 17.4268 27.1957C17.2402 27.1619 17.1235 27.3735 17.0302 27.509C16.7581 27.9323 16.5948 28.4571 16.2605 28.8211C16.1361 28.9566 15.9883 29.0582 15.8095 28.9989C15.5996 28.9312 15.514 29.2021 15.8873 29.2444C16.2527 29.2783 16.5326 28.855 16.6959 28.5587C16.8203 28.3471 16.9214 28.1185 17.0458 27.8984C17.1002 27.7968 17.1624 27.6952 17.2246 27.5936C17.2557 27.5513 17.3024 27.4412 17.3568 27.4243C17.419 27.4074 17.4035 27.4497 17.4035 27.5005C17.3957 27.6275 17.349 27.7545 17.3179 27.8815C17.2868 28.0169 17.2479 28.1524 17.2168 28.2793C17.1469 28.5672 17.0769 28.855 16.9991 29.1344C16.968 29.2614 17.1235 29.3206 17.1935 29.219C17.4579 28.8127 17.5901 28.4656 17.9089 28.1947C17.9011 28.2878 17.8933 28.3725 17.8855 28.4656C17.8777 28.6095 17.8466 28.7704 17.8544 28.9143C17.87 29.1598 18.041 29.3206 18.251 29.219C18.3598 29.1598 18.4376 29.0751 18.4376 29.0751L18.4531 29.0666L18.4998 29.0328L18.5775 28.9735L18.6864 28.8889L18.8108 28.7873L18.943 28.6857L19.1063 28.5672L19.2695 28.4402L19.4328 28.3132L19.5961 28.1862L19.7516 28.0592L19.8993 27.9407L20.0393 27.8222L20.1559 27.7206L20.2492 27.6275L20.327 27.5513V27.5428L20.8324 26.8995L22.1231 25.0286H24.4091L26.1896 31.8434H13.1503V31.8349Z" fill="#005DA1"/>
<path id="Vector_20" d="M27.3016 18.527L27.1539 18.4C27.1228 18.3746 27.0839 18.3831 27.0606 18.417L25.14 21.2021C25.1167 21.236 25.1245 21.2783 25.1556 21.3037L25.3033 21.4307C25.3344 21.4561 25.3733 21.4476 25.3966 21.4138L27.3171 18.6286C27.3327 18.5947 27.3327 18.5524 27.3016 18.527Z" fill="#005DA1"/>
<path id="Vector_21" d="M19.5728 30.3873H23.3983L23.3205 30.0571H19.5728H15.8328L15.7473 30.3873H19.5728Z" fill="#005DA1"/>
</g>
</g>
</g>
</g>
</svg>
