<svg width="68" height="48" viewBox="0 0 68 48" fill="none" xmlns="http://www.w3.org/2000/svg">
<path fill-rule="evenodd" clip-rule="evenodd" d="M25.4552 16.6088C24.9923 15.971 24.2006 15.6466 23.0987 15.6455C22.3776 15.6455 21.6781 15.805 21.0219 16.1033C20.0842 16.5309 19.2337 17.2447 18.5394 18.1918C18.0888 18.8067 17.7029 19.5187 17.4 20.3157C16.8299 21.82 16.8366 23.0407 17.4194 23.845C17.7502 24.2994 18.4364 24.8427 19.8328 24.8437H19.8382C22.382 24.8437 24.2817 23.2372 25.4843 20.0684C25.8017 19.2293 26.221 17.6649 25.4552 16.6088ZM22.7321 20.1931C21.9387 22.2859 21.3625 22.8129 20.4956 22.8129H20.4939C19.6492 22.8116 19.3531 22.2968 20.1437 20.2141C20.7336 18.6589 21.4983 17.6641 22.4227 17.6641C23.3023 17.6654 23.5045 18.1564 22.7321 20.1931Z" fill="#EE7F00"/>
<path d="M35.6211 15.7729H30.2096C28.6968 15.7729 27.5707 16.5103 27.0387 17.891L24.4684 24.6953H27.2841L28.6048 21.1971L31.0933 21.199L31.801 19.3258L29.3207 19.3242L29.7199 18.2394C29.8036 18.0452 30.0023 17.8904 30.2936 17.8904C30.4555 17.8904 32.2819 17.891 33.2277 17.8915C33.2397 17.8748 33.2511 17.8574 33.2626 17.8401C33.2741 17.8225 33.2857 17.8048 33.2979 17.788C33.9187 16.9415 34.7977 16.2566 35.6211 15.7729Z" fill="#EE7F00"/>
<path fill-rule="evenodd" clip-rule="evenodd" d="M40.8061 16.6088C40.3426 15.971 39.5514 15.6466 38.4488 15.6455C37.7285 15.6455 37.029 15.805 36.3733 16.1033C35.435 16.5309 34.5851 17.2447 33.8902 18.1918C33.4389 18.8067 33.0535 19.5187 32.7508 20.3157C32.1806 21.82 32.1874 23.0407 32.7708 23.845C33.1007 24.2994 33.7872 24.8427 35.1848 24.8437H35.1885C37.7334 24.8437 39.6331 23.2372 40.8345 20.0684C41.1531 19.2293 41.5718 17.6649 40.8061 16.6088ZM38.0824 20.1931C37.2895 22.2859 36.7132 22.8129 35.8464 22.8129H35.8445C34.9994 22.8116 34.7044 22.2968 35.4945 20.2141C36.0838 18.6589 36.849 17.6641 37.7734 17.6641H37.7746C38.6537 17.6654 38.8553 18.1564 38.0824 20.1931Z" fill="#EE7F00"/>
<path fill-rule="evenodd" clip-rule="evenodd" d="M49.0173 16.6533C48.5951 16.0672 47.7354 15.7794 46.3888 15.7782H43.2713L39.8994 24.7013H42.7637L43.9893 21.5603C44.0491 21.6892 44.7725 24.7013 44.7725 24.7013H47.7832C47.7832 24.7013 47.2357 22.4879 46.8329 21.5939L46.7915 21.5015C46.7001 21.297 46.6023 21.0781 46.4773 20.8917C47.3277 20.5871 48.5599 19.9335 49.07 18.6084C49.3838 17.794 49.3655 17.1365 49.0173 16.6533ZM46.525 18.6245C46.25 19.3376 45.7564 19.7788 44.8172 19.7788H44.8137L44.3278 19.778L45.1583 17.6201H45.6308C46.4954 17.6206 46.8183 17.864 46.525 18.6245Z" fill="#EE7F00"/>
<path d="M20.2381 15.7729H14.9283C14.0909 15.7729 13.2781 15.7729 12.5493 16.1289C11.8205 16.4855 11.1776 17.1986 10.6823 18.6243C10.575 18.9313 10.518 19.1953 10.5109 19.4242C10.5035 19.6548 10.5448 19.85 10.635 20.02C10.7464 20.2269 10.927 20.4224 11.1529 20.5869C11.3789 20.751 11.6497 20.8852 11.9412 20.9707C11.9472 20.9722 11.9922 20.9846 12.0604 21.0033L12.2913 21.0666C12.4711 21.1166 12.6505 21.1675 12.8298 21.2192C12.9098 21.2428 12.9983 21.2736 13.0783 21.3197C13.1582 21.3654 13.2297 21.4267 13.275 21.5123C13.3047 21.5697 13.3208 21.6326 13.3223 21.6967C13.3242 21.7631 13.3126 21.8347 13.2853 21.9099C13.2175 22.1041 13.1144 22.2282 12.9183 22.3051C12.7226 22.3809 12.4337 22.4057 11.9961 22.4092H6.53195L5.66797 24.6954H11.5171C12.0671 24.6954 13.0734 24.6954 14.0402 24.2996C15.0071 23.9037 15.9345 23.1125 16.327 21.5295C16.4749 20.9343 16.4294 20.45 16.1871 20.0693C15.9448 19.6882 15.5056 19.4127 14.867 19.2358C14.867 19.2358 14.724 19.1958 14.5558 19.1491C14.3879 19.1028 14.1945 19.0496 14.0953 19.022C13.9318 18.9769 13.8063 18.8856 13.7319 18.7694C13.6579 18.6538 13.6354 18.5128 13.6778 18.3688C13.7214 18.2198 13.8275 18.1002 13.9807 18.0181C14.1347 17.9362 14.3369 17.891 14.5726 17.891H17.9724C17.9831 17.8757 17.9935 17.8599 18.0039 17.8441C18.0163 17.8252 18.0288 17.8063 18.0419 17.7881C18.6631 16.9416 19.4148 16.2567 20.2381 15.7729Z" fill="#EE7F00"/>
<path d="M49.1456 15.7778C49.1456 15.7778 49.1457 15.7778 49.1456 15.7778V15.7778Z" fill="#EE7F00"/>
<path d="M49.1456 15.7778C49.3267 15.916 49.4831 16.0735 49.6134 16.254C49.946 16.7164 50.0738 17.2664 49.9981 17.8965H51.7034L49.1323 24.7027H51.7009L54.2726 17.8965H57.572L58.3724 15.7779L49.1456 15.7778Z" fill="#EE7F00"/>
<path d="M10.3133 26.0588C10.2527 26.2183 10.1769 26.3303 10.0867 26.3941C9.99644 26.4581 9.86012 26.4901 9.67786 26.4901C9.49564 26.4901 9.38404 26.4594 9.3447 26.3975C9.30518 26.3361 9.3149 26.2282 9.37317 26.0727C9.43504 25.9103 9.50937 25.7981 9.59844 25.7353C9.68751 25.6728 9.82331 25.6411 10.0056 25.6411C10.188 25.6411 10.2994 25.6716 10.3406 25.7319C10.3818 25.7924 10.3728 25.9011 10.3133 26.0588ZM8.76055 26.0588C8.70013 26.2183 8.62561 26.3303 8.53595 26.3941C8.44688 26.4581 8.31108 26.4901 8.12886 26.4901C7.94586 26.4901 7.83504 26.4594 7.79436 26.3975C7.75332 26.3361 7.76237 26.2282 7.82112 26.0727C7.88232 25.9103 7.95807 25.7981 8.04769 25.7353C8.13736 25.6728 8.27293 25.6411 8.45281 25.6411C8.63763 25.6411 8.75035 25.6716 8.78987 25.7319C8.82973 25.7924 8.82001 25.9011 8.76055 26.0588ZM9.59247 29.6604C9.48993 29.932 9.35613 30.1748 9.19187 30.3892C9.02847 30.6043 8.8383 30.7856 8.62079 30.9336C8.40383 31.0822 8.16211 31.1948 7.8962 31.2728C7.62969 31.3502 7.34307 31.3888 7.03534 31.3888C6.7463 31.3888 6.49976 31.3543 6.29627 31.2843C6.09268 31.215 5.93832 31.1093 5.83278 30.9677C5.72801 30.826 5.67353 30.6505 5.6687 30.4388C5.66443 30.2281 5.71598 29.9813 5.82246 29.698L6.84035 27.0037C6.8494 26.9806 6.86391 26.9604 6.88507 26.942C6.90578 26.9241 6.93717 26.909 6.9784 26.8975C7.01908 26.8864 7.07059 26.8771 7.13235 26.8703C7.1941 26.8633 7.27096 26.8597 7.36374 26.8597C7.45408 26.8597 7.52726 26.8633 7.58364 26.8703C7.64001 26.877 7.68418 26.8864 7.71576 26.8975C7.74649 26.909 7.76664 26.9241 7.77495 26.942C7.78345 26.9604 7.78345 26.9806 7.77495 27.0037L6.78702 29.6189C6.72047 29.7951 6.68518 29.9477 6.68165 30.076C6.67798 30.2055 6.70218 30.3118 6.75428 30.3962C6.80694 30.4812 6.88329 30.5442 6.98438 30.5862C7.08566 30.6285 7.20869 30.6497 7.35335 30.6497C7.49995 30.6497 7.64001 30.6279 7.77202 30.5844C7.90477 30.5413 8.02888 30.477 8.13906 30.3942C8.25062 30.311 8.35172 30.2087 8.44205 30.0862C8.53168 29.9643 8.6062 29.8257 8.66495 29.6701L9.67181 27.0037C9.68098 26.9806 9.69546 26.9604 9.71654 26.942C9.73791 26.9241 9.76805 26.909 9.80798 26.8975C9.8481 26.8864 9.89961 26.8771 9.96248 26.8703C10.0249 26.8633 10.1018 26.8597 10.1914 26.8597C10.2816 26.8597 10.3546 26.8633 10.4102 26.8703C10.4653 26.877 10.5089 26.8864 10.5398 26.8975C10.5714 26.909 10.5902 26.9241 10.5974 26.942C10.6048 26.9604 10.6048 26.9806 10.5956 27.0037L9.59247 29.6604ZM13.6197 28.1161C13.653 28.0269 13.6687 27.9479 13.6668 27.8768C13.6655 27.8056 13.645 27.7475 13.6057 27.7005C13.5663 27.6538 13.5086 27.6179 13.4317 27.5924C13.3543 27.5676 13.244 27.5549 13.0992 27.5549H12.6266L12.1924 28.7048H12.7145C12.8496 28.7048 12.9628 28.6898 13.0551 28.6586C13.1477 28.6279 13.2301 28.5859 13.3033 28.5321C13.3764 28.479 13.4408 28.4157 13.4941 28.3443C13.5463 28.2739 13.5886 28.1971 13.6197 28.1161ZM13.1411 30.0128C13.1792 29.91 13.1969 29.8187 13.1912 29.7371C13.1864 29.6563 13.1599 29.5886 13.1126 29.5337C13.0642 29.4789 12.9925 29.4365 12.8968 29.4071C12.8012 29.377 12.6685 29.3627 12.4983 29.3627H11.9439L11.4684 30.6219H12.1433C12.2736 30.6219 12.3875 30.6094 12.4863 30.5831C12.5838 30.5575 12.6766 30.5181 12.7619 30.4664C12.8459 30.415 12.921 30.3509 12.9871 30.2746C13.0525 30.1983 13.1035 30.1112 13.1411 30.0128ZM14.1224 29.9822C14.0629 30.1393 13.9866 30.282 13.8927 30.4105C13.7995 30.5376 13.6947 30.6508 13.5784 30.7491C13.462 30.8467 13.3346 30.9316 13.1985 31.0023C13.0613 31.0733 12.9173 31.1316 12.7685 31.1766C12.6174 31.2228 12.4626 31.2567 12.3055 31.2778C12.1475 31.2998 11.9755 31.3103 11.7907 31.3103H10.5688C10.4906 31.3103 10.4331 31.2883 10.3961 31.2432C10.3599 31.1991 10.361 31.127 10.3985 31.0259L11.8573 27.1643C11.8955 27.0641 11.9494 26.9919 12.0196 26.9468C12.0899 26.9024 12.1639 26.8804 12.2419 26.8804H13.3966C13.6782 26.8804 13.9085 26.9029 14.0865 26.9486C14.2647 26.9943 14.4034 27.063 14.5022 27.1561C14.601 27.2479 14.659 27.3652 14.6766 27.5068C14.6949 27.6485 14.6676 27.8149 14.5949 28.0067C14.5547 28.1131 14.5018 28.2147 14.4373 28.3096C14.3739 28.4033 14.2998 28.4899 14.2163 28.5679C14.1314 28.6458 14.038 28.7149 13.9376 28.7737C13.8357 28.8332 13.7267 28.8805 13.6117 28.9169C13.7329 28.94 13.8377 28.9799 13.9268 29.0371C14.0151 29.0945 14.0831 29.1678 14.1309 29.258C14.1787 29.3482 14.2036 29.4538 14.2053 29.5747C14.2066 29.6956 14.1793 29.8313 14.1224 29.9822ZM17.5586 30.958C17.5339 31.0238 17.5097 31.0794 17.4872 31.1238C17.4642 31.1683 17.4422 31.2041 17.4194 31.2311C17.3975 31.2591 17.3751 31.2788 17.3526 31.2914C17.3304 31.3042 17.3084 31.3105 17.2868 31.3105H14.9773C14.8998 31.3105 14.8423 31.2879 14.8059 31.2434C14.7689 31.1988 14.7695 31.1267 14.8076 31.0262L16.2664 27.1645C16.304 27.0638 16.3586 26.9916 16.4281 26.9472C16.4984 26.9027 16.573 26.8801 16.6511 26.8801H18.9459C18.9676 26.8801 18.984 26.8864 18.9961 26.8974C19.0089 26.9089 19.0149 26.9293 19.0169 26.9569C19.018 26.9858 19.0125 27.0228 19.0017 27.0667C18.9907 27.1118 18.9725 27.1679 18.9465 27.2361C18.9223 27.3003 18.8986 27.3546 18.8762 27.3992C18.8531 27.4434 18.8315 27.4793 18.809 27.5071C18.7865 27.5344 18.7648 27.554 18.7435 27.5666C18.7224 27.5792 18.7011 27.5858 18.6792 27.5858H17.0382L16.6299 28.6675H18.019C18.0404 28.6675 18.0572 28.674 18.0705 28.686C18.0833 28.6987 18.091 28.7185 18.093 28.7443C18.0947 28.771 18.0899 28.8062 18.079 28.8508C18.068 28.8954 18.0511 28.9491 18.0269 29.0132C18.0014 29.0796 17.9777 29.1339 17.9554 29.1774C17.9336 29.2207 17.9117 29.2559 17.8894 29.2819C17.8681 29.308 17.8458 29.3269 17.8239 29.3387C17.8014 29.3501 17.7804 29.356 17.7585 29.356H16.37L15.8981 30.6053H17.5532C17.5748 30.6053 17.5919 30.6116 17.6053 30.6239C17.6181 30.6365 17.6252 30.6562 17.6264 30.6838C17.6283 30.711 17.6234 30.7475 17.6124 30.7918C17.6011 30.8359 17.5834 30.8919 17.5586 30.958ZM21.9418 28.1879C21.9969 28.0423 22.0097 27.9185 21.9787 27.8185C21.9479 27.718 21.8617 27.6475 21.7208 27.606C21.6783 27.5944 21.628 27.5858 21.5698 27.5787C21.5123 27.5719 21.4299 27.5684 21.3233 27.5684H20.904L20.4297 28.8248H20.906C21.0387 28.8248 21.1597 28.8098 21.2712 28.7786C21.3826 28.7479 21.4815 28.7044 21.5687 28.6485C21.6552 28.5942 21.7313 28.5264 21.794 28.4478C21.8563 28.3705 21.9055 28.2839 21.9418 28.1879ZM22.0109 31.1938C22.0011 31.2192 21.9884 31.2405 21.9727 31.2573C21.9568 31.2741 21.9291 31.2885 21.8891 31.3002C21.8492 31.3116 21.7945 31.3197 21.7236 31.3244C21.6533 31.3284 21.559 31.3307 21.44 31.3307C21.3409 31.3307 21.2621 31.3284 21.2046 31.3244C21.1476 31.3197 21.104 31.3111 21.0743 31.2983C21.0445 31.2862 21.0263 31.2696 21.0192 31.2504C21.0124 31.2313 21.0101 31.2077 21.0107 31.1804L20.9725 30.1909C20.9645 30.0789 20.9538 29.9794 20.9392 29.8928C20.9241 29.806 20.8986 29.7338 20.8635 29.6756C20.827 29.6171 20.7762 29.5738 20.7121 29.5442C20.6478 29.5143 20.5648 29.4992 20.4661 29.4992H20.1746L19.5368 31.1867C19.5282 31.2099 19.5126 31.2307 19.4907 31.2486C19.4682 31.267 19.4374 31.2814 19.3974 31.2932C19.358 31.3047 19.3071 31.3139 19.2447 31.3208C19.183 31.3273 19.1061 31.3307 19.0139 31.3307C18.9236 31.3307 18.8498 31.3272 18.7923 31.3208C18.734 31.3139 18.6899 31.3047 18.6589 31.2932C18.6269 31.2814 18.608 31.267 18.6008 31.2486C18.5936 31.2307 18.5942 31.2099 18.6027 31.1867L20.122 27.1643C20.1601 27.0638 20.2141 26.9916 20.2844 26.947C20.3539 26.9027 20.4286 26.8801 20.5066 26.8801H21.6971C21.8176 26.8801 21.9163 26.883 21.9926 26.8875C22.0617 26.8911 22.1306 26.8967 22.1992 26.9044C22.3749 26.9292 22.5245 26.9732 22.6494 27.0344C22.7741 27.0961 22.8692 27.1766 22.9347 27.276C23.0002 27.3754 23.0346 27.4926 23.0383 27.628C23.0412 27.7642 23.0093 27.9197 22.9432 28.0953C22.8869 28.2445 22.8165 28.3791 22.7311 28.5017C22.6473 28.6219 22.548 28.7317 22.4356 28.8283C22.3234 28.9242 22.1987 29.0074 22.0604 29.0785C21.9224 29.149 21.774 29.2063 21.6152 29.2495C21.6712 29.2805 21.7217 29.3198 21.7649 29.3657C21.8085 29.4114 21.8442 29.4668 21.8728 29.5321C21.9018 29.5969 21.9242 29.6714 21.9399 29.754C21.9556 29.838 21.9665 29.9321 21.9721 30.0373L22.0296 30.9099C22.0319 30.996 22.0319 31.0595 22.0284 31.0994C22.0253 31.1394 22.0194 31.1712 22.0109 31.1938ZM27.8208 31.0808C27.7864 31.1359 27.7498 31.1796 27.7118 31.2127C27.6748 31.2456 27.6281 31.271 27.5717 31.2878C27.5154 31.3053 27.447 31.3166 27.3671 31.3224C27.287 31.3284 27.186 31.3311 27.0655 31.3311C26.9302 31.3311 26.823 31.3284 26.7438 31.3224C26.6643 31.3166 26.6037 31.3053 26.5631 31.2878C26.522 31.2709 26.497 31.2456 26.4882 31.2127C26.4796 31.1796 26.4796 31.1359 26.4882 31.0808L26.8133 28.274H26.8062L25.0493 31.0808C25.0177 31.1335 24.985 31.1768 24.9511 31.2091C24.9171 31.2428 24.8737 31.2681 24.821 31.2859C24.7675 31.3045 24.7003 31.3166 24.6185 31.3224C24.5374 31.3284 24.4313 31.3311 24.3012 31.3311C24.1642 31.3311 24.0552 31.3284 23.9757 31.3224C23.8959 31.3166 23.8359 31.3053 23.7952 31.2877C23.7542 31.2709 23.7292 31.2455 23.7209 31.2127C23.7118 31.1796 23.7104 31.1358 23.7172 31.0807L24.1326 27.2162C24.1424 27.1338 24.1544 27.0688 24.1701 27.0227C24.1855 26.9759 24.212 26.9397 24.2522 26.9146C24.2908 26.8898 24.3453 26.8742 24.415 26.8684C24.4841 26.8628 24.5798 26.8597 24.7003 26.8597C24.8118 26.8597 24.899 26.8613 24.9633 26.8649C25.0269 26.8684 25.0729 26.8765 25.102 26.8885C25.1298 26.9019 25.1456 26.9198 25.1487 26.9441C25.1518 26.9678 25.1481 27.0013 25.1389 27.0446L24.6634 30.4372H24.6676L26.7783 27.0682C26.8037 27.0257 26.8298 26.9898 26.8558 26.9627C26.8813 26.9355 26.9153 26.914 26.9576 26.8996C27.0001 26.8846 27.0539 26.8742 27.1205 26.8684C27.1866 26.8628 27.2725 26.8597 27.3793 26.8597C27.4932 26.8597 27.5829 26.862 27.6489 26.8667C27.7148 26.8714 27.7628 26.8812 27.7942 26.8956C27.8251 26.9106 27.8434 26.932 27.8499 26.9591C27.856 26.9864 27.8554 27.0231 27.8475 27.0682L27.4423 30.4372H27.4497L29.5334 27.0544C29.5542 27.0186 29.5753 26.9874 29.5977 26.9607C29.6189 26.9349 29.6492 26.914 29.688 26.8995C29.7267 26.8845 29.7782 26.8741 29.842 26.8684C29.9055 26.8627 29.9926 26.8596 30.1047 26.8596C30.2084 26.8596 30.2884 26.8627 30.3448 26.8684C30.4003 26.8741 30.4367 26.8898 30.4538 26.9145C30.4694 26.9396 30.4669 26.977 30.4452 27.0262C30.4228 27.0748 30.3852 27.1417 30.3319 27.2261L27.8208 31.0808ZM32.6396 30.958C32.6187 31.0143 32.5949 31.0697 32.5683 31.1238C32.5452 31.1683 32.5233 31.2041 32.5003 31.2311C32.4785 31.2591 32.4561 31.2788 32.4336 31.2914C32.4113 31.3042 32.3894 31.3105 32.3676 31.3105H30.0584C29.9808 31.3105 29.9233 31.2879 29.8864 31.2434C29.85 31.1988 29.8505 31.1267 29.8887 31.0262L31.3475 27.1645C31.385 27.0638 31.4396 26.9916 31.5092 26.9472C31.5795 26.9027 31.654 26.8801 31.7321 26.8801H34.027C34.0487 26.8801 34.0651 26.8864 34.0772 26.8974C34.0899 26.9089 34.0965 26.9293 34.0979 26.9569C34.0985 26.9858 34.0936 27.0228 34.0825 27.0667C34.0717 27.1118 34.0535 27.1679 34.0275 27.2361C34.0073 27.2918 33.9837 27.3462 33.9567 27.3992C33.9347 27.4434 33.9125 27.4793 33.89 27.5071C33.8676 27.5344 33.8457 27.554 33.8245 27.5666C33.8035 27.5792 33.7815 27.5858 33.7603 27.5858H32.1192L31.7104 28.6675H33.0994C33.1214 28.6675 33.1377 28.674 33.1515 28.686C33.1643 28.6987 33.1715 28.7185 33.1735 28.7443C33.1758 28.771 33.1709 28.8062 33.1601 28.8508C33.1491 28.8954 33.1322 28.9491 33.108 29.0132C33.0824 29.0796 33.0588 29.1339 33.0366 29.1774C33.0141 29.2207 32.9922 29.2559 32.9704 29.2819C32.9486 29.308 32.9275 29.3269 32.905 29.3387C32.8826 29.3501 32.8608 29.356 32.8395 29.356H31.4505L30.9785 30.6053H32.6337C32.6553 30.6053 32.6723 30.6116 32.6858 30.6239C32.6984 30.6365 32.7057 30.6562 32.7074 30.6838C32.7094 30.711 32.7045 30.7475 32.6935 30.7918C32.6827 30.8359 32.6644 30.8919 32.6396 30.958ZM34.6215 31.1871C34.613 31.2102 34.5979 31.2306 34.5754 31.249C34.553 31.2668 34.5221 31.2818 34.482 31.2928C34.4421 31.3044 34.3918 31.3136 34.3295 31.3206C34.2676 31.3274 34.1908 31.3311 34.0988 31.3311C34.0085 31.3311 33.9346 31.3274 33.877 31.3206C33.8189 31.3136 33.7746 31.3044 33.7432 31.2928C33.7116 31.2817 33.6916 31.2668 33.6837 31.249C33.6746 31.2305 33.6752 31.2102 33.6837 31.1871L35.2637 27.0033C35.2726 26.9809 35.2879 26.9602 35.3102 26.9421C35.3326 26.9237 35.3649 26.9093 35.4053 26.8978C35.4465 26.886 35.4975 26.8768 35.5599 26.8699C35.6217 26.8635 35.6974 26.8597 35.7877 26.8597C35.8797 26.8597 35.9542 26.8635 36.0111 26.8699C36.0675 26.8768 36.1116 26.886 36.1427 26.8978C36.1743 26.9093 36.1942 26.9237 36.2027 26.9421C36.211 26.9602 36.211 26.9809 36.2019 27.0033L34.6215 31.1871ZM39.1716 29.9822C39.0831 30.2151 38.9607 30.4191 38.805 30.5949C38.6481 30.7712 38.4713 30.9173 38.2726 31.0347C38.0744 31.1524 37.8605 31.2411 37.6323 31.3004C37.406 31.3591 37.1725 31.3889 36.938 31.3888C36.7794 31.3888 36.6364 31.3761 36.5098 31.3513C36.383 31.3264 36.274 31.2964 36.1832 31.2611C36.0929 31.2253 36.0197 31.1883 35.9646 31.1496C35.9093 31.1109 35.8711 31.0766 35.8524 31.0467C35.833 31.0173 35.8264 30.9745 35.8349 30.9184C35.8427 30.8623 35.8663 30.782 35.9064 30.6768C35.933 30.6063 35.9577 30.5468 35.9808 30.4993C36.0038 30.451 36.0263 30.4121 36.0481 30.3827C36.0699 30.3525 36.0917 30.3317 36.1148 30.3198C36.1371 30.307 36.1601 30.3004 36.1838 30.3004C36.217 30.3004 36.2566 30.3198 36.303 30.3567C36.3491 30.3948 36.4109 30.4365 36.4886 30.4822C36.5661 30.5273 36.6637 30.5693 36.7805 30.6068C36.8974 30.6445 37.0429 30.6636 37.2155 30.6636C37.3293 30.6636 37.4359 30.6503 37.536 30.6236C37.6365 30.5976 37.7262 30.5606 37.8073 30.5126C37.8875 30.465 37.9588 30.4049 38.018 30.3347C38.0781 30.2639 38.1252 30.184 38.1576 30.0983C38.1957 29.9976 38.1993 29.9123 38.1695 29.8401C38.14 29.7678 38.0903 29.7041 38.02 29.6487C37.9498 29.592 37.8661 29.5401 37.7692 29.4908C37.6683 29.4402 37.568 29.3882 37.4686 29.3349C37.367 29.2808 37.2706 29.2183 37.1804 29.1482C37.0912 29.0797 37.0175 28.9948 36.9635 28.8985C36.9089 28.8016 36.8786 28.687 36.8713 28.5542C36.8648 28.4222 36.8962 28.2635 36.9666 28.0785C37.0464 27.8663 37.1573 27.6798 37.3004 27.5185C37.4426 27.3577 37.6032 27.2243 37.782 27.1184C37.9606 27.0122 38.1538 26.933 38.3623 26.8804C38.5672 26.8282 38.7784 26.8018 38.9906 26.8018C39.0996 26.8018 39.205 26.8099 39.3085 26.8256C39.4116 26.8416 39.5047 26.8631 39.5895 26.8909C39.6733 26.918 39.7459 26.9486 39.8065 26.9833C39.8671 27.0174 39.9053 27.0458 39.9198 27.0682C39.9349 27.0913 39.9435 27.111 39.9457 27.1271C39.9483 27.1427 39.9472 27.1643 39.9434 27.19C39.9397 27.2167 39.9312 27.2496 39.918 27.2895C39.9018 27.3396 39.8845 27.3894 39.8659 27.4387C39.8403 27.5045 39.8173 27.5607 39.7968 27.6056C39.7755 27.6518 39.7561 27.6895 39.7367 27.7189C39.7169 27.7485 39.6969 27.7705 39.6761 27.7844C39.6556 27.7977 39.6314 27.8047 39.6066 27.8044C39.5805 27.8044 39.5448 27.7889 39.4999 27.7572C39.4558 27.7249 39.3988 27.69 39.3297 27.6525C39.2613 27.6143 39.1782 27.5803 39.0808 27.5496C38.9838 27.5185 38.8699 27.5034 38.7397 27.5034C38.6379 27.5034 38.544 27.5156 38.4599 27.5394C38.3745 27.5636 38.2987 27.5964 38.2321 27.6387C38.1655 27.6808 38.1078 27.7317 38.0612 27.7911C38.0146 27.848 37.9778 27.9117 37.9522 27.9797C37.9152 28.0775 37.911 28.1628 37.9394 28.2344C37.9679 28.306 38.018 28.3703 38.0909 28.4264C38.1629 28.4818 38.249 28.5345 38.3495 28.5836C38.4514 28.6338 38.5523 28.6857 38.6524 28.7391C38.7549 28.794 38.8527 28.8564 38.945 28.9257C39.037 28.9957 39.111 29.0789 39.1668 29.1759C39.2226 29.273 39.2534 29.3869 39.2614 29.518C39.2684 29.6492 39.2383 29.8043 39.1716 29.9822ZM44.0622 29.6604C43.9591 29.932 43.8258 30.1748 43.6624 30.3892C43.4982 30.6043 43.308 30.7856 43.0905 30.9336C42.8735 31.0822 42.6325 31.1948 42.366 31.2728C42.0995 31.3502 41.8129 31.3888 41.5045 31.3888C41.2161 31.3888 40.9696 31.3543 40.766 31.2843C40.5625 31.215 40.4081 31.1093 40.3025 30.9677C40.1977 30.826 40.1428 30.6505 40.1391 30.4388C40.1343 30.2281 40.1858 29.9813 40.2923 29.698L41.3101 27.0037C41.3186 26.9806 41.3332 26.9604 41.3548 26.942C41.3761 26.9241 41.4069 26.909 41.4476 26.8975C41.4888 26.8864 41.5404 26.8771 41.6021 26.8703C41.6645 26.8633 41.7414 26.8597 41.8336 26.8597C41.9238 26.8597 41.997 26.8633 42.0534 26.8703C42.1097 26.877 42.1539 26.8864 42.1855 26.8975C42.2163 26.909 42.2362 26.9241 42.2442 26.942C42.2533 26.9604 42.2533 26.9806 42.2442 27.0037L41.2568 29.6189C41.1902 29.7951 41.155 29.9477 41.1513 30.076C41.1478 30.2055 41.172 30.3118 41.2241 30.3962C41.2762 30.4812 41.3531 30.5442 41.4542 30.5862C41.5555 30.6285 41.6784 30.6497 41.8231 30.6497C41.9691 30.6497 42.1091 30.6279 42.2418 30.5844C42.3745 30.5412 42.4987 30.4769 42.6089 30.3942C42.721 30.311 42.8221 30.2087 42.9118 30.0862C43.0014 29.9643 43.076 29.8257 43.1347 29.6701L44.1422 27.0037C44.1507 26.9806 44.1653 26.9604 44.1863 26.942C44.2076 26.9241 44.2379 26.909 44.2777 26.8975C44.3178 26.8864 44.3693 26.8771 44.4323 26.8703C44.4952 26.8633 44.5715 26.8597 44.6612 26.8597C44.7515 26.8597 44.8243 26.8633 44.8801 26.8703C44.935 26.877 44.9786 26.8864 45.0096 26.8975C45.0412 26.909 45.0599 26.9241 45.0672 26.942C45.0751 26.9604 45.0745 26.9806 45.066 27.0037L44.0622 29.6604ZM48.6708 30.9953C48.6508 31.0479 48.6242 31.0947 48.5891 31.1357C48.5566 31.1752 48.5179 31.2097 48.4745 31.2381C48.433 31.2654 48.387 31.2857 48.3383 31.2981C48.2891 31.3108 48.2432 31.3172 48.1977 31.3172H47.7997C47.7168 31.3172 47.6482 31.309 47.5937 31.293C47.5405 31.2781 47.4936 31.2475 47.4597 31.2056C47.4248 31.164 47.3974 31.1069 47.3769 31.0346C47.3569 30.963 47.3387 30.8698 47.3228 30.756L46.9607 28.6843C46.9399 28.552 46.9227 28.4192 46.9092 28.286C46.8943 28.1477 46.8852 28.0088 46.8819 27.8698H46.8747C46.8221 28.0342 46.7673 28.198 46.7105 28.3611C46.651 28.5302 46.5896 28.6986 46.5263 28.8664L45.6508 31.1838C45.6425 31.2064 45.6279 31.227 45.6083 31.2455C45.5885 31.2634 45.5599 31.2786 45.523 31.2912C45.4867 31.3038 45.4396 31.3137 45.3832 31.3206C45.3256 31.3276 45.2541 31.3311 45.1688 31.3311C45.0862 31.3311 45.019 31.3276 44.9669 31.3206C44.9155 31.3137 44.8762 31.3038 44.85 31.2912C44.824 31.2786 44.8089 31.2634 44.8035 31.2455C44.7987 31.227 44.8004 31.2064 44.8089 31.1838L46.313 27.2024C46.3537 27.095 46.4161 27.0145 46.5015 26.9607C46.5869 26.9077 46.6777 26.8806 46.7722 26.8806H47.2733C47.3629 26.8806 47.4361 26.8875 47.4919 26.9025C47.5477 26.9174 47.5938 26.9423 47.6294 26.9764C47.6647 27.0105 47.6924 27.058 47.7125 27.1186C47.7319 27.1787 47.7476 27.2532 47.7593 27.343L48.0426 28.9616C48.0579 29.0599 48.073 29.1563 48.0881 29.2512C48.1032 29.3459 48.1172 29.4407 48.1286 29.5356C48.1402 29.6298 48.1511 29.7227 48.1613 29.8147C48.1724 29.9055 48.1815 29.9966 48.1898 30.0879H48.1929C48.2462 29.9286 48.3036 29.7621 48.3655 29.5881C48.425 29.4224 48.4858 29.2571 48.5479 29.0922L49.3331 27.014C49.3416 26.9909 49.3566 26.9707 49.3778 26.9521C49.3985 26.9343 49.4281 26.9182 49.4669 26.9043C49.5056 26.8909 49.5529 26.8812 49.6092 26.8753C49.6662 26.8695 49.7371 26.8666 49.8225 26.8666C49.9025 26.8666 49.9691 26.8695 50.0212 26.8753C50.0739 26.8812 50.1121 26.8909 50.1363 26.9043C50.1611 26.9182 50.1756 26.9343 50.1805 26.9521C50.186 26.9707 50.1835 26.9909 50.175 27.014L48.6708 30.9953ZM54.9915 27.5684C54.9667 27.6351 54.9421 27.6915 54.9175 27.7395C54.8937 27.7874 54.8708 27.8263 54.8502 27.8544C54.8283 27.883 54.8078 27.903 54.7878 27.9147C54.7679 27.9255 54.7477 27.9313 54.7267 27.9313C54.6957 27.9313 54.6541 27.9106 54.6002 27.8696C54.5474 27.8292 54.4727 27.7846 54.3778 27.7361C54.2821 27.6888 54.1627 27.6438 54.0214 27.6025C53.8792 27.5614 53.7041 27.5414 53.4951 27.5414C53.2747 27.541 53.0559 27.5786 52.8494 27.6524C52.6416 27.7264 52.4482 27.8314 52.2684 27.9672C52.089 28.1029 51.9291 28.2666 51.7892 28.4568C51.6486 28.6474 51.5342 28.8578 51.447 29.0883C51.3514 29.3419 51.3021 29.5652 51.2993 29.7582C51.2962 29.9506 51.3331 30.1124 51.4095 30.2419C51.4858 30.3724 51.5996 30.4702 51.7511 30.5368C51.9025 30.603 52.0848 30.6362 52.298 30.6362C52.4016 30.6362 52.5101 30.6245 52.6205 30.6019C52.7316 30.5787 52.8398 30.5443 52.9433 30.4991L53.3308 29.4721H52.4604C52.4181 29.4721 52.3945 29.4468 52.3902 29.3946C52.3853 29.3434 52.407 29.2566 52.4537 29.1328C52.4779 29.0693 52.5009 29.0155 52.5234 28.9722C52.5452 28.9284 52.5676 28.8941 52.5889 28.8676C52.6113 28.8416 52.6325 28.822 52.6537 28.8098C52.6749 28.7972 52.6968 28.7907 52.7179 28.7907H54.2707C54.3082 28.7907 54.3395 28.7972 54.3645 28.8098C54.3893 28.822 54.408 28.8403 54.4214 28.866C54.4347 28.8914 54.4401 28.9213 54.4383 28.9566C54.4371 28.9919 54.428 29.0323 54.411 29.0785L53.7449 30.8412C53.7192 30.9099 53.6836 30.9702 53.64 31.0209C53.5951 31.0723 53.529 31.1128 53.4405 31.1428C53.3529 31.1722 53.2455 31.2029 53.1202 31.2352C52.9931 31.2672 52.8648 31.2945 52.7356 31.3173C52.6067 31.3395 52.477 31.3565 52.3466 31.3683C52.2182 31.3797 52.091 31.3857 51.965 31.3857C51.5979 31.3857 51.2882 31.3346 51.0368 31.2335C50.7849 31.1312 50.5947 30.9845 50.4662 30.792C50.3378 30.5991 50.2729 30.3638 50.271 30.0863C50.2692 29.809 50.3348 29.4945 50.4674 29.1432C50.6043 28.7802 50.7843 28.4548 51.0066 28.1659C51.2295 27.8769 51.4832 27.6318 51.768 27.4295C52.0534 27.2275 52.3629 27.073 52.6985 26.9656C53.0342 26.8587 53.3824 26.8049 53.7453 26.8049C53.9441 26.8049 54.1203 26.8182 54.2735 26.8448C54.4269 26.8707 54.5576 26.9027 54.6656 26.94C54.7734 26.9776 54.8593 27.0187 54.9236 27.0614C54.9871 27.1055 55.0295 27.1425 55.0496 27.1748C55.0696 27.2065 55.0757 27.2516 55.0677 27.3098C55.0598 27.3686 55.0344 27.4546 54.9915 27.5684Z" fill="#3A3A3A"/>
</svg>
