<svg width="68" height="48" viewBox="0 0 68 48" fill="none" xmlns="http://www.w3.org/2000/svg">
<title>Visa</title>
<g id="Property 1=Payment, Property 2=Visa">
<g id="Frame 907">
<path id="polygon9" d="M31.2777 30.4537H27.8608L29.998 17.2393H33.4146L31.2777 30.4537Z" fill="#00579F"/>
<path id="path11" d="M43.6647 17.5626C42.9907 17.2952 41.9218 17 40.6 17C37.2258 17 34.8496 18.7993 34.8351 21.3718C34.807 23.2698 36.5363 24.324 37.8296 24.9568C39.1516 25.6035 39.6009 26.0256 39.6009 26.602C39.5875 27.4873 38.5327 27.8954 37.549 27.8954C36.1848 27.8954 35.4539 27.685 34.3431 27.1924L33.8932 26.9813L33.415 29.9477C34.2164 30.3128 35.6929 30.6368 37.2258 30.651C40.811 30.651 43.145 28.8795 43.1727 26.1381C43.1863 24.6338 42.2732 23.4811 40.3046 22.5392C39.1095 21.9346 38.3777 21.5269 38.3777 20.9083C38.3917 20.3459 38.9967 19.7698 40.3457 19.7698C41.4565 19.7416 42.2727 20.0086 42.8909 20.2758L43.2 20.4161L43.6647 17.5626Z" fill="#00579F"/>
<path id="path13" d="M48.2054 25.7723C48.4868 25.0132 49.5695 22.075 49.5695 22.075C49.5553 22.1032 49.8504 21.3018 50.0191 20.8099L50.2579 21.9485C50.2579 21.9485 50.9049 25.1116 51.0454 25.7723C50.5114 25.7723 48.8803 25.7723 48.2054 25.7723ZM52.4231 17.2393H49.7801C48.9651 17.2393 48.3459 17.478 47.9942 18.3357L42.9189 30.4536H46.5041C46.5041 30.4536 47.0944 28.8226 47.2213 28.4713C47.6146 28.4713 51.1022 28.4713 51.6082 28.4713C51.7063 28.9353 52.0159 30.4536 52.0159 30.4536H55.1796L52.4231 17.2393Z" fill="#00579F"/>
<path id="path15" d="M25.0067 17.2393L21.6605 26.2503L21.2948 24.4227C20.6762 22.314 18.736 20.0229 16.5708 18.8837L19.6358 30.4397H23.249L28.6197 17.2393H25.0067Z" fill="#00579F"/>
<path id="path17" d="M18.5536 17.2393H13.0562L13 17.5063C17.2883 18.6029 20.1284 21.2462 21.2952 24.4233L20.1001 18.3501C19.9034 17.5061 19.2988 17.2671 18.5536 17.2393Z" fill="#FAA61A"/>
</g>
</g>
</svg>
