<svg width="20" height="22" viewBox="0 0 20 22" fill="none" xmlns="http://www.w3.org/2000/svg">
<path d="M14.0001 17C14.2653 17 14.5197 16.8946 14.7072 16.7071C14.8948 16.5196 15.0001 16.2652 15.0001 16V14H17.0001C17.2653 14 17.5197 13.8946 17.7072 13.7071C17.8948 13.5196 18.0001 13.2652 18.0001 13C18.0001 12.7348 17.8948 12.4804 17.7072 12.2929C17.5197 12.1054 17.2653 12 17.0001 12H15.0001V10C15.0001 9.73478 14.8948 9.48043 14.7072 9.29289C14.5197 9.10536 14.2653 9 14.0001 9C13.7349 9 13.4805 9.10536 13.293 9.29289C13.1055 9.48043 13.0001 9.73478 13.0001 10V12H11.0001C10.7349 12 10.4805 12.1054 10.293 12.2929C10.1055 12.4804 10.0001 12.7348 10.0001 13C10.0001 13.2652 10.1055 13.5196 10.293 13.7071C10.4805 13.8946 10.7349 14 11.0001 14H13.0001V16C13.0001 16.2652 13.1055 16.5196 13.293 16.7071C13.4805 16.8946 13.7349 17 14.0001 17Z" fill="white"/>
<path d="M18.7301 5.32C18.6369 5.21946 18.524 5.13917 18.3984 5.08413C18.2728 5.02908 18.1372 5.00044 18.0001 5H15.0001V4.87C14.9975 3.57921 14.4835 2.34204 13.5708 1.42931C12.6581 0.516579 11.4209 0.00264237 10.1301 0H9.87012C8.57933 0.00264237 7.34216 0.516579 6.42943 1.42931C5.5167 2.34204 5.00276 3.57921 5.00012 4.87V5H2.00012C1.863 5.00044 1.72744 5.02908 1.60186 5.08413C1.47628 5.13917 1.36336 5.21946 1.27012 5.32C1.1761 5.41982 1.10361 5.53791 1.05716 5.66693C1.01071 5.79596 0.991296 5.93316 1.00012 6.07L1.89012 19.31C1.96707 20.0508 2.3168 20.7364 2.87129 21.2336C3.42578 21.7308 4.14538 22.004 4.89012 22H15.1201C15.8649 22.004 16.5845 21.7308 17.139 21.2336C17.6934 20.7364 18.0432 20.0508 18.1201 19.31L18.2101 18.07C18.2287 17.8048 18.1411 17.5431 17.9667 17.3424C17.7923 17.1417 17.5453 17.0186 17.2801 17C17.0149 16.9814 16.7532 17.069 16.5525 17.2434C16.3518 17.4178 16.2287 17.6648 16.2101 17.93L16.1301 19.18C16.0875 19.413 15.9636 19.6232 15.7805 19.7734C15.5974 19.9236 15.3669 20.0039 15.1301 20H4.88012C4.64333 20.0039 4.41286 19.9236 4.22973 19.7734C4.04661 19.6232 3.92272 19.413 3.88012 19.18L3.07012 7H16.9301L16.8701 7.93C16.8606 8.06139 16.8771 8.19337 16.9188 8.31835C16.9604 8.44333 17.0263 8.55885 17.1127 8.65828C17.1992 8.7577 17.3044 8.83908 17.4223 8.89772C17.5403 8.95636 17.6687 8.99112 17.8001 9C18.0638 9.01647 18.3233 8.9279 18.5219 8.75364C18.7206 8.57939 18.8421 8.33361 18.8601 8.07L19.0001 6.07C19.0089 5.93316 18.9895 5.79596 18.9431 5.66693C18.8966 5.53791 18.8241 5.41982 18.7301 5.32ZM7.00012 5V4.87C7.00275 4.10964 7.30598 3.38117 7.84363 2.84352C8.38129 2.30586 9.10976 2.00264 9.87012 2H10.1301C10.8905 2.00264 11.6189 2.30586 12.1566 2.84352C12.6943 3.38117 12.9975 4.10964 13.0001 4.87V5H7.00012Z" fill="white"/>
</svg>
