<svg width="24" height="24" viewBox="0 0 24 24" fill="none" xmlns="http://www.w3.org/2000/svg">
<path fill-rule="evenodd" clip-rule="evenodd" d="M12.7939 0.0550273C11.2189 0.267244 9.37523 1.11752 8.34346 2.10755C7.58142 2.83875 7.39727 3.53625 7.75966 4.31828C8.15042 5.16163 9.17713 5.52035 10.0702 5.12568C10.9458 4.73879 12.4751 2.5199 12.5909 2.32866L12.5917 2.32753C12.8058 2.00918 12.9291 1.82579 14.0124 1.82831C15.6999 1.83234 17.2036 2.45336 18.4201 3.6484C19.2972 4.51 19.7251 5.25805 19.9601 6.34057C20.1649 7.2837 20.089 8.95111 19.8032 9.78369C19.0618 11.9442 17.4208 13.718 15.1705 14.7914C14.3408 15.1873 12.7468 15.7748 12.5341 15.7748C12.5193 15.7748 12.5261 15.6869 12.5308 15.5941C12.5339 15.5351 12.5748 15.484 12.6322 15.4699C13.3602 15.2914 14.2639 14.9401 14.8718 14.6415C16.6482 13.769 18.0767 12.258 18.7565 10.5326C19.2448 9.29345 19.4609 7.86971 19.2452 7.31356C19.2166 7.2398 19.196 7.17637 19.1611 7.12185C18.9404 6.77738 18.1458 6.78813 11.1173 6.78813C4.15704 6.78813 3.37905 6.77759 3.16887 7.11193C3.13322 7.16864 3.1139 7.23527 3.08352 7.31356C2.86775 7.86971 3.08391 9.29345 3.57219 10.5326C4.25198 12.258 5.68053 13.769 7.45686 14.6415C8.09243 14.9537 9.43216 15.3498 10.1798 15.4467C10.7289 15.5179 10.6435 15.5079 10.6435 15.8588C10.6435 16.2118 10.6328 16.2124 10.0482 16.3717C9.31849 16.5705 8.74634 16.9499 8.38319 17.4757C8.13475 17.8356 8.10352 17.96 8.10505 18.5832C8.10629 19.1225 8.1551 19.3748 8.31538 19.6717C8.62533 20.2455 9.12435 20.8238 9.98597 20.9941C9.98597 20.9941 10.1974 21.0384 10.3258 21.0491C10.4542 21.0598 10.6435 21.0952 10.6435 21.0952V21.5947V22.1404H9.95535C9.3919 22.1404 9.22431 22.2354 9.02406 22.3663C8.80151 22.5539 8.75604 22.6665 8.75604 23.0297C8.75604 23.3901 8.80199 23.5987 9.0169 23.7799C9.3187 24.0344 10.5491 23.9982 11.5877 23.9982C12.5438 23.9982 13.8437 24.0344 14.1455 23.7799C14.3605 23.5987 14.4064 23.3901 14.4064 23.0297C14.4064 22.6665 14.3609 22.5539 14.1384 22.3663C13.9381 22.2354 13.7705 22.1404 13.2071 22.1404H12.5341V21.5947V21.0491L13.0345 20.8238C13.3043 20.7 13.7342 20.4063 13.9897 20.1712C14.3605 19.83 14.4542 19.6824 14.4542 19.4396C14.4542 18.4897 13.5062 18.0955 12.8016 18.7523L12.5341 18.9835V18.363V17.7242L13.8333 17.324C16.0776 16.6007 17.6974 15.6831 19.0458 14.3714C20.9901 12.4799 22 10.2501 22 7.84874C22 5.45023 21.3742 3.93298 19.705 2.28532C18.9023 1.4929 18.6763 1.32945 17.7945 0.903334C17.2444 0.637571 16.4623 0.33839 16.0566 0.238507C15.1604 0.0180519 13.6844 -0.0649826 12.7939 0.0550273ZM14.0513 12.9622C15.4309 12.2957 16.5791 11.0335 17.0857 9.62633C17.1665 9.47832 17.2137 9.33915 17.2909 9.0114L17.352 8.66036L11.1482 8.66036H4.97667L5.0378 9.0114C5.07143 9.20452 5.29723 9.76263 5.53965 10.2517C7.04357 13.2861 10.863 14.5024 14.0513 12.9622ZM10.6435 19.2441V18.726C10.6435 18.0623 10.6831 18.02 10.2275 18.2623C9.81709 18.4805 9.92169 18.9278 10.4453 19.193L10.6435 19.2441ZM9.32398 3.67963C9.15134 3.5914 9.0991 3.22549 9.1824 3.12296C9.97383 2.14878 11.4949 1.82831 11.4949 1.82831C11.4949 1.82831 10.6454 3.03018 10.3151 3.35491C10.0074 3.65733 9.59628 3.8188 9.32398 3.67963Z" fill="#1A1D32"/>
</svg>
