<svg width="20" height="20" viewBox="0 0 20 20" fill="none" xmlns="http://www.w3.org/2000/svg">
<path d="M2.50004 9.16671H15.5L11.0834 4.75004C10.75 4.41671 10.75 3.91671 11.0834 3.58337C11.4167 3.25004 11.9167 3.25004 12.25 3.58337L18.0834 9.41671C18.4167 9.75004 18.4167 10.25 18.0834 10.5834L12.25 16.4167C12.0834 16.5834 11.9167 16.6667 11.6667 16.6667C11.4167 16.6667 11.25 16.5834 11.0834 16.4167C10.75 16.0834 10.75 15.5834 11.0834 15.25L15.5 10.8334H2.50004C2.00004 10.8334 1.66671 10.5 1.66671 10C1.66671 9.50004 2.00004 9.16671 2.50004 9.16671Z" fill="#1A1D32"/>
</svg>
