<svg width="17" height="22" viewBox="0 0 17 22" fill="none" xmlns="http://www.w3.org/2000/svg">
<path d="M15.5 5H12.48C12.4888 4.96713 12.4955 4.93372 12.5 4.9V4C12.5 2.93913 12.0786 1.92172 11.3284 1.17157C10.5783 0.421427 9.56086 0 8.5 0C7.43913 0 6.42172 0.421427 5.67157 1.17157C4.92143 1.92172 4.5 2.93913 4.5 4V4.9C4.50488 4.93374 4.51189 4.96714 4.521 5H1.5C1.23478 5 0.98043 5.10536 0.792893 5.29289C0.605357 5.48043 0.5 5.73478 0.5 6V18C0.5 19.0609 0.921428 20.0783 1.67157 20.8284C2.42172 21.5786 3.43913 22 4.5 22H15.5C15.7652 22 16.0196 21.8946 16.2071 21.7071C16.3946 21.5196 16.5 21.2652 16.5 21V6C16.5 5.73478 16.3946 5.48043 16.2071 5.29289C16.0196 5.10536 15.7652 5 15.5 5ZM6.5 4.9V4C6.5 3.46957 6.71071 2.96086 7.08579 2.58579C7.46086 2.21071 7.96957 2 8.5 2C9.03043 2 9.53914 2.21071 9.91421 2.58579C10.2893 2.96086 10.5 3.46957 10.5 4V4.9C10.5049 4.93374 10.5119 4.96714 10.521 5H6.48C6.48879 4.96713 6.49547 4.93372 6.5 4.9ZM14.5 20H4.5C3.96957 20 3.46086 19.7893 3.08579 19.4142C2.71071 19.0391 2.5 18.5304 2.5 18V7H14.5V20Z" fill="white"/>
<path d="M8.5 14C9.56086 14 10.5783 13.5786 11.3284 12.8284C12.0786 12.0783 12.5 11.0609 12.5 10C12.5 9.73478 12.3946 9.48043 12.2071 9.29289C12.0196 9.10536 11.7652 9 11.5 9C11.2348 9 10.9804 9.10536 10.7929 9.29289C10.6054 9.48043 10.5 9.73478 10.5 10C10.5 10.5304 10.2893 11.0391 9.91421 11.4142C9.53914 11.7893 9.03043 12 8.5 12C7.96956 12 7.46085 11.7893 7.08578 11.4142C6.71071 11.0391 6.5 10.5304 6.5 10C6.5 9.73478 6.39464 9.48043 6.2071 9.29289C6.01957 9.10536 5.76521 9 5.5 9C5.23478 9 4.98042 9.10536 4.79289 9.29289C4.60535 9.48043 4.5 9.73478 4.5 10C4.5 11.0609 4.92142 12.0783 5.67157 12.8284C6.043 13.1999 6.48396 13.4945 6.96926 13.6955C7.45456 13.8965 7.97471 14 8.5 14Z" fill="white"/>
</svg>