<svg width="22" height="19" fill="none" xmlns="http://www.w3.org/2000/svg">
    <path d="M18.471 9.613h.587c.612 0 1.224-.005 1.835 0 .373.005.7.121.924.439.132.192.178.403.178.63v3.01c0 .786.005 1.567.005 2.354 0 .686-.153 1.32-.581 1.875-.49.63-1.143.978-1.938 1.054-.449.04-.898.03-1.346.03H2.917c-.704 0-1.351-.181-1.902-.63-.597-.494-.943-1.134-.98-1.886-.045-.927-.03-1.86-.03-2.792V1.296c0-.157.01-.318.041-.474C.148.328.485.03.995.02 1.8 0 2.6 0 3.402 0H17.232c.245 0 .484.02.704.136.398.207.525.57.53.978.01.812.005 1.618.005 2.43v6.069zM2.066 2.057V16.187c0 .393.193.66.54.741.097.02.199.03.301.03H16.508c-.026-.186-.066-.358-.072-.524a59.23 59.23 0 01-.025-1.648c-.005-4.195-.005-8.394-.005-12.588v-.141H2.066zm17.879 9.608c-.056 0-.097-.005-.138-.005-.392 0-.79.005-1.183-.005-.122 0-.148.04-.148.151.005 1.276 0 2.551.005 3.827 0 .237-.005.468.02.705.057.49.597.772 1.041.55.29-.146.408-.388.408-.696v-3.725c-.005-.268-.005-.53-.005-.802z" fill="#1A1D32"/>
    <path d="M9.24 7.622H4.774c-.454 0-.8-.227-.953-.62-.169-.433-.072-.887.255-1.18a.984.984 0 01.678-.241c1.081.005 2.162.01 3.248.01h5.681c.301 0 .566.07.786.292.275.282.367.761.209 1.134-.153.368-.51.6-.933.6-1.505.005-3.004.005-4.503.005zM9.22 12.512H4.763c-.454 0-.785-.217-.943-.615-.169-.413-.077-.877.23-1.16a.976.976 0 01.698-.257c1.25.005 2.494.005 3.743.005h5.232c.454 0 .8.227.949.626.158.423.056.877-.265 1.164a.965.965 0 01-.663.237H9.22z" fill="#1A1D32"/>
</svg>
