<svg width="24" height="24" viewBox="0 0 24 24" fill="none" xmlns="http://www.w3.org/2000/svg">
<path d="M23.9998 7.50774C23.9862 7.35056 23.9355 7.19883 23.8519 7.06495C23.7683 6.93106 23.6542 6.81881 23.5188 6.73736L12.4959 0.134039C12.3436 0.0462271 12.1708 0 11.9949 0C11.819 0 11.6462 0.0462271 11.4939 0.134039L0.470972 6.73736C0.34843 6.81069 0.243012 6.90933 0.161782 7.02667C0.0805513 7.144 0.0253934 7.27733 0 7.4177C0 7.47773 0 7.53776 0 7.59779V16.4022C3.03306e-05 16.5758 0.0453156 16.7465 0.131407 16.8973C0.217498 17.0482 0.34143 17.1741 0.491018 17.2626L11.5139 23.866C11.6662 23.9538 11.839 24 12.0149 24C12.1909 24 12.3637 23.9538 12.516 23.866L23.5389 17.2626C23.6829 17.1704 23.8009 17.043 23.8815 16.8923C23.9622 16.7417 24.003 16.573 23.9998 16.4022V7.59779C23.9998 7.59779 23.9998 7.53776 23.9998 7.50774ZM11.9749 13.0005L8.40746 10.8694L17.4863 5.4367L21.0537 7.56777L11.9749 13.0005ZM11.9749 2.13504L15.5423 4.26612L6.46342 9.69884L2.89601 7.56777L11.9749 2.13504ZM1.95405 9.33866L10.9728 14.7414V21.2046L1.95405 15.8019V9.33866ZM12.9769 21.2046V14.7714L21.9957 9.36868V15.8319L12.9769 21.2046Z" fill="#1A1D32"/>
</svg>
