<svg width="16" height="16" viewBox="0 0 16 16" fill="none" xmlns="http://www.w3.org/2000/svg">
<path d="M9.31747 10.162C9.20463 10.162 9.0918 10.2646 9.0918 10.6082C9.0918 10.9519 9.20463 11.0544 9.31747 11.0544C9.4303 11.0544 9.54313 10.9519 9.54313 10.6082C9.54313 10.2646 9.4303 10.162 9.31747 10.162Z" fill="#1A1D32"/>
<path d="M6.68465 8.46924C6.57182 8.46924 6.45898 8.57183 6.45898 8.91547C6.45898 9.2591 6.57182 9.36169 6.68465 9.36169C6.79749 9.36169 6.91032 9.2591 6.91032 8.91547C6.91032 8.57183 6.79749 8.46924 6.68465 8.46924Z" fill="#1A1D32"/>
<path d="M11.9052 6.06353C10.7747 4.81495 10.1029 3.71583 9.73832 3.01362C9.3435 2.25303 9.21411 1.78139 9.21312 1.77764L9.09559 1.33331L8.67585 1.52054C8.62679 1.5424 7.46707 2.07128 6.81725 3.37089C6.49106 4.02332 6.42582 4.74971 6.42855 5.24416C6.43014 5.53192 6.22626 5.78177 5.9438 5.83825C5.74576 5.87782 5.54204 5.81625 5.3991 5.67332L4.61724 4.89145L4.34828 5.26233C4.32036 5.30083 3.66306 6.20733 3.5434 6.38845C2.95906 7.27301 2.65436 8.30342 2.66226 9.3683C2.67284 10.7905 3.23214 12.123 4.23711 13.1203C5.24204 14.1175 6.57876 14.6666 8.00106 14.6666C10.9449 14.6666 13.3399 12.2716 13.3399 9.32774C13.34 8.26037 12.817 7.07062 11.9052 6.06353ZM9.31662 11.6084C8.77297 11.6084 8.36263 11.2494 8.36263 10.6083C8.36263 9.97229 8.77294 9.60812 9.31662 9.60812C9.86031 9.60812 10.2706 9.97227 10.2706 10.6083C10.2706 11.2494 9.86028 11.6084 9.31662 11.6084ZM8.79348 7.96685H9.66026L7.20862 11.5571H6.34184L8.79348 7.96685ZM5.73151 8.91571C5.73151 8.27973 6.14181 7.91558 6.6855 7.91558C7.22918 7.91558 7.63949 8.27973 7.63949 8.91571C7.63949 9.55682 7.22918 9.91586 6.6855 9.91586C6.14181 9.91586 5.73151 9.55682 5.73151 8.91571Z" fill="#1A1D32"/>
</svg>
