<svg width="24" height="24" viewBox="0 0 24 24" fill="none" xmlns="http://www.w3.org/2000/svg">
<g id="Size=24px, Type=Clock, Menu=Other">
<g id="Frame">
<g id="Group">
<path id="Vector" d="M12 3C7 3 3 7 3 12C3 17 7 21 12 21C17 21 21 17 21 12C21 7 17 3 12 3ZM12 19C8.1 19 5 15.9 5 12C5 8.1 8.1 5 12 5C15.9 5 19 8.1 19 12C19 15.9 15.9 19 12 19Z" fill="#1A1D32"/>
<path id="Vector_2" d="M15.6 12.7002L13 11.4002V7.2002C13 6.6002 12.6 6.2002 12 6.2002C11.4 6.2002 11 6.6002 11 7.2002V12.0002C11 12.4002 11.2 12.7002 11.6 12.9002L14.8 14.5002C14.9 14.6002 15.1 14.6002 15.2 14.6002C15.6 14.6002 15.9 14.4002 16.1 14.0002C16.3 13.6002 16.1 13.0002 15.6 12.7002Z" fill="#1A1D32"/>
</g>
</g>
</g>
</svg>
