<svg width="24" height="24" viewBox="0 0 24 24" fill="none" xmlns="http://www.w3.org/2000/svg">
<path d="M15 7H17V9C17 9.6 17.4 10 18 10C18.6 10 19 9.6 19 9V7H21C21.6 7 22 6.6 22 6C22 5.4 21.6 5 21 5H19V3C19 2.4 18.6 2 18 2C17.4 2 17 2.4 17 3V5H15C14.4 5 14 5.4 14 6C14 6.6 14.4 7 15 7Z" fill="#1A1D32"/>
<path d="M18 11C17.4 11 17 11.4 17 12C17 14.8 14.8 17 12 17C9.2 17 7 14.8 7 12C7 11.4 6.6 11 6 11C5.4 11 5 11.4 5 12C5 15.9 8.1 19 12 19C15.9 19 19 15.9 19 12C19 11.4 18.6 11 18 11Z" fill="#1A1D32"/>
<path d="M22.9 10.9C22.8 10.4 22.4 9.9 21.8 10C21.3 10.1 20.8 10.5 20.9 11.1C20.9 11.4 20.9 11.7 20.9 12C20.9 17 16.9 21 11.9 21C6.9 21 2.9 17 2.9 12C2.9 7 6.9 3 11.9 3C12.2 3 12.5 3 12.8 3C13.4 3 13.8 2.7 13.9 2.1C14 1.6 13.6 1.1 13 1C12.7 1 12.4 1 12 1C5.9 1 1 5.9 1 12C1 18.1 5.9 23 12 23C18.1 23 23 18.1 23 12C23 11.6 23 11.3 22.9 10.9Z" fill="#1A1D32"/>
</svg>
