<svg width="24" height="24" viewBox="0 0 24 24" fill="none" xmlns="http://www.w3.org/2000/svg">
<path d="M3 11.5C3 9.01472 5.01472 7 7.5 7C9.98528 7 12 9.01472 12 11.5V22.5078C12 22.7796 11.7796 23 11.5078 23H3.49223C3.22038 23 3 22.7796 3 22.5078V11.5Z" stroke="#1A1D32" stroke-width="2"/>
<path d="M22.0388 12.2932C22.4224 14.2109 20.9556 16 19 16C17.0444 16 15.5776 14.2109 15.9612 12.2932L16.8198 8L21.1802 8L22.0388 12.2932Z" stroke="#1A1D32" stroke-width="2"/>
<path d="M6 1H7.5H9V7H6L6 1Z" stroke="#1A1D32" stroke-width="2"/>
<rect x="16" y="22" width="6" height="2" rx="1" fill="#1A1D32"/>
<rect x="18" y="23" width="7" height="2" rx="1" transform="rotate(-90 18 23)" fill="#1A1D32"/>
<path d="M3 15C4 14.1667 5.85336 13.7846 8 14.5C9.5 15 11.1667 14.5 12 13.5" stroke="#1A1D32" stroke-width="2"/>
</svg>
