<svg width="24" height="24" viewBox="0 0 24 24" fill="none" xmlns="http://www.w3.org/2000/svg">
<path d="M3.60508 7.53997H15.6851C16.1251 7.53997 16.4851 7.89997 16.4851 8.33997V20.42C16.4851 20.86 16.1251 21.22 15.6851 21.22H3.60508C3.16508 21.22 2.80508 20.86 2.80508 20.42V8.35996C2.80508 7.89996 3.16508 7.53997 3.60508 7.53997ZM14.8851 9.15996H4.42507V19.62H14.8851V9.15996ZM7.92507 3.77998V5.91997C7.92507 6.25997 8.20507 6.51997 8.52507 6.51997C8.86507 6.51997 9.12507 6.23997 9.12507 5.91997V4.03996H19.9851V14.9H18.1251C17.7851 14.9 17.5251 15.18 17.5251 15.5C17.5251 15.82 17.8051 16.1 18.1251 16.1H20.2451C20.7651 16.1 21.2051 15.68 21.2051 15.14V3.75996C21.2051 3.23996 20.7851 2.79997 20.2451 2.79997H8.86509C8.34509 2.81997 7.92507 3.23998 7.92507 3.77998Z" fill="#1A1D32"/>
</svg>
