<svg width="25" height="24" viewBox="0 0 25 24" fill="none" xmlns="http://www.w3.org/2000/svg">
<g id="Size=24px, Type=Cross, Menu=Other">
<g id="Frame" clip-path="url(#clip0)">
<path id="Vector" d="M13.8102 12.0476L19.2387 6.61905C19.6197 6.2381 19.6197 5.66667 19.2387 5.28571C18.8578 4.90476 18.2863 4.90476 17.9054 5.28571L12.4768 10.619L7.04825 5.28571C6.66729 4.90476 6.09587 4.90476 5.71491 5.28571C5.33396 5.66667 5.33396 6.2381 5.71491 6.61905L11.1435 12.0476L5.71491 17.381C5.33396 17.7619 5.33396 18.3333 5.71491 18.7143C5.90539 18.9048 6.1911 19 6.38158 19C6.57206 19 6.85777 18.9048 7.04825 18.7143L12.4768 13.2857L17.9054 18.7143C18.0959 18.9048 18.3816 19 18.5721 19C18.7625 19 19.0482 18.9048 19.2387 18.7143C19.6197 18.3333 19.6197 17.7619 19.2387 17.381L13.8102 12.0476Z" fill="#1A1D32"/>
</g>
</g>
<defs>
<clipPath id="clip0">
<rect width="14" height="14" fill="white" transform="translate(5.4292 5)"/>
</clipPath>
</defs>
</svg>
