<svg width="24" height="24" viewBox="0 0 24 24" fill="none" xmlns="http://www.w3.org/2000/svg">
<g id="Size=24px, Type=Date, Menu=Other">
<g id="Frame">
<path id="Vector" d="M21 3H17V2C17 1.4 16.6 1 16 1C15.4 1 15 1.4 15 2V3H9V2C9 1.4 8.6 1 8 1C7.4 1 7 1.4 7 2V3H3C2.4 3 2 3.4 2 4V19C2 21.2 3.8 23 6 23H21C21.6 23 22 22.6 22 22V4C22 3.4 21.6 3 21 3ZM20 21H6C4.9 21 4 20.1 4 19V11H20V21ZM20 9H4V5H7V6C7 6.6 7.4 7 8 7C8.6 7 9 6.6 9 6V5H15V6C15 6.6 15.4 7 16 7C16.6 7 17 6.6 17 6V5H20V9Z" fill="#1A1D32"/>
</g>
</g>
</svg>
