<svg width="24" height="24" viewBox="0 0 24 24" fill="none" xmlns="http://www.w3.org/2000/svg">
<g id="Size=24px, Type=Delivery, Menu=Other">
<g id="Frame" clip-path="url(#clip0)">
<g id="Group">
<path id="Vector" d="M13.7 17.7002H8.69995" stroke="#1A1D32" stroke-width="2" stroke-linecap="round" stroke-linejoin="round"/>
<path id="Vector_2" d="M4.6 17.7H2V4H14.1V5.8H18.1L22 12.6V17.7H17.7" stroke="#1A1D32" stroke-width="2" stroke-linecap="round" stroke-linejoin="round"/>
<path id="Vector_3" d="M14.1001 5.7998V10.5998H20.9001" stroke="#1A1D32" stroke-width="2" stroke-linecap="round" stroke-linejoin="round"/>
<path id="Vector_4" d="M6.69995 19.5C7.80452 19.5 8.69995 18.6046 8.69995 17.5C8.69995 16.3954 7.80452 15.5 6.69995 15.5C5.59538 15.5 4.69995 16.3954 4.69995 17.5C4.69995 18.6046 5.59538 19.5 6.69995 19.5Z" stroke="#1A1D32" stroke-width="2" stroke-linecap="round" stroke-linejoin="round"/>
<path id="Vector_5" d="M15.7 19.5C16.8045 19.5 17.7 18.6046 17.7 17.5C17.7 16.3954 16.8045 15.5 15.7 15.5C14.5954 15.5 13.7 16.3954 13.7 17.5C13.7 18.6046 14.5954 19.5 15.7 19.5Z" stroke="#1A1D32" stroke-width="2" stroke-linecap="round" stroke-linejoin="round"/>
</g>
</g>
</g>
<defs>
<clipPath id="clip0">
<rect width="22" height="17.5" fill="white" transform="translate(1 3)"/>
</clipPath>
</defs>
</svg>
