<svg width="24" height="24" viewBox="0 0 24 24" fill="none" xmlns="http://www.w3.org/2000/svg">
<path d="M2 18.8594C2 21.0685 3.79086 22.8594 6 22.8594H20.8594C21.9639 22.8594 22.8594 21.9639 22.8594 20.8594V4C22.8594 2.89543 21.9639 2 20.8594 2H4C2.89543 2 2 2.89543 2 4V18.8594ZM6 20.86C4.89543 20.86 4 19.9646 4 18.86V4H20.86V20.86H6ZM7.22656 14.5156H17.6562C18.0547 14.5156 18.3594 14.1992 18.3594 13.7891C18.3594 13.4023 18.0547 13.0977 17.6562 13.0977H7.22656C6.80469 13.0977 6.5 13.4023 6.5 13.7891C6.5 14.1992 6.80469 14.5156 7.22656 14.5156ZM7.22656 18.0781H14.9727C15.3828 18.0781 15.6875 17.7734 15.6875 17.3867C15.6875 16.9766 15.3828 16.6602 14.9727 16.6602H7.22656C6.80469 16.6602 6.5 16.9766 6.5 17.3867C6.5 17.7734 6.80469 18.0781 7.22656 18.0781Z" fill="#1A1D32"/>
</svg>
