<svg width="22" height="24" viewBox="0 0 24 24" fill="none" xmlns="http://www.w3.org/2000/svg">
<path d="M20.5 7C20.5 6.7 20.4 6.5 20.2 6.3L14.2 0.3C14.1 0.2 14 0.2 13.9 0.1H13.8C13.7 0.1 13.6 0.1 13.5 0C13.5 0 13.5 0 13.4 0H4.5C3.4 0 2.5 0.9 2.5 2V9H1.5C0.9 9 0.5 9.4 0.5 10V15C0.5 15.6 0.9 16 1.5 16H9.5C10.1 16 10.5 15.6 10.5 15V10C10.5 9.4 10.1 9 9.5 9H4.5V2H12.5V7C12.5 7.6 12.9 8 13.5 8H18.5V20H4.5V18H2.5V20C2.5 21.1 3.4 22 4.5 22H18.5C19.6 22 20.5 21.1 20.5 20V7ZM8.5 14H2.5V11H8.5V14ZM14.5 6V3.4L17.1 6H14.5Z" fill="#1A1D32"/>
</svg>
