<svg width="24" height="24" viewBox="0 0 24 24" fill="none" xmlns="http://www.w3.org/2000/svg">
<g id="Size=24px, Type=Edit, Menu=Other">
<g id="Frame" clip-path="url(#clip0)">
<g id="Group">
<path id="Vector" d="M21 19.9058H12C11.4 19.9058 11 20.3246 11 20.9529C11 21.5812 11.4 22 12 22H21C21.6 22 22 21.5812 22 20.9529C22 20.3246 21.6 19.9058 21 19.9058Z" fill="#1A1D32"/>
<path id="Vector_2" d="M21.0999 5.24607C21.0999 4.40838 20.7999 3.57068 20.1999 2.94241C18.9999 1.68586 16.9999 1.68586 15.7999 2.94241L3.2999 16.0314C3.1999 16.1361 3.0999 16.3455 2.9999 16.555L1.9999 20.7435C1.8999 21.0576 1.9999 21.4764 2.2999 21.6859C2.4999 21.8953 2.6999 22 2.9999 22C3.0999 22 3.1999 22 3.1999 22L7.1999 20.9529C7.3999 20.9529 7.4999 20.8482 7.6999 20.6387L20.1999 7.54974C20.7999 6.92147 21.0999 6.18848 21.0999 5.24607ZM18.7999 6.08377L6.4999 18.9634L4.3999 19.4869L4.8999 17.288L17.1999 4.40838C17.5999 3.98953 18.2999 3.98953 18.7999 4.40838C18.9999 4.6178 19.0999 4.93194 19.0999 5.24607C19.0999 5.56021 18.9999 5.87435 18.7999 6.08377Z" fill="#1A1D32"/>
</g>
</g>
</g>
<defs>
<clipPath id="clip0">
<rect width="20" height="20" fill="white" transform="translate(2 2)"/>
</clipPath>
</defs>
</svg>
