<svg width="24" height="24" viewBox="0 0 24 24" fill="none" xmlns="http://www.w3.org/2000/svg">
<path d="M11.3672 22.7109C17.5781 22.7109 22.7227 17.5664 22.7227 11.3555C22.7227 5.14453 17.5664 0 11.3555 0C5.14453 0 0 5.14453 0 11.3555C0 17.5664 5.15625 22.7109 11.3672 22.7109ZM11.3672 20.6953C6.1875 20.6953 2.03906 16.5352 2.03906 11.3555C2.03906 6.17578 6.17578 2.01562 11.3555 2.01562C16.5352 2.01562 20.6953 6.17578 20.707 11.3555C20.7188 16.5352 16.5469 20.6953 11.3672 20.6953ZM11.3438 13.3008C11.9062 13.3008 12.2227 12.9844 12.2461 12.3867L12.3984 6.71484C12.4219 6.11719 11.9531 5.68359 11.3438 5.68359C10.7109 5.68359 10.2656 6.10547 10.2891 6.70312L10.4297 12.3867C10.4531 12.9844 10.7695 13.3008 11.3438 13.3008ZM11.3438 16.9336C12.0117 16.9336 12.5859 16.418 12.5859 15.7617C12.5859 15.0938 12.0234 14.5781 11.3438 14.5781C10.6758 14.5781 10.1133 15.0938 10.1133 15.7617C10.1133 16.4062 10.6875 16.9336 11.3438 16.9336Z" fill="#DC2A2A"/>
</svg>
