<svg width="24" height="24" viewBox="0 0 24 24" fill="none" xmlns="http://www.w3.org/2000/svg">
<path d="M12.3672 23.7109C18.5781 23.7109 23.7227 18.5664 23.7227 12.3555C23.7227 6.14453 18.5664 1 12.3555 1C6.14453 1 1 6.14453 1 12.3555C1 18.5664 6.15625 23.7109 12.3672 23.7109ZM12.3672 21.6953C7.1875 21.6953 3.03906 17.5352 3.03906 12.3555C3.03906 7.17578 7.17578 3.01562 12.3555 3.01562C17.5352 3.01562 21.6953 7.17578 21.707 12.3555C21.7188 17.5352 17.5469 21.6953 12.3672 21.6953ZM12.3438 14.3008C12.9062 14.3008 13.2227 13.9844 13.2461 13.3867L13.3984 7.71484C13.4219 7.11719 12.9531 6.68359 12.3438 6.68359C11.7109 6.68359 11.2656 7.10547 11.2891 7.70312L11.4297 13.3867C11.4531 13.9844 11.7695 14.3008 12.3438 14.3008ZM12.3438 17.9336C13.0117 17.9336 13.5859 17.418 13.5859 16.7617C13.5859 16.0938 13.0234 15.5781 12.3438 15.5781C11.6758 15.5781 11.1133 16.0938 11.1133 16.7617C11.1133 17.4062 11.6875 17.9336 12.3438 17.9336Z" fill="#1A1D32"/>
</svg>
