<svg width="24" height="24" viewBox="0 0 24 24" fill="none" xmlns="http://www.w3.org/2000/svg">
<path fill-rule="evenodd" clip-rule="evenodd" d="M5.11371 7.50007L12.0117 9.88784L19.175 7.50007L12.0117 5.1123L5.11371 7.50007ZM1.72953 6.55509L11.3575 3.22233C11.7739 3.07821 12.2262 3.07561 12.6442 3.21494L22.6535 6.55139C23.5652 6.85529 23.5652 8.14486 22.6535 8.44876L21.8496 8.71674V15.648L23.5299 17.3283C23.9009 17.6993 23.9009 18.3008 23.5299 18.6718L21.8496 20.3522V21.5001C21.8496 21.9695 21.469 22.3501 20.9996 22.3501C20.5301 22.3501 20.1496 21.9695 20.1496 21.5001V20.3522L18.4692 18.6718C18.0982 18.3008 18.0982 17.6993 18.4692 17.3283L20.1496 15.648V9.28341L18.9996 9.66674V14.4761C18.9996 15.1209 18.6849 15.7716 18.0785 16.1395C15.6253 17.6277 10.3257 19.4459 5.78099 16.0962C5.26251 15.7141 4.99957 15.1164 4.99957 14.5262V9.577L1.72953 8.44506C0.832345 8.1345 0.832343 6.86565 1.72953 6.55509ZM12.6442 11.7852L16.9996 10.3334V14.4547C14.7973 15.7748 10.5322 17.0867 6.99957 14.5097V10.2693L11.3575 11.7778C11.7739 11.9219 12.2262 11.9245 12.6442 11.7852ZM20.2017 18.0001L20.9996 17.2022L21.7975 18.0001L20.9996 18.798L20.2017 18.0001Z" fill="#1A1D32"/>
</svg>
