<svg width="24" height="24" viewBox="0 0 24 24" fill="none" xmlns="http://www.w3.org/2000/svg">
<g id="Size=24px, Type=External Link, Menu=Other">
<g id="Frame">
<g id="Group">
<path id="Vector" d="M3 12C3 12.6 3.4 13 4 13H12.6L10.3 15.3C9.9 15.7 9.9 16.3 10.3 16.7C10.5 16.9 10.7 17 11 17C11.3 17 11.5 16.9 11.7 16.7L15.7 12.7C15.8 12.6 15.9 12.5 15.9 12.4C16 12.2 16 11.9 15.9 11.6C15.8 11.5 15.8 11.4 15.7 11.3L11.7 7.3C11.3 6.9 10.7 6.9 10.3 7.3C9.9 7.7 9.9 8.3 10.3 8.7L12.6 11H4C3.4 11 3 11.4 3 12Z" fill="#1A1D32"/>
<path id="Vector_2" d="M20 3H4C3.4 3 3 3.4 3 4V6C3 6.6 3.4 7 4 7C4.6 7 5 6.6 5 6V5H19V17C19 18.1 18.1 19 17 19H5V18C5 17.4 4.6 17 4 17C3.4 17 3 17.4 3 18V20C3 20.6 3.4 21 4 21H17C19.2 21 21 19.2 21 17V4C21 3.4 20.6 3 20 3Z" fill="#1A1D32"/>
</g>
</g>
</g>
</svg>
