<svg width="24" height="24" viewBox="0 0 24 24" fill="none" xmlns="http://www.w3.org/2000/svg">
<g id="Size=24px, Type=Eye, Menu=Other">
<g id="Frame">
<g id="Group">
<path id="Vector" d="M23.9 11.6C23.7 11.2 19.5 3 12 3C4.50002 3 0.300024 11.2 0.100024 11.6C2.44156e-05 11.8 2.44156e-05 12.2 0.100024 12.4C0.300024 12.8 4.50002 21 12 21C19.5 21 23.7 12.8 23.9 12.4C24 12.2 24 11.8 23.9 11.6ZM12 19C6.60002 19 3.10002 13.6 2.10002 12C3.10002 10.4 6.60002 5 12 5C17.4 5 20.9 10.4 21.9 12C20.9 13.6 17.4 19 12 19Z" fill="#1A1D32"/>
<path id="Vector_2" d="M12 8C9.8 8 8 9.8 8 12C8 14.2 9.8 16 12 16C14.2 16 16 14.2 16 12C16 9.8 14.2 8 12 8ZM12 14C10.9 14 10 13.1 10 12C10 10.9 10.9 10 12 10C13.1 10 14 10.9 14 12C14 13.1 13.1 14 12 14Z" fill="#1A1D32"/>
</g>
</g>
</g>
</svg>
