<svg fill="none" xmlns="http://www.w3.org/2000/svg" viewBox="2 2 20 20">
    <g clip-path="url(#clip0)">
        <path d="M3 22c-.3 0-.5-.1-.7-.3-.3-.3-.4-.7-.2-1l1.8-5.3c-.6-1.2-.9-2.6-.9-3.9C3 7.9 5 4.6 8.3 3c1.3-.7 2.7-1 4.2-1h.5c4.9.3 8.7 4.1 9 8.9v.6c0 1.5-.3 2.9-1 4.3-1.6 3.2-4.9 5.2-8.5 5.2-1.3 0-2.6-.3-3.8-.8L3.4 22H3zm9.5-18c-1.2 0-2.3.3-3.3.8C6.6 6.1 5 8.6 5 11.5c0 1.2.3 2.3.8 3.3.1.2.1.5.1.8l-1.3 3.8 3.8-1.3c.3-.1.5-.1.8.1 1 .5 2.2.8 3.3.8 2.9 0 5.4-1.6 6.7-4.1.5-1 .8-2.2.8-3.4V11c-.2-3.8-3.2-6.8-7.1-7h-.4z" fill="#1A1D32"></path>
    </g>
    <path d="M12.662 8.458c.891 0 1.453.549 1.453 1.385 0 1.043-.864 1.481-2.249 1.481l-.013 2.318h1.892v-1.138c1.207-.22 2.428-1.166 2.428-2.812 0-1.796-1.413-2.976-3.388-2.976-1.777 0-3.014.917-3.537 2.19-.207.507.185 1.014.727 1.092.556.08 1.035-.342 1.335-.818.284-.45.739-.722 1.352-.722zm-.988 7.159c0 .606.492 1.097 1.097 1.097h.055a1.097 1.097 0 000-2.194h-.055c-.606 0-1.097.49-1.097 1.097z" fill="#1A1D32"></path>
    <defs>
        <clipPath id="clip0">
            <path fill="#fff" transform="translate(2 2)" d="M0 0h20v20H0z"></path>
        </clipPath>
    </defs>
</svg>
