<svg width="24" height="24" viewBox="0 0 24 24" fill="none" xmlns="http://www.w3.org/2000/svg">
<g id="Size=24px, Type=Filter, Menu=Other">
<g id="Iconography / Nav / Settings">
<path id="Shape" fill-rule="evenodd" clip-rule="evenodd" d="M5 2C5.55228 2 6 2.44772 6 3L6.0009 5.17102C7.16562 5.58311 8 6.69412 8 8C8 9.30588 7.16562 10.4169 6.0009 10.829L6 21C6 21.5523 5.55228 22 5 22C4.44772 22 4 21.5523 4 21L4.00009 10.8293C2.83485 10.4175 2 9.30625 2 8C2 6.69375 2.83485 5.58249 4.00009 5.17067L4 3C4 2.44772 4.44772 2 5 2ZM12 2C12.5523 2 13 2.44772 13 3V11C13 11.0566 12.9953 11.112 12.9863 11.166C14.158 11.5731 15 12.6882 15 14C15 15.3059 14.1656 16.4169 13.0009 16.829L13 21C13 21.5523 12.5523 22 12 22C11.4477 22 11 21.5523 11 21L11.0001 16.8293C9.83485 16.4175 9 15.3063 9 14C9 12.6882 9.84196 11.5731 11.015 11.1655C11.0047 11.112 11 11.0566 11 11V3C11 2.44772 11.4477 2 12 2ZM19 2C19.5523 2 20 2.44772 20 3L20.0009 8.17102C21.1656 8.58312 22 9.69412 22 11C22 12.3118 21.158 13.4269 19.985 13.8345C19.9953 13.888 20 13.9434 20 14V21C20 21.5523 19.5523 22 19 22C18.4477 22 18 21.5523 18 21V14C18 13.9434 18.0047 13.888 18.0137 13.834C16.842 13.4269 16 12.3118 16 11C16 9.69375 16.8349 8.58249 18.0001 8.17067L18 3C18 2.44772 18.4477 2 19 2ZM12 13C11.4477 13 11 13.4477 11 14C11 14.5523 11.4477 15 12 15C12.5523 15 13 14.5523 13 14C13 13.4477 12.5523 13 12 13ZM19 10C18.4477 10 18 10.4477 18 11C18 11.5523 18.4477 12 19 12C19.5523 12 20 11.5523 20 11C20 10.4477 19.5523 10 19 10ZM5 7C4.44772 7 4 7.44772 4 8C4 8.55228 4.44772 9 5 9C5.55228 9 6 8.55228 6 8C6 7.44772 5.55228 7 5 7Z" fill="#1A1D32"/>
</g>
</g>
</svg>
