<svg width="19" height="22" viewBox="0 0 19 22" fill="none" xmlns="http://www.w3.org/2000/svg">
<path d="M13.5001 17C13.7653 17 14.0197 16.8946 14.2072 16.7071C14.3948 16.5196 14.5001 16.2652 14.5001 16V14H16.5001C16.7653 14 17.0197 13.8946 17.2072 13.7071C17.3948 13.5196 17.5001 13.2652 17.5001 13C17.5001 12.7348 17.3948 12.4804 17.2072 12.2929C17.0197 12.1054 16.7653 12 16.5001 12H14.5001V10C14.5001 9.73478 14.3948 9.48043 14.2072 9.29289C14.0197 9.10536 13.7653 9 13.5001 9C13.2349 9 12.9805 9.10536 12.793 9.29289C12.6055 9.48043 12.5001 9.73478 12.5001 10V12H10.5001C10.2349 12 9.98055 12.1054 9.79301 12.2929C9.60548 12.4804 9.50012 12.7348 9.50012 13C9.50012 13.2652 9.60548 13.5196 9.79301 13.7071C9.98055 13.8946 10.2349 14 10.5001 14H12.5001V16C12.5001 16.2652 12.6055 16.5196 12.793 16.7071C12.9805 16.8946 13.2349 17 13.5001 17Z" fill="#1A1D32"/>
<path d="M18.2301 5.32C18.1369 5.21946 18.024 5.13917 17.8984 5.08413C17.7728 5.02908 17.6372 5.00044 17.5001 5H14.5001V4.87C14.4975 3.57921 13.9835 2.34204 13.0708 1.42931C12.1581 0.516579 10.9209 0.00264237 9.63012 0H9.37012C8.07933 0.00264237 6.84216 0.516579 5.92943 1.42931C5.0167 2.34204 4.50276 3.57921 4.50012 4.87V5H1.50012C1.363 5.00044 1.22744 5.02908 1.10186 5.08413C0.976278 5.13917 0.863359 5.21946 0.770119 5.32C0.676096 5.41982 0.603608 5.53791 0.55716 5.66693C0.510711 5.79596 0.491296 5.93316 0.500119 6.07L1.39012 19.31C1.46707 20.0508 1.8168 20.7364 2.37129 21.2336C2.92578 21.7308 3.64538 22.004 4.39012 22H14.6201C15.3649 22.004 16.0845 21.7308 16.639 21.2336C17.1934 20.7364 17.5432 20.0508 17.6201 19.31L17.7101 18.07C17.7287 17.8048 17.6411 17.5431 17.4667 17.3424C17.2923 17.1417 17.0453 17.0186 16.7801 17C16.5149 16.9814 16.2532 17.069 16.0525 17.2434C15.8518 17.4178 15.7287 17.6648 15.7101 17.93L15.6301 19.18C15.5875 19.413 15.4636 19.6232 15.2805 19.7734C15.0974 19.9236 14.8669 20.0039 14.6301 20H4.38012C4.14333 20.0039 3.91286 19.9236 3.72973 19.7734C3.54661 19.6232 3.42272 19.413 3.38012 19.18L2.57012 7H16.4301L16.3701 7.93C16.3606 8.06139 16.3771 8.19337 16.4188 8.31835C16.4604 8.44333 16.5263 8.55885 16.6127 8.65828C16.6992 8.7577 16.8044 8.83908 16.9223 8.89772C17.0403 8.95636 17.1687 8.99112 17.3001 9C17.5638 9.01647 17.8233 8.9279 18.0219 8.75364C18.2206 8.57939 18.3421 8.33361 18.3601 8.07L18.5001 6.07C18.5089 5.93316 18.4895 5.79596 18.4431 5.66693C18.3966 5.53791 18.3241 5.41982 18.2301 5.32ZM6.50012 5V4.87C6.50275 4.10964 6.80598 3.38117 7.34363 2.84352C7.88129 2.30586 8.60976 2.00264 9.37012 2H9.63012C10.3905 2.00264 11.1189 2.30586 11.6566 2.84352C12.1943 3.38117 12.4975 4.10964 12.5001 4.87V5H6.50012Z" fill="#1A1D32"/>
</svg>