<svg width="17" height="16" viewBox="0 0 17 16" fill="none" xmlns="http://www.w3.org/2000/svg">
<path d="M16.4999 5.00516C16.4908 4.90037 16.457 4.79922 16.4013 4.70996C16.3455 4.62071 16.2694 4.54587 16.1792 4.49157L8.83063 0.0893597C8.72907 0.030818 8.61387 0 8.4966 0C8.37933 0 8.26413 0.030818 8.16257 0.0893597L0.813981 4.49157C0.732287 4.54046 0.662008 4.60622 0.607854 4.68444C0.553701 4.76267 0.516929 4.85155 0.5 4.94513C0.5 4.98515 0.5 5.02517 0.5 5.06519V10.9348C0.50002 11.0506 0.53021 11.1643 0.587605 11.2649C0.644999 11.3655 0.72762 11.4494 0.827345 11.5084L8.17594 15.9106C8.2775 15.9692 8.3927 16 8.50996 16C8.62723 16 8.74244 15.9692 8.84399 15.9106L16.1926 11.5084C16.2886 11.447 16.3672 11.362 16.421 11.2616C16.4748 11.1611 16.502 11.0487 16.4999 10.9348V5.06519C16.4999 5.06519 16.4999 5.02517 16.4999 5.00516ZM8.48324 8.667L6.10497 7.24629L12.1575 3.62447L14.5358 5.04518L8.48324 8.667ZM8.48324 1.42336L10.8615 2.84408L4.80895 6.4659L2.43068 5.04518L8.48324 1.42336ZM1.8027 6.22578L7.81519 9.82759V14.1364L1.8027 10.5346V6.22578ZM9.1513 14.1364V9.84759L15.1638 6.24578V10.5546L9.1513 14.1364Z" fill="white"/>
</svg>
