<svg width="16" height="16" viewBox="0 0 16 16" fill="none" xmlns="http://www.w3.org/2000/svg">
<path d="M13.9998 4.6665H11.9332C12.5998 3.99984 13.0665 3.13317 13.2665 2.13317C13.3332 1.79984 13.1998 1.39984 12.9998 1.13317C12.7332 0.866504 12.3998 0.666504 11.9998 0.666504C10.2665 0.666504 8.79984 1.59984 7.99984 2.99984C7.13317 1.59984 5.6665 0.666504 3.93317 0.666504C3.53317 0.666504 3.19984 0.866504 2.93317 1.13317C2.73317 1.39984 2.59984 1.79984 2.6665 2.13317C2.8665 3.13317 3.33317 3.99984 3.99984 4.6665H1.99984C1.2665 4.6665 0.666504 5.2665 0.666504 5.99984V7.33317C0.666504 8.0665 1.2665 8.6665 1.99984 8.6665V13.9998C1.99984 14.7332 2.59984 15.3332 3.33317 15.3332H12.6665C13.3998 15.3332 13.9998 14.7332 13.9998 13.9998V9.99984H12.6665V13.9998H8.6665V8.6665H13.9998C14.7332 8.6665 15.3332 8.0665 15.3332 7.33317V5.99984C15.3332 5.2665 14.7332 4.6665 13.9998 4.6665ZM11.9332 1.99984C11.5998 3.53317 10.2665 4.6665 8.73317 4.6665C9.0665 3.19984 10.3332 1.99984 11.9332 1.99984ZM7.19984 4.6665C5.6665 4.6665 4.33317 3.53317 3.99984 1.99984C5.59984 1.99984 6.93317 3.19984 7.19984 4.6665ZM1.99984 5.99984H7.2665H7.33317V7.33317H2.6665H1.99984V5.99984ZM7.33317 13.9998H3.33317V8.6665H7.33317V13.9998ZM13.9998 7.33317H8.6665V5.99984H13.9998V7.33317Z" fill="white"/>
</svg>
