<svg width="24" height="24" viewBox="0 0 24 24" fill="none" xmlns="http://www.w3.org/2000/svg">
<path d="M5.49969 12.8999C5.09969 11.0999 5.49969 9.1999 6.59969 7.6999C7.09969 6.8999 7.79969 6.2999 8.49969 5.7999C9.29969 5.2999 10.0997 4.8999 10.9997 4.7999C11.8997 4.5999 12.7997 4.5999 13.6997 4.7999C14.252 4.91036 14.7892 4.55219 14.8997 3.9999C15.0101 3.44762 14.652 2.91036 14.0997 2.7999C12.8997 2.5999 11.7997 2.5999 10.5997 2.7999C9.49969 2.8999 8.39969 3.3999 7.39969 3.9999C6.39969 4.6999 5.59969 5.4999 4.89969 6.4999C3.59969 8.4999 3.09969 10.8999 3.49969 13.2999C3.61014 13.8522 4.1474 14.2104 4.69969 14.0999C5.25197 13.9894 5.61014 13.4522 5.49969 12.8999Z" fill="#1A1D32"/>
<path d="M21.3997 9.7999C21.2892 9.24761 20.752 8.88944 20.1997 8.9999C19.6474 9.11035 19.2892 9.64761 19.3997 10.1999C19.7997 11.9999 19.3997 13.8999 18.2997 15.4999C17.7997 16.2999 17.0997 16.8999 16.3997 17.3999C15.5997 17.8999 14.7997 18.2999 13.8997 18.3999C12.9997 18.5999 12.0997 18.5999 11.1997 18.3999C10.6474 18.2894 10.1101 18.6476 9.99968 19.1999C9.88923 19.7522 10.2474 20.2894 10.7997 20.3999C11.3997 20.4999 11.9997 20.5999 12.5997 20.5999C13.1997 20.5999 13.7997 20.4999 14.2997 20.3999C15.4997 20.1999 16.5997 19.6999 17.5997 19.0999C18.5997 18.3999 19.3997 17.5999 20.0997 16.5999C21.3997 14.4999 21.8997 12.0999 21.3997 9.7999Z" fill="#1A1D32"/>
<path d="M5.10068 19.2411C4.7026 18.8583 4.69019 18.2253 5.07298 17.8272L18.1033 4.27613C18.4861 3.87805 19.1191 3.86564 19.5172 4.24843C19.9152 4.63122 19.9277 5.26425 19.5449 5.66233L6.51458 19.2134C6.13179 19.6115 5.49877 19.6239 5.10068 19.2411Z" fill="#1A1D32"/>
</svg>
