<svg width="22" height="22" viewBox="0 0 22 22" fill="none" xmlns="http://www.w3.org/2000/svg">
<path d="M9 0H1C0.4 0 0 0.4 0 1V9C0 9.6 0.4 10 1 10H9C9.6 10 10 9.6 10 9V1C10 0.4 9.6 0 9 0ZM8 8H2V2H8V8Z" fill="#1A1D32"/>
<path d="M21 0H13C12.4 0 12 0.4 12 1V9C12 9.6 12.4 10 13 10H21C21.6 10 22 9.6 22 9V1C22 0.4 21.6 0 21 0ZM20 8H14V2H20V8Z" fill="#1A1D32"/>
<path d="M9 12H1C0.4 12 0 12.4 0 13V21C0 21.6 0.4 22 1 22H9C9.6 22 10 21.6 10 21V13C10 12.4 9.6 12 9 12ZM8 20H2V14H8V20Z" fill="#1A1D32"/>
<path d="M21 12H13C12.4 12 12 12.4 12 13V21C12 21.6 12.4 22 13 22H21C21.6 22 22 21.6 22 21V13C22 12.4 21.6 12 21 12ZM20 20H14V14H20V20Z" fill="#1A1D32"/>
</svg>
