<svg width="16" height="16" viewBox="0 0 16 16" fill="none" xmlns="http://www.w3.org/2000/svg">
<path d="M7.69531 4.94141C8.52734 4.94141 9.16016 4.28516 9.16016 3.47656C9.16016 2.64453 8.52734 2 7.69531 2C6.88672 2 6.23047 2.64453 6.23047 3.47656C6.23047 4.28516 6.88672 4.94141 7.69531 4.94141ZM5.83203 14.9023H10.3438C10.8125 14.9023 11.1875 14.5625 11.1875 14.082C11.1875 13.6367 10.8125 13.2852 10.3438 13.2852H9.01953V7.77734C9.01953 7.15625 8.70312 6.74609 8.12891 6.74609H6.03125C5.5625 6.74609 5.19922 7.09766 5.19922 7.54297C5.19922 8.02344 5.5625 8.36328 6.03125 8.36328H7.19141V13.2852H5.83203C5.375 13.2852 5 13.6367 5 14.082C5 14.5625 5.375 14.9023 5.83203 14.9023Z" fill="#969696"/>
</svg>
