<svg width="24" height="24" viewBox="0 0 24 24" fill="none" xmlns="http://www.w3.org/2000/svg">
<path d="M12.3672 23.7109C18.5781 23.7109 23.7227 18.5664 23.7227 12.3555C23.7227 6.14453 18.5664 1 12.3555 1C6.14453 1 1 6.14453 1 12.3555C1 18.5664 6.15625 23.7109 12.3672 23.7109ZM12.3672 21.6953C7.1875 21.6953 3.03906 17.5352 3.03906 12.3555C3.03906 7.17578 7.17578 3.01562 12.3555 3.01562C17.5352 3.01562 21.6953 7.17578 21.707 12.3555C21.7188 17.5352 17.5469 21.6953 12.3672 21.6953ZM12.2734 8.47656C13.1055 8.47656 13.7383 7.82031 13.7383 7.01172C13.7383 6.17969 13.1055 5.53516 12.2734 5.53516C11.4648 5.53516 10.8086 6.17969 10.8086 7.01172C10.8086 7.82031 11.4648 8.47656 12.2734 8.47656ZM10.4102 18.4375H14.9219C15.3906 18.4375 15.7656 18.0977 15.7656 17.6172C15.7656 17.1719 15.3906 16.8203 14.9219 16.8203H13.5977V11.3125C13.5977 10.6914 13.2812 10.2812 12.707 10.2812H10.6094C10.1406 10.2812 9.77734 10.6328 9.77734 11.0781C9.77734 11.5586 10.1406 11.8984 10.6094 11.8984H11.7695V16.8203H10.4102C9.95312 16.8203 9.57812 17.1719 9.57812 17.6172C9.57812 18.0977 9.95312 18.4375 10.4102 18.4375Z" fill="#1A1D32"/>
</svg>
