<svg width="24" height="24" viewBox="0 0 24 24" fill="none" xmlns="http://www.w3.org/2000/svg">
<g id="Size=24px, Type=Kids, Menu=Other">
<g id="Frame" clip-path="url(#clip0)">
<g id="Group">
<path id="Vector" d="M20.4 11.3002C20.4 11.3002 20.3 11.3002 20.4 11.3002C20.1 10.6002 19.8 10.0002 19.4 9.40018C17.9 7.00018 15.6 5.40018 13 5.10018C12.9 4.80018 12.8 4.40018 12.7 4.20018C12.6 4.10018 12.6 4.00018 12.6 3.80018C12.6 3.60018 12.7 3.40018 12.8 3.20018C12.9 3.10018 13.1 3.00018 13.3 3.00018C13.9 3.00018 14.3 2.50018 14.2 1.90018C14.2 1.30018 13.7 0.900178 13.1 1.00018C11.6 1.10018 10.4 2.40018 10.5 4.00018C10.5 4.40018 10.7 4.70018 10.8 5.10018C8.4 5.40018 6.1 6.90018 4.7 9.20018C4.3 9.80018 4 10.4002 3.8 11.1002H3.7C2.9 11.2002 1 11.4002 1 14.2002C1 16.8002 2.8 17.2002 3.6 17.4002C3.7 17.4002 3.8 17.4002 3.8 17.5002C4.1 18.3002 4.5 19.0002 4.9 19.6002C6.5 21.8002 9.1 23.1002 11.9 23.1002C15.1 23.1002 18 21.5002 19.5 18.7002C19.8 18.2002 20 17.6002 20.2 17.0002C20.9 16.9002 22.8 16.8002 22.8 14.2002C23 11.7002 21.1 11.4002 20.4 11.3002ZM20.2 14.9002C19.8 14.9002 18.8 15.0002 18.6 15.9002C18.4 16.5002 18.2 17.1002 17.9 17.6002C16.7 19.7002 14.5 21.0002 12 21.0002C9.8 21.0002 7.8 20.0002 6.6 18.4002C6.2 17.8002 5.9 17.2002 5.6 16.6002C5.3 15.8002 4.5 15.6002 4 15.5002C3.2 15.3002 3 15.3002 3 14.2002C3 13.2002 3.2 13.2002 3.9 13.1002C4.4 13.0002 5.3 12.9002 5.6 12.0002C5.7 11.4002 6 10.8002 6.3 10.3002C7.6 8.30018 9.8 7.00018 12 7.00018C14.2 7.00018 16.4 8.30018 17.7 10.4002C18 11.0002 18.3 11.6002 18.5 12.2002C18.7 13.1002 19.6 13.2002 20.1 13.3002C20.8 13.4002 21 13.4002 21 14.2002C21 14.9002 20.9 14.9002 20.2 14.9002Z" fill="#1A1D32"/>
<path id="Vector_2" d="M14.3 15.3C14.3 15.3 13.5 16 12 16C10.5 16 9.7 15.3 9.7 15.3C9.3 14.9 8.7 14.9 8.3 15.3C7.9 15.7 7.9 16.3 8.3 16.7C8.4 16.8 9.7 18 12 18C14.3 18 15.6 16.8 15.7 16.7C16.1 16.3 16.1 15.7 15.7 15.3C15.3 14.9 14.7 14.9 14.3 15.3Z" fill="#1A1D32"/>
<path id="Vector_3" d="M9 13C9.55228 13 10 12.5523 10 12C10 11.4477 9.55228 11 9 11C8.44772 11 8 11.4477 8 12C8 12.5523 8.44772 13 9 13Z" fill="#1A1D32"/>
<path id="Vector_4" d="M15 13C15.5523 13 16 12.5523 16 12C16 11.4477 15.5523 11 15 11C14.4477 11 14 11.4477 14 12C14 12.5523 14.4477 13 15 13Z" fill="#1A1D32"/>
</g>
</g>
</g>
<defs>
<clipPath id="clip0">
<rect width="22" height="22" fill="white" transform="translate(1 1)"/>
</clipPath>
</defs>
</svg>
