<svg width="24" height="24" viewBox="0 0 24 24" fill="none" xmlns="http://www.w3.org/2000/svg">
<path d="M9.18654 19.2732V17.3858C7.43737 16.3225 6 14.2494 6 12.0463C6 8.25977 9.46032 5.29171 13.3693 6.14847C15.0881 6.53095 16.5939 7.67839 17.3772 9.26187C18.9667 12.4747 17.2936 15.8865 14.8371 17.3781V19.2655C14.8371 19.4873 14.9208 19.9999 14.107 19.9999H9.91663C9.08007 20.0075 9.18654 19.6786 9.18654 19.2732Z" stroke="#1A1D32" stroke-width="2" stroke-linecap="round" stroke-linejoin="round"/>
<path d="M8 23C8 22.4477 8.44772 22 9 22H15C15.5523 22 16 22.4477 16 23C16 23.5523 15.5523 24 15 24H9C8.44772 24 8 23.5523 8 23Z" fill="#1A1D32"/>
<path d="M13.0282 1.02688C13.0353 0.461849 12.5792 0 12.0141 0C11.454 0 11 0.454048 11 1.01414V2.26645C11 2.8222 11.4505 3.27273 12.0063 3.27273C12.5571 3.27273 13.0056 2.82987 13.0125 2.27909L13.0282 1.02688Z" fill="#1A1D32"/>
<path d="M3.21127 4.81759C2.79012 4.38883 2.79399 3.70053 3.21993 3.27653C3.6499 2.84851 4.34616 2.85241 4.77131 3.28524L5.37257 3.89736C5.79372 4.32612 5.78986 5.01442 5.36392 5.43843C4.93394 5.86645 4.23768 5.86254 3.81254 5.42972L3.21127 4.81759Z" fill="#1A1D32"/>
<path d="M20.7271 3.23059C20.2983 2.8038 19.6045 2.80627 19.1788 3.2361L18.5239 3.89743C18.0997 4.32571 18.1022 5.01648 18.5293 5.44173C18.9581 5.86852 19.6519 5.86605 20.0776 5.43622L20.7326 4.77489C21.1567 4.34661 21.1543 3.65584 20.7271 3.23059Z" fill="#1A1D32"/>
<path d="M0 12C0 11.3975 0.488417 10.9091 1.09091 10.9091H1.97758C2.58007 10.9091 3.06849 11.3975 3.06849 12C3.06849 12.6025 2.58007 13.0909 1.97758 13.0909H1.09091C0.488417 13.0909 0 12.6025 0 12Z" fill="#1A1D32"/>
<path d="M24 12C24 11.4477 23.5523 11 23 11H21.7123C21.16 11 20.7123 11.4477 20.7123 12C20.7123 12.5523 21.16 13 21.7123 13H23C23.5523 13 24 12.5523 24 12Z" fill="#1A1D32"/>
</svg>
