<svg width="22" height="20" viewBox="0 0 22 20" fill="none" xmlns="http://www.w3.org/2000/svg">
<path d="M11 20C10.7 20 10.5 19.8974 10.3 19.6923L1.8 10.9744C-0.6 8.51282 -0.6 4.41026 1.8 1.84615C4.2 -0.615385 8.2 -0.615385 10.7 1.84615L11 2.25641L11.3 1.94872C13.7 -0.512821 17.7 -0.512821 20.2 1.94872C21.4 3.17949 22 4.82051 22 6.5641C22 8.30769 21.3 9.84615 20.2 11.0769L11.7 19.7949C11.5 19.8974 11.3 20 11 20ZM6.3 2.15385C5.2 2.15385 4.1 2.5641 3.3 3.38462C1.6 5.12821 1.6 7.89744 3.3 9.53846L11 17.5385L18.8 9.53846C19.6 8.71795 20 7.58974 20 6.46154C20 5.33333 19.6 4.20513 18.8 3.38462C17.1 1.74359 14.4 1.74359 12.8 3.38462L11.8 4.41026C11.4 4.82051 10.8 4.82051 10.4 4.41026L9.4 3.38462C8.4 2.5641 7.4 2.15385 6.3 2.15385Z" fill="#1A1D32"/>
</svg>
