<svg width="24" height="25" viewBox="0 0 24 25" fill="none" xmlns="http://www.w3.org/2000/svg">
<path d="M21.9991 13.5H10.0082C9.45769 13.5 9.00728 13.05 9.00728 12.5C9.00728 11.95 9.45769 11.5 10.0082 11.5H21.9991C22.5496 11.5 23 11.95 23 12.5C23 13.05 22.5496 13.5 21.9991 13.5Z" fill="#1A1D32"/>
<path d="M21.9991 6.5H10.0082C9.45769 6.5 9.00728 6.05 9.00728 5.5C9.00728 4.95 9.45769 4.5 10.0082 4.5H21.9991C22.5496 4.5 23 4.95 23 5.5C23 6.05 22.5496 6.5 21.9991 6.5Z" fill="#1A1D32"/>
<path d="M21.9991 20.5H10.0082C9.45769 20.5 9.00728 20.05 9.00728 19.5C9.00728 18.95 9.45769 18.5 10.0082 18.5H21.9991C22.5496 18.5 23 18.95 23 19.5C23 20.05 22.5496 20.5 21.9991 20.5Z" fill="#1A1D32"/>
<path d="M5.00364 11.5V13.5H3.00182V11.5H5.00364ZM5.00364 9.5H3.00182C1.90082 9.5 1 10.4 1 11.5V13.5C1 14.6 1.90082 15.5 3.00182 15.5H5.00364C6.10464 15.5 7.00546 14.6 7.00546 13.5V11.5C7.00546 10.4 6.10464 9.5 5.00364 9.5Z" fill="#1A1D32"/>
<path d="M5.00364 4.5V6.5H3.00182V4.5H5.00364ZM5.00364 2.5H3.00182C1.90082 2.5 1 3.4 1 4.5V6.5C1 7.6 1.90082 8.5 3.00182 8.5H5.00364C6.10464 8.5 7.00546 7.6 7.00546 6.5V4.5C7.00546 3.4 6.10464 2.5 5.00364 2.5Z" fill="#1A1D32"/>
<path d="M5.00364 18.5V20.5H3.00182V18.5H5.00364ZM5.00364 16.5H3.00182C1.90082 16.5 1 17.4 1 18.5V20.5C1 21.6 1.90082 22.5 3.00182 22.5H5.00364C6.10464 22.5 7.00546 21.6 7.00546 20.5V18.5C7.00546 17.4 6.10464 16.5 5.00364 16.5Z" fill="#1A1D32"/>
</svg>
