<svg width="24" height="24" viewBox="0 0 24 24" fill="none" xmlns="http://www.w3.org/2000/svg">
<g id="Size=24px, Type=Mail, Menu=Other">
<g id="Frame">
<path id="Vector" d="M22 4H2C1.4 4 1 4.37647 1 4.94118V16.2353C1 18.3059 2.8 20 5 20H22C22.6 20 23 19.6235 23 19.0588V4.94118C23 4.37647 22.6 4 22 4ZM21 5.88235V6.35294L12 12.2824L3 6.35294V5.88235H21ZM5 18.1176C3.9 18.1176 3 17.2706 3 16.2353V8.61176L11.4 14.1647C11.6 14.2588 11.8 14.3529 12 14.3529C12.2 14.3529 12.4 14.2588 12.6 14.1647L21 8.61176V18.1176H5Z" fill="#1A1D32"/>
</g>
</g>
</svg>
