<svg width="24" height="24" viewBox="0 0 24 24" fill="none" xmlns="http://www.w3.org/2000/svg">
<g id="Size=24px, Type=Medicine, Menu=Other">
<g id="Frame" clip-path="url(#clip0)">
<g id="Group">
<path id="Vector" d="M16.2 1.3002C14.4 -0.499805 11.6 -0.499805 9.79995 1.3002L1.29995 9.8002C-0.500049 11.6002 -0.500049 14.4002 1.29995 16.2002C2.19995 17.1002 3.29995 17.5002 4.49995 17.5002C5.69995 17.5002 6.79995 17.1002 7.69995 16.2002L16.2 7.7002C17.9 5.9002 17.9 3.1002 16.2 1.3002ZM6.29995 14.8002C5.29995 15.8002 3.69995 15.8002 2.79995 14.8002C1.89995 13.8002 1.79995 12.2002 2.79995 11.3002L6.29995 7.8002L9.79995 11.3002L6.29995 14.8002ZM14.8 6.3002L11.3 9.8002L7.69995 6.3002L11.2 2.8002C11.7 2.2002 12.3 2.0002 13 2.0002C13.7 2.0002 14.3 2.2002 14.8 2.7002C15.7 3.7002 15.7 5.3002 14.8 6.3002Z" fill="#1A1D32"/>
<path id="Vector_2" d="M18 12C14.7 12 12 14.7 12 18C12 21.3 14.7 24 18 24C21.3 24 24 21.3 24 18C24 14.7 21.3 12 18 12ZM18 14C19.4 14 20.6 14.7 21.3 15.8C21.2 15.8 21.2 15.8 21.1 15.8L14 18.3C14 18.2 14 18.1 14 18C14 15.8 15.8 14 18 14ZM18 22C16.6 22 15.4 21.3 14.7 20.2L21.8 17.7C21.9 17.7 21.9 17.6 22 17.6C22 17.7 22 17.9 22 18C22 20.2 20.2 22 18 22Z" fill="#1A1D32"/>
</g>
</g>
</g>
<defs>
<clipPath id="clip0">
<rect width="24" height="24" fill="white"/>
</clipPath>
</defs>
</svg>
