<svg width="18" height="24" viewBox="0 0 18 24" fill="none" xmlns="http://www.w3.org/2000/svg">
<path fill-rule="evenodd" clip-rule="evenodd" d="M3.8002 0.799805C3.30314 0.799805 2.9002 1.20275 2.9002 1.6998V4.7998C2.9002 5.05494 3.00848 5.29809 3.19813 5.46877L4.9002 7.00063V10.8362L1.33408 11.94C0.957173 12.0567 0.700195 12.4053 0.700195 12.7998V15.4998C0.700195 15.9969 1.10314 16.3998 1.6002 16.3998H8.00024V22.2996C8.00024 22.7967 8.40319 23.1996 8.90024 23.1996C9.3973 23.1996 9.80024 22.7967 9.80024 22.2996V16.3998H16.4002C16.8973 16.3998 17.3002 15.9969 17.3002 15.4998V12.7998C17.3002 12.4053 17.0432 12.0567 16.6663 11.94L13.1002 10.8362V6.98692L14.7192 5.45316C14.8986 5.2832 15.0002 5.04694 15.0002 4.7998V1.6998C15.0002 1.20275 14.5973 0.799805 14.1002 0.799805H3.8002Z" fill="black"/>
</svg>
