<svg width="22" height="24" viewBox="0 0 22 24" fill="none" xmlns="http://www.w3.org/2000/svg">
<path d="M21.8 7.43433C21.6 7.13433 21.3 7.03433 21 7.03433H18.5L14.8 1.43433C14.5 0.934326 13.9 0.834326 13.4 1.13433C12.9 1.43433 12.8 2.03433 13.1 2.53433L16.1 6.93433H5.9L8.9 2.53433C9.1 2.13433 9 1.53433 8.6 1.23433C8.1 0.934326 7.5 1.03433 7.2 1.43433L3.5 7.03433H1C0.7 7.03433 0.4 7.13433 0.2 7.43433C0 7.63433 0 8.03433 0 8.33433L3.6 20.9343C4 22.1343 5.2 23.0343 6.5 23.0343H15.5C16.8 23.0343 18 22.1343 18.4 20.8343L22 8.33433C22 8.03433 22 7.63433 21.8 7.43433ZM16.5 20.3343C16.4 20.7343 16 21.0343 15.5 21.0343H6.5C6.1 21.0343 5.7 20.7343 5.5 20.3343L2.3 9.03433H19.6L16.5 20.3343Z" fill="#1A1D32"/>
</svg>
