<svg width="24" height="24" viewBox="0 0 24 24" fill="none" xmlns="http://www.w3.org/2000/svg">
<g id="Size=24px, Type=Nav, Menu=Delete">
<path id="Vector" d="M19 6.21053H16V5.15789C16 4.32037 15.6839 3.51715 15.1213 2.92493C14.5587 2.33271 13.7956 2 13 2H11C10.2044 2 9.44129 2.33271 8.87868 2.92493C8.31607 3.51715 8 4.32037 8 5.15789V6.21053H5C4.73478 6.21053 4.48043 6.32143 4.29289 6.51884C4.10536 6.71624 4 6.98398 4 7.26316C4 7.54233 4.10536 7.81007 4.29289 8.00748C4.48043 8.20489 4.73478 8.31579 5 8.31579H5.857V17.7895C5.857 18.9062 6.27843 19.9771 7.02857 20.7668C7.77872 21.5564 8.79613 22 9.857 22H17.143C17.4082 22 17.6626 21.8891 17.8501 21.6917C18.0376 21.4943 18.143 21.2265 18.143 20.9474V8.31579H19C19.2652 8.31579 19.5196 8.20489 19.7071 8.00748C19.8946 7.81007 20 7.54233 20 7.26316C20 6.98398 19.8946 6.71624 19.7071 6.51884C19.5196 6.32143 19.2652 6.21053 19 6.21053ZM10 5.15789C10 4.87872 10.1054 4.61098 10.2929 4.41357C10.4804 4.21617 10.7348 4.10526 11 4.10526H13C13.2652 4.10526 13.5196 4.21617 13.7071 4.41357C13.8946 4.61098 14 4.87872 14 5.15789V6.21053H10V5.15789ZM16.143 19.8947H9.857C9.32657 19.8947 8.81786 19.6729 8.44279 19.2781C8.06771 18.8833 7.857 18.3478 7.857 17.7895V8.31579H16.143V19.8947Z" fill="#1A1D32"/>
</g>
</svg>
