<svg width="24" height="24" viewBox="0 0 24 24" fill="none" xmlns="http://www.w3.org/2000/svg">
<g id="Size=24px, Type=Nav, Menu=Prescription">
<g id="Union">
<path d="M15.8428 15.7998H8.45971C7.89572 15.7998 7.43428 15.3498 7.43428 14.7998C7.43428 14.2498 7.89572 13.7998 8.45971 13.7998H15.8428C16.4068 13.7998 16.8682 14.2498 16.8682 14.7998C16.8682 15.3498 16.4068 15.7998 15.8428 15.7998Z" fill="#1A1D32"/>
<path d="M8.61342 19.6001H15.9965C16.5092 19.6001 16.9707 19.1501 17.0219 18.6001C17.0219 18.0501 16.5605 17.6001 15.9965 17.6001H8.61342C8.04944 17.6001 7.58799 18.0501 7.58799 18.6001C7.58799 19.1501 8.04944 19.6001 8.61342 19.6001Z" fill="#1A1D32"/>
<path d="M12.2024 12.1C11.6384 12.1 11.177 11.65 11.177 11.1V10.5498H10.6132C10.0492 10.5498 9.58778 10.0998 9.58778 9.5498C9.58778 8.9998 10.0492 8.5498 10.6132 8.5498H11.177V8C11.177 7.45 11.6384 7 12.2024 7C12.7664 7 13.2278 7.45 13.2278 8V8.5498H13.792C14.356 8.5498 14.8175 8.9998 14.8175 9.5498C14.8175 10.0998 14.356 10.5498 13.792 10.5498H13.2278V11.1C13.2278 11.65 12.7664 12.1 12.2024 12.1Z" fill="#1A1D32"/>
<path fill-rule="evenodd" clip-rule="evenodd" d="M7.28057 1.8501V1C7.28057 0.45 7.74201 0 8.30599 0H16.048C16.612 0 17.0734 0.45 17.0734 1V1.8501H21.2263C21.4826 1.8501 21.739 1.9501 21.9441 2.1501C22.1492 2.3501 22.2517 2.6001 22.2517 2.8501V22.5501C22.2517 22.8001 22.1492 23.0501 21.9441 23.2501C21.739 23.4501 21.5852 23.5501 21.2776 23.5501H3.07621C2.51222 23.5501 2.05078 23.1001 2.05078 22.5501V2.8501C2.05078 2.6001 2.15332 2.3501 2.35841 2.1501C2.5635 1.9501 2.81985 1.8501 3.07621 1.8501H7.28057ZM8.30599 5.65H16.0992C16.612 5.65 17.0734 5.2 17.0734 4.65V3.8501H20.2521V21.6001H4.05037V3.8501H7.28057V4.65C7.28057 4.9 7.38311 5.15 7.58819 5.35C7.79328 5.55 8.04964 5.65 8.30599 5.65ZM15.0738 3.7H9.33142V2H15.0738V3.7Z" fill="#1A1D32"/>
</g>
</g>
</svg>
