<svg width="18" height="22" viewBox="0 0 18 22" fill="none" xmlns="http://www.w3.org/2000/svg">
<path fill-rule="evenodd" clip-rule="evenodd" d="M14 5C14 7.8 11.8 10 9 10C6.2 10 4 7.8 4 5C4 2.2 6.2 0 9 0C11.8 0 14 2.2 14 5ZM12 5C12 3.3 10.7 2 9 2C7.3 2 6 3.3 6 5C6 6.7 7.3 8 9 8C10.7 8 12 6.7 12 5Z" fill="#1A1D32"/>
<path fill-rule="evenodd" clip-rule="evenodd" d="M0 16C0 13.2 2.2 11 5 11H13C15.8 11 18 13.2 18 16V21C18 21.6 17.6 22 17 22H4C1.8 22 0 20.2 0 18V16ZM4 20H16V16C16 14.3 14.7 13 13 13H5C3.3 13 2 14.3 2 16V18C2 19.1 2.9 20 4 20Z" fill="#1A1D32"/>
</svg>
