<svg width="24" height="24" viewBox="0 0 24 24" fill="none" xmlns="http://www.w3.org/2000/svg">
<g id="Size=24px, Type=Neutral, Menu=Other">
<g id="Frame" clip-path="url(#clip0)">
<g id="Group">
<path id="Vector" d="M14.2999 15.7701C14.1999 15.8734 12.0999 17.9391 10.2999 16.5964C9.49993 16.08 9.09993 15.2537 8.99993 14.3241C8.89993 13.8077 8.49993 13.3945 7.89993 13.3945C7.29993 13.4978 6.89993 13.911 6.99993 14.5307C7.09993 16.08 7.89993 17.3194 9.09993 18.249C9.89993 18.8687 10.6999 19.0753 11.4999 19.0753C13.1999 19.0753 14.7999 18.0424 15.5999 17.2161C15.9999 16.803 15.9999 16.1833 15.5999 15.7701C15.2999 15.357 14.6999 15.357 14.2999 15.7701Z" fill="#1A1D32"/>
<path id="Vector_2" d="M18.4 7.19718L12.7 1.30986C12.5 1.10329 12.3 1 12 1C11.7 1 11.5 1.10329 11.3 1.30986L5.59998 7.0939C2.09998 10.7089 2.09998 16.5962 5.59998 20.2113C7.29998 21.9671 9.59998 22.8967 12 22.8967C14.4 22.8967 16.7 21.9671 18.4 20.2113C20.1 18.4554 21 16.0798 21 13.6009C21 11.2254 20.1 8.95305 18.4 7.19718ZM16.9 18.8685C15.6 20.2113 13.8 21.0376 12 21.0376C10.1 21.0376 8.39998 20.3146 7.09998 18.9718C4.39998 16.1831 4.39998 11.5352 7.09998 8.74648L12 3.58216L17 8.74648C18.3 10.0892 19.1 11.9484 19.1 13.8075C19.1 15.6667 18.3 17.4225 16.9 18.8685Z" fill="#1A1D32"/>
</g>
</g>
</g>
<defs>
<clipPath id="clip0">
<rect width="18" height="22" fill="white" transform="translate(3 1)"/>
</clipPath>
</defs>
</svg>
