<svg width="24" height="24" viewBox="0 0 24 24" fill="none" xmlns="http://www.w3.org/2000/svg">
<path d="M22.1003 3.0001L22.0003 2.5001L21.4003 2.4001C19.9003 2.0001 18.3003 2.0001 16.7003 2.4001C15.2003 2.8001 13.8003 3.6001 12.7003 4.7001C12.2003 5.2001 11.7003 5.8001 11.4003 6.4001C11.0003 7.1001 10.6003 7.9001 10.4003 8.8001C10.2003 9.4001 10.0003 10.2001 10.0003 11.0001V12.0001V13.0001V15.0001C8.10032 15.3001 6.20032 14.7001 4.90032 13.3001C3.50032 11.9001 2.90032 10.0001 3.20032 8.1001C4.50032 8.0001 6.50032 8.0001 8.00032 8.9001L9.00032 7.2001C6.90032 5.9001 3.90032 5.9001 2.10032 6.4001L1.50032 6.5001L1.40032 7.1001C0.700318 9.8001 1.50032 12.8001 3.50032 14.8001C5.00032 16.3001 7.00032 17.1001 9.10032 17.1001C9.40032 17.1001 9.70032 17.1001 10.0003 17.0001V22.0001H12.0003V13.0001V12.0001V11.0001C12.0003 10.4001 12.2003 9.8001 12.3003 9.2001C12.5003 8.6001 12.7003 7.9001 13.1003 7.4001C13.4003 6.9001 13.7003 6.5001 14.1003 6.1001C15.0003 5.2001 16.1003 4.6001 17.2003 4.3001C18.2003 4.0001 19.2003 4.0001 20.2003 4.2001C20.4003 5.2001 20.3003 6.3001 20.1003 7.2001C19.8003 8.4001 19.2003 9.5001 18.3003 10.3001C17.1003 11.5001 16.0003 12.1001 15.0003 12.1001V14.1001C16.6003 14.1001 18.2003 13.3001 19.7003 11.8001C20.8003 10.7001 21.6003 9.3001 22.0003 7.8001C22.5003 6.1001 22.5003 4.5001 22.1003 3.0001Z" fill="#1A1D32"/>
</svg>
