<svg width="22" height="22" viewBox="0 0 22 22" fill="none" xmlns="http://www.w3.org/2000/svg">
<path d="M17 10C14.2 10 12 7.8 12 5C12 2.2 14.2 0 17 0C19.8 0 22 2.2 22 5C22 7.8 19.8 10 17 10ZM17 2C15.3 2 14 3.3 14 5C14 6.7 15.3 8 17 8C18.7 8 20 6.7 20 5C20 3.3 18.7 2 17 2Z" fill="#1A1D32"/>
<path d="M5 10C2.2 10 0 7.8 0 5C0 2.2 2.2 0 5 0C7.8 0 10 2.2 10 5C10 7.8 7.8 10 5 10ZM5 2C3.3 2 2 3.3 2 5C2 6.7 3.3 8 5 8C6.7 8 8 6.7 8 5C8 3.3 6.7 2 5 2Z" fill="#1A1D32"/>
<path d="M17 22C14.2 22 12 19.8 12 17C12 14.2 14.2 12 17 12C19.8 12 22 14.2 22 17C22 19.8 19.8 22 17 22ZM17 14C15.3 14 14 15.3 14 17C14 18.7 15.3 20 17 20C18.7 20 20 18.7 20 17C20 15.3 18.7 14 17 14Z" fill="#1A1D32"/>
<path d="M5 22C2.2 22 0 19.8 0 17C0 14.2 2.2 12 5 12C7.8 12 10 14.2 10 17C10 19.8 7.8 22 5 22ZM5 14C3.3 14 2 15.3 2 17C2 18.7 3.3 20 5 20C6.7 20 8 18.7 8 17C8 15.3 6.7 14 5 14Z" fill="#1A1D32"/>
</svg>
