<svg width="24" height="24" viewBox="0 0 24 24" fill="none" xmlns="http://www.w3.org/2000/svg">
<g id="Size=24px, Type=Parcel, Menu=Other">
<g id="Frame" clip-path="url(#clip0)">
<path id="Vector" d="M21.7 6.6999C21.7 6.5999 21.7 6.5999 21.6 6.4999C21.5 6.3999 21.5 6.2999 21.4 6.1999C21.2 5.8999 20.9 5.5999 20.5 5.3999L13.5 1.3999C12.6 0.899902 11.4 0.899902 10.5 1.3999L3.5 5.3999C3.2 5.5999 2.9 5.8999 2.6 6.1999C2.5 6.2999 2.5 6.2999 2.4 6.4999C2.4 6.5999 2.4 6.5999 2.3 6.6999C2.1 7.0999 2 7.4999 2 7.9999V15.9999C2 17.0999 2.6 18.0999 3.5 18.5999L10.5 22.5999C11 22.8999 11.5 22.9999 12 22.9999C12.5 22.9999 13 22.8999 13.5 22.5999L20.5 18.5999C21.4 18.0999 22 17.0999 22 15.9999V7.9999C22 7.4999 21.9 7.0999 21.7 6.6999ZM11.5 3.0999C11.7 2.9999 11.8 2.9999 12 2.9999C12.2 2.9999 12.3 2.9999 12.5 3.0999L19 6.7999L12 10.7999L5 6.7999L11.5 3.0999ZM4.5 16.8999C4.2 16.6999 4 16.3999 4 15.9999V8.4999L11 12.4999V20.4999L4.5 16.8999ZM19.5 16.8999L13 20.5999V12.5999L20 8.5999V15.9999C20 16.3999 19.8 16.6999 19.5 16.8999Z" fill="#1A1D32"/>
</g>
</g>
<defs>
<clipPath id="clip0">
<rect width="20" height="22" fill="white" transform="translate(2 1)"/>
</clipPath>
</defs>
</svg>
