<svg viewBox="2 2 20 20" fill="none" xmlns="http://www.w3.org/2000/svg">
    <path id="Vector" d="M7.5 11C9.4 11 11 9.4 11 7.5C11 5.6 9.4 4 7.5 4C5.6 4 4 5.6 4 7.5C4 9.4 5.6 11 7.5 11ZM7.5 6C8.3 6 9 6.7 9 7.5C9 8.3 8.3 9 7.5 9C6.7 9 6 8.3 6 7.5C6 6.7 6.7 6 7.5 6Z" fill="#1A1D32"></path>
    <path id="Vector_2" d="M16.5 13C14.6 13 13 14.6 13 16.5C13 18.4 14.6 20 16.5 20C18.4 20 20 18.4 20 16.5C20 14.6 18.4 13 16.5 13ZM16.5 18C15.7 18 15 17.3 15 16.5C15 15.7 15.7 15 16.5 15C17.3 15 18 15.7 18 16.5C18 17.3 17.3 18 16.5 18Z" fill="#1A1D32"></path>
    <path id="Vector_3" d="M19.2 4.8C18.8 4.4 18.2 4.4 17.8 4.8L4.8 17.8C4.4 18.2 4.4 18.8 4.8 19.2C5 19.4 5.3 19.5 5.5 19.5C5.7 19.5 6 19.4 6.2 19.2L19.2 6.2C19.6 5.8 19.6 5.2 19.2 4.8Z" fill="#1A1D32"></path>
</svg>
