<svg width="24" height="24" viewBox="0 0 24 24" fill="none" xmlns="http://www.w3.org/2000/svg">
<g id="Size=24px, Type=Pin, Menu=Other">
<g id="Frame">
<g id="Group">
<path id="Vector" d="M12 0C6.5 0 2 4.5 2 10C2 17.4 11.1 23.6 11.4 23.8C11.6 23.9 11.8 24 12 24C12.2 24 12.4 23.9 12.6 23.8C12.9 23.6 22 17.4 22 10C22 4.5 17.5 0 12 0ZM12 21.8C10.1 20.4 4 15.4 4 10C4 5.6 7.6 2 12 2C16.4 2 20 5.6 20 10C20 15.4 13.9 20.4 12 21.8Z" fill="#1A1D32"/>
<path id="Vector_2" d="M12 6C9.8 6 8 7.8 8 10C8 12.2 9.8 14 12 14C14.2 14 16 12.2 16 10C16 7.8 14.2 6 12 6ZM12 12C10.9 12 10 11.1 10 10C10 8.9 10.9 8 12 8C13.1 8 14 8.9 14 10C14 11.1 13.1 12 12 12Z" fill="#1A1D32"/>
</g>
</g>
</g>
</svg>
