<svg width="24" height="24" viewBox="0 0 24 24" fill="none" xmlns="http://www.w3.org/2000/svg">
<g id="Size=24px, Type=Plus - Large, Menu=Other">
<path id="Vector 4" d="M13 5C13 4.44772 12.5523 4 12 4C11.4477 4 11 4.44772 11 5H13ZM11 19C11 19.5523 11.4477 20 12 20C12.5523 20 13 19.5523 13 19H11ZM11 5C11 5.01068 11 5.02137 11 5.03207C11 5.04277 11 5.05349 11 5.06421C11 5.07493 11 5.08567 11 5.09642C11 5.10717 11 5.11793 11 5.1287C11 5.13947 11 5.15025 11 5.16104C11 5.17184 11 5.18264 11 5.19346C11 5.20427 11 5.2151 11 5.22594C11 5.23677 11 5.24762 11 5.25848C11 5.26934 11 5.28021 11 5.2911C11 5.30198 11 5.31287 11 5.32377C11 5.33468 11 5.34559 11 5.35652C11 5.36744 11 5.37838 11 5.38932C11 5.40027 11 5.41123 11 5.4222C11 5.43316 11 5.44414 11 5.45513C11 5.46612 11 5.47712 11 5.48813C11 5.49914 11 5.51016 11 5.52119C11 5.53222 11 5.54326 11 5.55431C11 5.56536 11 5.57642 11 5.5875C11 5.59857 11 5.60965 11 5.62074C11 5.63183 11 5.64293 11 5.65404C11 5.66516 11 5.67628 11 5.68741C11 5.69854 11 5.70968 11 5.72083C11 5.73198 11 5.74314 11 5.75432C11 5.76549 11 5.77667 11 5.78786C11 5.79905 11 5.81025 11 5.82145C11 5.83266 11 5.84388 11 5.85511C11 5.86634 11 5.87758 11 5.88882C11 5.90007 11 5.91133 11 5.92259C11 5.93386 11 5.94513 11 5.95642C11 5.9677 11 5.97899 11 5.99029C11 6.0016 11 6.01291 11 6.02423C11 6.03555 11 6.04688 11 6.05822C11 6.06955 11 6.0809 11 6.09226C11 6.10361 11 6.11498 11 6.12635C11 6.13773 11 6.14911 11 6.1605C11 6.17189 11 6.18329 11 6.1947C11 6.20611 11 6.21752 11 6.22895C11 6.24038 11 6.25181 11 6.26325C11 6.27469 11 6.28614 11 6.2976C11 6.30906 11 6.32053 11 6.33201C11 6.34348 11 6.35496 11 6.36646C11 6.37795 11 6.38945 11 6.40096C11 6.41247 11 6.42398 11 6.43551C11 6.44703 11 6.45856 11 6.4701C11 6.48164 11 6.49319 11 6.50475C11 6.5163 11 6.52787 11 6.53944C11 6.55101 11 6.56259 11 6.57417C11 6.58576 11 6.59736 11 6.60896C11 6.62056 11 6.63217 11 6.64379C11 6.6554 11 6.66703 11 6.67866C11 6.69029 11 6.70193 11 6.71358C11 6.72522 11 6.73688 11 6.74854C11 6.7602 11 6.77186 11 6.78354C11 6.79522 11 6.8069 11 6.81859C11 6.83028 11 6.84197 11 6.85368C11 6.86538 11 6.87709 11 6.88881C11 6.90052 11 6.91225 11 6.92398C11 6.93571 11 6.94745 11 6.95919C11 6.97093 11 6.98268 11 6.99444C11 7.0062 11 7.01796 11 7.02973C11 7.0415 11 7.05328 11 7.06507C11 7.07685 11 7.08864 11 7.10043C11 7.11223 11 7.12403 11 7.13584C11 7.14765 11 7.15947 11 7.17129C11 7.18311 11 7.19494 11 7.20677C11 7.2186 11 7.23044 11 7.24229C11 7.25413 11 7.26598 11 7.27784C11 7.2897 11 7.30156 11 7.31343C11 7.3253 11 7.33718 11 7.34906C11 7.36094 11 7.37282 11 7.38472C11 7.39661 11 7.40851 11 7.42041C11 7.43231 11 7.44422 11 7.45614C11 7.46805 11 7.47997 11 7.49189C11 7.50382 11 7.51575 11 7.52769C11 7.53962 11 7.55156 11 7.56351C11 7.57546 11 7.58741 11 7.59936C11 7.61132 11 7.62328 11 7.63525C11 7.64722 11 7.65919 11 7.67116C11 7.68314 11 7.69512 11 7.70711C11 7.7191 11 7.73109 11 7.74308C11 7.75508 11 7.76708 11 7.77909C11 7.79109 11 7.8031 11 7.81512C11 7.82713 11 7.83915 11 7.85118C11 7.8632 11 7.87523 11 7.88726C11 7.8993 11 7.91133 11 7.92338C11 7.93542 11 7.94746 11 7.95951C11 7.97157 11 7.98362 11 7.99568C11 8.00774 11 8.0198 11 8.03187C11 8.04394 11 8.05601 11 8.06808C11 8.08016 11 8.09224 11 8.10432C11 8.1164 11 8.12849 11 8.14058C11 8.15267 11 8.16477 11 8.17687C11 8.18896 11 8.20107 11 8.21317C11 8.22528 11 8.23739 11 8.2495C11 8.26161 11 8.27373 11 8.28585C11 8.29797 11 8.3101 11 8.32222C11 8.33435 11 8.34648 11 8.35861C11 8.37075 11 8.38289 11 8.39503C11 8.40717 11 8.41931 11 8.43146C11 8.4436 11 8.45575 11 8.46791C11 8.48006 11 8.49222 11 8.50437C11 8.51653 11 8.52869 11 8.54086C11 8.55302 11 8.56519 11 8.57736C11 8.58953 11 8.60171 11 8.61388C11 8.62606 11 8.63824 11 8.65042C11 8.6626 11 8.67478 11 8.68697C11 8.69916 11 8.71135 11 8.72354C11 8.73573 11 8.74792 11 8.76012C11 8.77231 11 8.78451 11 8.79671C11 8.80891 11 8.82112 11 8.83332C11 8.84553 11 8.85774 11 8.86995C11 8.88216 11 8.89437 11 8.90658C11 8.91879 11 8.93101 11 8.94323C11 8.95545 11 8.96767 11 8.97989C11 8.99211 11 9.00433 11 9.01656C11 9.02878 11 9.04101 11 9.05324C11 9.06547 11 9.0777 11 9.08993C11 9.10216 11 9.11439 11 9.12663C11 9.13886 11 9.1511 11 9.16334C11 9.17557 11 9.18781 11 9.20005C11 9.21229 11 9.22454 11 9.23678C11 9.24902 11 9.26127 11 9.27351C11 9.28576 11 9.298 11 9.31025C11 9.3225 11 9.33475 11 9.347C11 9.35925 11 9.3715 11 9.38375C11 9.396 11 9.40825 11 9.42051C11 9.43276 11 9.44501 11 9.45727C11 9.46952 11 9.48178 11 9.49403C11 9.50629 11 9.51855 11 9.5308C11 9.54306 11 9.55532 11 9.56758C11 9.57984 11 9.59209 11 9.60435C11 9.61661 11 9.62887 11 9.64113C11 9.65339 11 9.66565 11 9.67791C11 9.69017 11 9.70243 11 9.71469C11 9.72695 11 9.73922 11 9.75148C11 9.76374 11 9.776 11 9.78826C11 9.80052 11 9.81278 11 9.82504C11 9.8373 11 9.84956 11 9.86182C11 9.87408 11 9.88634 11 9.8986C11 9.91086 11 9.92312 11 9.93538C11 9.94764 11 9.9599 11 9.97215C11 9.98441 11 9.99667 11 10.0089C11 10.0212 11 10.0334 11 10.0457C11 10.058 11 10.0702 11 10.0825C11 10.0947 11 10.107 11 10.1192C11 10.1315 11 10.1437 11 10.156C11 10.1682 11 10.1805 11 10.1927C11 10.205 11 10.2172 11 10.2295C11 10.2417 11 10.254 11 10.2662C11 10.2785 11 10.2907 11 10.3029C11 10.3152 11 10.3274 11 10.3397C11 10.3519 11 10.3641 11 10.3764C11 10.3886 11 10.4008 11 10.4131C11 10.4253 11 10.4375 11 10.4498C11 10.462 11 10.4742 11 10.4865C11 10.4987 11 10.5109 11 10.5231C11 10.5354 11 10.5476 11 10.5598C11 10.572 11 10.5842 11 10.5965C11 10.6087 11 10.6209 11 10.6331C11 10.6453 11 10.6575 11 10.6697C11 10.6819 11 10.6941 11 10.7064C11 10.7186 11 10.7308 11 10.743C11 10.7552 11 10.7674 11 10.7795C11 10.7917 11 10.8039 11 10.8161C11 10.8283 11 10.8405 11 10.8527C11 10.8649 11 10.877 11 10.8892C11 10.9014 11 10.9136 11 10.9258C11 10.9379 11 10.9501 11 10.9623C11 10.9744 11 10.9866 11 10.9988C11 11.0109 11 11.0231 11 11.0352C11 11.0474 11 11.0596 11 11.0717C11 11.0839 11 11.096 11 11.1082C11 11.1203 11 11.1324 11 11.1446C11 11.1567 11 11.1689 11 11.181C11 11.1931 11 11.2052 11 11.2174C11 11.2295 11 11.2416 11 11.2537C11 11.2658 11 11.278 11 11.2901C11 11.3022 11 11.3143 11 11.3264C11 11.3385 11 11.3506 11 11.3627C11 11.3748 11 11.3869 11 11.399C11 11.4111 11 11.4231 11 11.4352C11 11.4473 11 11.4594 11 11.4715C11 11.4835 11 11.4956 11 11.5077C11 11.5197 11 11.5318 11 11.5438C11 11.5559 11 11.5679 11 11.58C11 11.592 11 11.6041 11 11.6161C11 11.6282 11 11.6402 11 11.6522C11 11.6643 11 11.6763 11 11.6883C11 11.7003 11 11.7123 11 11.7243C11 11.7364 11 11.7484 11 11.7604C11 11.7724 11 11.7844 11 11.7964C11 11.8084 11 11.8203 11 11.8323C11 11.8443 11 11.8563 11 11.8683C11 11.8802 11 11.8922 11 11.9042C11 11.9161 11 11.9281 11 11.94C11 11.952 11 11.9639 11 11.9759C11 11.9878 11 11.9998 11 12.0117C11 12.0236 11 12.0356 11 12.0475C11 12.0594 11 12.0713 11 12.0832C11 12.0951 11 12.107 11 12.1189C11 12.1308 11 12.1427 11 12.1546C11 12.1665 11 12.1784 11 12.1903C11 12.2021 11 12.214 11 12.2259C11 12.2377 11 12.2496 11 12.2615C11 12.2733 11 12.2852 11 12.297C11 12.3088 11 12.3207 11 12.3325C11 12.3443 11 12.3562 11 12.368C11 12.3798 11 12.3916 11 12.4034C11 12.4152 11 12.427 11 12.4388C11 12.4506 11 12.4624 11 12.4742C11 12.4859 11 12.4977 11 12.5095C11 12.5212 11 12.533 11 12.5447C11 12.5565 11 12.5682 11 12.58C11 12.5917 11 12.6035 11 12.6152C11 12.6269 11 12.6386 11 12.6503C11 12.6621 11 12.6738 11 12.6855C11 12.6972 11 12.7088 11 12.7205C11 12.7322 11 12.7439 11 12.7556C11 12.7672 11 12.7789 11 12.7905C11 12.8022 11 12.8139 11 12.8255C11 12.8371 11 12.8488 11 12.8604C11 12.872 11 12.8836 11 12.8953C11 12.9069 11 12.9185 11 12.9301C11 12.9417 11 12.9532 11 12.9648C11 12.9764 11 12.988 11 12.9996C11 13.0111 11 13.0227 11 13.0342C11 13.0458 11 13.0573 11 13.0689C11 13.0804 11 13.0919 11 13.1034C11 13.115 11 13.1265 11 13.138C11 13.1495 11 13.161 11 13.1724C11 13.1839 11 13.1954 11 13.2069C11 13.2183 11 13.2298 11 13.2413C11 13.2527 11 13.2642 11 13.2756C11 13.287 11 13.2985 11 13.3099C11 13.3213 11 13.3327 11 13.3441C11 13.3555 11 13.3669 11 13.3783C11 13.3897 11 13.4011 11 13.4124C11 13.4238 11 13.4351 11 13.4465C11 13.4578 11 13.4692 11 13.4805C11 13.4919 11 13.5032 11 13.5145C11 13.5258 11 13.5371 11 13.5484C11 13.5597 11 13.571 11 13.5823C11 13.5935 11 13.6048 11 13.6161C11 13.6273 11 13.6386 11 13.6498C11 13.6611 11 13.6723 11 13.6835C11 13.6947 11 13.7059 11 13.7171C11 13.7283 11 13.7395 11 13.7507C11 13.7619 11 13.7731 11 13.7842C11 13.7954 11 13.8066 11 13.8177C11 13.8288 11 13.84 11 13.8511C11 13.8622 11 13.8733 11 13.8844C11 13.8956 11 13.9066 11 13.9177C11 13.9288 11 13.9399 11 13.951C11 13.962 11 13.9731 11 13.9841C11 13.9952 11 14.0062 11 14.0172C11 14.0282 11 14.0393 11 14.0503C11 14.0613 11 14.0722 11 14.0832C11 14.0942 11 14.1052 11 14.1161C11 14.1271 11 14.1381 11 14.149C11 14.1599 11 14.1709 11 14.1818C11 14.1927 11 14.2036 11 14.2145C11 14.2254 11 14.2363 11 14.2471C11 14.258 11 14.2689 11 14.2797C11 14.2906 11 14.3014 11 14.3123C11 14.3231 11 14.3339 11 14.3447C11 14.3555 11 14.3663 11 14.3771C11 14.3879 11 14.3987 11 14.4094C11 14.4202 11 14.4309 11 14.4417C11 14.4524 11 14.4631 11 14.4739C11 14.4846 11 14.4953 11 14.506C11 14.5167 11 14.5274 11 14.538C11 14.5487 11 14.5594 11 14.57C11 14.5806 11 14.5913 11 14.6019C11 14.6125 11 14.6231 11 14.6337C11 14.6443 11 14.6549 11 14.6655C11 14.6761 11 14.6866 11 14.6972C11 14.7077 11 14.7183 11 14.7288C11 14.7393 11 14.7498 11 14.7603C11 14.7708 11 14.7813 11 14.7918C11 14.8023 11 14.8128 11 14.8232C11 14.8337 11 14.8441 11 14.8545C11 14.8649 11 14.8754 11 14.8858C11 14.8962 11 14.9066 11 14.9169C11 14.9273 11 14.9377 11 14.948C11 14.9584 11 14.9687 11 14.979C11 14.9894 11 14.9997 11 15.01C11 15.0203 11 15.0306 11 15.0408C11 15.0511 11 15.0614 11 15.0716C11 15.0819 11 15.0921 11 15.1023C11 15.1125 11 15.1227 11 15.1329C11 15.1431 11 15.1533 11 15.1635C11 15.1736 11 15.1838 11 15.1939C11 15.2041 11 15.2142 11 15.2243C11 15.2344 11 15.2445 11 15.2546C11 15.2647 11 15.2748 11 15.2848C11 15.2949 11 15.3049 11 15.3149C11 15.325 11 15.335 11 15.345C11 15.355 11 15.365 11 15.375C11 15.3849 11 15.3949 11 15.4048C11 15.4148 11 15.4247 11 15.4346C11 15.4445 11 15.4544 11 15.4643C11 15.4742 11 15.4841 11 15.494C11 15.5038 11 15.5137 11 15.5235C11 15.5333 11 15.5431 11 15.5529C11 15.5627 11 15.5725 11 15.5823C11 15.5921 11 15.6018 11 15.6116C11 15.6213 11 15.6311 11 15.6408C11 15.6505 11 15.6602 11 15.6699C11 15.6795 11 15.6892 11 15.6989C11 15.7085 11 15.7182 11 15.7278C11 15.7374 11 15.747 11 15.7566C11 15.7662 11 15.7758 11 15.7854C11 15.7949 11 15.8045 11 15.814C11 15.8235 11 15.833 11 15.8425C11 15.852 11 15.8615 11 15.871C11 15.8805 11 15.8899 11 15.8994C11 15.9088 11 15.9182 11 15.9276C11 15.9371 11 15.9464 11 15.9558C11 15.9652 11 15.9746 11 15.9839C11 15.9933 11 16.0026 11 16.0119C11 16.0212 11 16.0305 11 16.0398C11 16.0491 11 16.0583 11 16.0676C11 16.0768 11 16.0861 11 16.0953C11 16.1045 11 16.1137 11 16.1229C11 16.1321 11 16.1412 11 16.1504C11 16.1595 11 16.1687 11 16.1778C11 16.1869 11 16.196 11 16.2051C11 16.2142 11 16.2233 11 16.2323C11 16.2414 11 16.2504 11 16.2594C11 16.2684 11 16.2774 11 16.2864C11 16.2954 11 16.3044 11 16.3133C11 16.3223 11 16.3312 11 16.3401C11 16.3491 11 16.358 11 16.3668C11 16.3757 11 16.3846 11 16.3934C11 16.4023 11 16.4111 11 16.4199C11 16.4288 11 16.4376 11 16.4463C11 16.4551 11 16.4639 11 16.4726C11 16.4814 11 16.4901 11 16.4988C11 16.5075 11 16.5162 11 16.5249C11 16.5336 11 16.5422 11 16.5509C11 16.5595 11 16.5681 11 16.5767C11 16.5853 11 16.5939 11 16.6025C11 16.6111 11 16.6196 11 16.6282C11 16.6367 11 16.6452 11 16.6537C11 16.6622 11 16.6707 11 16.6791C11 16.6876 11 16.696 11 16.7045C11 16.7129 11 16.7213 11 16.7297C11 16.7381 11 16.7465 11 16.7548C11 16.7632 11 16.7715 11 16.7798C11 16.7881 11 16.7964 11 16.8047C11 16.813 11 16.8212 11 16.8295C11 16.8377 11 16.8459 11 16.8541C11 16.8623 11 16.8705 11 16.8787C11 16.8869 11 16.895 11 16.9031C11 16.9113 11 16.9194 11 16.9275C11 16.9356 11 16.9436 11 16.9517C11 16.9597 11 16.9678 11 16.9758C11 16.9838 11 16.9918 11 16.9998C11 17.0077 11 17.0157 11 17.0236C11 17.0316 11 17.0395 11 17.0474C11 17.0553 11 17.0632 11 17.071C11 17.0789 11 17.0867 11 17.0945C11 17.1024 11 17.1102 11 17.118C11 17.1257 11 17.1335 11 17.1412C11 17.149 11 17.1567 11 17.1644C11 17.1721 11 17.1798 11 17.1874C11 17.1951 11 17.2028 11 17.2104C11 17.218 11 17.2256 11 17.2332C11 17.2408 11 17.2483 11 17.2559C11 17.2634 11 17.2709 11 17.2784C11 17.2859 11 17.2934 11 17.3009C11 17.3083 11 17.3158 11 17.3232C11 17.3306 11 17.338 11 17.3454C11 17.3528 11 17.3601 11 17.3675C11 17.3748 11 17.3821 11 17.3894C11 17.3967 11 17.404 11 17.4113C11 17.4185 11 17.4257 11 17.433C11 17.4402 11 17.4474 11 17.4545C11 17.4617 11 17.4689 11 17.476C11 17.4831 11 17.4902 11 17.4973C11 17.5044 11 17.5115 11 17.5185C11 17.5256 11 17.5326 11 17.5396C11 17.5466 11 17.5536 11 17.5605C11 17.5675 11 17.5744 11 17.5813C11 17.5883 11 17.5952 11 17.602C11 17.6089 11 17.6158 11 17.6226C11 17.6294 11 17.6362 11 17.643C11 17.6498 11 17.6566 11 17.6633C11 17.6701 11 17.6768 11 17.6835C11 17.6902 11 17.6969 11 17.7035C11 17.7102 11 17.7168 11 17.7234C11 17.73 11 17.7366 11 17.7432C11 17.7497 11 17.7563 11 17.7628C11 17.7693 11 17.7758 11 17.7823C11 17.7888 11 17.7953 11 17.8017C11 17.8081 11 17.8145 11 17.8209C11 17.8273 11 17.8337 11 17.84C11 17.8464 11 17.8527 11 17.859C11 17.8653 11 17.8716 11 17.8778C11 17.8841 11 17.8903 11 17.8965C11 17.9027 11 17.9089 11 17.9151C11 17.9212 11 17.9274 11 17.9335C11 17.9396 11 17.9457 11 17.9517C11 17.9578 11 17.9639 11 17.9699C11 17.9759 11 17.9819 11 17.9879C11 17.9939 11 17.9998 11 18.0057C11 18.0117 11 18.0176 11 18.0235C11 18.0293 11 18.0352 11 18.041C11 18.0469 11 18.0527 11 18.0585C11 18.0643 11 18.07 11 18.0758C11 18.0815 11 18.0872 11 18.0929C11 18.0986 11 18.1043 11 18.1099C11 18.1156 11 18.1212 11 18.1268C11 18.1324 11 18.138 11 18.1435C11 18.1491 11 18.1546 11 18.1601C11 18.1656 11 18.1711 11 18.1765C11 18.182 11 18.1874 11 18.1928C11 18.1982 11 18.2036 11 18.209C11 18.2143 11 18.2196 11 18.2249C11 18.2303 11 18.2355 11 18.2408C11 18.246 11 18.2513 11 18.2565C11 18.2617 11 18.2669 11 18.272C11 18.2772 11 18.2823 11 18.2874C11 18.2926 11 18.2976 11 18.3027C11 18.3078 11 18.3128 11 18.3178C11 18.3228 11 18.3278 11 18.3328C11 18.3377 11 18.3426 11 18.3476C11 18.3525 11 18.3574 11 18.3622C11 18.3671 11 18.3719 11 18.3767C11 18.3815 11 18.3863 11 18.3911C11 18.3958 11 18.4005 11 18.4053C11 18.41 11 18.4146 11 18.4193C11 18.4239 11 18.4286 11 18.4332C11 18.4378 11 18.4424 11 18.4469C11 18.4515 11 18.456 11 18.4605C11 18.465 11 18.4695 11 18.4739C11 18.4784 11 18.4828 11 18.4872C11 18.4916 11 18.4959 11 18.5003C11 18.5046 11 18.509 11 18.5132C11 18.5175 11 18.5218 11 18.526C11 18.5303 11 18.5345 11 18.5387C11 18.5429 11 18.547 11 18.5512C11 18.5553 11 18.5594 11 18.5635C11 18.5676 11 18.5716 11 18.5756C11 18.5797 11 18.5837 11 18.5876C11 18.5916 11 18.5956 11 18.5995C11 18.6034 11 18.6073 11 18.6112C11 18.615 11 18.6189 11 18.6227C11 18.6265 11 18.6303 11 18.634C11 18.6378 11 18.6415 11 18.6452C11 18.6489 11 18.6526 11 18.6563C11 18.6599 11 18.6635 11 18.6671C11 18.6707 11 18.6743 11 18.6778C11 18.6814 11 18.6849 11 18.6884C11 18.6919 11 18.6953 11 18.6987C11 18.7022 11 18.7056 11 18.709C11 18.7123 11 18.7157 11 18.719C11 18.7223 11 18.7256 11 18.7289C11 18.7321 11 18.7354 11 18.7386C11 18.7418 11 18.745 11 18.7481C11 18.7513 11 18.7544 11 18.7575C11 18.7606 11 18.7636 11 18.7667C11 18.7697 11 18.7727 11 18.7757C11 18.7787 11 18.7816 11 18.7846C11 18.7875 11 18.7904 11 18.7933C11 18.7961 11 18.799 11 18.8018C11 18.8046 11 18.8074 11 18.8101C11 18.8129 11 18.8156 11 18.8183C11 18.821 11 18.8237 11 18.8263C11 18.829 11 18.8316 11 18.8342C11 18.8367 11 18.8393 11 18.8418C11 18.8443 11 18.8468 11 18.8493C11 18.8518 11 18.8542 11 18.8566C11 18.859 11 18.8614 11 18.8637C11 18.8661 11 18.8684 11 18.8707C11 18.873 11 18.8752 11 18.8775C11 18.8797 11 18.8819 11 18.8841C11 18.8863 11 18.8884 11 18.8905C11 18.8926 11 18.8947 11 18.8968C11 18.8988 11 18.9008 11 18.9028C11 18.9048 11 18.9068 11 18.9087C11 18.9107 11 18.9126 11 18.9144C11 18.9163 11 18.9182 11 18.92C11 18.9218 11 18.9236 11 18.9253C11 18.9271 11 18.9288 11 18.9305C11 18.9322 11 18.9339 11 18.9355C11 18.9371 11 18.9387 11 18.9403C11 18.9419 11 18.9434 11 18.9449C11 18.9465 11 18.9479 11 18.9494C11 18.9508 11 18.9523 11 18.9537C11 18.955 11 18.9564 11 18.9577C11 18.9591 11 18.9604 11 18.9616C11 18.9629 11 18.9641 11 18.9653C11 18.9665 11 18.9677 11 18.9689C11 18.97 11 18.9711 11 18.9722C11 18.9733 11 18.9743 11 18.9754C11 18.9764 11 18.9774 11 18.9783C11 18.9793 11 18.9802 11 18.9811C11 18.982 11 18.9829 11 18.9837C11 18.9845 11 18.9853 11 18.9861C11 18.9869 11 18.9876 11 18.9883C11 18.989 11 18.9897 11 18.9903C11 18.991 11 18.9916 11 18.9922C11 18.9927 11 18.9933 11 18.9938C11 18.9943 11 18.9948 11 18.9952C11 18.9957 11 18.9961 11 18.9965C11 18.9969 11 18.9972 11 18.9976C11 18.9979 11 18.9982 11 18.9984C11 18.9987 11 18.9989 11 18.9991C11 18.9993 11 18.9995 11 18.9996C11 18.9997 11 18.9998 11 18.9999C11 19 11 19 12 19C13 19 13 19 13 18.9999C13 18.9998 13 18.9997 13 18.9996C13 18.9995 13 18.9993 13 18.9991C13 18.9989 13 18.9987 13 18.9984C13 18.9982 13 18.9979 13 18.9976C13 18.9972 13 18.9969 13 18.9965C13 18.9961 13 18.9957 13 18.9952C13 18.9948 13 18.9943 13 18.9938C13 18.9933 13 18.9927 13 18.9922C13 18.9916 13 18.991 13 18.9903C13 18.9897 13 18.989 13 18.9883C13 18.9876 13 18.9869 13 18.9861C13 18.9853 13 18.9845 13 18.9837C13 18.9829 13 18.982 13 18.9811C13 18.9802 13 18.9793 13 18.9783C13 18.9774 13 18.9764 13 18.9754C13 18.9743 13 18.9733 13 18.9722C13 18.9711 13 18.97 13 18.9689C13 18.9677 13 18.9665 13 18.9653C13 18.9641 13 18.9629 13 18.9616C13 18.9604 13 18.9591 13 18.9577C13 18.9564 13 18.955 13 18.9537C13 18.9523 13 18.9508 13 18.9494C13 18.9479 13 18.9465 13 18.9449C13 18.9434 13 18.9419 13 18.9403C13 18.9387 13 18.9371 13 18.9355C13 18.9339 13 18.9322 13 18.9305C13 18.9288 13 18.9271 13 18.9253C13 18.9236 13 18.9218 13 18.92C13 18.9182 13 18.9163 13 18.9144C13 18.9126 13 18.9107 13 18.9087C13 18.9068 13 18.9048 13 18.9028C13 18.9008 13 18.8988 13 18.8968C13 18.8947 13 18.8926 13 18.8905C13 18.8884 13 18.8863 13 18.8841C13 18.8819 13 18.8797 13 18.8775C13 18.8752 13 18.873 13 18.8707C13 18.8684 13 18.8661 13 18.8637C13 18.8614 13 18.859 13 18.8566C13 18.8542 13 18.8518 13 18.8493C13 18.8468 13 18.8443 13 18.8418C13 18.8393 13 18.8367 13 18.8342C13 18.8316 13 18.829 13 18.8263C13 18.8237 13 18.821 13 18.8183C13 18.8156 13 18.8129 13 18.8101C13 18.8074 13 18.8046 13 18.8018C13 18.799 13 18.7961 13 18.7933C13 18.7904 13 18.7875 13 18.7846C13 18.7816 13 18.7787 13 18.7757C13 18.7727 13 18.7697 13 18.7667C13 18.7636 13 18.7606 13 18.7575C13 18.7544 13 18.7513 13 18.7481C13 18.745 13 18.7418 13 18.7386C13 18.7354 13 18.7321 13 18.7289C13 18.7256 13 18.7223 13 18.719C13 18.7157 13 18.7123 13 18.709C13 18.7056 13 18.7022 13 18.6987C13 18.6953 13 18.6919 13 18.6884C13 18.6849 13 18.6814 13 18.6778C13 18.6743 13 18.6707 13 18.6671C13 18.6635 13 18.6599 13 18.6563C13 18.6526 13 18.6489 13 18.6452C13 18.6415 13 18.6378 13 18.634C13 18.6303 13 18.6265 13 18.6227C13 18.6189 13 18.615 13 18.6112C13 18.6073 13 18.6034 13 18.5995C13 18.5956 13 18.5916 13 18.5876C13 18.5837 13 18.5797 13 18.5756C13 18.5716 13 18.5676 13 18.5635C13 18.5594 13 18.5553 13 18.5512C13 18.547 13 18.5429 13 18.5387C13 18.5345 13 18.5303 13 18.526C13 18.5218 13 18.5175 13 18.5132C13 18.509 13 18.5046 13 18.5003C13 18.4959 13 18.4916 13 18.4872C13 18.4828 13 18.4784 13 18.4739C13 18.4695 13 18.465 13 18.4605C13 18.456 13 18.4515 13 18.4469C13 18.4424 13 18.4378 13 18.4332C13 18.4286 13 18.4239 13 18.4193C13 18.4146 13 18.41 13 18.4053C13 18.4005 13 18.3958 13 18.3911C13 18.3863 13 18.3815 13 18.3767C13 18.3719 13 18.3671 13 18.3622C13 18.3574 13 18.3525 13 18.3476C13 18.3426 13 18.3377 13 18.3328C13 18.3278 13 18.3228 13 18.3178C13 18.3128 13 18.3078 13 18.3027C13 18.2976 13 18.2926 13 18.2874C13 18.2823 13 18.2772 13 18.272C13 18.2669 13 18.2617 13 18.2565C13 18.2513 13 18.246 13 18.2408C13 18.2355 13 18.2303 13 18.2249C13 18.2196 13 18.2143 13 18.209C13 18.2036 13 18.1982 13 18.1928C13 18.1874 13 18.182 13 18.1765C13 18.1711 13 18.1656 13 18.1601C13 18.1546 13 18.1491 13 18.1435C13 18.138 13 18.1324 13 18.1268C13 18.1212 13 18.1156 13 18.1099C13 18.1043 13 18.0986 13 18.0929C13 18.0872 13 18.0815 13 18.0758C13 18.07 13 18.0643 13 18.0585C13 18.0527 13 18.0469 13 18.041C13 18.0352 13 18.0293 13 18.0235C13 18.0176 13 18.0117 13 18.0057C13 17.9998 13 17.9939 13 17.9879C13 17.9819 13 17.9759 13 17.9699C13 17.9639 13 17.9578 13 17.9517C13 17.9457 13 17.9396 13 17.9335C13 17.9274 13 17.9212 13 17.9151C13 17.9089 13 17.9027 13 17.8965C13 17.8903 13 17.8841 13 17.8778C13 17.8716 13 17.8653 13 17.859C13 17.8527 13 17.8464 13 17.84C13 17.8337 13 17.8273 13 17.8209C13 17.8145 13 17.8081 13 17.8017C13 17.7953 13 17.7888 13 17.7823C13 17.7758 13 17.7693 13 17.7628C13 17.7563 13 17.7497 13 17.7432C13 17.7366 13 17.73 13 17.7234C13 17.7168 13 17.7102 13 17.7035C13 17.6969 13 17.6902 13 17.6835C13 17.6768 13 17.6701 13 17.6633C13 17.6566 13 17.6498 13 17.643C13 17.6362 13 17.6294 13 17.6226C13 17.6158 13 17.6089 13 17.602C13 17.5952 13 17.5883 13 17.5813C13 17.5744 13 17.5675 13 17.5605C13 17.5536 13 17.5466 13 17.5396C13 17.5326 13 17.5256 13 17.5185C13 17.5115 13 17.5044 13 17.4973C13 17.4902 13 17.4831 13 17.476C13 17.4689 13 17.4617 13 17.4545C13 17.4474 13 17.4402 13 17.433C13 17.4257 13 17.4185 13 17.4113C13 17.404 13 17.3967 13 17.3894C13 17.3821 13 17.3748 13 17.3675C13 17.3601 13 17.3528 13 17.3454C13 17.338 13 17.3306 13 17.3232C13 17.3158 13 17.3083 13 17.3009C13 17.2934 13 17.2859 13 17.2784C13 17.2709 13 17.2634 13 17.2559C13 17.2483 13 17.2408 13 17.2332C13 17.2256 13 17.218 13 17.2104C13 17.2028 13 17.1951 13 17.1874C13 17.1798 13 17.1721 13 17.1644C13 17.1567 13 17.149 13 17.1412C13 17.1335 13 17.1257 13 17.118C13 17.1102 13 17.1024 13 17.0945C13 17.0867 13 17.0789 13 17.071C13 17.0632 13 17.0553 13 17.0474C13 17.0395 13 17.0316 13 17.0236C13 17.0157 13 17.0077 13 16.9998C13 16.9918 13 16.9838 13 16.9758C13 16.9678 13 16.9597 13 16.9517C13 16.9436 13 16.9356 13 16.9275C13 16.9194 13 16.9113 13 16.9031C13 16.895 13 16.8869 13 16.8787C13 16.8705 13 16.8623 13 16.8541C13 16.8459 13 16.8377 13 16.8295C13 16.8212 13 16.813 13 16.8047C13 16.7964 13 16.7881 13 16.7798C13 16.7715 13 16.7632 13 16.7548C13 16.7465 13 16.7381 13 16.7297C13 16.7213 13 16.7129 13 16.7045C13 16.696 13 16.6876 13 16.6791C13 16.6707 13 16.6622 13 16.6537C13 16.6452 13 16.6367 13 16.6282C13 16.6196 13 16.6111 13 16.6025C13 16.5939 13 16.5853 13 16.5767C13 16.5681 13 16.5595 13 16.5509C13 16.5422 13 16.5336 13 16.5249C13 16.5162 13 16.5075 13 16.4988C13 16.4901 13 16.4814 13 16.4726C13 16.4639 13 16.4551 13 16.4463C13 16.4376 13 16.4288 13 16.4199C13 16.4111 13 16.4023 13 16.3934C13 16.3846 13 16.3757 13 16.3668C13 16.358 13 16.3491 13 16.3401C13 16.3312 13 16.3223 13 16.3133C13 16.3044 13 16.2954 13 16.2864C13 16.2774 13 16.2684 13 16.2594C13 16.2504 13 16.2414 13 16.2323C13 16.2233 13 16.2142 13 16.2051C13 16.196 13 16.1869 13 16.1778C13 16.1687 13 16.1595 13 16.1504C13 16.1412 13 16.1321 13 16.1229C13 16.1137 13 16.1045 13 16.0953C13 16.0861 13 16.0768 13 16.0676C13 16.0583 13 16.0491 13 16.0398C13 16.0305 13 16.0212 13 16.0119C13 16.0026 13 15.9933 13 15.9839C13 15.9746 13 15.9652 13 15.9558C13 15.9464 13 15.9371 13 15.9276C13 15.9182 13 15.9088 13 15.8994C13 15.8899 13 15.8805 13 15.871C13 15.8615 13 15.852 13 15.8425C13 15.833 13 15.8235 13 15.814C13 15.8045 13 15.7949 13 15.7854C13 15.7758 13 15.7662 13 15.7566C13 15.747 13 15.7374 13 15.7278C13 15.7182 13 15.7085 13 15.6989C13 15.6892 13 15.6795 13 15.6699C13 15.6602 13 15.6505 13 15.6408C13 15.6311 13 15.6213 13 15.6116C13 15.6018 13 15.5921 13 15.5823C13 15.5725 13 15.5627 13 15.5529C13 15.5431 13 15.5333 13 15.5235C13 15.5137 13 15.5038 13 15.494C13 15.4841 13 15.4742 13 15.4643C13 15.4544 13 15.4445 13 15.4346C13 15.4247 13 15.4148 13 15.4048C13 15.3949 13 15.3849 13 15.375C13 15.365 13 15.355 13 15.345C13 15.335 13 15.325 13 15.3149C13 15.3049 13 15.2949 13 15.2848C13 15.2748 13 15.2647 13 15.2546C13 15.2445 13 15.2344 13 15.2243C13 15.2142 13 15.2041 13 15.1939C13 15.1838 13 15.1736 13 15.1635C13 15.1533 13 15.1431 13 15.1329C13 15.1227 13 15.1125 13 15.1023C13 15.0921 13 15.0819 13 15.0716C13 15.0614 13 15.0511 13 15.0408C13 15.0306 13 15.0203 13 15.01C13 14.9997 13 14.9894 13 14.979C13 14.9687 13 14.9584 13 14.948C13 14.9377 13 14.9273 13 14.9169C13 14.9066 13 14.8962 13 14.8858C13 14.8754 13 14.8649 13 14.8545C13 14.8441 13 14.8337 13 14.8232C13 14.8128 13 14.8023 13 14.7918C13 14.7813 13 14.7708 13 14.7603C13 14.7498 13 14.7393 13 14.7288C13 14.7183 13 14.7077 13 14.6972C13 14.6866 13 14.6761 13 14.6655C13 14.6549 13 14.6443 13 14.6337C13 14.6231 13 14.6125 13 14.6019C13 14.5913 13 14.5806 13 14.57C13 14.5594 13 14.5487 13 14.538C13 14.5274 13 14.5167 13 14.506C13 14.4953 13 14.4846 13 14.4739C13 14.4631 13 14.4524 13 14.4417C13 14.4309 13 14.4202 13 14.4094C13 14.3987 13 14.3879 13 14.3771C13 14.3663 13 14.3555 13 14.3447C13 14.3339 13 14.3231 13 14.3123C13 14.3014 13 14.2906 13 14.2797C13 14.2689 13 14.258 13 14.2471C13 14.2363 13 14.2254 13 14.2145C13 14.2036 13 14.1927 13 14.1818C13 14.1709 13 14.1599 13 14.149C13 14.1381 13 14.1271 13 14.1161C13 14.1052 13 14.0942 13 14.0832C13 14.0722 13 14.0613 13 14.0503C13 14.0393 13 14.0282 13 14.0172C13 14.0062 13 13.9952 13 13.9841C13 13.9731 13 13.962 13 13.951C13 13.9399 13 13.9288 13 13.9177C13 13.9066 13 13.8956 13 13.8844C13 13.8733 13 13.8622 13 13.8511C13 13.84 13 13.8288 13 13.8177C13 13.8066 13 13.7954 13 13.7842C13 13.7731 13 13.7619 13 13.7507C13 13.7395 13 13.7283 13 13.7171C13 13.7059 13 13.6947 13 13.6835C13 13.6723 13 13.6611 13 13.6498C13 13.6386 13 13.6273 13 13.6161C13 13.6048 13 13.5935 13 13.5823C13 13.571 13 13.5597 13 13.5484C13 13.5371 13 13.5258 13 13.5145C13 13.5032 13 13.4919 13 13.4805C13 13.4692 13 13.4578 13 13.4465C13 13.4351 13 13.4238 13 13.4124C13 13.4011 13 13.3897 13 13.3783C13 13.3669 13 13.3555 13 13.3441C13 13.3327 13 13.3213 13 13.3099C13 13.2985 13 13.287 13 13.2756C13 13.2642 13 13.2527 13 13.2413C13 13.2298 13 13.2183 13 13.2069C13 13.1954 13 13.1839 13 13.1724C13 13.161 13 13.1495 13 13.138C13 13.1265 13 13.115 13 13.1034C13 13.0919 13 13.0804 13 13.0689C13 13.0573 13 13.0458 13 13.0342C13 13.0227 13 13.0111 13 12.9996C13 12.988 13 12.9764 13 12.9648C13 12.9532 13 12.9417 13 12.9301C13 12.9185 13 12.9069 13 12.8953C13 12.8836 13 12.872 13 12.8604C13 12.8488 13 12.8371 13 12.8255C13 12.8139 13 12.8022 13 12.7905C13 12.7789 13 12.7672 13 12.7556C13 12.7439 13 12.7322 13 12.7205C13 12.7088 13 12.6972 13 12.6855C13 12.6738 13 12.6621 13 12.6503C13 12.6386 13 12.6269 13 12.6152C13 12.6035 13 12.5917 13 12.58C13 12.5682 13 12.5565 13 12.5447C13 12.533 13 12.5212 13 12.5095C13 12.4977 13 12.4859 13 12.4742C13 12.4624 13 12.4506 13 12.4388C13 12.427 13 12.4152 13 12.4034C13 12.3916 13 12.3798 13 12.368C13 12.3562 13 12.3443 13 12.3325C13 12.3207 13 12.3088 13 12.297C13 12.2852 13 12.2733 13 12.2615C13 12.2496 13 12.2377 13 12.2259C13 12.214 13 12.2021 13 12.1903C13 12.1784 13 12.1665 13 12.1546C13 12.1427 13 12.1308 13 12.1189C13 12.107 13 12.0951 13 12.0832C13 12.0713 13 12.0594 13 12.0475C13 12.0356 13 12.0236 13 12.0117C13 11.9998 13 11.9878 13 11.9759C13 11.9639 13 11.952 13 11.94C13 11.9281 13 11.9161 13 11.9042C13 11.8922 13 11.8802 13 11.8683C13 11.8563 13 11.8443 13 11.8323C13 11.8203 13 11.8084 13 11.7964C13 11.7844 13 11.7724 13 11.7604C13 11.7484 13 11.7364 13 11.7243C13 11.7123 13 11.7003 13 11.6883C13 11.6763 13 11.6643 13 11.6522C13 11.6402 13 11.6282 13 11.6161C13 11.6041 13 11.592 13 11.58C13 11.5679 13 11.5559 13 11.5438C13 11.5318 13 11.5197 13 11.5077C13 11.4956 13 11.4835 13 11.4715C13 11.4594 13 11.4473 13 11.4352C13 11.4231 13 11.4111 13 11.399C13 11.3869 13 11.3748 13 11.3627C13 11.3506 13 11.3385 13 11.3264C13 11.3143 13 11.3022 13 11.2901C13 11.278 13 11.2658 13 11.2537C13 11.2416 13 11.2295 13 11.2174C13 11.2052 13 11.1931 13 11.181C13 11.1689 13 11.1567 13 11.1446C13 11.1324 13 11.1203 13 11.1082C13 11.096 13 11.0839 13 11.0717C13 11.0596 13 11.0474 13 11.0352C13 11.0231 13 11.0109 13 10.9988C13 10.9866 13 10.9744 13 10.9623C13 10.9501 13 10.9379 13 10.9258C13 10.9136 13 10.9014 13 10.8892C13 10.877 13 10.8649 13 10.8527C13 10.8405 13 10.8283 13 10.8161C13 10.8039 13 10.7917 13 10.7795C13 10.7674 13 10.7552 13 10.743C13 10.7308 13 10.7186 13 10.7064C13 10.6941 13 10.6819 13 10.6697C13 10.6575 13 10.6453 13 10.6331C13 10.6209 13 10.6087 13 10.5965C13 10.5842 13 10.572 13 10.5598C13 10.5476 13 10.5354 13 10.5231C13 10.5109 13 10.4987 13 10.4865C13 10.4742 13 10.462 13 10.4498C13 10.4375 13 10.4253 13 10.4131C13 10.4008 13 10.3886 13 10.3764C13 10.3641 13 10.3519 13 10.3397C13 10.3274 13 10.3152 13 10.3029C13 10.2907 13 10.2785 13 10.2662C13 10.254 13 10.2417 13 10.2295C13 10.2172 13 10.205 13 10.1927C13 10.1805 13 10.1682 13 10.156C13 10.1437 13 10.1315 13 10.1192C13 10.107 13 10.0947 13 10.0825C13 10.0702 13 10.058 13 10.0457C13 10.0334 13 10.0212 13 10.0089C13 9.99667 13 9.98441 13 9.97215C13 9.9599 13 9.94764 13 9.93538C13 9.92312 13 9.91086 13 9.8986C13 9.88634 13 9.87408 13 9.86182C13 9.84956 13 9.8373 13 9.82504C13 9.81278 13 9.80052 13 9.78826C13 9.776 13 9.76374 13 9.75148C13 9.73922 13 9.72695 13 9.71469C13 9.70243 13 9.69017 13 9.67791C13 9.66565 13 9.65339 13 9.64113C13 9.62887 13 9.61661 13 9.60435C13 9.59209 13 9.57984 13 9.56758C13 9.55532 13 9.54306 13 9.5308C13 9.51855 13 9.50629 13 9.49403C13 9.48178 13 9.46952 13 9.45727C13 9.44501 13 9.43276 13 9.42051C13 9.40825 13 9.396 13 9.38375C13 9.3715 13 9.35925 13 9.347C13 9.33475 13 9.3225 13 9.31025C13 9.298 13 9.28576 13 9.27351C13 9.26127 13 9.24902 13 9.23678C13 9.22454 13 9.21229 13 9.20005C13 9.18781 13 9.17557 13 9.16334C13 9.1511 13 9.13886 13 9.12663C13 9.11439 13 9.10216 13 9.08993C13 9.0777 13 9.06547 13 9.05324C13 9.04101 13 9.02878 13 9.01656C13 9.00433 13 8.99211 13 8.97989C13 8.96767 13 8.95545 13 8.94323C13 8.93101 13 8.91879 13 8.90658C13 8.89437 13 8.88216 13 8.86995C13 8.85774 13 8.84553 13 8.83332C13 8.82112 13 8.80891 13 8.79671C13 8.78451 13 8.77231 13 8.76012C13 8.74792 13 8.73573 13 8.72354C13 8.71135 13 8.69916 13 8.68697C13 8.67478 13 8.6626 13 8.65042C13 8.63824 13 8.62606 13 8.61388C13 8.60171 13 8.58953 13 8.57736C13 8.56519 13 8.55302 13 8.54086C13 8.52869 13 8.51653 13 8.50437C13 8.49222 13 8.48006 13 8.46791C13 8.45575 13 8.4436 13 8.43146C13 8.41931 13 8.40717 13 8.39503C13 8.38289 13 8.37075 13 8.35861C13 8.34648 13 8.33435 13 8.32222C13 8.3101 13 8.29797 13 8.28585C13 8.27373 13 8.26161 13 8.2495C13 8.23739 13 8.22528 13 8.21317C13 8.20107 13 8.18896 13 8.17687C13 8.16477 13 8.15267 13 8.14058C13 8.12849 13 8.1164 13 8.10432C13 8.09224 13 8.08016 13 8.06808C13 8.05601 13 8.04394 13 8.03187C13 8.0198 13 8.00774 13 7.99568C13 7.98362 13 7.97157 13 7.95951C13 7.94746 13 7.93542 13 7.92338C13 7.91133 13 7.8993 13 7.88726C13 7.87523 13 7.8632 13 7.85118C13 7.83915 13 7.82713 13 7.81512C13 7.8031 13 7.79109 13 7.77909C13 7.76708 13 7.75508 13 7.74308C13 7.73109 13 7.7191 13 7.70711C13 7.69512 13 7.68314 13 7.67116C13 7.65919 13 7.64722 13 7.63525C13 7.62328 13 7.61132 13 7.59936C13 7.58741 13 7.57546 13 7.56351C13 7.55156 13 7.53962 13 7.52769C13 7.51575 13 7.50382 13 7.49189C13 7.47997 13 7.46805 13 7.45614C13 7.44422 13 7.43231 13 7.42041C13 7.40851 13 7.39661 13 7.38472C13 7.37282 13 7.36094 13 7.34906C13 7.33718 13 7.3253 13 7.31343C13 7.30156 13 7.2897 13 7.27784C13 7.26598 13 7.25413 13 7.24229C13 7.23044 13 7.2186 13 7.20677C13 7.19494 13 7.18311 13 7.17129C13 7.15947 13 7.14765 13 7.13584C13 7.12403 13 7.11223 13 7.10043C13 7.08864 13 7.07685 13 7.06507C13 7.05328 13 7.0415 13 7.02973C13 7.01796 13 7.0062 13 6.99444C13 6.98268 13 6.97093 13 6.95919C13 6.94745 13 6.93571 13 6.92398C13 6.91225 13 6.90052 13 6.88881C13 6.87709 13 6.86538 13 6.85368C13 6.84197 13 6.83028 13 6.81859C13 6.8069 13 6.79522 13 6.78354C13 6.77186 13 6.7602 13 6.74854C13 6.73688 13 6.72522 13 6.71358C13 6.70193 13 6.69029 13 6.67866C13 6.66703 13 6.6554 13 6.64379C13 6.63217 13 6.62056 13 6.60896C13 6.59736 13 6.58576 13 6.57417C13 6.56259 13 6.55101 13 6.53944C13 6.52787 13 6.5163 13 6.50475C13 6.49319 13 6.48164 13 6.4701C13 6.45856 13 6.44703 13 6.43551C13 6.42398 13 6.41247 13 6.40096C13 6.38945 13 6.37795 13 6.36646C13 6.35496 13 6.34348 13 6.33201C13 6.32053 13 6.30906 13 6.2976C13 6.28614 13 6.27469 13 6.26325C13 6.25181 13 6.24038 13 6.22895C13 6.21752 13 6.20611 13 6.1947C13 6.18329 13 6.17189 13 6.1605C13 6.14911 13 6.13773 13 6.12635C13 6.11498 13 6.10361 13 6.09226C13 6.0809 13 6.06955 13 6.05822C13 6.04688 13 6.03555 13 6.02423C13 6.01291 13 6.0016 13 5.99029C13 5.97899 13 5.9677 13 5.95642C13 5.94513 13 5.93386 13 5.92259C13 5.91133 13 5.90007 13 5.88882C13 5.87758 13 5.86634 13 5.85511C13 5.84388 13 5.83266 13 5.82145C13 5.81025 13 5.79905 13 5.78786C13 5.77667 13 5.76549 13 5.75432C13 5.74314 13 5.73198 13 5.72083C13 5.70968 13 5.69854 13 5.68741C13 5.67628 13 5.66516 13 5.65404C13 5.64293 13 5.63183 13 5.62074C13 5.60965 13 5.59857 13 5.5875C13 5.57642 13 5.56536 13 5.55431C13 5.54326 13 5.53222 13 5.52119C13 5.51016 13 5.49914 13 5.48813C13 5.47712 13 5.46612 13 5.45513C13 5.44414 13 5.43316 13 5.4222C13 5.41123 13 5.40027 13 5.38932C13 5.37838 13 5.36744 13 5.35652C13 5.34559 13 5.33468 13 5.32377C13 5.31287 13 5.30198 13 5.2911C13 5.28021 13 5.26934 13 5.25848C13 5.24762 13 5.23677 13 5.22594C13 5.2151 13 5.20427 13 5.19346C13 5.18264 13 5.17184 13 5.16104C13 5.15025 13 5.13947 13 5.1287C13 5.11793 13 5.10717 13 5.09642C13 5.08567 13 5.07493 13 5.06421C13 5.05349 13 5.04277 13 5.03207C13 5.02137 13 5.01068 13 5H11Z" fill="#1A1D32"/>
<path id="Vector 5" d="M19 13C19.5523 13 20 12.5523 20 12C20 11.4477 19.5523 11 19 11V13ZM5 11C4.44771 11 4 11.4477 4 12C4 12.5523 4.44771 13 5 13V11ZM19 11C18.9893 11 18.9786 11 18.9679 11C18.9572 11 18.9465 11 18.9358 11C18.9251 11 18.9143 11 18.9036 11C18.8928 11 18.8821 11 18.8713 11C18.8605 11 18.8498 11 18.839 11C18.8282 11 18.8174 11 18.8065 11C18.7957 11 18.7849 11 18.7741 11C18.7632 11 18.7524 11 18.7415 11C18.7307 11 18.7198 11 18.7089 11C18.698 11 18.6871 11 18.6762 11C18.6653 11 18.6544 11 18.6435 11C18.6326 11 18.6216 11 18.6107 11C18.5997 11 18.5888 11 18.5778 11C18.5668 11 18.5559 11 18.5449 11C18.5339 11 18.5229 11 18.5119 11C18.5009 11 18.4898 11 18.4788 11C18.4678 11 18.4567 11 18.4457 11C18.4346 11 18.4236 11 18.4125 11C18.4014 11 18.3904 11 18.3793 11C18.3682 11 18.3571 11 18.346 11C18.3348 11 18.3237 11 18.3126 11C18.3015 11 18.2903 11 18.2792 11C18.268 11 18.2569 11 18.2457 11C18.2345 11 18.2233 11 18.2121 11C18.201 11 18.1898 11 18.1785 11C18.1673 11 18.1561 11 18.1449 11C18.1337 11 18.1224 11 18.1112 11C18.0999 11 18.0887 11 18.0774 11C18.0661 11 18.0549 11 18.0436 11C18.0323 11 18.021 11 18.0097 11C17.9984 11 17.9871 11 17.9758 11C17.9645 11 17.9531 11 17.9418 11C17.9304 11 17.9191 11 17.9077 11C17.8964 11 17.885 11 17.8736 11C17.8623 11 17.8509 11 17.8395 11C17.8281 11 17.8167 11 17.8053 11C17.7939 11 17.7825 11 17.7711 11C17.7596 11 17.7482 11 17.7367 11C17.7253 11 17.7139 11 17.7024 11C17.6909 11 17.6795 11 17.668 11C17.6565 11 17.645 11 17.6335 11C17.6221 11 17.6106 11 17.599 11C17.5875 11 17.576 11 17.5645 11C17.553 11 17.5414 11 17.5299 11C17.5184 11 17.5068 11 17.4953 11C17.4837 11 17.4721 11 17.4606 11C17.449 11 17.4374 11 17.4258 11C17.4142 11 17.4026 11 17.391 11C17.3794 11 17.3678 11 17.3562 11C17.3446 11 17.333 11 17.3213 11C17.3097 11 17.2981 11 17.2864 11C17.2748 11 17.2631 11 17.2515 11C17.2398 11 17.2281 11 17.2165 11C17.2048 11 17.1931 11 17.1814 11C17.1697 11 17.158 11 17.1463 11C17.1346 11 17.1229 11 17.1112 11C17.0995 11 17.0878 11 17.076 11C17.0643 11 17.0526 11 17.0408 11C17.0291 11 17.0173 11 17.0056 11C16.9938 11 16.982 11 16.9703 11C16.9585 11 16.9467 11 16.9349 11C16.9232 11 16.9114 11 16.8996 11C16.8878 11 16.876 11 16.8642 11C16.8523 11 16.8405 11 16.8287 11C16.8169 11 16.8051 11 16.7932 11C16.7814 11 16.7696 11 16.7577 11C16.7459 11 16.734 11 16.7222 11C16.7103 11 16.6984 11 16.6866 11C16.6747 11 16.6628 11 16.6509 11C16.6391 11 16.6272 11 16.6153 11C16.6034 11 16.5915 11 16.5796 11C16.5677 11 16.5558 11 16.5439 11C16.532 11 16.52 11 16.5081 11C16.4962 11 16.4843 11 16.4723 11C16.4604 11 16.4484 11 16.4365 11C16.4245 11 16.4126 11 16.4006 11C16.3887 11 16.3767 11 16.3648 11C16.3528 11 16.3408 11 16.3288 11C16.3169 11 16.3049 11 16.2929 11C16.2809 11 16.2689 11 16.2569 11C16.2449 11 16.2329 11 16.2209 11C16.2089 11 16.1969 11 16.1849 11C16.1729 11 16.1608 11 16.1488 11C16.1368 11 16.1248 11 16.1127 11C16.1007 11 16.0887 11 16.0766 11C16.0646 11 16.0525 11 16.0405 11C16.0284 11 16.0164 11 16.0043 11C15.9923 11 15.9802 11 15.9681 11C15.9561 11 15.944 11 15.9319 11C15.9198 11 15.9078 11 15.8957 11C15.8836 11 15.8715 11 15.8594 11C15.8473 11 15.8352 11 15.8231 11C15.811 11 15.7989 11 15.7868 11C15.7747 11 15.7626 11 15.7505 11C15.7384 11 15.7263 11 15.7141 11C15.702 11 15.6899 11 15.6778 11C15.6656 11 15.6535 11 15.6414 11C15.6293 11 15.6171 11 15.605 11C15.5928 11 15.5807 11 15.5685 11C15.5564 11 15.5442 11 15.5321 11C15.5199 11 15.5078 11 15.4956 11C15.4835 11 15.4713 11 15.4591 11C15.447 11 15.4348 11 15.4226 11C15.4105 11 15.3983 11 15.3861 11C15.3739 11 15.3618 11 15.3496 11C15.3374 11 15.3252 11 15.313 11C15.3008 11 15.2887 11 15.2765 11C15.2643 11 15.2521 11 15.2399 11C15.2277 11 15.2155 11 15.2033 11C15.1911 11 15.1789 11 15.1667 11C15.1545 11 15.1423 11 15.1301 11C15.1178 11 15.1056 11 15.0934 11C15.0812 11 15.069 11 15.0568 11C15.0446 11 15.0323 11 15.0201 11C15.0079 11 14.9957 11 14.9834 11C14.9712 11 14.959 11 14.9468 11C14.9345 11 14.9223 11 14.9101 11C14.8978 11 14.8856 11 14.8734 11C14.8611 11 14.8489 11 14.8367 11C14.8244 11 14.8122 11 14.7999 11C14.7877 11 14.7755 11 14.7632 11C14.751 11 14.7387 11 14.7265 11C14.7142 11 14.702 11 14.6897 11C14.6775 11 14.6653 11 14.653 11C14.6408 11 14.6285 11 14.6163 11C14.604 11 14.5917 11 14.5795 11C14.5672 11 14.555 11 14.5427 11C14.5305 11 14.5182 11 14.506 11C14.4937 11 14.4815 11 14.4692 11C14.4569 11 14.4447 11 14.4324 11C14.4202 11 14.4079 11 14.3956 11C14.3834 11 14.3711 11 14.3589 11C14.3466 11 14.3343 11 14.3221 11C14.3098 11 14.2976 11 14.2853 11C14.273 11 14.2608 11 14.2485 11C14.2363 11 14.224 11 14.2117 11C14.1995 11 14.1872 11 14.175 11C14.1627 11 14.1504 11 14.1382 11C14.1259 11 14.1137 11 14.1014 11C14.0891 11 14.0769 11 14.0646 11C14.0524 11 14.0401 11 14.0278 11C14.0156 11 14.0033 11 13.9911 11C13.9788 11 13.9666 11 13.9543 11C13.942 11 13.9298 11 13.9175 11C13.9053 11 13.893 11 13.8808 11C13.8685 11 13.8563 11 13.844 11C13.8318 11 13.8195 11 13.8073 11C13.795 11 13.7828 11 13.7705 11C13.7583 11 13.746 11 13.7338 11C13.7215 11 13.7093 11 13.6971 11C13.6848 11 13.6726 11 13.6603 11C13.6481 11 13.6359 11 13.6236 11C13.6114 11 13.5992 11 13.5869 11C13.5747 11 13.5625 11 13.5502 11C13.538 11 13.5258 11 13.5135 11C13.5013 11 13.4891 11 13.4769 11C13.4646 11 13.4524 11 13.4402 11C13.428 11 13.4158 11 13.4035 11C13.3913 11 13.3791 11 13.3669 11C13.3547 11 13.3425 11 13.3303 11C13.3181 11 13.3059 11 13.2936 11C13.2814 11 13.2692 11 13.257 11C13.2448 11 13.2326 11 13.2205 11C13.2083 11 13.1961 11 13.1839 11C13.1717 11 13.1595 11 13.1473 11C13.1351 11 13.123 11 13.1108 11C13.0986 11 13.0864 11 13.0742 11C13.0621 11 13.0499 11 13.0377 11C13.0256 11 13.0134 11 13.0012 11C12.9891 11 12.9769 11 12.9648 11C12.9526 11 12.9404 11 12.9283 11C12.9161 11 12.904 11 12.8918 11C12.8797 11 12.8676 11 12.8554 11C12.8433 11 12.8311 11 12.819 11C12.8069 11 12.7948 11 12.7826 11C12.7705 11 12.7584 11 12.7463 11C12.7342 11 12.722 11 12.7099 11C12.6978 11 12.6857 11 12.6736 11C12.6615 11 12.6494 11 12.6373 11C12.6252 11 12.6131 11 12.601 11C12.5889 11 12.5769 11 12.5648 11C12.5527 11 12.5406 11 12.5285 11C12.5165 11 12.5044 11 12.4923 11C12.4803 11 12.4682 11 12.4562 11C12.4441 11 12.4321 11 12.42 11C12.408 11 12.3959 11 12.3839 11C12.3718 11 12.3598 11 12.3478 11C12.3357 11 12.3237 11 12.3117 11C12.2997 11 12.2877 11 12.2757 11C12.2636 11 12.2516 11 12.2396 11C12.2276 11 12.2156 11 12.2036 11C12.1916 11 12.1797 11 12.1677 11C12.1557 11 12.1437 11 12.1317 11C12.1198 11 12.1078 11 12.0958 11C12.0839 11 12.0719 11 12.06 11C12.048 11 12.0361 11 12.0241 11C12.0122 11 12.0002 11 11.9883 11C11.9764 11 11.9644 11 11.9525 11C11.9406 11 11.9287 11 11.9168 11C11.9049 11 11.893 11 11.8811 11C11.8692 11 11.8573 11 11.8454 11C11.8335 11 11.8216 11 11.8097 11C11.7979 11 11.786 11 11.7741 11C11.7623 11 11.7504 11 11.7385 11C11.7267 11 11.7148 11 11.703 11C11.6912 11 11.6793 11 11.6675 11C11.6557 11 11.6438 11 11.632 11C11.6202 11 11.6084 11 11.5966 11C11.5848 11 11.573 11 11.5612 11C11.5494 11 11.5376 11 11.5258 11C11.5141 11 11.5023 11 11.4905 11C11.4788 11 11.467 11 11.4553 11C11.4435 11 11.4318 11 11.42 11C11.4083 11 11.3965 11 11.3848 11C11.3731 11 11.3614 11 11.3497 11C11.3379 11 11.3262 11 11.3145 11C11.3028 11 11.2912 11 11.2795 11C11.2678 11 11.2561 11 11.2444 11C11.2328 11 11.2211 11 11.2095 11C11.1978 11 11.1861 11 11.1745 11C11.1629 11 11.1512 11 11.1396 11C11.128 11 11.1164 11 11.1047 11C11.0931 11 11.0815 11 11.0699 11C11.0583 11 11.0468 11 11.0352 11C11.0236 11 11.012 11 11.0004 11C10.9889 11 10.9773 11 10.9658 11C10.9542 11 10.9427 11 10.9311 11C10.9196 11 10.9081 11 10.8966 11C10.885 11 10.8735 11 10.862 11C10.8505 11 10.839 11 10.8276 11C10.8161 11 10.8046 11 10.7931 11C10.7817 11 10.7702 11 10.7587 11C10.7473 11 10.7358 11 10.7244 11C10.713 11 10.7015 11 10.6901 11C10.6787 11 10.6673 11 10.6559 11C10.6445 11 10.6331 11 10.6217 11C10.6103 11 10.5989 11 10.5876 11C10.5762 11 10.5649 11 10.5535 11C10.5422 11 10.5308 11 10.5195 11C10.5081 11 10.4968 11 10.4855 11C10.4742 11 10.4629 11 10.4516 11C10.4403 11 10.429 11 10.4177 11C10.4065 11 10.3952 11 10.3839 11C10.3727 11 10.3614 11 10.3502 11C10.3389 11 10.3277 11 10.3165 11C10.3053 11 10.2941 11 10.2829 11C10.2717 11 10.2605 11 10.2493 11C10.2381 11 10.2269 11 10.2158 11C10.2046 11 10.1934 11 10.1823 11C10.1712 11 10.16 11 10.1489 11C10.1378 11 10.1267 11 10.1156 11C10.1044 11 10.0934 11 10.0823 11C10.0712 11 10.0601 11 10.049 11C10.038 11 10.0269 11 10.0159 11C10.0048 11 9.99381 11 9.98279 11C9.97176 11 9.96075 11 9.94975 11C9.93874 11 9.92775 11 9.91677 11C9.90579 11 9.89482 11 9.88386 11C9.8729 11 9.86195 11 9.85101 11C9.84007 11 9.82914 11 9.81823 11C9.80731 11 9.7964 11 9.78551 11C9.77461 11 9.76373 11 9.75285 11C9.74198 11 9.73111 11 9.72026 11C9.70941 11 9.69857 11 9.68774 11C9.67691 11 9.66609 11 9.65528 11C9.64447 11 9.63368 11 9.62289 11C9.61211 11 9.60133 11 9.59057 11C9.57981 11 9.56906 11 9.55832 11C9.54758 11 9.53685 11 9.52614 11C9.51542 11 9.50471 11 9.49402 11C9.48333 11 9.47264 11 9.46198 11C9.45131 11 9.44065 11 9.43 11C9.41935 11 9.40872 11 9.3981 11C9.38747 11 9.37686 11 9.36626 11C9.35567 11 9.34508 11 9.3345 11C9.32393 11 9.31337 11 9.30282 11C9.29226 11 9.28173 11 9.2712 11C9.26067 11 9.25016 11 9.23966 11C9.22916 11 9.21867 11 9.20819 11C9.19771 11 9.18725 11 9.1768 11C9.16635 11 9.15591 11 9.14548 11C9.13505 11 9.12464 11 9.11424 11C9.10384 11 9.09345 11 9.08307 11C9.07269 11 9.06233 11 9.05198 11C9.04163 11 9.03129 11 9.02097 11C9.01064 11 9.00033 11 8.99003 11C8.97973 11 8.96945 11 8.95917 11C8.9489 11 8.93864 11 8.9284 11C8.91815 11 8.90792 11 8.8977 11C8.88748 11 8.87727 11 8.86708 11C8.85688 11 8.8467 11 8.83654 11C8.82637 11 8.81622 11 8.80608 11C8.79594 11 8.78581 11 8.7757 11C8.76559 11 8.75549 11 8.7454 11C8.73532 11 8.72525 11 8.71519 11C8.70513 11 8.69509 11 8.68506 11C8.67503 11 8.66501 11 8.65501 11C8.64501 11 8.63502 11 8.62505 11C8.61507 11 8.60511 11 8.59517 11C8.58522 11 8.57529 11 8.56537 11C8.55546 11 8.54555 11 8.53566 11C8.52578 11 8.5159 11 8.50604 11C8.49618 11 8.48634 11 8.47651 11C8.46667 11 8.45686 11 8.44705 11C8.43725 11 8.42747 11 8.41769 11C8.40792 11 8.39816 11 8.38842 11C8.37867 11 8.36895 11 8.35923 11C8.34952 11 8.33982 11 8.33014 11C8.32045 11 8.31078 11 8.30113 11C8.29147 11 8.28183 11 8.27221 11C8.26259 11 8.25298 11 8.24338 11C8.23379 11 8.22421 11 8.21465 11C8.20508 11 8.19554 11 8.186 11C8.17647 11 8.16695 11 8.15745 11C8.14795 11 8.13846 11 8.12899 11C8.11952 11 8.11007 11 8.10063 11C8.09119 11 8.08176 11 8.07235 11C8.06295 11 8.05355 11 8.04418 11C8.0348 11 8.02544 11 8.01609 11C8.00675 11 7.99742 11 7.9881 11C7.97879 11 7.96949 11 7.96021 11C7.95093 11 7.94166 11 7.93241 11C7.92317 11 7.91393 11 7.90471 11C7.8955 11 7.8863 11 7.87711 11C7.86793 11 7.85876 11 7.84961 11C7.84046 11 7.83132 11 7.8222 11C7.81308 11 7.80398 11 7.79489 11C7.78581 11 7.77674 11 7.76769 11C7.75863 11 7.7496 11 7.74058 11C7.73156 11 7.72256 11 7.71357 11C7.70459 11 7.69562 11 7.68666 11C7.67771 11 7.66878 11 7.65986 11C7.65094 11 7.64204 11 7.63316 11C7.62427 11 7.61541 11 7.60656 11C7.59771 11 7.58887 11 7.58006 11C7.57124 11 7.56244 11 7.55366 11C7.54488 11 7.53612 11 7.52737 11C7.51863 11 7.5099 11 7.50119 11C7.49248 11 7.48378 11 7.47511 11C7.46643 11 7.45777 11 7.44913 11C7.44049 11 7.43187 11 7.42326 11C7.41466 11 7.40607 11 7.3975 11C7.38893 11 7.38038 11 7.37185 11C7.36331 11 7.3548 11 7.3463 11C7.3378 11 7.32932 11 7.32086 11C7.3124 11 7.30396 11 7.29553 11C7.2871 11 7.2787 11 7.27031 11C7.26192 11 7.25355 11 7.2452 11C7.23685 11 7.22851 11 7.2202 11C7.21188 11 7.20358 11 7.19531 11C7.18703 11 7.17877 11 7.17053 11C7.16229 11 7.15406 11 7.14586 11C7.13766 11 7.12947 11 7.12131 11C7.11314 11 7.10499 11 7.09686 11C7.08873 11 7.08063 11 7.07253 11C7.06444 11 7.05637 11 7.04832 11C7.04027 11 7.03223 11 7.02422 11C7.0162 11 7.00821 11 7.00023 11C6.99226 11 6.9843 11 6.97636 11C6.96843 11 6.96051 11 6.95261 11C6.94471 11 6.93683 11 6.92897 11C6.92111 11 6.91327 11 6.90545 11C6.89763 11 6.88983 11 6.88205 11C6.87427 11 6.86651 11 6.85876 11C6.85102 11 6.8433 11 6.8356 11C6.8279 11 6.82021 11 6.81255 11C6.80489 11 6.79725 11 6.78962 11C6.782 11 6.7744 11 6.76682 11C6.75923 11 6.75167 11 6.74413 11C6.73659 11 6.72906 11 6.72156 11C6.71406 11 6.70658 11 6.69912 11C6.69166 11 6.68422 11 6.6768 11C6.66938 11 6.66198 11 6.6546 11C6.64722 11 6.63986 11 6.63252 11C6.62518 11 6.61787 11 6.61057 11C6.60327 11 6.596 11 6.58874 11C6.58149 11 6.57425 11 6.56704 11C6.55983 11 6.55263 11 6.54546 11C6.53829 11 6.53114 11 6.52401 11C6.51688 11 6.50977 11 6.50268 11C6.4956 11 6.48853 11 6.48149 11C6.47444 11 6.46742 11 6.46041 11C6.45341 11 6.44643 11 6.43947 11C6.43251 11 6.42557 11 6.41865 11C6.41174 11 6.40484 11 6.39797 11C6.3911 11 6.38424 11 6.37741 11C6.37058 11 6.36377 11 6.35699 11C6.3502 11 6.34343 11 6.33669 11C6.32995 11 6.32322 11 6.31652 11C6.30982 11 6.30315 11 6.29649 11C6.28983 11 6.2832 11 6.27659 11C6.26998 11 6.26339 11 6.25682 11C6.25025 11 6.24371 11 6.23718 11C6.23066 11 6.22416 11 6.21768 11C6.2112 11 6.20475 11 6.19831 11C6.19188 11 6.18547 11 6.17908 11C6.17269 11 6.16632 11 6.15998 11C6.15364 11 6.14732 11 6.14102 11C6.13472 11 6.12844 11 6.12219 11C6.11594 11 6.10971 11 6.1035 11C6.09729 11 6.09111 11 6.08495 11C6.07879 11 6.07265 11 6.06653 11C6.06042 11 6.05433 11 6.04826 11C6.04219 11 6.03614 11 6.03012 11C6.0241 11 6.0181 11 6.01212 11C6.00614 11 6.00019 11 5.99426 11C5.98833 11 5.98242 11 5.97654 11C5.97066 11 5.9648 11 5.95897 11C5.95313 11 5.94732 11 5.94153 11C5.93574 11 5.92998 11 5.92423 11C5.91849 11 5.91278 11 5.90708 11C5.90139 11 5.89572 11 5.89007 11C5.88443 11 5.87881 11 5.87321 11C5.86761 11 5.86204 11 5.85649 11C5.85094 11 5.84541 11 5.83991 11C5.83441 11 5.82893 11 5.82348 11C5.81802 11 5.8126 11 5.80719 11C5.80179 11 5.79641 11 5.79105 11C5.78569 11 5.78036 11 5.77506 11C5.76975 11 5.76447 11 5.75921 11C5.75395 11 5.74872 11 5.74351 11C5.7383 11 5.73312 11 5.72796 11C5.7228 11 5.71767 11 5.71256 11C5.70745 11 5.70236 11 5.6973 11C5.69224 11 5.68721 11 5.6822 11C5.67719 11 5.6722 11 5.66725 11C5.66229 11 5.65735 11 5.65244 11C5.64753 11 5.64265 11 5.63779 11C5.63293 11 5.6281 11 5.62329 11C5.61848 11 5.6137 11 5.60894 11C5.60419 11 5.59945 11 5.59475 11C5.59004 11 5.58536 11 5.58071 11C5.57605 11 5.57142 11 5.56682 11C5.56222 11 5.55764 11 5.55309 11C5.54853 11 5.54401 11 5.53951 11C5.53501 11 5.53053 11 5.52608 11C5.52164 11 5.51721 11 5.51282 11C5.50842 11 5.50405 11 5.49971 11C5.49536 11 5.49104 11 5.48675 11C5.48246 11 5.4782 11 5.47396 11C5.46972 11 5.4655 11 5.46132 11C5.45713 11 5.45297 11 5.44884 11C5.44471 11 5.4406 11 5.43652 11C5.43244 11 5.42838 11 5.42436 11C5.42033 11 5.41633 11 5.41235 11C5.40838 11 5.40443 11 5.40051 11C5.39659 11 5.3927 11 5.38883 11C5.38497 11 5.38113 11 5.37732 11C5.3735 11 5.36972 11 5.36596 11C5.3622 11 5.35847 11 5.35477 11C5.35106 11 5.34739 11 5.34374 11C5.34009 11 5.33646 11 5.33287 11C5.32927 11 5.32571 11 5.32217 11C5.31863 11 5.31511 11 5.31163 11C5.30814 11 5.30469 11 5.30126 11C5.29783 11 5.29443 11 5.29105 11C5.28768 11 5.28433 11 5.28101 11C5.27769 11 5.2744 11 5.27114 11C5.26787 11 5.26464 11 5.26143 11C5.25822 11 5.25504 11 5.25189 11C5.24874 11 5.24562 11 5.24252 11C5.23943 11 5.23636 11 5.23332 11C5.23028 11 5.22727 11 5.22429 11C5.2213 11 5.21835 11 5.21543 11C5.2125 11 5.2096 11 5.20673 11C5.20387 11 5.20103 11 5.19821 11C5.1954 11 5.19262 11 5.18986 11C5.18711 11 5.18438 11 5.18169 11C5.17899 11 5.17632 11 5.17368 11C5.17104 11 5.16843 11 5.16585 11C5.16327 11 5.16072 11 5.15819 11C5.15567 11 5.15317 11 5.15071 11C5.14824 11 5.1458 11 5.1434 11C5.14099 11 5.13861 11 5.13626 11C5.13391 11 5.13159 11 5.1293 11C5.12701 11 5.12475 11 5.12252 11C5.12029 11 5.11809 11 5.11591 11C5.11374 11 5.1116 11 5.10948 11C5.10737 11 5.10529 11 5.10323 11C5.10118 11 5.09915 11 5.09716 11C5.09517 11 5.0932 11 5.09127 11C5.08933 11 5.08743 11 5.08555 11C5.08368 11 5.08183 11 5.08001 11C5.0782 11 5.07641 11 5.07466 11C5.0729 11 5.07118 11 5.06948 11C5.06779 11 5.06612 11 5.06449 11C5.06286 11 5.06125 11 5.05968 11C5.05811 11 5.05656 11 5.05505 11C5.05354 11 5.05206 11 5.0506 11C5.04915 11 5.04773 11 5.04634 11C5.04495 11 5.04359 11 5.04226 11C5.04093 11 5.03963 11 5.03837 11C5.0371 11 5.03586 11 5.03466 11C5.03345 11 5.03228 11 5.03113 11C5.02999 11 5.02888 11 5.0278 11C5.02671 11 5.02566 11 5.02464 11C5.02362 11 5.02264 11 5.02168 11C5.02072 11 5.0198 11 5.0189 11C5.01801 11 5.01714 11 5.01631 11C5.01548 11 5.01468 11 5.01391 11C5.01314 11 5.01241 11 5.0117 11C5.01099 11 5.01032 11 5.00968 11C5.00904 11 5.00842 11 5.00785 11C5.00727 11 5.00672 11 5.0062 11C5.00569 11 5.00521 11 5.00476 11C5.0043 11 5.00388 11 5.0035 11C5.00311 11 5.00275 11 5.00243 11C5.00211 11 5.00182 11 5.00156 11C5.0013 11 5.00107 11 5.00088 11C5.00068 11 5.00052 11 5.00039 11C5.00026 11 5.00016 11 5.0001 11C5.00003 11 5 11 5 12C5 13 5.00003 13 5.0001 13C5.00016 13 5.00026 13 5.00039 13C5.00052 13 5.00068 13 5.00088 13C5.00107 13 5.0013 13 5.00156 13C5.00182 13 5.00211 13 5.00243 13C5.00275 13 5.00311 13 5.0035 13C5.00388 13 5.0043 13 5.00476 13C5.00521 13 5.00569 13 5.0062 13C5.00672 13 5.00727 13 5.00785 13C5.00842 13 5.00904 13 5.00968 13C5.01032 13 5.01099 13 5.0117 13C5.01241 13 5.01314 13 5.01391 13C5.01468 13 5.01548 13 5.01631 13C5.01714 13 5.01801 13 5.0189 13C5.0198 13 5.02072 13 5.02168 13C5.02264 13 5.02362 13 5.02464 13C5.02566 13 5.02671 13 5.0278 13C5.02888 13 5.02999 13 5.03113 13C5.03228 13 5.03345 13 5.03466 13C5.03586 13 5.0371 13 5.03837 13C5.03963 13 5.04093 13 5.04226 13C5.04359 13 5.04495 13 5.04634 13C5.04773 13 5.04915 13 5.0506 13C5.05206 13 5.05354 13 5.05505 13C5.05656 13 5.05811 13 5.05968 13C5.06125 13 5.06286 13 5.06449 13C5.06612 13 5.06779 13 5.06948 13C5.07118 13 5.0729 13 5.07466 13C5.07641 13 5.0782 13 5.08001 13C5.08183 13 5.08368 13 5.08555 13C5.08743 13 5.08933 13 5.09127 13C5.0932 13 5.09517 13 5.09716 13C5.09915 13 5.10118 13 5.10323 13C5.10529 13 5.10737 13 5.10948 13C5.1116 13 5.11374 13 5.11591 13C5.11809 13 5.12029 13 5.12252 13C5.12475 13 5.12701 13 5.1293 13C5.13159 13 5.13391 13 5.13626 13C5.13861 13 5.14099 13 5.1434 13C5.1458 13 5.14824 13 5.15071 13C5.15317 13 5.15567 13 5.15819 13C5.16072 13 5.16327 13 5.16585 13C5.16843 13 5.17104 13 5.17368 13C5.17632 13 5.17899 13 5.18169 13C5.18438 13 5.18711 13 5.18986 13C5.19262 13 5.1954 13 5.19821 13C5.20103 13 5.20387 13 5.20673 13C5.2096 13 5.2125 13 5.21543 13C5.21835 13 5.2213 13 5.22429 13C5.22727 13 5.23028 13 5.23332 13C5.23636 13 5.23943 13 5.24252 13C5.24562 13 5.24874 13 5.25189 13C5.25504 13 5.25822 13 5.26143 13C5.26464 13 5.26787 13 5.27114 13C5.2744 13 5.27769 13 5.28101 13C5.28433 13 5.28768 13 5.29105 13C5.29443 13 5.29783 13 5.30126 13C5.30469 13 5.30814 13 5.31163 13C5.31511 13 5.31863 13 5.32217 13C5.32571 13 5.32927 13 5.33287 13C5.33646 13 5.34009 13 5.34374 13C5.34739 13 5.35106 13 5.35477 13C5.35847 13 5.3622 13 5.36596 13C5.36972 13 5.3735 13 5.37732 13C5.38113 13 5.38497 13 5.38883 13C5.3927 13 5.39659 13 5.40051 13C5.40443 13 5.40838 13 5.41235 13C5.41633 13 5.42033 13 5.42436 13C5.42838 13 5.43244 13 5.43652 13C5.4406 13 5.44471 13 5.44884 13C5.45297 13 5.45713 13 5.46132 13C5.4655 13 5.46972 13 5.47396 13C5.4782 13 5.48246 13 5.48675 13C5.49104 13 5.49536 13 5.49971 13C5.50405 13 5.50842 13 5.51282 13C5.51721 13 5.52164 13 5.52608 13C5.53053 13 5.53501 13 5.53951 13C5.54401 13 5.54853 13 5.55309 13C5.55764 13 5.56222 13 5.56682 13C5.57142 13 5.57605 13 5.58071 13C5.58536 13 5.59004 13 5.59475 13C5.59945 13 5.60419 13 5.60894 13C5.6137 13 5.61848 13 5.62329 13C5.6281 13 5.63293 13 5.63779 13C5.64265 13 5.64753 13 5.65244 13C5.65735 13 5.66229 13 5.66725 13C5.6722 13 5.67719 13 5.6822 13C5.68721 13 5.69224 13 5.6973 13C5.70236 13 5.70745 13 5.71256 13C5.71767 13 5.7228 13 5.72796 13C5.73312 13 5.7383 13 5.74351 13C5.74872 13 5.75395 13 5.75921 13C5.76447 13 5.76975 13 5.77506 13C5.78036 13 5.78569 13 5.79105 13C5.79641 13 5.80179 13 5.80719 13C5.8126 13 5.81802 13 5.82348 13C5.82893 13 5.83441 13 5.83991 13C5.84541 13 5.85094 13 5.85649 13C5.86204 13 5.86761 13 5.87321 13C5.87881 13 5.88443 13 5.89007 13C5.89572 13 5.90139 13 5.90708 13C5.91278 13 5.91849 13 5.92423 13C5.92998 13 5.93574 13 5.94153 13C5.94732 13 5.95313 13 5.95897 13C5.9648 13 5.97066 13 5.97654 13C5.98242 13 5.98833 13 5.99426 13C6.00019 13 6.00614 13 6.01212 13C6.0181 13 6.0241 13 6.03012 13C6.03614 13 6.04219 13 6.04826 13C6.05433 13 6.06042 13 6.06653 13C6.07265 13 6.07879 13 6.08495 13C6.09111 13 6.09729 13 6.1035 13C6.10971 13 6.11594 13 6.12219 13C6.12844 13 6.13472 13 6.14102 13C6.14732 13 6.15364 13 6.15998 13C6.16632 13 6.17269 13 6.17908 13C6.18547 13 6.19188 13 6.19831 13C6.20475 13 6.2112 13 6.21768 13C6.22416 13 6.23066 13 6.23718 13C6.24371 13 6.25025 13 6.25682 13C6.26339 13 6.26998 13 6.27659 13C6.2832 13 6.28983 13 6.29649 13C6.30315 13 6.30982 13 6.31652 13C6.32322 13 6.32995 13 6.33669 13C6.34343 13 6.3502 13 6.35699 13C6.36377 13 6.37058 13 6.37741 13C6.38424 13 6.3911 13 6.39797 13C6.40484 13 6.41174 13 6.41865 13C6.42557 13 6.43251 13 6.43947 13C6.44643 13 6.45341 13 6.46041 13C6.46742 13 6.47444 13 6.48149 13C6.48853 13 6.4956 13 6.50268 13C6.50977 13 6.51688 13 6.52401 13C6.53114 13 6.53829 13 6.54546 13C6.55263 13 6.55983 13 6.56704 13C6.57425 13 6.58149 13 6.58874 13C6.596 13 6.60327 13 6.61057 13C6.61787 13 6.62518 13 6.63252 13C6.63986 13 6.64722 13 6.6546 13C6.66198 13 6.66938 13 6.6768 13C6.68422 13 6.69166 13 6.69912 13C6.70658 13 6.71406 13 6.72156 13C6.72906 13 6.73659 13 6.74413 13C6.75167 13 6.75923 13 6.76682 13C6.7744 13 6.782 13 6.78962 13C6.79725 13 6.80489 13 6.81255 13C6.82021 13 6.8279 13 6.8356 13C6.8433 13 6.85102 13 6.85876 13C6.86651 13 6.87427 13 6.88205 13C6.88983 13 6.89763 13 6.90545 13C6.91327 13 6.92111 13 6.92897 13C6.93683 13 6.94471 13 6.95261 13C6.96051 13 6.96843 13 6.97636 13C6.9843 13 6.99226 13 7.00023 13C7.00821 13 7.0162 13 7.02422 13C7.03223 13 7.04027 13 7.04832 13C7.05637 13 7.06444 13 7.07253 13C7.08063 13 7.08873 13 7.09686 13C7.10499 13 7.11314 13 7.12131 13C7.12947 13 7.13766 13 7.14586 13C7.15406 13 7.16229 13 7.17053 13C7.17877 13 7.18703 13 7.19531 13C7.20358 13 7.21188 13 7.2202 13C7.22851 13 7.23685 13 7.2452 13C7.25355 13 7.26192 13 7.27031 13C7.2787 13 7.2871 13 7.29553 13C7.30396 13 7.3124 13 7.32086 13C7.32932 13 7.3378 13 7.3463 13C7.3548 13 7.36331 13 7.37185 13C7.38038 13 7.38893 13 7.3975 13C7.40607 13 7.41466 13 7.42326 13C7.43187 13 7.44049 13 7.44913 13C7.45777 13 7.46643 13 7.47511 13C7.48378 13 7.49248 13 7.50119 13C7.5099 13 7.51863 13 7.52737 13C7.53612 13 7.54488 13 7.55366 13C7.56244 13 7.57124 13 7.58006 13C7.58887 13 7.59771 13 7.60656 13C7.61541 13 7.62427 13 7.63316 13C7.64204 13 7.65094 13 7.65986 13C7.66878 13 7.67771 13 7.68666 13C7.69562 13 7.70459 13 7.71357 13C7.72256 13 7.73156 13 7.74058 13C7.7496 13 7.75863 13 7.76769 13C7.77674 13 7.78581 13 7.79489 13C7.80398 13 7.81308 13 7.8222 13C7.83132 13 7.84046 13 7.84961 13C7.85876 13 7.86793 13 7.87711 13C7.8863 13 7.8955 13 7.90471 13C7.91393 13 7.92317 13 7.93241 13C7.94166 13 7.95093 13 7.96021 13C7.96949 13 7.97879 13 7.9881 13C7.99742 13 8.00675 13 8.01609 13C8.02544 13 8.0348 13 8.04418 13C8.05355 13 8.06295 13 8.07235 13C8.08176 13 8.09119 13 8.10063 13C8.11007 13 8.11952 13 8.12899 13C8.13846 13 8.14795 13 8.15745 13C8.16695 13 8.17647 13 8.186 13C8.19554 13 8.20508 13 8.21465 13C8.22421 13 8.23379 13 8.24338 13C8.25298 13 8.26259 13 8.27221 13C8.28183 13 8.29147 13 8.30113 13C8.31078 13 8.32045 13 8.33014 13C8.33982 13 8.34952 13 8.35923 13C8.36895 13 8.37867 13 8.38842 13C8.39816 13 8.40792 13 8.41769 13C8.42747 13 8.43725 13 8.44705 13C8.45686 13 8.46667 13 8.47651 13C8.48634 13 8.49618 13 8.50604 13C8.5159 13 8.52578 13 8.53566 13C8.54555 13 8.55546 13 8.56537 13C8.57529 13 8.58522 13 8.59517 13C8.60511 13 8.61507 13 8.62505 13C8.63502 13 8.64501 13 8.65501 13C8.66501 13 8.67503 13 8.68506 13C8.69509 13 8.70513 13 8.71519 13C8.72525 13 8.73532 13 8.7454 13C8.75549 13 8.76559 13 8.7757 13C8.78581 13 8.79594 13 8.80608 13C8.81622 13 8.82637 13 8.83654 13C8.8467 13 8.85688 13 8.86708 13C8.87727 13 8.88748 13 8.8977 13C8.90792 13 8.91815 13 8.9284 13C8.93864 13 8.9489 13 8.95917 13C8.96945 13 8.97973 13 8.99003 13C9.00033 13 9.01064 13 9.02097 13C9.03129 13 9.04163 13 9.05198 13C9.06233 13 9.07269 13 9.08307 13C9.09345 13 9.10384 13 9.11424 13C9.12464 13 9.13505 13 9.14548 13C9.15591 13 9.16635 13 9.1768 13C9.18725 13 9.19771 13 9.20819 13C9.21867 13 9.22916 13 9.23966 13C9.25016 13 9.26067 13 9.2712 13C9.28173 13 9.29226 13 9.30282 13C9.31337 13 9.32393 13 9.3345 13C9.34508 13 9.35567 13 9.36626 13C9.37686 13 9.38747 13 9.3981 13C9.40872 13 9.41935 13 9.43 13C9.44065 13 9.45131 13 9.46198 13C9.47264 13 9.48333 13 9.49402 13C9.50471 13 9.51542 13 9.52614 13C9.53685 13 9.54758 13 9.55832 13C9.56906 13 9.57981 13 9.59057 13C9.60133 13 9.61211 13 9.62289 13C9.63368 13 9.64447 13 9.65528 13C9.66609 13 9.67691 13 9.68774 13C9.69857 13 9.70941 13 9.72026 13C9.73111 13 9.74198 13 9.75285 13C9.76373 13 9.77461 13 9.78551 13C9.7964 13 9.80731 13 9.81823 13C9.82914 13 9.84007 13 9.85101 13C9.86195 13 9.8729 13 9.88386 13C9.89482 13 9.90579 13 9.91677 13C9.92775 13 9.93874 13 9.94975 13C9.96075 13 9.97176 13 9.98279 13C9.99381 13 10.0048 13 10.0159 13C10.0269 13 10.038 13 10.049 13C10.0601 13 10.0712 13 10.0823 13C10.0934 13 10.1044 13 10.1156 13C10.1267 13 10.1378 13 10.1489 13C10.16 13 10.1712 13 10.1823 13C10.1934 13 10.2046 13 10.2158 13C10.2269 13 10.2381 13 10.2493 13C10.2605 13 10.2717 13 10.2829 13C10.2941 13 10.3053 13 10.3165 13C10.3277 13 10.3389 13 10.3502 13C10.3614 13 10.3727 13 10.3839 13C10.3952 13 10.4065 13 10.4177 13C10.429 13 10.4403 13 10.4516 13C10.4629 13 10.4742 13 10.4855 13C10.4968 13 10.5081 13 10.5195 13C10.5308 13 10.5422 13 10.5535 13C10.5649 13 10.5762 13 10.5876 13C10.5989 13 10.6103 13 10.6217 13C10.6331 13 10.6445 13 10.6559 13C10.6673 13 10.6787 13 10.6901 13C10.7015 13 10.713 13 10.7244 13C10.7358 13 10.7473 13 10.7587 13C10.7702 13 10.7817 13 10.7931 13C10.8046 13 10.8161 13 10.8276 13C10.839 13 10.8505 13 10.862 13C10.8735 13 10.885 13 10.8966 13C10.9081 13 10.9196 13 10.9311 13C10.9427 13 10.9542 13 10.9658 13C10.9773 13 10.9889 13 11.0004 13C11.012 13 11.0236 13 11.0352 13C11.0468 13 11.0583 13 11.0699 13C11.0815 13 11.0931 13 11.1047 13C11.1164 13 11.128 13 11.1396 13C11.1512 13 11.1629 13 11.1745 13C11.1861 13 11.1978 13 11.2095 13C11.2211 13 11.2328 13 11.2444 13C11.2561 13 11.2678 13 11.2795 13C11.2912 13 11.3028 13 11.3145 13C11.3262 13 11.3379 13 11.3497 13C11.3614 13 11.3731 13 11.3848 13C11.3965 13 11.4083 13 11.42 13C11.4318 13 11.4435 13 11.4553 13C11.467 13 11.4788 13 11.4905 13C11.5023 13 11.5141 13 11.5258 13C11.5376 13 11.5494 13 11.5612 13C11.573 13 11.5848 13 11.5966 13C11.6084 13 11.6202 13 11.632 13C11.6438 13 11.6557 13 11.6675 13C11.6793 13 11.6912 13 11.703 13C11.7148 13 11.7267 13 11.7385 13C11.7504 13 11.7623 13 11.7741 13C11.786 13 11.7979 13 11.8097 13C11.8216 13 11.8335 13 11.8454 13C11.8573 13 11.8692 13 11.8811 13C11.893 13 11.9049 13 11.9168 13C11.9287 13 11.9406 13 11.9525 13C11.9644 13 11.9764 13 11.9883 13C12.0002 13 12.0122 13 12.0241 13C12.0361 13 12.048 13 12.06 13C12.0719 13 12.0839 13 12.0958 13C12.1078 13 12.1198 13 12.1317 13C12.1437 13 12.1557 13 12.1677 13C12.1797 13 12.1916 13 12.2036 13C12.2156 13 12.2276 13 12.2396 13C12.2516 13 12.2636 13 12.2757 13C12.2877 13 12.2997 13 12.3117 13C12.3237 13 12.3357 13 12.3478 13C12.3598 13 12.3718 13 12.3839 13C12.3959 13 12.408 13 12.42 13C12.4321 13 12.4441 13 12.4562 13C12.4682 13 12.4803 13 12.4923 13C12.5044 13 12.5165 13 12.5285 13C12.5406 13 12.5527 13 12.5648 13C12.5769 13 12.5889 13 12.601 13C12.6131 13 12.6252 13 12.6373 13C12.6494 13 12.6615 13 12.6736 13C12.6857 13 12.6978 13 12.7099 13C12.722 13 12.7342 13 12.7463 13C12.7584 13 12.7705 13 12.7826 13C12.7948 13 12.8069 13 12.819 13C12.8311 13 12.8433 13 12.8554 13C12.8676 13 12.8797 13 12.8918 13C12.904 13 12.9161 13 12.9283 13C12.9404 13 12.9526 13 12.9648 13C12.9769 13 12.9891 13 13.0012 13C13.0134 13 13.0256 13 13.0377 13C13.0499 13 13.0621 13 13.0742 13C13.0864 13 13.0986 13 13.1108 13C13.123 13 13.1351 13 13.1473 13C13.1595 13 13.1717 13 13.1839 13C13.1961 13 13.2083 13 13.2205 13C13.2326 13 13.2448 13 13.257 13C13.2692 13 13.2814 13 13.2936 13C13.3059 13 13.3181 13 13.3303 13C13.3425 13 13.3547 13 13.3669 13C13.3791 13 13.3913 13 13.4035 13C13.4158 13 13.428 13 13.4402 13C13.4524 13 13.4646 13 13.4769 13C13.4891 13 13.5013 13 13.5135 13C13.5258 13 13.538 13 13.5502 13C13.5625 13 13.5747 13 13.5869 13C13.5992 13 13.6114 13 13.6236 13C13.6359 13 13.6481 13 13.6603 13C13.6726 13 13.6848 13 13.6971 13C13.7093 13 13.7215 13 13.7338 13C13.746 13 13.7583 13 13.7705 13C13.7828 13 13.795 13 13.8073 13C13.8195 13 13.8318 13 13.844 13C13.8563 13 13.8685 13 13.8808 13C13.893 13 13.9053 13 13.9175 13C13.9298 13 13.942 13 13.9543 13C13.9666 13 13.9788 13 13.9911 13C14.0033 13 14.0156 13 14.0278 13C14.0401 13 14.0524 13 14.0646 13C14.0769 13 14.0891 13 14.1014 13C14.1137 13 14.1259 13 14.1382 13C14.1504 13 14.1627 13 14.175 13C14.1872 13 14.1995 13 14.2117 13C14.224 13 14.2363 13 14.2485 13C14.2608 13 14.273 13 14.2853 13C14.2976 13 14.3098 13 14.3221 13C14.3343 13 14.3466 13 14.3589 13C14.3711 13 14.3834 13 14.3956 13C14.4079 13 14.4202 13 14.4324 13C14.4447 13 14.4569 13 14.4692 13C14.4815 13 14.4937 13 14.506 13C14.5182 13 14.5305 13 14.5427 13C14.555 13 14.5672 13 14.5795 13C14.5917 13 14.604 13 14.6163 13C14.6285 13 14.6408 13 14.653 13C14.6653 13 14.6775 13 14.6897 13C14.702 13 14.7142 13 14.7265 13C14.7387 13 14.751 13 14.7632 13C14.7755 13 14.7877 13 14.7999 13C14.8122 13 14.8244 13 14.8367 13C14.8489 13 14.8611 13 14.8734 13C14.8856 13 14.8978 13 14.9101 13C14.9223 13 14.9345 13 14.9468 13C14.959 13 14.9712 13 14.9834 13C14.9957 13 15.0079 13 15.0201 13C15.0323 13 15.0446 13 15.0568 13C15.069 13 15.0812 13 15.0934 13C15.1056 13 15.1178 13 15.1301 13C15.1423 13 15.1545 13 15.1667 13C15.1789 13 15.1911 13 15.2033 13C15.2155 13 15.2277 13 15.2399 13C15.2521 13 15.2643 13 15.2765 13C15.2887 13 15.3008 13 15.313 13C15.3252 13 15.3374 13 15.3496 13C15.3618 13 15.3739 13 15.3861 13C15.3983 13 15.4105 13 15.4226 13C15.4348 13 15.447 13 15.4591 13C15.4713 13 15.4835 13 15.4956 13C15.5078 13 15.5199 13 15.5321 13C15.5442 13 15.5564 13 15.5685 13C15.5807 13 15.5928 13 15.605 13C15.6171 13 15.6293 13 15.6414 13C15.6535 13 15.6656 13 15.6778 13C15.6899 13 15.702 13 15.7141 13C15.7263 13 15.7384 13 15.7505 13C15.7626 13 15.7747 13 15.7868 13C15.7989 13 15.811 13 15.8231 13C15.8352 13 15.8473 13 15.8594 13C15.8715 13 15.8836 13 15.8957 13C15.9078 13 15.9198 13 15.9319 13C15.944 13 15.9561 13 15.9681 13C15.9802 13 15.9923 13 16.0043 13C16.0164 13 16.0284 13 16.0405 13C16.0525 13 16.0646 13 16.0766 13C16.0887 13 16.1007 13 16.1127 13C16.1248 13 16.1368 13 16.1488 13C16.1608 13 16.1729 13 16.1849 13C16.1969 13 16.2089 13 16.2209 13C16.2329 13 16.2449 13 16.2569 13C16.2689 13 16.2809 13 16.2929 13C16.3049 13 16.3169 13 16.3288 13C16.3408 13 16.3528 13 16.3648 13C16.3767 13 16.3887 13 16.4006 13C16.4126 13 16.4245 13 16.4365 13C16.4484 13 16.4604 13 16.4723 13C16.4843 13 16.4962 13 16.5081 13C16.52 13 16.532 13 16.5439 13C16.5558 13 16.5677 13 16.5796 13C16.5915 13 16.6034 13 16.6153 13C16.6272 13 16.6391 13 16.6509 13C16.6628 13 16.6747 13 16.6866 13C16.6984 13 16.7103 13 16.7222 13C16.734 13 16.7459 13 16.7577 13C16.7696 13 16.7814 13 16.7932 13C16.8051 13 16.8169 13 16.8287 13C16.8405 13 16.8523 13 16.8642 13C16.876 13 16.8878 13 16.8996 13C16.9114 13 16.9232 13 16.9349 13C16.9467 13 16.9585 13 16.9703 13C16.982 13 16.9938 13 17.0056 13C17.0173 13 17.0291 13 17.0408 13C17.0526 13 17.0643 13 17.076 13C17.0878 13 17.0995 13 17.1112 13C17.1229 13 17.1346 13 17.1463 13C17.158 13 17.1697 13 17.1814 13C17.1931 13 17.2048 13 17.2165 13C17.2281 13 17.2398 13 17.2515 13C17.2631 13 17.2748 13 17.2864 13C17.2981 13 17.3097 13 17.3213 13C17.333 13 17.3446 13 17.3562 13C17.3678 13 17.3794 13 17.391 13C17.4026 13 17.4142 13 17.4258 13C17.4374 13 17.449 13 17.4606 13C17.4721 13 17.4837 13 17.4953 13C17.5068 13 17.5184 13 17.5299 13C17.5414 13 17.553 13 17.5645 13C17.576 13 17.5875 13 17.599 13C17.6106 13 17.6221 13 17.6335 13C17.645 13 17.6565 13 17.668 13C17.6795 13 17.6909 13 17.7024 13C17.7139 13 17.7253 13 17.7367 13C17.7482 13 17.7596 13 17.7711 13C17.7825 13 17.7939 13 17.8053 13C17.8167 13 17.8281 13 17.8395 13C17.8509 13 17.8623 13 17.8736 13C17.885 13 17.8964 13 17.9077 13C17.9191 13 17.9304 13 17.9418 13C17.9531 13 17.9645 13 17.9758 13C17.9871 13 17.9984 13 18.0097 13C18.021 13 18.0323 13 18.0436 13C18.0549 13 18.0661 13 18.0774 13C18.0887 13 18.0999 13 18.1112 13C18.1224 13 18.1337 13 18.1449 13C18.1561 13 18.1673 13 18.1785 13C18.1898 13 18.201 13 18.2121 13C18.2233 13 18.2345 13 18.2457 13C18.2569 13 18.268 13 18.2792 13C18.2903 13 18.3015 13 18.3126 13C18.3237 13 18.3348 13 18.346 13C18.3571 13 18.3682 13 18.3793 13C18.3904 13 18.4014 13 18.4125 13C18.4236 13 18.4346 13 18.4457 13C18.4567 13 18.4678 13 18.4788 13C18.4898 13 18.5009 13 18.5119 13C18.5229 13 18.5339 13 18.5449 13C18.5559 13 18.5668 13 18.5778 13C18.5888 13 18.5997 13 18.6107 13C18.6216 13 18.6326 13 18.6435 13C18.6544 13 18.6653 13 18.6762 13C18.6871 13 18.698 13 18.7089 13C18.7198 13 18.7307 13 18.7415 13C18.7524 13 18.7632 13 18.7741 13C18.7849 13 18.7957 13 18.8065 13C18.8174 13 18.8282 13 18.839 13C18.8498 13 18.8605 13 18.8713 13C18.8821 13 18.8928 13 18.9036 13C18.9143 13 18.9251 13 18.9358 13C18.9465 13 18.9572 13 18.9679 13C18.9786 13 18.9893 13 19 13V11Z" fill="#1A1D32"/>
</g>
</svg>
