<svg width="24" height="24" viewBox="0 0 24 24" fill="none" xmlns="http://www.w3.org/2000/svg">
<path fill-rule="evenodd" clip-rule="evenodd" d="M11 22C17.0751 22 22 17.0751 22 11C22 4.92487 17.0751 0 11 0C4.92487 0 0 4.92487 0 11C0 17.0751 4.92487 22 11 22ZM11 20C15.9706 20 20 15.9706 20 11C20 6.02944 15.9706 2 11 2C6.02944 2 2 6.02944 2 11C2 15.9706 6.02944 20 11 20Z" fill="#1A1D32"/>
<path d="M11.9989 11.7991V12.7593H10.2828V10.6927C10.3643 10.6826 10.4457 10.6736 10.5269 10.6648C10.7793 10.6371 11.0289 10.6098 11.2664 10.5466C11.957 10.3796 12.3128 9.98298 12.3337 9.37761C12.3756 8.73049 12.1244 8.29212 11.5803 8.08337C10.9734 7.85375 10.2619 8.02075 9.86429 8.45912C9.79599 8.53344 9.72954 8.61144 9.66273 8.68984C9.50439 8.87568 9.3441 9.0638 9.15277 9.21061C8.77608 9.52373 8.35753 9.48198 8.00177 9.16886C7.64601 8.85574 7.72972 8.50087 7.91806 8.12512C8.88071 6.2464 11.8942 5.72453 13.4219 7.16488C14.7403 8.39649 14.4264 10.6092 12.815 11.4442C12.6082 11.5568 12.3675 11.6525 12.093 11.7616L12.0916 11.7622C12.0611 11.7743 12.0302 11.7866 11.9989 11.7991Z" fill="#1A1D32"/>
<path d="M10.0736 14.638C10.0736 15.2225 10.534 15.6609 11.1199 15.6609C11.7059 15.6609 12.1453 15.2225 12.1453 14.638C12.1453 14.0744 11.664 13.6152 11.099 13.6152C10.534 13.5943 10.0736 14.0744 10.0736 14.638Z" fill="#1A1D32"/>
</svg>