<svg width="24" height="24" viewBox="0 0 24 24" fill="none" xmlns="http://www.w3.org/2000/svg">
<g id="Size=24px, Type=Reminder, Menu=Other">
<g id="Frame" clip-path="url(#clip0)">
<g id="Group">
<path id="Vector" d="M16.9 21.5002C16.9 21.5002 15.5 18.2002 17.3 11.6002C18.1 8.7002 16.4 5.6002 13.4 4.7002C10.4 3.8002 7.4 5.4002 6.6 8.3002C4.9 14.9002 2 16.9002 2 16.9002L16.9 21.5002Z" stroke="black" stroke-width="2" stroke-miterlimit="10" stroke-linecap="round" stroke-linejoin="round"/>
<path id="Vector_2" d="M12.1 20.0999C11.7 21.5999 10.2 22.3999 8.69995 21.8999C7.19995 21.3999 6.39995 19.8999 6.79995 18.3999" stroke="black" stroke-width="2" stroke-miterlimit="10" stroke-linecap="round" stroke-linejoin="round"/>
<path id="Vector_3" d="M14.2 2.2002L13.5 4.7002" stroke="black" stroke-width="2" stroke-miterlimit="10" stroke-linecap="round" stroke-linejoin="round"/>
<path id="Vector_4" d="M3.59998 6.1C3.79998 5.3 4.09998 4.5 4.69998 3.7C5.39998 2.8 6.19998 2.3 6.99998 2" stroke="black" stroke-width="2" stroke-miterlimit="10" stroke-linecap="round" stroke-linejoin="round"/>
<path id="Vector_5" d="M21.6 7.2998C21.9 7.9998 22.1 8.8998 22 9.8998C21.9 10.9998 21.6 11.8998 21.1 12.5998" stroke="black" stroke-width="2" stroke-miterlimit="10" stroke-linecap="round" stroke-linejoin="round"/>
</g>
</g>
</g>
<defs>
<clipPath id="clip0">
<rect width="22" height="22" fill="white" transform="translate(1 1)"/>
</clipPath>
</defs>
</svg>
