<svg width="24" height="24" viewBox="0 0 24 24" fill="none" xmlns="http://www.w3.org/2000/svg">
<g id="Size=24px, Type=Return, Menu=Other">
<g id="Frame" clip-path="url(#clip0)">
<path id="Vector" d="M15.5 7H5.40002L8.70002 3.7C9.10002 3.3 9.10002 2.7 8.70002 2.3C8.30002 1.9 7.70002 1.9 7.30002 2.3L2.30002 7.3C2.20002 7.4 2.10002 7.5 2.10002 7.6C2.00002 7.9 2.00002 8.1 2.10002 8.4C2.20002 8.5 2.20002 8.6 2.30002 8.7L7.30002 13.7C7.50002 13.9 7.70002 14 8.00002 14C8.30002 14 8.50002 13.9 8.70002 13.7C9.10002 13.3 9.10002 12.7 8.70002 12.3L5.40002 9H15.5C18.5 9 21 11.5 21 14.5C21 17.5 18.5 20 15.5 20H11.2C10.6 20 10.2 20.4 10.2 21C10.2 21.6 10.6 22 11.2 22H15.5C19.6 22 23 18.6 23 14.5C23 10.4 19.6 7 15.5 7Z" fill="#1A1D32"/>
</g>
</g>
<defs>
<clipPath id="clip0">
<rect width="21" height="20" fill="white" transform="translate(2 2)"/>
</clipPath>
</defs>
</svg>
