<svg width="24" height="24" viewBox="0 0 24 24" fill="none" xmlns="http://www.w3.org/2000/svg">
<path d="M12.3477 23.3516C18.5586 23.3516 23.7031 18.207 23.7031 11.9961C23.7031 5.78516 18.5469 0.640625 12.3359 0.640625C6.125 0.640625 0.980469 5.78516 0.980469 11.9961C0.980469 18.207 6.13672 23.3516 12.3477 23.3516ZM12.3477 21.3359C7.16797 21.3359 3.01953 17.1758 3.01953 11.9961C3.01953 6.81641 7.15625 2.65625 12.3359 2.65625C17.5156 2.65625 21.6758 6.81641 21.6875 11.9961C21.6992 17.1758 17.5273 21.3359 12.3477 21.3359ZM11.1289 17.2695C11.5156 17.2695 11.832 17.082 12.0547 16.7305L17.1055 8.82031C17.2344 8.60938 17.375 8.35156 17.375 8.10547C17.375 7.58984 16.918 7.25 16.4258 7.25C16.1328 7.25 15.8398 7.42578 15.6289 7.76562L11.0938 15.043L8.94922 12.2891C8.67969 11.9375 8.43359 11.832 8.11719 11.832C7.61328 11.832 7.21484 12.2422 7.21484 12.7461C7.21484 13.0039 7.32031 13.2383 7.48438 13.4609L10.1562 16.7422C10.4492 17.1055 10.7539 17.2695 11.1289 17.2695Z" fill="#1A1D32"/>
</svg>
