<svg width="24" height="24" viewBox="0 0 24 24" fill="none" xmlns="http://www.w3.org/2000/svg">
<g id="Size=24px, Type=Scan, Menu=Other">
<g id="noun_QR scanner_3555977 1">
<g id="Group">
<path id="Vector" d="M19.3334 2H15.3334V4.66667H19.3334V8.66667H22V4.66667C22 3.95942 21.7191 3.28115 21.219 2.78105C20.7189 2.28095 20.0406 2 19.3334 2Z" fill="#1A1D32"/>
<path id="Vector_2" d="M2 4.66667V8.66667H4.66667V4.66667H8.66667V2H4.66667C3.95942 2 3.28115 2.28095 2.78105 2.78105C2.28095 3.28115 2 3.95942 2 4.66667Z" fill="#1A1D32"/>
<path id="Vector_3" d="M4.66667 15.3335H2V19.3335C2 20.0407 2.28095 20.719 2.78105 21.2191C3.28115 21.7192 3.95942 22.0002 4.66667 22.0002H8.66667V19.3335H4.66667V15.3335Z" fill="#1A1D32"/>
<path id="Vector_4" d="M19.3334 19.3335H15.3334V22.0002H19.3334C20.0406 22.0002 20.7189 21.7192 21.219 21.2191C21.7191 20.719 22 20.0407 22 19.3335V15.3335H19.3334V19.3335Z" fill="#1A1D32"/>
<path id="Vector_5" d="M16 8H13.3334V10.6667H16V8Z" fill="#1A1D32"/>
<path id="Vector_6" d="M10.6667 8H8V10.6667H10.6667V8Z" fill="#1A1D32"/>
<path id="Vector_7" d="M16 13.333H13.3334V15.9997H16V13.333Z" fill="#1A1D32"/>
<path id="Vector_8" d="M10.6667 13.333H8V15.9997H10.6667V13.333Z" fill="#1A1D32"/>
</g>
</g>
</g>
</svg>
