<svg width="18" height="22" viewBox="0 0 18 22" fill="none" xmlns="http://www.w3.org/2000/svg">
<path d="M14 6V5C14 2.2 11.8 0 9 0C6.2 0 4 2.2 4 5V6C1.8 6 0 7.8 0 10V18C0 20.2 1.8 22 4 22H14C16.2 22 18 20.2 18 18V10C18 7.8 16.2 6 14 6ZM6 5C6 3.3 7.3 2 9 2C10.7 2 12 3.3 12 5V6H6V5ZM16 18C16 19.1 15.1 20 14 20H4C2.9 20 2 19.1 2 18V10C2 8.9 2.9 8 4 8H14C15.1 8 16 8.9 16 10V18Z" fill="#969696"/>
<path d="M9 11C7.3 11 6 12.3 6 14C6 15.7 7.3 17 9 17C10.7 17 12 15.7 12 14C12 12.3 10.7 11 9 11ZM9 15C8.4 15 8 14.6 8 14C8 13.4 8.4 13 9 13C9.6 13 10 13.4 10 14C10 14.6 9.6 15 9 15Z" fill="#969696"/>
</svg>
