<svg width="15" height="16" viewBox="0 0 15 16" fill="none" xmlns="http://www.w3.org/2000/svg">
<path d="M13.5002 6.66675H11.5002V4.66675C11.5002 2.46675 9.70016 0.666748 7.50016 0.666748C5.30016 0.666748 3.50016 2.46675 3.50016 4.66675V6.66675H1.50016C1.10016 6.66675 0.833496 6.93341 0.833496 7.33341V12.6667C0.833496 14.1334 2.0335 15.3334 3.50016 15.3334H13.5002C13.9002 15.3334 14.1668 15.0667 14.1668 14.6667V7.33341C14.1668 6.93341 13.9002 6.66675 13.5002 6.66675ZM4.8335 4.66675C4.8335 3.20008 6.0335 2.00008 7.50016 2.00008C8.96683 2.00008 10.1668 3.20008 10.1668 4.66675V6.66675H4.8335V4.66675ZM12.8335 14.0001H3.50016C2.76683 14.0001 2.16683 13.4001 2.16683 12.6667V8.00008H12.8335V14.0001Z" fill="white"/>
</svg>
