<svg width="24" height="24" viewBox="0 0 24 24" fill="none" xmlns="http://www.w3.org/2000/svg">
<g id="Size=24px, Type=Settings, Menu=Other">
<g id="Frame" clip-path="url(#clip0)">
<g id="Group">
<path id="Vector" d="M21.8 12.6875L21 12L22 11.3125C23.1 10.5268 23.4 9.15179 22.7 7.97321L20.8 4.92857C20.1 3.75 18.6 3.35714 17.5 3.94643L16.6 4.33929L16.5 3.25893C16.5 3.16071 16.5 3.16071 16.5 3.0625C16.2 1.88393 15.1 1 13.9 1H10.2C8.80002 1 7.70002 1.98214 7.60002 3.25893L7.50002 4.33929L6.50002 3.84821C5.30002 3.35714 3.90002 3.84821 3.30002 4.92857L1.50002 7.97321C0.800021 9.05357 1.10002 10.5268 2.20002 11.3125L3.00002 12L2.00002 12.6875C0.900021 13.4732 0.600021 14.8482 1.30002 15.9286L3.20002 19.0714C3.50002 19.5625 4.00002 19.9554 4.60002 20.1518C5.20002 20.3482 6.00002 20.25 6.50002 20.0536L7.40002 19.6607L7.50002 20.7411C7.50002 20.8393 7.50002 20.8393 7.50002 20.9375C7.70002 22.1161 8.80002 23 10 23H13.7C15 23 16.1 22.0179 16.2 20.7411L16.3 19.6607L17.4 20.1518C18.6 20.6429 20 20.1518 20.6 19.0714L22.4 15.9286C23.2 14.8482 22.9 13.375 21.8 12.6875ZM20.8 14.9464L19 18.0893C18.9 18.2857 18.6 18.3839 18.3 18.2857L16.7 17.5982C16.4 17.5 16 17.5 15.7 17.6964C15.5 17.7946 15.3 17.9911 15.1 18.0893C14.8 18.2857 14.6 18.5804 14.6 18.875L14.4 20.5446C14.4 20.8393 14.1 21.0357 13.9 21.0357H10.1C9.80002 21.0357 9.60002 20.8393 9.60002 20.5446L9.40002 18.7768C9.40002 18.4821 9.20002 18.1875 8.90002 17.9911C8.70002 17.8929 8.50002 17.7946 8.30002 17.5982C8.10002 17.5 7.90002 17.4018 7.80002 17.4018C7.70002 17.4018 7.50002 17.4018 7.40002 17.5L5.80002 18.2857C5.70002 18.3839 5.60002 18.3839 5.50002 18.2857C5.40002 18.2857 5.30002 18.1875 5.20002 17.9911L3.30002 14.8482C3.20002 14.6518 3.20002 14.2589 3.40002 14.1607L2.80002 13.375L3.40002 14.1607L4.90002 13.1786C5.20002 12.9821 5.40002 12.5893 5.30002 12.1964C5.30002 12.0982 5.30002 12 5.30002 11.9018V11.7054C5.30002 11.6071 5.30002 11.5089 5.30002 11.4107C5.30002 11.1161 5.10002 10.8214 4.90002 10.625L3.50002 9.64286C3.10002 9.54464 3.00002 9.25 3.20002 9.05357L5.00002 5.91071C5.10002 5.71429 5.40002 5.61607 5.70002 5.71429L7.30002 6.40179C7.60002 6.5 8.00002 6.5 8.30002 6.30357C8.50002 6.20536 8.70002 6.10714 8.90002 5.91071C9.20002 5.71429 9.40002 5.41964 9.40002 5.125L9.60002 3.45536C9.60002 3.16071 9.90002 2.96429 10.2 2.96429H13.9C14.2 2.96429 14.4 3.16071 14.4 3.45536L14.6 5.22321C14.6 5.51786 14.8 5.8125 15.1 6.00893C15.3 6.10714 15.5 6.20536 15.7 6.40179C16 6.59821 16.4 6.59821 16.7 6.5L18.3 5.8125C18.5 5.71429 18.8 5.8125 19 6.00893L20.9 9.15179C21 9.34821 21 9.74107 20.7 9.83929L19.3 10.8214C19 11.0179 18.8 11.4107 18.9 11.7054C18.9 11.8036 18.9 11.9018 18.9 12C18.9 12.0982 18.9 12.2946 18.9 12.3929C18.9 12.6875 19 13.0804 19.3 13.2768L20.6 14.2589C20.9 14.3571 20.9 14.6518 20.8 14.9464Z" fill="#1A1D32"/>
<path id="Vector_2" d="M12 7.875C9.8 7.875 8 9.64286 8 11.8036C8 13.9643 9.8 15.7321 12 15.7321C14.2 15.7321 16 13.9643 16 11.8036C16 9.64286 14.2 7.875 12 7.875ZM12 13.7679C10.9 13.7679 10 12.8839 10 11.8036C10 10.7232 10.9 9.83929 12 9.83929C13.1 9.83929 14 10.7232 14 11.8036C14 12.8839 13.1 13.7679 12 13.7679Z" fill="#1A1D32"/>
</g>
</g>
</g>
<defs>
<clipPath id="clip0">
<rect width="22" height="22" fill="white" transform="translate(1 1)"/>
</clipPath>
</defs>
</svg>
