<svg width="17" height="12" viewBox="0 0 17 12" fill="none" xmlns="http://www.w3.org/2000/svg">
<path fill-rule="evenodd" clip-rule="evenodd" d="M2.8335 0C2.46531 0 2.16683 0.299435 2.16683 0.668806C2.16683 1.03818 2.46531 1.33761 2.8335 1.33761H9.56683V1.90705L9.56689 1.91648V5.20881C9.56689 5.57818 9.86537 5.87762 10.2336 5.87762H14.329L14.8335 6.76262V9.42444H13.2316C13.0045 8.56208 12.2376 7.91073 11.3001 7.91073C10.3627 7.91073 9.59578 8.56204 9.36867 9.42436H7.23159C7.00448 8.56204 6.23755 7.91073 5.30013 7.91073C4.36271 7.91073 3.59578 8.56204 3.36867 9.42436H1.7002C1.33201 9.42436 1.03353 9.72379 1.03353 10.0932C1.03353 10.4625 1.33201 10.762 1.7002 10.762H3.46242C3.7661 11.4838 4.46555 12 5.30013 12C6.13471 12 6.83416 11.4838 7.13784 10.762H9.46242C9.7661 11.4838 10.4656 12 11.3001 12C12.1347 12 12.8341 11.4838 13.1378 10.7621H15.5002C15.8684 10.7621 16.1668 10.4626 16.1668 10.0932V6.58488C16.1668 6.46841 16.1365 6.35396 16.0789 6.25285L13.4122 1.57503C13.2935 1.36676 13.0726 1.23825 12.8335 1.23825H10.9002V0.668806C10.9002 0.299435 10.6017 0 10.2335 0H2.8335ZM13.5665 4.54L12.4468 2.57586H10.9002V4.54H13.5665ZM5.30013 9.24834C4.94952 9.24834 4.63346 9.547 4.63346 9.95536C4.63346 10.3637 4.94952 10.6624 5.30013 10.6624C5.65074 10.6624 5.9668 10.3637 5.9668 9.95536C5.9668 9.547 5.65074 9.24834 5.30013 9.24834ZM10.6335 9.95536C10.6335 9.547 10.9495 9.24834 11.3001 9.24834C11.6507 9.24834 11.9668 9.547 11.9668 9.95536C11.9668 10.3637 11.6507 10.6624 11.3001 10.6624C10.9495 10.6624 10.6335 10.3637 10.6335 9.95536Z" fill="white"/>
<path d="M0.833496 6.37848C0.833496 6.00911 1.13197 5.70967 1.50016 5.70967H5.30016C5.66835 5.70967 5.96683 6.00911 5.96683 6.37848C5.96683 6.74785 5.66835 7.04729 5.30016 7.04729H1.50016C1.13197 7.04729 0.833496 6.74785 0.833496 6.37848Z" fill="white"/>
<path d="M2.30013 2.75164C1.93194 2.75164 1.63346 3.05108 1.63346 3.42045C1.63346 3.78982 1.93194 4.08926 2.30013 4.08926H5.43346C5.80165 4.08926 6.10013 3.78982 6.10013 3.42045C6.10013 3.05108 5.80165 2.75164 5.43346 2.75164H2.30013Z" fill="white"/>
</svg>
