<svg width="24" height="24" viewBox="0 0 24 24" fill="none" xmlns="http://www.w3.org/2000/svg">
<g id="Size=24px, Type=Shop, Menu=Other">
<g id="Frame">
<path id="Vector" d="M23 9.9L21 2.7C20.8 2.3 20.4 2 20 2H4C3.6 2 3.2 2.3 3 2.7L1 9.9C1 10.2 1 10.5 1.2 10.8C1.8 11.6 2.4 12.2 3 12.6V18C3 20.2 4.8 22 7 22H12H16H20C20.6 22 21 21.6 21 21V13C21 12.9 21 12.7 20.9 12.6C21.6 12.2 22.2 11.6 22.8 10.8C23 10.5 23 10.2 23 9.9ZM4.8 4H19.3L21 10C20.5 10.6 20 11 19.6 11C19.1 11 18.5 10.5 17.9 9.6C17.7 9.3 17.4 9.2 17.1 9.2C16.8 9.2 16.5 9.4 16.3 9.6C15.6 10.5 15 11 14.5 11C14 11 13.4 10.5 12.8 9.6C12.4 9.1 11.5 9.1 11.2 9.6C10.6 10.5 10 11 9.5 11C9 11 8.4 10.5 7.8 9.6C7.4 9.1 6.5 9.1 6.2 9.6C5.6 10.5 5 11 4.5 11C4.1 11 3.6 10.6 3.1 10L4.8 4ZM13 20V16H15V20H13ZM19 20H17V15C17 14.4 16.6 14 16 14H12C11.4 14 11 14.4 11 15V20H7C5.9 20 5 19.1 5 18V12.9C5.7 12.8 6.4 12.4 7 11.7C8.6 13.3 10.4 13.3 12 11.7C13.6 13.3 15.4 13.3 17 11.7C17.6 12.4 18.3 12.7 19 12.9C19 12.9 19 12.9 19 13V20Z" fill="#1A1D32"/>
</g>
</g>
</svg>
