<svg width="25" height="25" viewBox="0 0 25 25" fill="none" xmlns="http://www.w3.org/2000/svg">
<path fill-rule="evenodd" clip-rule="evenodd" d="M8.75 20.1V2.5C8.75 1.9 8.35 1.5 7.75 1.5C7.15 1.5 6.75 1.9 6.75 2.5V20.1L3.45 16.8C3.05 16.4 2.45 16.4 2.05 16.8C1.85 17 1.75 17.2 1.75 17.5C1.75 17.8 1.85 18 2.05 18.2L7.05 23.2C7.45 23.6 8.05 23.6 8.45 23.2L13.45 18.2C13.85 17.8 13.85 17.2 13.45 16.8C13.05 16.4 12.45 16.4 12.05 16.8L8.75 20.1ZM22.75 4.5H12.75C12.39 4.5 11.75 4.1 11.75 3.5C11.75 2.9 12.39 2.5 12.75 2.5H22.75C23.11 2.5 23.75 2.9 23.75 3.5C23.75 4.1 23.11 4.5 22.75 4.5ZM20.75 7.5H12.75C12.39 7.5 11.75 7.9 11.75 8.5C11.75 9.1 12.39 9.5 12.75 9.5H20.75C21.11 9.5 21.75 9.1 21.75 8.5C21.75 7.9 21.11 7.5 20.75 7.5ZM12.75 12.5H18.75C19.11 12.5 19.75 12.9 19.75 13.5C19.75 14.1 19.11 14.5 18.75 14.5H12.75C12.39 14.5 11.75 14.1 11.75 13.5C11.75 12.9 12.39 12.5 12.75 12.5Z" fill="#1A1D32"/>
</svg>
