<svg width="24" height="24" viewBox="0 0 24 24" fill="none" xmlns="http://www.w3.org/2000/svg">
    <path id="Vector" d="M16.8035 22C16.5151 22 16.3229 22 16.0345 22C10.363 21.4286 2.09613 12.9524 2 7.52381C2 5.80952 2.67289 4.19048 3.82641 3.14286C4.49929 2.38095 5.46056 2 6.22957 2L7.38309 2.09524C8.72887 2.19048 9.01725 3.2381 9.2095 3.80952C9.40175 4.38095 9.59401 4.95238 9.78626 5.52381C9.97851 6.09524 10.1708 6.66667 10.363 7.14286C10.4591 7.90476 10.2669 8.66667 9.59401 9.2381C9.2095 9.52381 8.92112 9.80952 8.63274 10.0952C9.59401 12.2857 11.5165 14.2857 13.8236 15.4286C14.112 15.1429 14.4003 14.9524 14.6887 14.6667L14.7848 14.5714L14.881 14.4762C15.2655 14.1905 16.0345 13.8095 16.8996 14.0952C17.4764 14.2857 18.0532 14.5714 18.6299 14.7619C19.2067 14.9524 19.7834 15.2381 20.3602 15.4286C20.937 15.619 22.0905 16.0952 21.9943 17.4286V18.381C21.9943 19.1429 21.5137 19.9048 20.7447 20.5714C19.8796 21.5238 18.4377 22 16.8035 22ZM6.13345 3.90476C5.94119 3.90476 5.55669 4 5.17218 4.47619C4.78767 4.7619 3.92253 5.71429 3.92253 7.42857C4.01866 12 11.4204 19.619 16.2267 20.0952C18.2454 20.2857 19.3028 19.5238 19.6873 19.1429C20.0718 18.7619 20.2641 18.4762 20.2641 18.2857V17.3333C20.1679 17.3333 20.0718 17.2381 19.8796 17.1429C19.3028 16.9524 18.726 16.6667 18.1493 16.4762C17.5725 16.2857 16.9958 16 16.419 15.8095C16.3229 15.8095 16.2267 15.9048 16.1306 16L16.0345 16.0952C15.65 16.381 15.4577 16.5714 15.1694 16.8571L15.0732 16.9524C14.5926 17.3333 14.0158 17.3333 13.3429 17.1429C13.2468 17.1429 13.2468 17.1429 13.1507 17.0476C10.2669 15.8095 8.05598 13.5238 6.80633 10.8571C6.42183 10.0952 6.61408 9.33333 7.28697 8.7619C7.67147 8.47619 7.95985 8.19048 8.24823 7.90476C8.34436 7.80952 8.44049 7.71429 8.44049 7.71429C8.24823 7.14286 8.15211 6.66667 7.95985 6.09524C7.7676 5.52381 7.57535 4.95238 7.38309 4.38095C7.38309 4.28571 7.28697 4 7.19084 3.90476H6.13345Z" fill="#1A1D32"/>
</svg>
