<svg width="24" height="24" viewBox="0 0 24 24" fill="none" xmlns="http://www.w3.org/2000/svg">
<g id="Size=24px, Type=Vegan, Menu=Other">
<g id="Frame" clip-path="url(#clip0)">
<g id="Group">
<path id="Vector" d="M21.7087 2.78371C21.7087 2.48959 21.4175 2.19548 21.0291 1.9994C20.6408 1.90136 20.3495 1.9994 20.0583 2.19548C18.9903 3.27391 17.534 3.27391 15.301 3.07783C12.8738 2.88175 9.76699 2.58763 6.95146 5.43077C2.67961 9.7445 3.94175 16.2151 4.42718 18.1759L2.29126 20.3327C1.90291 20.7249 1.90291 21.3131 2.29126 21.7053C2.48544 21.9014 2.7767 21.9994 2.97087 21.9994C3.16505 21.9994 3.45631 21.9014 3.65049 21.7053L5.78641 19.5484C6.56311 19.7445 8.21359 20.0386 10.0583 20.0386C12.6796 20.0386 15.8835 19.4504 18.3107 16.9014C23.165 12.0974 21.8058 3.17587 21.7087 2.78371ZM16.9515 15.5288C13.4563 19.0582 7.92233 17.9798 6.27184 17.5876C5.8835 15.921 4.81553 10.3327 8.31068 6.80332C10.4466 4.64646 12.7767 4.84254 15.2039 5.03861C16.8544 5.23469 18.5049 5.33273 19.9612 4.64646C20.1553 7.29352 19.9612 12.4896 16.9515 15.5288Z" fill="#1A1D32"/>
<path id="Vector_2" d="M15.2039 7.39238C12.2913 8.66689 10.1554 10.8237 8.9903 13.6669C8.79613 14.1571 8.9903 14.7453 9.47574 14.9414C9.57283 15.0394 9.767 15.0394 9.86409 15.0394C10.2524 15.0394 10.6408 14.8434 10.7379 14.4512C11.7087 12.0983 13.3592 10.3336 15.8835 9.25512C16.3689 9.05904 16.5631 8.47081 16.3689 7.98061C16.1748 7.39238 15.6893 7.1963 15.2039 7.39238Z" fill="#1A1D32"/>
</g>
</g>
</g>
<defs>
<clipPath id="clip0">
<rect width="20" height="20" fill="white" transform="translate(2 2)"/>
</clipPath>
</defs>
</svg>
