<svg width="24" height="22" viewBox="0 0 24 22" fill="none" xmlns="http://www.w3.org/2000/svg">
<path d="M3.10547 21.082H20.1562C22.0547 21.082 23.2617 19.6992 23.2617 17.9766C23.2617 17.4609 23.1211 16.9336 22.8398 16.4531L14.2969 1.55859C13.7109 0.539062 12.6797 0 11.625 0C10.582 0 9.53906 0.539062 8.95312 1.55859L0.410156 16.4531C0.128906 16.9453 0 17.4609 0 17.9766C0 19.6992 1.20703 21.082 3.10547 21.082ZM3.1875 19.207C2.4375 19.207 1.94531 18.5977 1.94531 17.9414C1.94531 17.7422 1.98047 17.5195 2.08594 17.2969L10.5586 2.51953C10.793 2.10938 11.2148 1.92188 11.625 1.92188C12.0469 1.92188 12.457 2.10938 12.6914 2.51953L21.1523 17.3086C21.2578 17.5195 21.3164 17.7422 21.3164 17.9414C21.3164 18.5977 20.8008 19.207 20.0625 19.207H3.1875ZM11.6367 13.5352C12.1875 13.5352 12.5039 13.2188 12.5273 12.6211L12.6797 6.9375C12.7031 6.35156 12.2344 5.90625 11.625 5.90625C10.9922 5.90625 10.5469 6.33984 10.5703 6.9375L10.7227 12.6211C10.7344 13.207 11.0508 13.5352 11.6367 13.5352ZM11.6367 17.1562C12.293 17.1562 12.8672 16.6523 12.8672 15.9844C12.8672 15.3164 12.3047 14.8125 11.6367 14.8125C10.957 14.8125 10.3945 15.3281 10.3945 15.9844C10.3945 16.6406 10.9688 17.1562 11.6367 17.1562Z" fill="#EEA22D"/>
</svg>
