<svg width="68" height="48" viewBox="0 0 68 48" fill="none" xmlns="http://www.w3.org/2000/svg">
<path d="M34.0023 44.0046C45.0492 44.0046 54.0046 35.0492 54.0046 24.0023C54.0046 12.9553 45.0492 4 34.0023 4C22.9553 4 14 12.9553 14 24.0023C14 35.0492 22.9553 44.0046 34.0023 44.0046Z" fill="white"/>
<path d="M34.0024 42.9013C44.44 42.9013 52.9013 34.44 52.9013 24.0024C52.9013 13.5648 44.44 5.10352 34.0024 5.10352C23.5648 5.10352 15.1035 13.5648 15.1035 24.0024C15.1035 34.44 23.5648 42.9013 34.0024 42.9013Z" fill="#F6A30D"/>
<path d="M34.0023 42.4181C44.1729 42.4181 52.4179 34.1732 52.4179 24.0025C52.4179 13.8319 44.1729 5.58691 34.0023 5.58691C23.8316 5.58691 15.5867 13.8319 15.5867 24.0025C15.5867 34.1732 23.8316 42.4181 34.0023 42.4181Z" fill="#FBC05F"/>
<path d="M34.0023 33.4406C39.2147 33.4406 43.4403 29.215 43.4403 24.0025C43.4403 18.79 39.2147 14.5645 34.0023 14.5645C28.7898 14.5645 24.5642 18.79 24.5642 24.0025C24.5642 29.215 28.7898 33.4406 34.0023 33.4406Z" fill="white"/>
<path d="M33.8428 7.61997V7.99384L34.1893 8.01664H34.5358L34.5723 7.76131C34.6407 7.30537 34.6088 7.26433 34.203 7.24609H33.8428V7.61997Z" fill="#010101"/>
<path d="M34.8503 7.69289V8.06676H35.1923C35.5069 8.06676 35.5388 8.06676 35.5388 7.92542C35.5445 7.79873 35.5566 7.67242 35.5753 7.54699L35.6209 7.31445H34.8503V7.69289Z" fill="#010101"/>
<path d="M33.1908 8.6004C33.1111 9.49037 33.1005 10.3852 33.1589 11.2768C33.2956 11.9197 33.8063 12.2707 34.586 12.2753C34.8576 12.3138 35.1345 12.2648 35.3764 12.1352C35.6182 12.0057 35.8125 11.8024 35.931 11.5549C36.0731 11.1624 36.1336 10.7451 36.1088 10.3284C36.1362 9.79497 36.159 9.13385 36.1681 8.86485V8.38154H35.6711C35.0738 8.38154 35.1057 8.33139 35.1012 9.44845C35.0966 10.5655 35.0191 11.2449 34.8778 11.3953C34.8017 11.4661 34.7037 11.5087 34.6 11.5162C34.4964 11.5237 34.3933 11.4955 34.3078 11.4364C34.1939 11.3452 34.1893 11.2677 34.2075 9.83145V8.33139H33.7106L33.209 8.30859L33.1908 8.6004Z" fill="#010101"/>
<path d="M30.1998 8.80108C29.9353 8.85123 28.49 9.25702 28.4672 9.25702C28.4444 9.25702 29.3791 12.9046 29.4475 12.9593C29.7858 12.924 30.1183 12.8458 30.4369 12.7268C30.3479 12.2653 30.2353 11.8088 30.0995 11.3589C30.0676 11.2586 30.0995 11.2495 30.2727 11.2677C30.446 11.286 30.5144 11.3361 30.8518 11.9015C31.2667 12.5991 31.1846 12.5672 31.9324 12.3574C32.2652 12.2617 32.2789 12.248 32.1923 12.1249L31.7774 11.441C31.4582 10.8984 31.212 10.634 31.0342 10.634C30.9703 10.634 31.0342 10.5656 31.1345 10.4516C31.2497 10.3587 31.3377 10.2363 31.3891 10.0974C31.4405 9.95856 31.4533 9.80838 31.4263 9.66281C31.4094 9.52244 31.3632 9.3872 31.2906 9.26587C31.2181 9.14453 31.1208 9.03982 31.0051 8.95855C30.8894 8.87727 30.758 8.82125 30.6192 8.79412C30.4805 8.76699 30.3376 8.76936 30.1998 8.80108ZM30.3183 9.80415C30.3866 9.88157 30.4323 9.97617 30.4506 10.0777C30.4506 10.2464 30.2545 10.447 30.0356 10.5337L29.835 10.5929L29.7347 10.2327C29.6025 9.7768 29.6071 9.73576 29.7803 9.70384C30.0949 9.62177 30.1952 9.64457 30.3183 9.80415Z" fill="#010101"/>
<path d="M38.2151 8.87419C38.1649 8.95626 37.0479 12.426 37.0479 12.5217C37.3297 12.7014 37.6533 12.805 37.9871 12.8227C38.0886 12.6027 38.1739 12.3757 38.2424 12.1433C38.3077 11.9147 38.3884 11.6908 38.4841 11.4731C38.6654 11.4744 38.8448 11.51 39.013 11.5779C39.1976 11.6426 39.3865 11.6944 39.5783 11.733C39.6741 11.733 39.8929 11.0992 39.8246 11.0354C39.6428 10.9522 39.4554 10.8821 39.2637 10.8256C38.9765 10.7344 38.744 10.6524 38.744 10.6478C38.8031 10.4201 38.8762 10.1963 38.9628 9.97757C39.1644 9.98072 39.3632 10.0257 39.5464 10.1098C39.7419 10.1895 39.9475 10.2417 40.1574 10.2648C40.2785 10.0505 40.3516 9.81252 40.3717 9.56723C40.2987 9.48972 38.2333 8.84227 38.2151 8.87419Z" fill="#010101"/>
<path d="M41.6392 10.5428C41.559 10.6476 41.4931 10.7626 41.4432 10.8848C41.4432 10.9213 41.5709 11.0216 41.7213 11.1082C41.8361 11.1718 41.9431 11.2483 42.0405 11.3362C41.8123 11.7958 41.5501 12.2377 41.2563 12.6584C40.3444 14.0718 40.3444 13.9351 40.9462 14.3044L41.3018 14.5323L42.1043 13.2967L42.9569 12.0019C42.9888 11.9699 43.153 12.0383 43.3536 12.1706L43.691 12.3985L43.919 12.0566L44.1469 11.71L43.8825 11.5413C43.732 11.4547 43.2487 11.1401 42.7928 10.8438C42.3368 10.5474 41.9447 10.3057 41.9083 10.2875C41.8718 10.2693 41.7441 10.3878 41.6392 10.5428Z" fill="#010101"/>
<path d="M25.7087 10.6706C25.54 10.7527 25.1479 10.9715 24.8469 11.1584L24.2998 11.505L25.2983 13.0871C25.8455 13.9625 26.3151 14.7011 26.347 14.733C26.3789 14.765 27.2589 14.2771 27.2224 14.195C27.1175 13.9914 27.0019 13.7936 26.8759 13.6023L26.5567 13.1008L26.9032 12.8728C27.0886 12.7784 27.2444 12.635 27.3537 12.4581C27.4631 12.2812 27.5218 12.0777 27.5233 11.8697C27.5071 11.6021 27.4233 11.343 27.2798 11.1166C27.1362 10.8901 26.9377 10.7038 26.7026 10.5748C26.3711 10.4804 26.0161 10.5145 25.7087 10.6706ZM26.2102 11.5004C26.2914 11.5632 26.3584 11.6423 26.4071 11.7326C26.4558 11.8229 26.485 11.9224 26.4929 12.0247C26.4929 12.1752 26.2057 12.4807 26.1236 12.4351C26.0102 12.3088 25.9122 12.1696 25.8318 12.0202C25.6448 11.7193 25.6129 11.6281 25.6768 11.5642C25.7534 11.5102 25.8423 11.476 25.9354 11.4649C26.0285 11.4538 26.123 11.466 26.2102 11.5004Z" fill="#010101"/>
<path d="M21.9835 13.689C21.7109 13.978 21.4551 14.2825 21.2175 14.6009C21.2175 14.6009 21.8558 15.2301 22.6401 15.9277L24.0626 17.1998L24.4456 16.7986C24.6599 16.5706 25.0338 16.1648 25.2891 15.8867L25.7451 15.376L25.4487 15.1116C25.1523 14.8563 25.1478 14.8563 25.0475 14.9794L24.5687 15.5174L24.1994 15.9186L23.8894 15.6496L23.5839 15.3851L24.0398 14.8927L24.4958 14.4049L24.2131 14.1632C24.1183 14.0703 24.0127 13.9891 23.8985 13.9216C23.7359 14.0626 23.5836 14.215 23.4425 14.3775L23.0322 14.8335L22.7677 14.61C22.6668 14.5359 22.5763 14.4485 22.4987 14.3502C22.6402 14.1679 22.7924 13.9943 22.9547 13.8304L23.4106 13.3471L23.1416 13.0917C22.9912 12.9641 22.8498 12.8501 22.8316 12.841C22.8133 12.8319 22.3939 13.224 21.9835 13.689Z" fill="#010101"/>
<path d="M44.1472 14.0808C43.4359 14.7146 42.7793 15.3027 42.7064 15.3848L42.5559 15.5307L43.3584 16.4153C43.8143 16.9077 44.1882 17.3043 44.2064 17.3043C44.3227 17.2399 44.4288 17.1584 44.521 17.0627L44.7946 16.8256L44.3067 16.2921L43.8234 15.7633L44.1289 15.4942L44.4298 15.2252L44.8858 15.6812L45.3417 16.1371L45.6335 15.8727L45.9299 15.6128L45.474 15.1568L45.018 14.7009L45.2733 14.4593C45.3633 14.3718 45.4645 14.2967 45.5743 14.2358C45.7354 14.3784 45.8877 14.5307 46.0302 14.6918C46.1657 14.8594 46.3186 15.0122 46.4861 15.1477C46.6044 15.0865 46.7097 15.0029 46.7962 14.9015L47.0424 14.6507L46.3129 13.8437C45.9117 13.3878 45.5469 13.0002 45.5013 12.9683C45.4557 12.9364 45.1138 13.2054 44.1472 14.0808Z" fill="#010101"/>
<path d="M46.4998 17.2132C45.588 17.6464 44.7809 18.0248 44.749 18.0613C44.8086 18.4011 44.9459 18.7226 45.1503 19.0005C45.1776 19.0005 45.4922 18.8592 45.8478 18.6905C46.4679 18.3941 46.4998 18.3896 46.5454 18.5081C46.591 18.6267 46.5181 18.8227 46.012 19.2559L45.5104 19.7118C45.5299 19.8999 45.589 20.0817 45.6837 20.2453C45.8843 20.7012 45.9162 20.7286 46.0165 20.6465C46.4359 20.3089 46.8306 19.9417 47.1974 19.5477C47.2503 19.4689 47.2874 19.3806 47.3069 19.2878C47.3069 19.1647 47.3069 19.1647 47.5075 19.2878C47.6277 19.3758 47.764 19.4393 47.9087 19.4747C48.0869 19.4863 48.2654 19.457 48.4306 19.389C48.5957 19.3211 48.7432 19.2163 48.8616 19.0826C49.044 18.8683 49.0577 18.8273 49.0349 18.4716C48.9786 18.0614 48.8455 17.6655 48.6428 17.3044C48.4422 16.8713 48.2598 16.4974 48.237 16.4746C47.6432 16.6846 47.0631 16.9313 46.4998 17.2132ZM48.0409 17.7968C48.1114 17.9724 48.1114 18.1684 48.0409 18.344C47.9914 18.4034 47.9276 18.4492 47.8556 18.4771C47.7835 18.5051 47.7055 18.5142 47.6289 18.5037C47.5523 18.4933 47.4796 18.4635 47.4177 18.4172C47.3558 18.3709 47.3067 18.3096 47.275 18.2391C47.1792 18.0203 47.1792 18.0203 47.5668 17.8379C47.9543 17.6555 47.9589 17.6555 48.0409 17.7968Z" fill="#010101"/>
<path d="M19.7768 16.7299C19.2114 17.4458 18.9925 18.4716 19.2707 19.11C19.5117 19.5806 19.9056 19.9552 20.3877 20.1723C20.6551 20.3034 20.9524 20.3616 21.2495 20.341C21.5414 20.3838 21.8389 20.3207 22.0884 20.1632C22.5155 19.9174 22.8514 19.5399 23.0459 19.0872C23.2647 18.6312 23.4106 18.0203 23.3194 17.9382C23.2283 17.8561 21.4592 17.0263 21.4318 17.0628C21.4045 17.0992 21.2722 17.3865 21.1036 17.7467L20.7889 18.4124L21.0671 18.5537C21.1756 18.6072 21.2885 18.6515 21.4045 18.6859C21.4364 18.6859 21.5185 18.5856 21.5732 18.4671L21.6872 18.2528L22.02 18.4033C22.3802 18.5674 22.3893 18.6039 22.2525 18.8592C22.1917 19.0042 22.0866 19.1262 21.9524 19.2081C21.8182 19.2899 21.6615 19.3274 21.5048 19.3151C20.7114 19.3151 20.023 18.7589 20.023 18.1525C20.0507 17.7638 20.2117 17.3966 20.4789 17.1129L20.6978 16.8895L20.3284 16.6889L19.9591 16.4883L19.7768 16.7299Z" fill="#010101"/>
<path d="M19.7083 26.4596C18.7417 26.7149 18.1399 27.3715 18.1399 28.1694C18.1449 28.5267 18.2583 28.8741 18.4651 29.1656C18.6719 29.4571 18.9624 29.6789 19.298 29.8017C19.7112 29.8973 20.1409 29.8973 20.5541 29.8017C20.9674 29.7061 21.3533 29.5174 21.6826 29.25C21.9144 28.9993 22.0697 28.6875 22.1303 28.3515C22.1909 28.0155 22.1542 27.6691 22.0245 27.3533C21.6415 26.5052 20.7889 26.1769 19.7083 26.4596ZM21.1081 27.4855C21.1948 27.5339 21.2676 27.6037 21.3195 27.6884C21.3714 27.773 21.4006 27.8696 21.4045 27.9688C21.4045 28.2788 20.9029 28.6025 20.1688 28.7712C19.4348 28.9399 18.956 28.7712 18.956 28.3153C18.956 28.0509 19.0791 27.9004 19.4576 27.7135C19.9643 27.4472 20.5482 27.3666 21.1081 27.4855Z" fill="#010101"/>
<path d="M46.878 26.4052C46.6421 26.5454 46.4472 26.7451 46.3126 26.9842C46.1149 27.5472 45.9625 28.125 45.8567 28.7122C45.8886 28.7442 49.4723 29.6241 49.5681 29.6241C49.7225 29.3289 49.82 29.0071 49.8553 28.6758C49.6723 28.591 49.4793 28.5297 49.2808 28.4934C49.0653 28.4466 48.8535 28.3841 48.6471 28.3065C48.6086 28.1755 48.6086 28.0362 48.6471 27.9052C48.6858 27.704 48.6966 27.4984 48.679 27.2943C48.6306 27.1156 48.5434 26.9499 48.4236 26.8088C48.3038 26.6677 48.1544 26.5548 47.986 26.4781C47.6304 26.3524 47.247 26.3272 46.878 26.4052ZM47.5118 27.4174C47.6759 27.4174 47.8537 27.6636 47.8537 27.8733C47.8632 27.9576 47.849 28.0429 47.8127 28.1195C47.488 28.0878 47.169 28.0127 46.8643 27.8961C46.8643 27.8961 46.8643 27.7867 46.8917 27.6864C46.9555 27.4994 47.1972 27.3353 47.3476 27.3854C47.4005 27.404 47.4558 27.4147 47.5118 27.4174Z" fill="#010101"/>
<path d="M21.1354 30.8325C20.5749 31.1609 20.033 31.5202 19.5122 31.9085C19.6096 32.1791 19.7653 32.425 19.9682 32.6289C20.0184 32.6257 20.0663 32.6065 20.1049 32.5742C20.7705 32.1249 21.4583 31.7094 22.1658 31.3295C22.1339 31.3705 21.7646 31.8538 21.336 32.3964C20.9074 32.939 20.5426 33.4359 20.5244 33.477C20.6585 33.864 20.8729 34.2182 21.1536 34.5165C21.2494 34.5165 24.3999 32.5423 24.3999 32.4876C24.2878 32.2203 24.1339 31.9725 23.944 31.7535C23.9166 31.7535 23.4516 32.0271 22.9044 32.369C21.6323 33.1669 21.7327 33.1077 21.7965 33.0028C21.8603 32.8979 22.1977 32.4557 22.6309 31.8903L23.4105 30.8644L23.1506 30.4404L22.8497 29.8978C22.7677 29.8294 22.5534 29.9434 21.1354 30.8325Z" fill="#010101"/>
<path d="M45.7154 29.9841C45.3832 30.0952 45.0901 30.2996 44.8709 30.5729C44.6518 30.8462 44.5161 31.1768 44.4798 31.5252C44.4114 32.2274 44.9358 33.007 45.8249 33.422C46.3113 33.6487 46.8628 33.694 47.3796 33.5496C47.7895 33.3643 48.1126 33.0288 48.2823 32.6122C48.452 32.1957 48.4553 31.7299 48.2915 31.3109C48.0814 30.9394 47.7872 30.6222 47.4325 30.3847C47.0778 30.1471 46.6725 29.9959 46.2489 29.9431C46.0701 29.9341 45.8908 29.9479 45.7154 29.9841ZM46.4586 31.0921C47.4298 31.548 47.8265 32.1453 47.4435 32.5374C47.2383 32.7517 46.9146 32.7426 46.4085 32.5009C45.6197 32.1271 45.2002 31.6438 45.337 31.2653C45.3773 31.1696 45.4362 31.0828 45.5103 31.01C45.6649 30.9545 45.8297 30.9331 45.9934 30.9473C46.1571 30.9615 46.3158 31.0109 46.4586 31.0921Z" fill="#010101"/>
<path d="M43.0345 33.089L42.6743 33.4219L43.0664 33.8778C43.217 34.0606 43.3784 34.2341 43.5497 34.3976C43.6865 34.5161 43.6683 34.5572 43.3537 34.8216L43.0573 35.0587L42.5512 34.5116L42.0406 33.9644L41.6576 34.3246L41.27 34.6803L42.5512 36.0937C43.2534 36.8734 43.8507 37.5162 43.8735 37.5208C44.0348 37.4418 44.1801 37.3336 44.3021 37.2016L44.6805 36.8597L44.4616 36.618C44.3385 36.4858 44.1014 36.2259 43.9236 36.0435L43.6136 35.7061L43.9145 35.4371L44.2154 35.159L44.7215 35.7198C44.8939 35.9223 45.083 36.1099 45.2869 36.2806C45.5676 36.1054 45.8133 35.8797 46.0118 35.615C46.0118 35.5192 43.5133 32.7607 43.4494 32.7607C43.2983 32.8529 43.159 32.9632 43.0345 33.089Z" fill="#010101"/>
<path d="M23.7298 34.4798C23.0322 35.2504 22.4668 35.9115 22.4668 35.9434C23.0074 36.4796 23.5751 36.9879 24.1675 37.4663C24.2749 37.3845 24.3701 37.2878 24.4502 37.179L24.6827 36.8963L24.2267 36.4677L23.7708 36.0437L23.9851 35.7975L25.0201 34.6485L25.8362 33.7366L25.4669 33.4038C25.3363 33.2822 25.1977 33.1695 25.052 33.0664C25.052 33.0664 24.4319 33.7047 23.7298 34.4798Z" fill="#010101"/>
<path d="M26.4975 36.6636C25.9777 37.5755 25.5582 38.3734 25.5628 38.387C25.8442 38.5726 26.1514 38.7155 26.4747 38.8111C26.5066 38.7791 26.9306 38.0223 27.4413 37.1286C28.2529 35.6696 28.3532 35.4872 28.2483 35.428C28.1434 35.3687 27.9747 35.2638 27.7923 35.1544L27.4322 34.9629L26.4975 36.6636Z" fill="#010101"/>
<path d="M40.2305 35.2775C39.793 35.3892 39.3882 35.6033 39.0497 35.9022C38.8504 36.0862 38.7277 36.3383 38.7057 36.6086C38.6837 36.8788 38.7642 37.1475 38.9311 37.3612C39.1773 37.7488 39.4144 37.8445 40.1758 37.8445C40.7594 37.8445 40.8142 37.8445 40.9054 37.9813C40.9572 38.0529 40.9916 38.1357 41.0057 38.2229C41.0057 38.4646 40.4084 38.7883 39.9615 38.7883C39.8909 38.7729 39.8178 38.7729 39.7472 38.7883C39.7472 38.8157 40.0664 39.5452 40.0892 39.5634C40.4031 39.5069 40.7091 39.4136 41.0011 39.2853C41.3692 39.1115 41.6841 38.8423 41.913 38.5056C42.0007 38.2648 42.019 38.0042 41.9658 37.7535C41.9126 37.5028 41.79 37.2721 41.6121 37.0876C41.3795 36.8734 41.1561 36.8186 40.495 36.8186C39.8977 36.8186 39.8658 36.8186 39.7655 36.6591C39.6652 36.4995 39.6697 36.4904 39.7655 36.3445C39.8578 36.2308 39.9728 36.1376 40.1031 36.0709C40.2334 36.0042 40.3762 35.9653 40.5224 35.9569C40.6819 35.9569 40.805 35.8976 40.805 35.8748C40.737 35.6332 40.634 35.4029 40.4996 35.1909L40.2305 35.2775Z" fill="#010101"/>
<path d="M29.1327 35.9937C29.1327 35.9937 28.9184 36.8007 28.6768 37.7627C28.4351 38.7248 28.1935 39.5591 28.1889 39.6275C28.1844 39.6959 28.2573 39.7689 28.5856 39.8555C28.7333 39.9051 28.8863 39.9373 29.0415 39.9512C29.0415 39.9512 29.2285 39.354 29.4154 38.6472C29.5029 38.2559 29.6203 37.8717 29.7665 37.4983C29.7665 37.5667 29.844 38.205 29.9078 38.9071C29.9359 39.3528 29.9938 39.796 30.0811 40.2339C30.4483 40.3744 30.831 40.4708 31.2209 40.5212C31.2529 40.4893 32.2286 36.9329 32.2377 36.8326C31.9727 36.7069 31.6867 36.6311 31.3942 36.6092C31.2262 36.9953 31.0964 37.3969 31.0067 37.8083C30.9153 38.2037 30.8012 38.5934 30.6647 38.9755C30.6647 38.9755 30.5735 38.3782 30.496 37.6487C30.4185 36.9192 30.3546 36.3174 30.341 36.2809C29.9448 36.1594 29.5412 36.0634 29.1327 35.9937Z" fill="#010101"/>
<path d="M33.0129 36.8828C33.0129 36.9147 33.0129 37.7947 33.0129 38.8479C33.0449 40.6215 33.0494 40.7674 33.1588 40.7583H34.3945H35.5298V40.3616V39.9741L34.8276 39.9969H34.1163V39.1671H34.4583C34.6407 39.1671 34.9142 39.1671 35.0829 39.1306L35.3747 39.085V38.3509H34.0525V37.6807L34.4355 37.6351C34.6498 37.6351 34.9644 37.5986 35.1285 37.5986H35.4386V36.8463H34.2486C33.8363 36.8309 33.4235 36.8431 33.0129 36.8828Z" fill="#010101"/>
<path d="M37.2349 38.392C36.9066 38.4741 36.6331 38.5561 36.6194 38.5607C36.6469 38.7958 36.7067 39.0259 36.7972 39.2446C37.2627 39.1939 37.7213 39.093 38.165 38.9437C38.1632 38.8187 38.1448 38.6945 38.1103 38.5744C38.0191 38.164 38.0602 38.1731 37.2349 38.392Z" fill="#010101"/>
<path d="M32.7757 14.0037C31.6365 14.1507 30.5308 14.4915 29.5066 15.0114C28.0722 15.7142 26.827 16.7503 25.8751 18.0329C24.9232 19.3156 24.2924 20.8075 24.0352 22.384C23.8961 23.4631 23.8961 24.5557 24.0352 25.6349C24.3518 27.4602 25.164 29.1635 26.3829 30.5586C27.6019 31.9537 29.1809 32.987 30.9473 33.5455C32.9373 34.151 35.0624 34.151 37.0524 33.5455C38.8273 32.9826 40.4123 31.9405 41.6327 30.5343C42.8532 29.128 43.6617 27.412 43.9691 25.5756C44.1047 24.516 44.1047 23.4435 43.9691 22.384C43.6221 20.2819 42.6125 18.3457 41.0875 16.8579C40.3316 16.1002 39.4529 15.4758 38.4887 15.0114C37.178 14.3052 35.7046 13.9561 34.2165 13.9992C33.528 13.9855 32.8805 13.9946 32.7757 14.0037ZM31.4854 21.0982V21.6317H29.999H28.5035V22.4615V23.2959H31.2711V24.4266H28.508V26.3097H31.5857V27.3811H26.9396V20.542H31.5218L31.4854 21.0982ZM34.1253 21.9463V23.3141H36.8245V20.5511H38.1923V27.3903H36.8245V24.4357H34.1253V27.3903H32.8076V20.5511H34.1253V21.9463ZM41.2243 23.9707V27.3948H39.7197V20.5556H41.2289L41.2243 23.9707Z" fill="#CA1517"/>
</svg>
