<svg width="68" height="48" viewBox="0 0 68 48" fill="none" xmlns="http://www.w3.org/2000/svg">
<path fill-rule="evenodd" clip-rule="evenodd" d="M18.113 17.725C17.6803 17.5476 17.2152 17.4624 16.7476 17.475C16.145 17.4723 15.5482 17.5928 14.9942 17.829C12.611 18.8214 11.3311 21.6722 11.7584 23.935C11.9273 24.8282 12.4379 25.4854 13.3192 25.7941C14.2005 26.1028 15.0748 26.0385 15.9196 25.6391C16.7644 25.2396 17.3935 24.5915 17.9476 23.8617C18.2272 23.4956 18.2237 23.493 17.8687 23.2197L17.8608 23.2136C17.7529 23.1305 17.701 23.1577 17.6198 23.2478C17.5856 23.2858 17.5514 23.3239 17.5172 23.362C17.2643 23.6438 17.0106 23.9265 16.7378 24.1892C16.411 24.5144 16.0049 24.7494 15.5595 24.8708C14.8478 25.0559 14.2509 24.7528 14.0183 24.06C13.8487 23.5554 13.9392 23.0483 14.0289 22.5451L14.0443 22.4586C14.0506 22.4209 14.1234 22.3804 14.1725 22.3671C14.3555 22.3174 14.5394 22.2702 14.7233 22.223C15.0017 22.1516 15.2801 22.0801 15.556 21.9998C16.3231 21.7756 17.0769 21.5109 17.762 21.0919C18.2804 20.772 18.7357 20.3879 18.9746 19.8068C19.3487 18.8983 19.0188 18.107 18.113 17.725ZM14.2761 21.7517C14.2517 21.7514 14.2274 21.7491 14.2033 21.7449C14.2557 21.5798 14.3059 21.4163 14.3556 21.2544C14.4743 20.8685 14.5902 20.4913 14.7259 20.1218C14.9311 19.5596 15.1861 19.017 15.5931 18.563C15.7935 18.3388 16.0247 18.1552 16.3273 18.0853C16.9144 17.9512 17.3151 18.2906 17.287 18.8927C17.2597 19.4793 17.0005 19.9605 16.6047 20.3795C15.9679 21.0493 15.1735 21.4627 14.3056 21.7512C14.2958 21.7516 14.2859 21.7518 14.2761 21.7517Z" fill="#121212"/>
<path fill-rule="evenodd" clip-rule="evenodd" d="M6.00006 21.6094C5.98254 16.3163 10.3504 11.9577 15.7311 12.0003C20.9718 12.0429 25.3053 16.301 25.2983 21.6164C25.2982 22.8816 25.0475 24.1344 24.5605 25.3028C24.0735 26.4712 23.3598 27.5322 22.4603 28.4249C21.5609 29.3176 20.4935 30.0244 19.3194 30.5048C18.1452 30.9851 16.8875 31.2295 15.6184 31.224C10.2887 31.2171 5.98184 26.8787 6.00006 21.6094ZM15.5581 15.5334C13.9482 15.5352 12.405 16.1745 11.2679 17.3106C10.1307 18.4467 9.4929 19.9866 9.49466 21.5916C9.49642 23.1965 10.1376 24.735 11.2773 25.8687C12.4169 27.0023 13.9615 27.6382 15.5714 27.6364C18.9396 27.6287 21.6661 24.9092 21.6486 21.5703C21.6437 19.9644 20.9996 18.4261 19.8578 17.2933C18.7159 16.1606 17.1697 15.5261 15.5588 15.5292L15.5581 15.5334Z" fill="#121212"/>
<path d="M42.7405 27.3551C42.7422 27.3578 42.744 27.3604 42.7459 27.363C42.7487 27.3669 42.7518 27.3708 42.755 27.3745C42.7619 27.3825 42.7695 27.3899 42.7778 27.3965C42.7869 27.4044 42.7968 27.4113 42.8074 27.4171C42.9566 27.4828 43.1107 27.5365 43.2684 27.5778C44.0838 27.7873 44.8971 27.811 45.688 27.4821C46.6975 27.0631 47.0891 25.8842 46.5223 25.0063C46.3412 24.7266 46.0893 24.5348 45.8082 24.3831C45.7097 24.3295 45.6077 24.2807 45.5038 24.2346C45.4356 24.2044 45.3672 24.1748 45.2987 24.1454C45.2446 24.1222 45.1905 24.0991 45.1364 24.076C44.9069 23.9781 44.6776 23.8803 44.453 23.7716C44.4255 23.7582 44.3992 23.7436 44.3744 23.7277C44.3599 23.7184 44.3458 23.7087 44.3323 23.6985C44.1947 23.5929 44.114 23.4413 44.1398 23.2429C44.1735 22.9761 44.3584 22.8413 44.6001 22.7806C45.1136 22.6507 45.606 22.7561 46.0859 22.9419C46.2022 22.9866 46.2533 22.9754 46.2849 22.8497C46.3549 22.5857 46.425 22.3224 46.5034 22.0619C46.5179 22.0134 46.5205 21.9752 46.5094 21.9452C46.4973 21.9046 46.4622 21.8782 46.3997 21.8615C46.3859 21.8579 46.372 21.8541 46.3582 21.8503C46.3279 21.842 46.2977 21.8333 46.2675 21.8244C46.2319 21.814 46.1965 21.8033 46.161 21.7926C46.0002 21.744 45.8393 21.6954 45.6747 21.6715C44.9805 21.571 44.2919 21.5884 43.6495 21.9376C42.9194 22.3331 42.6036 23.1751 42.8489 23.8883C42.9499 24.1862 43.1485 24.4621 43.4554 24.6739C43.6952 24.8268 43.946 24.962 44.2057 25.0782L44.2387 25.0942C44.2557 25.1024 44.2728 25.1104 44.2899 25.1184C44.3094 25.1275 44.3289 25.1366 44.3485 25.1455C44.3697 25.1552 44.391 25.1648 44.4122 25.1743C44.4698 25.2001 44.5276 25.2254 44.5854 25.2507C44.7665 25.3298 44.9475 25.409 45.1206 25.5029C45.2432 25.5695 45.3234 25.666 45.3633 25.7825C45.3922 25.8707 45.3984 25.9703 45.3826 26.0769C45.3728 26.1827 45.3296 26.2826 45.2593 26.3623C45.1889 26.442 45.0949 26.4973 44.991 26.5204C44.7339 26.5777 44.4579 26.628 44.2015 26.5945C43.912 26.5586 43.627 26.4856 43.3306 26.4098L43.2338 26.385C43.1796 26.3713 43.1251 26.3575 43.07 26.344C43.0302 26.3342 42.9901 26.3246 42.9496 26.3151C42.9355 26.372 42.921 26.4298 42.9062 26.4886L42.8791 26.5962C42.8238 26.8156 42.766 27.0452 42.7129 27.274C42.7132 27.279 42.7139 27.2839 42.7147 27.2888L42.7156 27.2937L42.7165 27.298C42.7187 27.3081 42.7219 27.3179 42.7259 27.3275C42.7287 27.3341 42.7319 27.3407 42.7355 27.347C42.7371 27.3498 42.7387 27.3525 42.7405 27.3551Z" fill="#121212"/>
<path d="M52.0972 21.9341L52.1021 24.6606V27.4493C52.1021 27.5101 52.1068 27.5588 52.132 27.5912C52.1539 27.6245 52.1938 27.6427 52.2653 27.6427H55.768C55.8716 27.6462 55.9081 27.6106 55.9081 27.503C55.9011 27.246 55.8969 26.9897 55.9081 26.7348C55.9102 26.6873 55.9066 26.6504 55.8963 26.622C55.8922 26.6108 55.887 26.6009 55.8807 26.5922C55.8523 26.5452 55.796 26.5293 55.7035 26.5302C55.3319 26.534 54.9601 26.5337 54.5883 26.5334C54.2718 26.5331 53.9554 26.5328 53.639 26.5351C53.5693 26.5351 53.5217 26.5265 53.4941 26.4946C53.4829 26.4781 53.4758 26.4561 53.4722 26.4274C53.4715 26.4216 53.4709 26.4155 53.4705 26.4092C53.4698 26.3995 53.4695 26.3891 53.4695 26.378C53.4779 26.0236 53.4779 25.6691 53.4695 25.3143C53.4653 25.1725 53.5193 25.1404 53.6517 25.1404C54.0444 25.1428 54.4372 25.142 54.83 25.1412C55.0263 25.1408 55.2227 25.1404 55.4191 25.1404C55.6552 25.1397 55.6552 25.1355 55.6552 24.9148C55.6552 24.8797 55.6549 24.8446 55.6544 24.8095C55.6539 24.771 55.6531 24.7325 55.6524 24.694C55.6496 24.5467 55.6468 24.3994 55.6552 24.2528C55.6583 24.1864 55.6507 24.1396 55.6302 24.1074C55.6011 24.0544 55.5404 24.0363 55.4401 24.0363C55.1357 24.0402 54.8308 24.0401 54.5262 24.04C54.2358 24.0399 53.9455 24.0398 53.6559 24.0432C53.5673 24.0432 53.5144 24.0278 53.486 23.9876C53.4676 23.9561 53.4616 23.9115 53.4639 23.8505C53.4742 23.5712 53.4742 23.2918 53.4639 23.0124C53.4569 22.8553 53.5172 22.8176 53.6671 22.8176C53.9773 22.8199 54.2875 22.8199 54.5978 22.8198C54.9292 22.8197 55.2607 22.8196 55.5921 22.8225C55.7329 22.8232 55.7911 22.7855 55.7827 22.6353C55.7697 22.4027 55.7697 22.1695 55.7827 21.9369C55.7874 21.8594 55.7798 21.8053 55.7539 21.7692C55.7231 21.7186 55.6616 21.6994 55.5557 21.7002C54.782 21.7062 54.0082 21.7057 53.2335 21.7053C52.9336 21.7051 52.6335 21.7049 52.3333 21.7051C52.0979 21.7051 52.0972 21.7051 52.0972 21.9341Z" fill="#121212"/>
<path d="M41.9857 23.7101C41.9857 23.8139 41.9866 23.9178 41.9879 24.0217C41.9889 24.0972 41.9901 24.1727 41.9912 24.2481C41.9977 24.6677 42.0041 25.0868 41.9752 25.5022C41.9717 25.5403 41.9675 25.5783 41.9627 25.6161C41.9564 25.6658 41.949 25.7152 41.9404 25.7645C41.9103 25.938 41.8663 26.1089 41.8089 26.2754C41.7799 26.3598 41.7477 26.4433 41.7118 26.5253C41.4701 27.0994 41.0113 27.4541 40.4074 27.6183C39.854 27.7735 39.2689 27.7774 38.7135 27.6295C37.9163 27.4199 37.4603 26.8738 37.2781 26.0986C37.2013 25.765 37.1607 25.4241 37.1569 25.0817C37.1516 24.7019 37.1502 24.3221 37.15 23.9422C37.1497 23.6932 37.1499 23.4443 37.1502 23.1953L37.1504 22.9401C37.1505 22.7971 37.1506 22.654 37.1504 22.511L37.15 22.236C37.1495 22.127 37.1488 22.018 37.1478 21.909C37.1478 21.8981 37.1481 21.8877 37.1485 21.8777C37.1493 21.8615 37.1507 21.8465 37.1529 21.8328C37.1672 21.737 37.2189 21.7017 37.3461 21.7058C37.6606 21.7162 37.9758 21.7169 38.2911 21.7058C38.4529 21.7023 38.5012 21.7532 38.5012 21.9153C38.4957 22.9726 38.4907 24.0307 38.5048 25.088C38.5046 25.1754 38.5081 25.2626 38.5153 25.3494C38.5327 25.552 38.5699 25.7527 38.6266 25.9485C38.6814 26.1267 38.7588 26.2688 38.8593 26.3774C39.0552 26.5873 39.3377 26.6715 39.7069 26.6489C40.1447 26.6189 40.488 26.2997 40.5874 25.8109C40.6314 25.5947 40.6548 25.3749 40.6575 25.1544C40.6659 24.0789 40.6659 23.0038 40.6575 21.9292C40.6561 21.7484 40.7142 21.6988 40.888 21.7058C41.1969 21.7176 41.5065 21.7141 41.8155 21.7058C41.8857 21.704 41.9332 21.7143 41.9634 21.7425C41.9964 21.7715 42.0102 21.8202 42.0095 21.8957C42.0048 22.2983 42.0064 22.7011 42.008 23.1047L42.008 23.117C42.0085 23.2472 42.009 23.3774 42.0093 23.5078C42.0094 23.5757 42.0095 23.6436 42.0095 23.7115L41.9857 23.7101Z" fill="#121212"/>
<path d="M32.0725 31.9476C32.0725 32.2025 32.0727 32.4575 32.073 32.7124C32.0737 33.375 32.0744 34.0371 32.0704 34.6978C32.0697 34.7678 32.0793 34.8152 32.1037 34.8458C32.1331 34.886 32.1855 34.8989 32.2714 34.8961C32.586 34.8864 32.9019 34.885 33.2157 34.8961C33.3825 34.9024 33.4217 34.8424 33.4203 34.6866C33.4169 34.3552 33.4168 34.0235 33.4167 33.692C33.4166 33.3438 33.4165 32.9958 33.4126 32.648C33.4126 32.4658 33.4686 32.4239 33.6417 32.4267C34.2245 32.4364 34.8083 32.4364 35.393 32.4267C35.4905 32.4267 35.5529 32.4388 35.5882 32.4829C35.6124 32.5168 35.6228 32.5681 35.6228 32.6438C35.6181 32.9491 35.6173 33.2544 35.6174 33.5598C35.6175 33.6541 35.6176 33.7485 35.6177 33.8428C35.6181 34.1286 35.6185 34.4143 35.6165 34.6999C35.6158 34.7686 35.6245 34.8171 35.6511 34.8482C35.6784 34.883 35.7259 34.8977 35.8049 34.8954C36.1257 34.8857 36.4466 34.8871 36.7667 34.8954C36.9068 34.8989 36.9615 34.8577 36.9608 34.709C36.9566 32.868 36.9566 31.0266 36.9608 29.1848C36.9608 29.1232 36.951 29.0802 36.9298 29.0512C36.9 29.0081 36.8459 28.9948 36.7618 28.9948C36.4529 29.0032 36.1433 29.0067 35.835 28.9948C35.669 28.9885 35.6144 29.0374 35.6144 29.2085C35.6181 29.504 35.6179 29.7996 35.6177 30.0953C35.6175 30.4154 35.6173 30.7356 35.6221 31.0557C35.6249 31.2282 35.5646 31.2708 35.4007 31.2708C34.8073 31.2631 34.2112 31.2645 33.6164 31.2708C33.5181 31.2718 33.4612 31.2536 33.4338 31.1963C33.4206 31.1672 33.4149 31.1282 33.4154 31.0767C33.4197 30.7591 33.4196 30.4416 33.4195 30.124C33.4194 29.82 33.4193 29.516 33.4231 29.212C33.4231 29.1137 33.4049 29.0562 33.3587 29.0268C33.3236 29.0036 33.2721 28.9962 33.2003 28.999C32.8914 29.0094 32.5817 29.008 32.2735 28.999C32.1243 28.9948 32.0725 29.0367 32.0725 29.1945C32.0753 29.8063 32.0743 30.4181 32.0734 31.0299C32.073 31.2736 32.0726 31.5174 32.0725 31.7611L32.0725 31.9476Z" fill="#121212"/>
<path d="M48.9557 34.0684C48.9739 33.9934 48.9915 33.9182 49.0092 33.843L49.0325 33.7437C49.047 33.6827 49.0615 33.6216 49.0765 33.5608C49.2019 33.5959 49.3224 33.6321 49.4399 33.6673L49.4405 33.6675C49.5407 33.6977 49.6388 33.7271 49.7361 33.7547C49.8502 33.7867 49.9637 33.8159 50.0782 33.8402C50.3692 33.9114 50.6728 33.9108 50.9627 33.839C50.9886 33.8325 51.0144 33.8255 51.0401 33.8178C51.2691 33.7431 51.4436 33.6118 51.4849 33.3548C51.5106 33.2337 51.4947 33.1074 51.4399 32.9964C51.385 32.8853 51.2943 32.7958 51.1823 32.7423C51.0214 32.6559 50.8498 32.5825 50.6806 32.5102L50.6785 32.5093L50.6774 32.5088C50.5743 32.4648 50.4722 32.4211 50.3739 32.375C50.3371 32.3577 50.3001 32.3406 50.2629 32.3234L50.2607 32.3224L50.2552 32.3198C50.0318 32.2165 49.8049 32.1116 49.6033 31.9734C48.6092 31.2953 48.6464 29.9076 49.6838 29.2923C49.9069 29.1623 50.1471 29.0649 50.3971 29.0027C50.4641 28.9858 50.5318 28.9716 50.6001 28.9599C51.2246 28.8555 51.8655 28.9147 52.46 29.1317C52.6037 29.1826 52.6471 29.242 52.5911 29.3985C52.5243 29.5855 52.4764 29.7786 52.4282 29.9726L52.4281 29.9731C52.4146 30.0273 52.4011 30.0817 52.3872 30.136C52.3721 30.1953 52.3539 30.2316 52.3208 30.2445C52.2934 30.2584 52.2553 30.2541 52.1988 30.2302C51.8133 30.0596 51.3912 29.9876 50.9707 30.0207C50.9449 30.0228 50.9192 30.0257 50.8936 30.0294C50.8763 30.0319 50.859 30.0348 50.8418 30.038C50.8181 30.0424 50.7946 30.0475 50.7712 30.0532C50.6872 30.0744 50.6054 30.1042 50.5273 30.1422C50.1896 30.3154 50.1399 30.7379 50.4474 30.9586C50.6167 31.0801 50.8112 31.1673 51.0052 31.2543C51.0721 31.2842 51.1389 31.3142 51.2047 31.3456C51.3042 31.393 51.4057 31.4364 51.5073 31.4798L51.5082 31.4802L51.5089 31.4805C51.6849 31.5558 51.8608 31.6309 52.0257 31.7269C52.6464 32.0886 52.949 32.6348 52.8664 33.3569C52.7851 34.0553 52.376 34.5246 51.7259 34.7718C51.6514 34.8002 51.577 34.8257 51.5025 34.8485C50.6637 35.1073 49.8212 35.0113 48.9882 34.7118C48.846 34.6573 48.8096 34.5854 48.8558 34.4324C48.8929 34.3123 48.9254 34.1906 48.9557 34.0684Z" fill="#121212"/>
<path d="M28.2336 29.2364C28.4603 29.1115 28.6875 29.026 28.9388 28.9745C29.1665 28.9278 29.414 28.9092 29.6991 28.9145C29.9681 28.9167 30.2355 28.9482 30.4968 29.0081C30.6552 29.0443 30.8114 29.0908 30.9642 29.1477C31.0805 29.191 31.1155 29.242 31.0749 29.367C30.9943 29.615 30.925 29.8671 30.8647 30.1206C30.838 30.2342 30.8034 30.2734 30.704 30.2403C30.6932 30.237 30.6817 30.2327 30.6693 30.2277L30.6588 30.2233C30.552 30.1758 30.4423 30.136 30.3306 30.104C30.0529 30.0252 29.7626 29.9949 29.4728 30.0151C29.3166 30.0261 29.1637 30.0653 29.0216 30.1311C28.656 30.3106 28.6118 30.7477 28.9481 30.9782C29.1145 31.0923 29.303 31.1758 29.4908 31.259C29.5536 31.2868 29.6163 31.3146 29.678 31.3435C29.7699 31.3864 29.8654 31.4264 29.9617 31.4668L29.9622 31.467C30.124 31.5348 30.2879 31.6036 30.4402 31.6885C31.0868 32.0439 31.421 32.5852 31.3425 33.3353C31.2725 34.0434 30.8633 34.5106 30.2217 34.762C29.4221 35.0743 28.6237 35.0564 27.8319 34.8243C27.6994 34.7856 27.5671 34.741 27.4349 34.6908C27.3243 34.6496 27.285 34.5924 27.3243 34.4659C27.4005 34.2161 27.4639 33.9625 27.5141 33.7061C27.5385 33.5803 27.5768 33.5451 27.6652 33.5687C27.687 33.5741 27.7119 33.5833 27.7404 33.5958C27.886 33.6638 28.0365 33.72 28.1901 33.7639C28.5162 33.8565 28.8567 33.894 29.1975 33.8737C29.3309 33.8647 29.4623 33.8367 29.5877 33.7906C29.8013 33.7096 29.9492 33.5545 29.9723 33.3178C29.9954 33.081 29.9127 32.8813 29.7082 32.7696C29.5424 32.6797 29.3692 32.6033 29.196 32.5269C29.0771 32.4745 28.9582 32.422 28.8416 32.3652L28.8081 32.3493L28.7795 32.3357C28.7503 32.322 28.721 32.3083 28.6917 32.2946C28.4771 32.1943 28.2618 32.0938 28.071 31.9601C27.0602 31.2541 27.1498 29.8322 28.2336 29.2364Z" fill="#121212"/>
<path d="M29.9972 24.7004C29.9979 24.1473 29.9985 23.5942 29.9933 23.0411C29.9933 22.8916 30.0304 22.8378 30.1887 22.8413C30.4266 22.8473 30.6645 22.8465 30.9023 22.8457C31.0848 22.8451 31.2672 22.8445 31.4497 22.8469C31.5681 22.8469 31.6185 22.812 31.6164 22.6891C31.6108 22.416 31.6115 22.1429 31.6164 21.8699C31.6164 21.8131 31.605 21.7746 31.5812 21.7497C31.5535 21.7191 31.5078 21.7079 31.4434 21.7079C30.0269 21.7106 28.6102 21.7106 27.1933 21.7079C27.0777 21.7079 27.0419 21.7526 27.0419 21.8622C27.0482 22.1353 27.0511 22.4083 27.0419 22.6814C27.04 22.7454 27.0513 22.7854 27.0768 22.8097C27.1052 22.8398 27.1527 22.848 27.2206 22.8469C27.4812 22.8427 27.7419 22.8441 28.0023 22.8455L28.1436 22.8463C28.2266 22.8466 28.3096 22.8469 28.3926 22.8469C28.5087 22.8469 28.5701 22.8469 28.6026 22.8727C28.6037 22.8736 28.6047 22.8746 28.6056 22.8755C28.6363 22.9062 28.6363 22.9675 28.6363 23.09C28.6363 23.4003 28.6364 23.7106 28.6366 24.0209V24.0331C28.6369 25.1646 28.6372 26.2965 28.6329 27.4283C28.6329 27.5282 28.6518 27.5865 28.7039 27.6153C28.7365 27.6344 28.7825 27.6416 28.8458 27.6399C29.1548 27.6301 29.4637 27.6287 29.7726 27.6399C29.945 27.6462 30.0066 27.598 30.0038 27.4165C29.9941 26.8643 29.9952 26.313 29.9962 25.7622L29.9965 25.5951C29.9966 25.506 29.9967 25.4169 29.9968 25.3279L29.9968 25.2536C29.9968 25.0692 29.997 24.8848 29.9972 24.7004Z" fill="#121212"/>
<path d="M49.9787 24.6806C49.9784 24.8704 49.9781 25.0603 49.9781 25.2501V26.6857C49.9789 26.9401 49.9805 27.1948 49.9837 27.45C49.9844 27.5924 49.9437 27.6448 49.7966 27.6406C49.4697 27.6313 49.1428 27.6313 48.8159 27.6406C48.756 27.6423 48.7145 27.6341 48.6862 27.6149C48.6386 27.5867 48.6249 27.531 48.6253 27.4437C48.6268 26.8358 48.627 26.2279 48.6273 25.6201C48.6276 24.7691 48.628 23.9183 48.6316 23.0676C48.6316 22.9637 48.6173 22.9006 48.5665 22.868C48.5482 22.8576 48.5255 22.8508 48.4976 22.8471C48.474 22.844 48.4467 22.843 48.4152 22.8441C48.1907 22.8516 47.9662 22.8504 47.7419 22.8492C47.6825 22.8489 47.6231 22.8486 47.5637 22.8484C47.5289 22.8483 47.4941 22.8483 47.4593 22.8483C47.3809 22.8485 47.3026 22.849 47.2243 22.8504C47.155 22.8518 47.1048 22.8433 47.0725 22.8161C47.0356 22.7896 47.0195 22.7425 47.0225 22.6625C47.0323 22.407 47.0295 22.1513 47.0225 21.8943C47.0225 21.7623 47.061 21.7072 47.2026 21.7072C48.6083 21.7113 50.0143 21.7113 51.4205 21.7072C51.4788 21.7072 51.5202 21.7158 51.5485 21.7355C51.5921 21.7623 51.6073 21.8126 51.6047 21.8943C51.5963 22.1555 51.5963 22.4174 51.6047 22.6786C51.6082 22.8078 51.5662 22.8497 51.4345 22.8497C51.2528 22.847 51.071 22.8476 50.8892 22.8482C50.6567 22.8489 50.4244 22.8497 50.1924 22.8434C50.0264 22.8371 49.9739 22.8811 49.9739 23.0529C49.9806 23.5942 49.9797 24.1374 49.9787 24.6806Z" fill="#121212"/>
<path fill-rule="evenodd" clip-rule="evenodd" d="M56.7326 23.2565L56.732 23.7953C56.7316 24.0935 56.7312 24.3918 56.7312 24.69C56.7312 25.0069 56.7315 25.3238 56.7319 25.6409L56.7319 25.6842C56.7326 26.2645 56.7332 26.845 56.7319 27.4255C56.7312 27.5645 56.7725 27.619 56.9126 27.6309C57.8387 27.7105 58.7634 27.7552 59.6797 27.5456C60.374 27.3843 60.9806 27.0798 61.415 26.4897C61.775 26.0001 61.9361 25.4393 61.9852 24.8492C62.051 24.0558 61.906 23.3057 61.3757 22.6772C60.8265 22.0277 60.079 21.777 59.2587 21.7072C58.4905 21.6521 57.7188 21.6701 56.954 21.7609C56.7809 21.7791 56.7312 21.8357 56.7312 22.0061C56.7316 22.1127 56.7319 22.2193 56.7322 22.326C56.7324 22.4358 56.7326 22.5457 56.7327 22.6556C56.7328 22.8559 56.7328 23.0562 56.7326 23.2565ZM58.6528 22.7038L58.6605 22.6723C58.7313 22.6854 58.8027 22.6972 58.8741 22.7091L58.8776 22.7097C59.0798 22.7432 59.2824 22.7767 59.4752 22.8378C60.0349 23.0152 60.3578 23.4238 60.4875 23.9825C60.6036 24.4716 60.5808 24.9833 60.4216 25.4603C60.1813 26.1873 59.637 26.5428 58.8994 26.6287C58.7304 26.6481 58.5586 26.6463 58.387 26.6444C58.3619 26.6441 58.3368 26.6439 58.3117 26.6437C58.2865 26.6435 58.2612 26.6433 58.2359 26.6433C58.1344 26.6447 58.0769 26.6112 58.0769 26.4911V22.8867C58.0769 22.7827 58.1168 22.7373 58.217 22.7317C58.3627 22.724 58.5077 22.7128 58.6528 22.7038Z" fill="#121212"/>
<path fill-rule="evenodd" clip-rule="evenodd" d="M43.377 31.9301C43.3847 32.6613 43.2256 33.3464 42.7766 33.9422C42.3689 34.482 41.8183 34.7977 41.1591 34.9262C40.02 35.1483 39.0351 34.8829 38.3072 33.9442C37.8077 33.3003 37.6683 32.5363 37.7188 31.7381C37.765 30.9998 37.9934 30.3231 38.5104 29.7756C39.2424 29.0011 40.165 28.7902 41.1829 28.9676C42.5503 29.2057 43.2649 30.3106 43.3756 31.5299C43.3784 31.5617 43.38 31.5935 43.3807 31.6255C43.3819 31.6791 43.3808 31.733 43.3795 31.787L43.3782 31.8389C43.3775 31.8694 43.377 31.8998 43.377 31.9301ZM39.1324 31.9804C39.1176 32.3484 39.1844 32.7151 39.3279 33.0545C39.5478 33.5517 39.903 33.8884 40.4704 33.9247C41.0379 33.961 41.4659 33.6893 41.702 33.1809C41.8292 32.896 41.9144 32.5942 41.9549 32.2849C42.044 31.7343 41.9488 31.1698 41.6838 30.6786C41.4393 30.2323 41.0666 29.9662 40.5461 29.9683C40.0256 29.9704 39.6543 30.2393 39.4119 30.6863C39.1962 31.0865 39.1233 31.5222 39.1352 31.9804H39.1324Z" fill="#121212"/>
<path fill-rule="evenodd" clip-rule="evenodd" d="M35.372 24.8694C35.8343 25.1111 36.0073 25.5482 36.1348 26.0169C36.2252 26.3556 36.3196 26.6931 36.4159 27.0371C36.4689 27.2266 36.5224 27.418 36.5762 27.6127C36.5225 27.623 36.4682 27.6301 36.4137 27.6336C36.0697 27.6336 35.725 27.6295 35.3811 27.6336C35.329 27.6409 35.2761 27.6276 35.2337 27.5965C35.1913 27.5655 35.1627 27.5192 35.1541 27.4674C35.11 27.3096 35.0664 27.151 35.0228 26.9921C34.9312 26.6588 34.8392 26.3242 34.7415 25.9931C34.5909 25.4826 34.3555 25.3129 33.8308 25.3101H33.4574V25.5301C33.4574 25.6993 33.4571 25.8685 33.4567 26.0377V26.041C33.4557 26.4993 33.4548 26.9575 33.4609 27.4157C33.4609 27.5778 33.4238 27.6441 33.2508 27.6371C32.9418 27.6246 32.6322 27.6273 32.3233 27.6371C32.1747 27.642 32.1201 27.6001 32.1208 27.4423C32.1259 25.6181 32.1259 23.7937 32.1208 21.9691C32.1208 21.8419 32.1551 21.7812 32.2924 21.7665C33.0511 21.6732 33.8171 21.6531 34.5797 21.7065C34.972 21.7386 35.3503 21.8245 35.6907 22.0382C36.2182 22.3727 36.4088 22.8762 36.3744 23.472C36.3401 24.0677 36.0172 24.4741 35.5135 24.7591C35.5015 24.7659 35.4895 24.7725 35.4775 24.779C35.4489 24.7947 35.4204 24.8102 35.3923 24.8289C35.3845 24.8305 35.3817 24.8394 35.3773 24.8533C35.3758 24.8581 35.3741 24.8635 35.372 24.8694ZM33.4546 23.5097C33.4546 23.57 33.4543 23.6302 33.454 23.6905V23.6916C33.453 23.8634 33.4521 24.0351 33.4588 24.2081C33.4588 24.2549 33.5156 24.338 33.5471 24.3387C33.5837 24.3395 33.6204 24.3407 33.6571 24.3418C33.963 24.3513 34.2707 24.3609 34.5622 24.2318C34.7115 24.171 34.8379 24.0651 34.9236 23.9289C35.0093 23.7927 35.05 23.6331 35.0399 23.4727C35.035 23.1193 34.8823 22.8846 34.5579 22.7596C34.2336 22.6346 33.8945 22.6549 33.559 22.7072C33.5177 22.7135 33.4623 22.7994 33.4595 22.8511C33.4521 23.0069 33.4531 23.1612 33.454 23.3159L33.4543 23.3663L33.4546 23.4238C33.4547 23.4524 33.4547 23.481 33.4546 23.5097Z" fill="#121212"/>
<path fill-rule="evenodd" clip-rule="evenodd" d="M44.1506 31.601C44.1504 31.7268 44.1503 31.8525 44.1503 31.9783L44.1482 33.3422C44.1482 33.3883 44.1483 33.4344 44.1484 33.4804L44.1488 33.6082L44.1496 33.8011C44.151 34.107 44.1524 34.4129 44.1482 34.7187C44.1461 34.8521 44.1854 34.9052 44.3255 34.901C44.6344 34.8913 44.944 34.8892 45.253 34.901C45.4246 34.908 45.4834 34.8626 45.4834 34.6797C45.477 34.3767 45.4777 34.0734 45.4784 33.7702C45.4787 33.6499 45.479 33.5297 45.4788 33.4094C45.4786 33.2695 45.4778 33.1295 45.4757 32.9896C45.4736 32.831 45.5262 32.8038 45.6782 32.8038C46.0503 32.8052 46.422 32.7781 46.7899 32.7228C47.681 32.567 48.2204 32.002 48.3739 31.1165C48.5153 30.2952 48.1055 29.499 47.3434 29.2015C47.0357 29.0763 46.7086 29.0054 46.3766 28.992C45.9421 28.9838 45.5069 29.0031 45.0717 29.0224C44.8377 29.0328 44.6036 29.0432 44.3696 29.0493C44.1952 29.0542 44.1468 29.124 44.1468 29.2944C44.1525 29.9558 44.1517 30.6173 44.1509 31.2788L44.1506 31.601ZM45.4814 31.6165V30.8693H45.4793C45.4793 30.7842 45.4797 30.6991 45.4801 30.6141C45.4809 30.4614 45.4818 30.3088 45.48 30.1562C45.4757 30.0563 45.5115 29.9977 45.6159 30.0012C45.6344 30.0018 45.653 30.0023 45.6717 30.0026C45.6943 30.0031 45.7169 30.0033 45.7396 30.0034C45.7865 30.0036 45.8336 30.0031 45.8806 30.0027C46.0888 30.0008 46.2971 29.9989 46.4936 30.048C46.8782 30.1408 47.066 30.4419 47.066 30.8238C47.0674 31.2415 46.8593 31.5893 46.4726 31.6892C46.2699 31.7416 46.0558 31.7496 45.8421 31.7576L45.7853 31.7598C45.7651 31.7606 45.7448 31.7614 45.7246 31.7623C45.7025 31.7633 45.6804 31.7644 45.6584 31.7656L45.6317 31.7671L45.5955 31.7695C45.4869 31.7772 45.4814 31.6982 45.4814 31.6165Z" fill="#121212"/>
</svg>
