<svg width="68" height="48" viewBox="0 0 68 48" fill="none" xmlns="http://www.w3.org/2000/svg">
<rect x="7" y="15" width="54" height="18.45" fill="white"/>
<path d="M21.6745 27.5359C21.5346 27.5359 21.4977 27.504 21.4967 27.383C21.4957 27.262 21.556 27.2081 21.6774 27.2061C21.7989 27.2042 21.8377 27.2551 21.8358 27.381C21.8339 27.5069 21.8008 27.5363 21.6745 27.5359Z" fill="black"/>
<path d="M36.9826 28.1596C36.9504 28.1482 36.9177 28.1384 36.8846 28.1303C36.8609 28.1245 36.8371 28.1196 36.813 28.1155C36.6581 28.1012 36.5026 28.095 36.3471 28.0969C36.2432 28.1008 36.1873 28.1792 36.164 28.2801C36.1505 28.3235 36.1532 28.3703 36.1716 28.4118C36.1899 28.4532 36.2226 28.4866 36.2636 28.5055C36.4005 28.5815 36.5429 28.647 36.6896 28.7015C37.0841 28.8362 37.2284 29.3296 36.9326 29.6089C36.8378 29.6985 36.6838 29.7427 36.5502 29.7677C36.351 29.8035 36.1459 29.7866 35.9551 29.7187C35.8453 29.6814 35.8093 29.6207 35.8268 29.5099C35.8329 29.4623 35.8364 29.4144 35.8375 29.3664C35.8694 29.3756 35.9001 29.3851 35.93 29.3944L35.9319 29.395L35.9328 29.3952C35.9988 29.4157 36.0607 29.4348 36.1227 29.4472C36.2767 29.4771 36.4302 29.5055 36.5876 29.4472C36.6702 29.4173 36.7212 29.3757 36.7285 29.288C36.7358 29.2003 36.7397 29.1033 36.6425 29.0543C36.5122 28.982 36.3771 28.9188 36.2383 28.8651C35.9881 28.7774 35.8317 28.579 35.8166 28.333C35.8015 28.0871 35.9623 27.8867 36.1887 27.8107C36.4283 27.7304 36.6683 27.7759 36.9044 27.8347C36.9235 27.8441 36.9402 27.8579 36.9532 27.8749C36.9572 27.8802 36.9609 27.8858 36.9641 27.8915C36.9662 27.8954 36.9682 27.8994 36.97 27.9034C36.9716 27.9071 36.9731 27.9109 36.9744 27.9148C36.9764 27.9206 36.978 27.9266 36.9792 27.9327C36.9809 27.9503 36.9823 27.968 36.9833 27.9857C36.9842 28.0003 36.9848 28.0148 36.9852 28.0294C36.9864 28.0728 36.9855 28.1162 36.9826 28.1596Z" fill="black"/>
<path d="M29.784 28.166C29.7122 28.1566 29.6424 28.1457 29.574 28.1349C29.424 28.1114 29.2803 28.0888 29.1345 28.0861C28.8702 28.0812 28.6214 28.2889 28.5471 28.5364C28.5012 28.6753 28.4973 28.8249 28.5358 28.9661C28.5743 29.1073 28.6534 29.2338 28.7633 29.3296C28.9576 29.4884 29.1665 29.4898 29.392 29.4497C29.4988 29.4305 29.5285 29.3649 29.5265 29.2679C29.5252 29.2032 29.5257 29.142 29.5261 29.0808C29.5263 29.0502 29.5265 29.0196 29.5265 28.9886C29.5265 28.9141 29.5523 28.8681 29.6305 28.873C29.6384 28.8734 29.6468 28.8735 29.6555 28.8733L29.6622 28.873L29.6675 28.8728L29.6832 28.872C29.7547 28.8682 29.834 28.864 29.8413 28.971C29.8554 29.1728 29.8515 29.3762 29.8472 29.5785C29.8434 29.5978 29.8351 29.616 29.8232 29.6316C29.8112 29.6471 29.7958 29.6597 29.7782 29.6682C29.3215 29.8583 28.7579 29.8774 28.3858 29.4144C28.0651 29.0141 28.1025 28.4467 28.4577 28.0582C28.7822 27.7034 29.3866 27.7382 29.716 27.8578C29.8014 27.8883 29.7983 27.9596 29.7952 28.029L29.7947 28.041C29.7941 28.0544 29.7932 28.0678 29.7922 28.0809C29.7913 28.0915 29.7904 28.1019 29.7894 28.1118L29.7878 28.1283L29.7858 28.1475L29.784 28.166Z" fill="black"/>
<path fill-rule="evenodd" clip-rule="evenodd" d="M50.7526 27.8104C50.7025 27.8053 50.6523 27.8007 50.6021 27.7962H50.6017C50.5498 27.7914 50.4978 27.7867 50.446 27.7813V27.8034H50.1428C50.0748 27.8024 50.0457 27.8293 50.0457 27.897V29.6099C50.0461 29.7436 50.0695 29.7569 50.2186 29.7569C50.3357 29.7588 50.3741 29.7049 50.3707 29.5927C50.3658 29.4492 50.3707 29.3022 50.376 29.1552C50.3789 29.0861 50.3974 29.0249 50.4892 29.0312C50.494 29.0315 50.4988 29.0317 50.5036 29.0316C50.5133 29.0314 50.5231 29.0306 50.533 29.0293C50.5449 29.0277 50.557 29.0256 50.5691 29.0235C50.6385 29.0113 50.7078 28.9991 50.754 29.0979C50.8249 29.2526 50.9029 29.402 50.9806 29.551L50.9807 29.5513L50.9998 29.5878C51.0882 29.7588 51.1218 29.776 51.3161 29.7588C51.4152 29.75 51.4351 29.7132 51.3866 29.6231C51.2894 29.4448 51.1961 29.2649 51.095 29.09C51.0494 29.0082 51.0596 28.9563 51.1436 28.9141C51.2879 28.8416 51.3477 28.7176 51.3929 28.5638C51.4759 28.2816 51.2918 27.8852 50.9615 27.8362C50.8922 27.8257 50.8224 27.8175 50.7526 27.8104ZM50.4863 28.0836C50.5261 28.0782 50.5666 28.08 50.6058 28.089C50.6661 28.0893 50.7262 28.0931 50.7861 28.1003C51.0062 28.1424 51.1009 28.2816 51.063 28.5026C51.0445 28.6108 50.9887 28.7 50.8789 28.7186C50.7401 28.7393 50.5999 28.7494 50.4596 28.749C50.4425 28.744 50.4271 28.7345 50.4147 28.7216C50.4024 28.7088 50.3936 28.6929 50.3891 28.6755C50.3843 28.5011 50.3853 28.3301 50.395 28.1581C50.3964 28.1326 50.4504 28.0949 50.4863 28.0836Z" fill="black"/>
<path fill-rule="evenodd" clip-rule="evenodd" d="M17.7738 29.7613C17.6567 29.7554 17.5396 29.7505 17.423 29.7426C17.4047 29.7439 17.3865 29.741 17.3695 29.7341C17.3525 29.7273 17.3373 29.7167 17.325 29.7031C17.3189 29.6963 17.3136 29.689 17.3091 29.6811C17.3046 29.6731 17.3009 29.6645 17.2983 29.6555C17.293 29.6379 17.2918 29.6193 17.2947 29.601C17.301 29.1762 17.3049 28.7519 17.3088 28.3271C17.3088 28.2105 17.3088 28.0934 17.304 27.9763C17.2976 27.8132 17.304 27.7906 17.4735 27.7911C17.7035 27.7889 17.9334 27.8012 18.1619 27.8279C18.4403 27.8641 18.6478 28.1645 18.5836 28.4222C18.5524 28.5089 18.5049 28.5887 18.4437 28.6574C18.4034 28.7113 18.3951 28.7485 18.4559 28.7853C18.6706 28.9117 18.6896 29.1111 18.6473 29.3242C18.6074 29.528 18.4719 29.652 18.2756 29.6966C18.1615 29.7226 18.0449 29.7385 17.9285 29.7544L17.9275 29.7546C17.8773 29.7614 17.8271 29.7683 17.7772 29.7759L17.7738 29.7613ZM17.6392 29.1816C17.6433 29.242 17.6433 29.3026 17.6392 29.3629C17.6256 29.4555 17.6639 29.4932 17.7514 29.4854C17.879 29.4743 18.0066 29.4608 18.1342 29.4447C18.2435 29.431 18.2921 29.3526 18.3096 29.2556C18.3509 29.0234 18.2698 28.9126 18.0366 28.8788C17.9722 28.8702 17.9071 28.8677 17.8423 28.8715C17.6377 28.8808 17.6377 28.8823 17.6377 29.0846L17.6392 29.1816ZM17.8588 28.6334V28.6397C17.9312 28.6386 18.0032 28.6282 18.073 28.6089C18.1353 28.5846 18.1877 28.5399 18.2217 28.482C18.241 28.4415 18.2503 28.397 18.2489 28.3521C18.2474 28.3072 18.2353 28.2634 18.2134 28.2243C18.1916 28.1852 18.1607 28.152 18.1234 28.1275C18.0861 28.103 18.0435 28.088 17.9992 28.0836C17.9111 28.0717 17.8219 28.0701 17.7334 28.0787C17.7125 28.0834 17.6929 28.0932 17.6765 28.1072C17.6601 28.1212 17.6473 28.139 17.6392 28.1591C17.6303 28.2424 17.6261 28.3261 17.6265 28.4099C17.6095 28.6324 17.61 28.6348 17.8335 28.6334H17.8588Z" fill="black"/>
<path d="M42.0765 28.5854L41.7617 28.9611C41.7306 28.9984 41.7015 29.0371 41.6684 29.0724C41.5402 29.2076 41.5353 29.2061 41.4095 29.0626C41.3047 28.9424 41.199 28.8234 41.0933 28.7045L41.0019 28.6015L40.965 28.6089L40.9638 28.6226L40.9626 28.6356L40.9602 28.6609C40.956 28.7035 40.9518 28.7462 40.9518 28.7887C40.9518 29.0685 40.9518 29.3477 40.9596 29.627C40.9596 29.7372 40.9023 29.7559 40.8139 29.7495C40.8087 29.7491 40.8035 29.7488 40.7983 29.7486L40.7866 29.7481L40.7792 29.7478C40.7014 29.7449 40.6265 29.7422 40.6278 29.6207C40.6288 29.5377 40.6298 29.4547 40.6306 29.3717L40.6318 29.2551C40.6336 29.0613 40.6351 28.8675 40.6365 28.6737L40.639 28.3565V27.9087C40.6398 27.9018 40.6407 27.8949 40.6417 27.888C40.6428 27.8812 40.644 27.8744 40.6453 27.8676C40.6471 27.8583 40.6491 27.8491 40.6514 27.84C40.6532 27.8325 40.6552 27.825 40.6574 27.8176C40.6851 27.8307 40.711 27.8471 40.7347 27.8666C40.8345 27.9802 40.9343 28.094 41.0338 28.2081C41.0949 28.278 41.1558 28.3481 41.2167 28.4182L41.2875 28.4998L41.3565 28.5795C41.3852 28.6128 41.4139 28.6471 41.442 28.6814C41.5072 28.7608 41.5606 28.7505 41.6276 28.674C41.7904 28.4893 41.9563 28.3069 42.1225 28.1242C42.1596 28.0834 42.1968 28.0426 42.2339 28.0017L42.2896 27.9403L42.335 27.8901C42.3498 27.8743 42.3666 27.8605 42.3891 27.8422L42.3893 27.842C42.403 27.8309 42.4188 27.818 42.4375 27.8019C42.4393 27.8262 42.4413 27.8475 42.4431 27.8668L42.4433 27.8692L42.4434 27.8705L42.4436 27.8717C42.4469 27.9074 42.4497 27.9363 42.4497 27.9655V29.5467C42.4497 29.7426 42.4336 29.7564 42.2709 29.7505C42.1387 29.7461 42.114 29.7015 42.1164 29.5227C42.1193 29.3181 42.1183 29.1134 42.1173 28.9088C42.1169 28.8065 42.1164 28.7042 42.1164 28.602L42.0765 28.5854Z" fill="black"/>
<path d="M44.5655 27.8014L45.7567 28.9984L45.8019 28.9847V27.9278C45.8019 27.8205 45.8432 27.7931 45.9962 27.7887C46.0968 27.7857 46.1478 27.8279 46.1464 27.9317L46.1439 28.0738C46.1402 28.2896 46.1365 28.5053 46.1357 28.7211C46.1357 28.8646 46.1364 29.0081 46.1371 29.1516C46.1379 29.2953 46.1386 29.4391 46.1386 29.5829C46.1379 29.5964 46.137 29.6099 46.1359 29.6234C46.1348 29.6366 46.1336 29.6497 46.1321 29.6628C46.1297 29.6841 46.1269 29.7053 46.1235 29.7265L44.9192 28.5466C44.9168 28.5704 44.9145 28.5906 44.9124 28.6084C44.9108 28.6223 44.9094 28.6347 44.9083 28.6464C44.9075 28.6543 44.9068 28.6618 44.9064 28.6692L44.9058 28.679L44.9055 28.6868C44.9039 28.7692 44.9018 28.8516 44.8997 28.9341L44.8997 28.935C44.894 29.1601 44.8883 29.3854 44.8905 29.6104C44.8905 29.7309 44.8419 29.7573 44.7374 29.7573C44.6009 29.7544 44.5625 29.7274 44.5625 29.6157C44.5625 29.0729 44.564 28.5297 44.5669 27.9861L44.5655 27.8014Z" fill="black"/>
<path d="M19.1331 28.0195V28.797H19.1375C19.1375 28.8859 19.1378 28.9747 19.1382 29.0635L19.1382 29.0729C19.139 29.2565 19.1397 29.4401 19.1375 29.6236C19.1365 29.725 19.1802 29.7642 19.2774 29.7569C19.3096 29.753 19.3421 29.7519 19.3746 29.7534C19.4557 29.7623 19.4761 29.727 19.4761 29.6481C19.4741 29.5252 19.4758 29.4023 19.4776 29.2794L19.4784 29.2195L19.4792 29.1589C19.4797 29.1152 19.48 29.0715 19.48 29.0278C19.4795 28.9479 19.5072 28.9048 19.5908 28.9048H20.2709C20.3453 28.9048 20.3564 28.9396 20.3564 29.0028V29.5976C20.3564 29.7442 20.3636 29.7446 20.5627 29.7557L20.5663 29.7559C20.6853 29.7627 20.6975 29.703 20.6975 29.6089C20.6955 29.3933 20.6962 29.1775 20.6968 28.9618L20.6972 28.8214C20.6974 28.7603 20.6975 28.6993 20.6975 28.6383C20.6975 28.5602 20.6982 28.4821 20.6989 28.404C20.7003 28.2477 20.7017 28.0915 20.6975 27.9357C20.6936 27.8009 20.663 27.7916 20.4769 27.796C20.372 27.7995 20.3501 27.8568 20.3501 27.9464C20.3505 27.9693 20.3508 27.9922 20.351 28.015L20.3514 28.0558L20.352 28.1303L20.3525 28.2098C20.3529 28.2696 20.3532 28.3294 20.3538 28.3891C20.3542 28.4281 20.3547 28.467 20.3555 28.506C20.3569 28.581 20.3297 28.6182 20.2505 28.6182H19.5869C19.5126 28.6182 19.481 28.5912 19.481 28.5094C19.4868 28.3397 19.4839 28.1699 19.481 28.0002V27.9994C19.4781 27.798 19.4717 27.7931 19.274 27.8063C19.1525 27.8141 19.1331 27.8391 19.1331 28.0195Z" fill="black"/>
<path d="M23.235 27.8181L24.4068 28.9911C24.4233 28.9734 24.4374 28.9651 24.4374 28.9568C24.4403 28.8619 24.4433 28.767 24.4458 28.672C24.4467 28.6379 24.4476 28.6038 24.4484 28.5697L24.4498 28.504C24.4509 28.4488 24.4518 28.3936 24.4525 28.3384C24.4525 28.2653 24.4514 28.192 24.4503 28.1188C24.4493 28.0546 24.4483 27.9904 24.4481 27.9263C24.4481 27.8176 24.4967 27.7872 24.6546 27.7882C24.7518 27.7882 24.7935 27.8401 24.7921 27.9352C24.7903 28.0623 24.788 28.1895 24.7858 28.3167V28.3172C24.7821 28.53 24.7784 28.743 24.7765 28.9558C24.7752 29.0703 24.7753 29.185 24.7762 29.2997C24.7765 29.3472 24.777 29.3946 24.7775 29.4421C24.7779 29.4861 24.7784 29.5301 24.779 29.5741V29.7152L24.7391 29.7368L23.5863 28.5648L23.5416 28.5765V29.2875C23.5416 29.4124 23.5416 29.5383 23.5338 29.6633C23.5267 29.754 23.4604 29.754 23.3972 29.754C23.3867 29.754 23.3762 29.754 23.3662 29.7544C23.287 29.7544 23.2092 29.7412 23.2092 29.6452C23.2092 29.1719 23.2125 28.6989 23.2158 28.2258V28.2253C23.2167 28.0961 23.2176 27.9669 23.2185 27.8377C23.219 27.8318 23.2282 27.8264 23.235 27.8181Z" fill="black"/>
<path d="M53.0855 28.9856L51.8991 27.7995C51.8938 27.845 51.8889 27.8681 51.8889 27.8911V28.7774L51.8885 28.849L51.8879 28.9145L51.8854 29.141C51.8835 29.3025 51.8816 29.464 51.8816 29.6255C51.8811 29.7363 51.9618 29.7569 52.0458 29.7549L52.0585 29.7546C52.1379 29.7531 52.212 29.7517 52.212 29.6349C52.2105 29.5016 52.212 29.3678 52.2154 29.2341C52.2194 29.0686 52.2245 28.9034 52.2301 28.7227L52.2358 28.5383L53.4149 29.7353L53.4533 29.7098V28.9239C53.4551 28.7464 53.458 28.5689 53.461 28.3914C53.4635 28.2368 53.466 28.0823 53.4679 27.9278C53.4708 27.8338 53.4222 27.7818 53.325 27.7896C53.3124 27.7906 53.2992 27.791 53.286 27.7915C53.2057 27.7942 53.1219 27.797 53.1219 27.919C53.1197 28.0588 53.1204 28.1986 53.1212 28.3384C53.1216 28.4083 53.1219 28.4782 53.1219 28.5481V28.9773L53.0855 28.9856Z" fill="black"/>
<path d="M13.5402 28.579V29.3012C13.5427 29.4225 13.5392 29.5438 13.5295 29.6647C13.5191 29.762 13.4511 29.758 13.3866 29.7541H13.3857C13.3693 29.7531 13.3531 29.7521 13.3381 29.7529C13.2643 29.7569 13.203 29.7162 13.203 29.6319C13.203 29.2527 13.2084 28.8734 13.2113 28.4942V27.9117C13.2113 27.8945 13.2127 27.8774 13.2145 27.8583L13.2152 27.8512C13.2163 27.8389 13.2175 27.8257 13.2186 27.8112L14.4069 28.9979L14.4443 28.9886V27.9259C14.4443 27.8166 14.4929 27.7867 14.6508 27.7882C14.748 27.7882 14.7883 27.8401 14.7869 27.9352C14.7841 28.1279 14.7812 28.3207 14.7787 28.5135C14.7777 28.5891 14.7767 28.6647 14.7759 28.7404C14.7751 28.812 14.7744 28.8836 14.7737 28.9553C14.7737 29.166 14.7737 29.3762 14.7762 29.5868C14.7762 29.5975 14.7759 29.6081 14.7755 29.6188L14.7751 29.6291L14.7746 29.6394C14.7743 29.6465 14.7738 29.6536 14.7734 29.6607L14.7727 29.6725C14.7718 29.6868 14.771 29.701 14.7703 29.7152L14.7363 29.7363L13.5849 28.5677L13.5402 28.579Z" fill="black"/>
<path d="M12.3261 27.9386C12.329 28.1248 12.3261 28.311 12.3261 28.4972L12.3397 28.4932V28.6892C12.3385 28.7295 12.3377 28.7698 12.337 28.8102C12.3349 28.9237 12.3328 29.0373 12.3188 29.1493C12.295 29.3409 12.1104 29.4648 11.9209 29.4648C11.5503 29.4609 11.457 29.2546 11.4531 28.9808C11.4463 28.6407 11.4477 28.3007 11.4531 27.9606C11.4545 27.8583 11.4439 27.7853 11.3166 27.7853C11.1504 27.7853 11.1077 27.8181 11.1077 27.9587L11.1081 28.0012L11.1098 28.1573C11.1119 28.3381 11.114 28.5192 11.114 28.6985C11.1095 28.852 11.1131 29.0056 11.1247 29.1586C11.1538 29.409 11.2641 29.6079 11.5133 29.7137C11.7218 29.8039 11.9331 29.7956 12.1449 29.7627C12.3796 29.727 12.6356 29.4957 12.6536 29.2287C12.6672 29.019 12.6774 28.8083 12.6808 28.5981C12.682 28.5194 12.6792 28.4406 12.6763 28.3618C12.6724 28.2546 12.6685 28.1475 12.675 28.041L12.676 28.0236C12.6897 27.8041 12.69 27.8001 12.4607 27.8044H12.4486C12.3504 27.7965 12.3261 27.8485 12.3261 27.9386Z" fill="black"/>
<path d="M26.6351 28.1343C26.7052 28.1453 26.7768 28.1565 26.8506 28.166C26.8511 28.1582 26.8515 28.1489 26.852 28.1387V28.1384C26.8531 28.114 26.8544 28.084 26.8588 28.0547C26.8792 27.9274 26.8306 27.8489 26.7014 27.8318C26.5466 27.8058 26.3906 27.7878 26.234 27.7779C25.8143 27.7647 25.5145 27.9631 25.3352 28.337C25.1492 28.725 25.1973 29.1057 25.4659 29.4301C25.8371 29.8794 26.3929 29.8539 26.8413 29.6682C26.8608 29.658 26.8775 29.6433 26.8901 29.6252C26.9027 29.6071 26.9108 29.5862 26.9137 29.5643C26.9186 29.3659 26.9205 29.1645 26.9079 28.9685C26.9006 28.8615 26.8215 28.8658 26.7506 28.8696C26.7322 28.8706 26.7144 28.8716 26.6985 28.8705C26.6213 28.8656 26.5931 28.9092 26.5931 28.9847C26.5943 29.0356 26.5938 29.0875 26.5932 29.1389V29.1393C26.5928 29.173 26.5924 29.2066 26.5926 29.2395C26.5927 29.2527 26.5928 29.2657 26.5931 29.2787C26.595 29.3732 26.5571 29.4306 26.4599 29.4492C26.2345 29.4903 26.0256 29.4884 25.8313 29.3306C25.6146 29.1542 25.5237 28.8549 25.6146 28.5383C25.6851 28.2909 25.9323 28.0822 26.1976 28.0861C26.341 28.0884 26.4843 28.1108 26.6345 28.1342L26.6348 28.1343H26.6351Z" fill="black"/>
<path d="M48.971 29.7534C48.9184 29.7534 48.8657 29.7529 48.8131 29.7523C48.7079 29.7513 48.6027 29.7502 48.4978 29.7534C48.3812 29.7583 48.3336 29.7045 48.3341 29.5957C48.3341 29.4908 48.3352 29.3859 48.3363 29.2809C48.3374 29.1759 48.3385 29.0709 48.3385 28.9661C48.3385 28.6069 48.3385 28.2483 48.3326 27.8881C48.3326 27.8009 48.3812 27.7857 48.4482 27.7867C48.7704 27.7906 49.0929 27.7965 49.4151 27.7999H49.4252C49.4969 27.7997 49.5611 27.7995 49.5671 27.9053C49.5734 28.016 49.5302 28.0709 49.4262 28.0743C49.3048 28.0786 49.183 28.0793 49.0612 28.0799L48.9831 28.0803C48.9653 28.0804 48.9475 28.0805 48.9297 28.0807C48.9192 28.0807 48.9086 28.0793 48.8979 28.0778C48.8843 28.076 48.8706 28.0742 48.8573 28.0753C48.832 28.0772 48.8099 28.078 48.7906 28.0786C48.6866 28.082 48.6657 28.0826 48.68 28.2541C48.6813 28.2898 48.6816 28.3255 48.6809 28.3612C48.6802 28.4025 48.6781 28.4437 48.6746 28.4849C48.6746 28.5721 48.6994 28.6157 48.8024 28.6118C48.9184 28.608 49.0345 28.613 49.1508 28.618L49.1647 28.6185C49.1879 28.6195 49.2112 28.6205 49.2344 28.6214C49.2676 28.6227 49.3007 28.6238 49.3339 28.6246C49.4219 28.6246 49.4242 28.6865 49.4264 28.7451L49.4269 28.7574L49.4272 28.7632C49.4321 28.8436 49.3995 28.898 49.3106 28.8984C49.2581 28.8984 49.2056 28.899 49.1531 28.8997C49.1027 28.9002 49.0522 28.9008 49.0018 28.9008C48.9706 28.9009 48.9394 28.9007 48.9081 28.9002C48.8847 28.8998 48.8613 28.8992 48.8379 28.8984C48.7257 28.8926 48.6824 28.9376 48.6839 29.0454C48.688 29.1466 48.6856 29.2479 48.6766 29.3487C48.6654 29.4467 48.7125 29.4693 48.7951 29.4678C49.0172 29.4639 49.2392 29.4604 49.4607 29.4609C49.5856 29.4609 49.6254 29.5099 49.6128 29.6358C49.604 29.7177 49.5671 29.7598 49.4802 29.7583C49.4106 29.7571 49.3408 29.7569 49.2711 29.7571C49.2493 29.7571 49.2274 29.7572 49.2056 29.7574L49.1402 29.7577C49.0837 29.758 49.0273 29.7583 48.971 29.7583V29.7534Z" fill="black"/>
<path d="M54.5191 29.7523C54.5717 29.7529 54.6242 29.7534 54.6766 29.7534L54.679 29.7529C54.7353 29.7529 54.7918 29.7526 54.8483 29.7523C54.9096 29.7519 54.971 29.7516 55.0324 29.7516C55.0844 29.7517 55.1363 29.752 55.1882 29.7529C55.2042 29.7549 55.2205 29.7534 55.2359 29.7485C55.2429 29.7463 55.2497 29.7434 55.2561 29.7399C55.2638 29.7358 55.2711 29.7307 55.2777 29.7248C55.2898 29.714 55.2995 29.7008 55.3062 29.686C55.3092 29.6793 55.3116 29.6724 55.3132 29.6653C55.3146 29.6596 55.3155 29.6539 55.316 29.648C55.3163 29.6449 55.3164 29.6419 55.3165 29.6388C55.3354 29.5133 55.2902 29.4555 55.161 29.4555C54.9492 29.455 54.7393 29.4555 54.5294 29.4634C54.4201 29.4688 54.3599 29.4438 54.3764 29.3164C54.3846 29.2276 54.3866 29.1384 54.3822 29.0493C54.3817 28.9401 54.4211 28.8867 54.542 28.8945C54.5894 28.8969 54.6369 28.8978 54.6845 28.898C54.7407 28.8982 54.797 28.8973 54.8532 28.8964L54.8572 28.8963L54.9279 28.8952C54.9568 28.8948 54.9858 28.8945 55.0148 28.8945C55.1124 28.8945 55.1304 28.8313 55.1294 28.7475C55.1284 28.6637 55.1012 28.6221 55.0089 28.6221C54.8277 28.6231 54.6465 28.6206 54.4658 28.6069C54.4337 28.6069 54.3851 28.5471 54.3807 28.5089C54.3748 28.4607 54.3767 28.4117 54.3785 28.3624C54.3803 28.3144 54.3821 28.2662 54.3769 28.2179C54.3657 28.1062 54.4079 28.0777 54.5114 28.0777C54.7131 28.0831 54.9152 28.0817 55.1168 28.0777C55.2159 28.0763 55.2708 28.0341 55.2693 27.918C55.2679 27.8019 55.1984 27.8019 55.1148 27.8019C55.0128 27.8011 54.9107 27.8 54.8087 27.7987C54.6648 27.7968 54.521 27.7945 54.3771 27.7923L54.148 27.7887C54.0591 27.7872 54.0295 27.8269 54.0358 27.9165C54.046 28.0694 54.046 28.2228 54.046 28.3761C54.0448 28.6349 54.0422 28.894 54.0395 29.1533V29.1559C54.038 29.3043 54.0366 29.4526 54.0353 29.601C54.0348 29.7142 54.0912 29.7578 54.2039 29.7534C54.3082 29.7502 54.4128 29.7513 54.5172 29.7523H54.5191Z" fill="black"/>
<path d="M34.8648 29.7539C34.8122 29.7539 34.7596 29.7534 34.707 29.7529C34.6634 29.7525 34.6198 29.7521 34.5762 29.752C34.5147 29.7518 34.4532 29.7522 34.3917 29.7539C34.2828 29.7578 34.2347 29.7113 34.2352 29.6069C34.2362 29.4982 34.2369 29.3895 34.2375 29.2808L34.238 29.1833C34.2383 29.1061 34.2385 29.029 34.2386 28.9518C34.2386 28.6035 34.2386 28.2556 34.2347 27.9077C34.2347 27.821 34.2663 27.7892 34.346 27.7906L34.5435 27.7937C34.6856 27.7959 34.8277 27.7981 34.9698 27.8001C35.0205 27.8008 35.0712 27.8015 35.1219 27.8021C35.1857 27.8029 35.2495 27.8037 35.3133 27.8043H35.3241C35.3959 27.8041 35.462 27.8038 35.4634 27.9097C35.4649 28.0209 35.4313 28.0763 35.3118 28.0797C35.1141 28.0851 34.9163 28.0846 34.7186 28.0797C34.6122 28.0797 34.5622 28.1062 34.5772 28.2267C34.5831 28.2758 34.581 28.3249 34.5789 28.3736C34.5769 28.4221 34.5748 28.4703 34.5806 28.5177C34.586 28.5403 34.5969 28.5612 34.6125 28.5784C34.628 28.5955 34.6477 28.6084 34.6695 28.6157C34.8464 28.6294 35.0237 28.6334 35.201 28.6309C35.2982 28.6309 35.3298 28.6731 35.3308 28.7613C35.3317 28.8494 35.304 28.9053 35.2093 28.9082C35.1567 28.9082 35.104 28.9088 35.0514 28.9093H35.0493C34.9448 28.9104 34.8404 28.9115 34.7361 28.9082C34.6258 28.9033 34.5797 28.9469 34.5816 29.0552C34.5853 29.1565 34.5837 29.2579 34.5768 29.359C34.5675 29.457 34.6146 29.479 34.6972 29.4776C34.9154 29.4737 35.1345 29.4707 35.3512 29.4702C35.4848 29.4702 35.5144 29.5065 35.5091 29.6383C35.5052 29.7289 35.4663 29.7701 35.374 29.7686C35.3579 29.7683 35.3418 29.7681 35.3257 29.7679L35.292 29.7676C35.2617 29.7674 35.2314 29.7673 35.201 29.7673C35.1454 29.7673 35.0897 29.7676 35.0341 29.768L34.9794 29.7683C34.9412 29.7685 34.903 29.7686 34.8648 29.7686V29.7539Z" fill="black"/>
<path d="M30.3039 27.8822L30.3039 28.8899C30.3039 29.0836 30.304 29.2759 30.3031 29.4688L30.3027 29.5484L30.3024 29.5971C30.3024 29.6907 30.3311 29.7549 30.4399 29.7549C30.7751 29.7549 31.1107 29.7564 31.4465 29.7593C31.5291 29.7598 31.5724 29.726 31.5777 29.6383C31.5855 29.4991 31.5554 29.4614 31.4164 29.4614C31.1988 29.4617 30.9808 29.4642 30.7625 29.4687C30.677 29.4702 30.6352 29.4457 30.6435 29.3477C30.6498 29.2718 30.6493 29.196 30.6487 29.1201C30.6485 29.098 30.6483 29.0759 30.6483 29.0538C30.6473 28.9465 30.6882 28.8901 30.8086 28.8975C30.8259 28.8985 30.8431 28.8993 30.8604 28.8999C30.9026 28.9014 30.945 28.9018 30.9874 28.9018C31.0201 28.9017 31.0528 28.9014 31.0856 28.9011C31.1427 28.9005 31.1999 28.9 31.2571 28.9009C31.362 28.9043 31.4028 28.8553 31.4028 28.7539C31.4028 28.6525 31.3542 28.6236 31.2571 28.6275C31.1319 28.6309 31.0067 28.627 30.882 28.6157C30.876 28.6152 30.8698 28.6148 30.8634 28.6144L30.8513 28.6136L30.848 28.6135L30.8442 28.6132L30.84 28.613C30.771 28.6089 30.6929 28.6044 30.6648 28.5667C30.6359 28.5274 30.6403 28.4621 30.6447 28.3981C30.6463 28.3752 30.6478 28.3524 30.6478 28.3311C30.6454 28.0713 30.6459 28.0713 30.8984 28.0821L30.9112 28.0827C31.0763 28.0895 31.242 28.0831 31.4077 28.0763C31.5112 28.0719 31.5384 28.0038 31.5354 27.9067C31.5325 27.8097 31.4723 27.8024 31.395 27.8024C31.1908 27.8012 30.9863 27.798 30.7819 27.7949H30.7774C30.6566 27.793 30.5358 27.7911 30.4151 27.7896C30.3524 27.7887 30.3039 27.8009 30.3039 27.8822Z" fill="black"/>
<path fill-rule="evenodd" clip-rule="evenodd" d="M16.1014 27.8912L16.1018 27.8919C16.1393 27.9577 16.1726 28.0159 16.2001 28.0768C16.2906 28.2734 16.3798 28.4708 16.4689 28.6683C16.5478 28.8428 16.6266 29.0174 16.7064 29.1914C16.7734 29.3384 16.8448 29.4825 16.9177 29.626C16.9702 29.7284 16.9289 29.7539 16.8303 29.7549H16.8079C16.6247 29.7552 16.6172 29.7552 16.549 29.5746C16.4931 29.4276 16.4212 29.3404 16.2405 29.3644C16.1401 29.378 16.0378 29.3748 15.9354 29.3717H15.9329L15.9246 29.3714C15.9049 29.3708 15.8852 29.3702 15.8655 29.3697C15.8251 29.3688 15.7847 29.3685 15.7444 29.3698C15.6975 29.3799 15.6558 29.4067 15.6269 29.4452C15.5957 29.4878 15.5708 29.5347 15.553 29.5844C15.4733 29.7603 15.4102 29.7887 15.2212 29.7407C15.1556 29.7245 15.142 29.6917 15.1687 29.6373C15.2606 29.4438 15.3525 29.2506 15.4444 29.0573L15.6793 28.5638C15.7464 28.4216 15.8118 28.2788 15.8771 28.1361C15.8999 28.0861 15.9228 28.0361 15.9457 27.9861C15.9602 27.9546 15.9747 27.9231 15.9893 27.8916C15.9937 27.8819 15.9984 27.8723 16.0043 27.8608C16.0091 27.8513 16.0147 27.8405 16.0216 27.8273L16.0224 27.8257L16.0427 27.7867C16.0632 27.8242 16.0828 27.8586 16.1014 27.8912ZM16.3162 29.0978C16.2842 29.0159 16.2533 28.9366 16.2231 28.859L16.0704 28.4668L16.0243 28.4746L15.776 29.0978H16.3162Z" fill="black"/>
<path fill-rule="evenodd" clip-rule="evenodd" d="M21.9475 27.7745L21.0395 29.7279C21.2941 29.7941 21.3514 29.7696 21.4568 29.5805C21.4845 29.5407 21.507 29.4976 21.5239 29.4521C21.5443 29.3688 21.5977 29.3624 21.6696 29.3624C21.8267 29.367 21.984 29.368 22.1414 29.3654H22.1428C22.3586 29.362 22.3621 29.3619 22.4397 29.5638C22.4785 29.6649 22.498 29.7155 22.5347 29.7393C22.5715 29.763 22.6257 29.7598 22.7341 29.7534C22.8434 29.7475 22.8619 29.7172 22.8172 29.6192C22.5526 29.0423 22.2858 28.4663 22.017 27.8911C22.0092 27.8738 21.9991 27.8576 21.9825 27.8311L21.9822 27.8307C21.9729 27.8158 21.9616 27.7977 21.9475 27.7745ZM21.9383 28.4844H21.9757L22.2342 29.1018H21.6726C21.7152 29.0029 21.756 28.9083 21.7958 28.8159L21.9383 28.4844Z" fill="black"/>
<path d="M32.9593 28.6648C32.9596 28.743 32.9599 28.8212 32.9599 28.8994H32.9614V29.5913C32.9623 29.75 32.9682 29.75 33.128 29.75H33.1887C33.2708 29.7446 33.315 29.7045 33.3078 29.6172C33.3067 29.6029 33.3056 29.5886 33.3045 29.5744L33.3031 29.5572L33.3017 29.5393C33.2991 29.5048 33.2971 29.4702 33.2971 29.4355L33.2972 29.361C33.2981 28.9689 33.299 28.5772 33.3068 28.1856C33.3131 28.1637 33.3248 28.1439 33.3407 28.1279C33.3567 28.1118 33.3765 28.1002 33.3981 28.0939C33.47 28.0871 33.5425 28.0894 33.6151 28.0916C33.6515 28.0928 33.6878 28.0939 33.7241 28.0939C33.865 28.093 33.8801 28.068 33.8801 27.9019C33.8801 27.7859 33.8094 27.7878 33.7385 27.7897C33.7324 27.7898 33.7264 27.79 33.7204 27.7901L33.7115 27.7902H32.528C32.4211 27.7902 32.3939 27.8529 32.3929 27.9474C32.392 28.042 32.4333 28.0851 32.5207 28.0851C32.6295 28.09 32.7389 28.0974 32.8472 28.09C32.9332 28.0841 32.9599 28.1101 32.9599 28.1958C32.958 28.3523 32.9586 28.5085 32.9593 28.6648Z" fill="black"/>
<path d="M56.4358 28.9033C56.4358 28.9633 56.436 29.0233 56.4363 29.0833C56.4365 29.1547 56.4368 29.2261 56.4367 29.2975C56.4365 29.3971 56.4356 29.4966 56.4329 29.5961C56.4329 29.6451 56.3999 29.7216 56.3683 29.7299C56.2865 29.7455 56.2027 29.7468 56.1205 29.7338C56.1079 29.7338 56.0938 29.6701 56.0938 29.6358V28.603C56.0938 28.5551 56.0934 28.5072 56.0929 28.4594L56.0916 28.3442C56.0911 28.2891 56.0907 28.2339 56.0909 28.1787C56.0909 28.1115 56.0637 28.0875 55.9937 28.0895C55.8771 28.0934 55.7595 28.0895 55.6425 28.0846C55.5599 28.0822 55.5156 28.043 55.522 27.9543L55.5222 27.9508C55.5284 27.8636 55.5337 27.7892 55.6488 27.7901H56.822C56.8345 27.7901 56.8476 27.7894 56.8606 27.7886C56.9315 27.7844 57.0041 27.7801 57.0062 27.8979C57.0086 28.067 56.9892 28.0939 56.839 28.0939C56.7419 28.0939 56.6447 28.0895 56.5476 28.0861C56.4596 28.0831 56.4295 28.1214 56.4319 28.2115C56.4358 28.3654 56.4345 28.5195 56.4332 28.6735L56.4326 28.7483L56.4322 28.8054L56.432 28.846L56.432 28.8706L56.4319 28.9043L56.4358 28.9033Z" fill="black"/>
<path d="M37.8362 28.1998C37.8338 28.4379 37.8362 28.6765 37.8362 28.9146V28.9102C37.8362 28.9534 37.8365 28.9966 37.8369 29.0397L37.8373 29.0903L37.8379 29.141C37.8387 29.2075 37.8394 29.2739 37.8396 29.3404C37.8398 29.4278 37.8391 29.5152 37.8362 29.6025C37.8313 29.7387 37.8964 29.7564 38.0072 29.7495C38.1554 29.7402 38.184 29.7216 38.184 29.5981C38.184 29.1287 38.1829 28.6594 38.1806 28.19C38.1806 28.1184 38.2049 28.0851 38.2778 28.0851L38.3212 28.0861L38.3363 28.0865C38.3686 28.0872 38.4008 28.088 38.4331 28.0887C38.4521 28.0891 38.4711 28.0894 38.49 28.0897L38.5295 28.0902L38.5681 28.0904L38.5921 28.0905C38.7369 28.0905 38.7612 28.0582 38.7564 27.8945C38.753 27.7819 38.6822 27.7849 38.6135 27.7878C38.6027 27.7882 38.5919 27.7887 38.5815 27.7887C38.4555 27.7867 38.3292 27.7874 38.2031 27.788L38.0966 27.7885L38.0546 27.7887L37.4101 27.7887C37.3086 27.7882 37.2712 27.8406 37.2702 27.9386C37.2692 28.0366 37.3023 28.0856 37.3994 28.0856C37.4122 28.0858 37.425 28.0862 37.4377 28.0866L37.4731 28.0879H37.4734L37.5341 28.0904L37.5594 28.0914C37.5723 28.0918 37.5851 28.0922 37.598 28.0925C37.6247 28.093 37.6514 28.0931 37.6781 28.0924C37.694 28.0919 37.71 28.0912 37.7259 28.09C37.8158 28.0836 37.8362 28.1175 37.8362 28.1998Z" fill="black"/>
<path d="M47.0624 28.6755C47.0616 28.5187 47.0609 28.362 47.0631 28.2052C47.0631 28.116 47.0418 28.0822 46.9465 28.09C46.8418 28.0941 46.7369 28.0928 46.6322 28.0861C46.5404 28.0861 46.4918 28.0483 46.4947 27.9455C46.4976 27.8426 46.5248 27.7892 46.6312 27.7896H47.2482C47.2957 27.7896 47.343 27.7895 47.3904 27.7892L47.434 27.789C47.5575 27.7883 47.6809 27.7877 47.8045 27.7896C47.8159 27.7896 47.8277 27.789 47.8396 27.7884C47.907 27.7847 47.9768 27.7809 47.9814 27.8926C47.9877 28.0606 47.9658 28.092 47.8205 28.093C47.7669 28.093 47.7133 28.092 47.6597 28.0909L47.6007 28.0896C47.569 28.0889 47.5374 28.0881 47.5057 28.0876C47.4358 28.0876 47.4042 28.117 47.4042 28.1905C47.4066 28.6525 47.4081 29.115 47.4042 29.5775C47.4042 29.6265 47.3852 29.7152 47.358 29.7245C47.2729 29.7439 47.1851 29.7479 47.0986 29.7363C47.0831 29.7363 47.0646 29.6599 47.0636 29.6182C47.0617 29.4614 47.0623 29.3046 47.063 29.1478L47.0635 29.0105C47.0636 28.9779 47.0636 28.9453 47.0636 28.9127L47.0631 28.9107C47.0631 28.8323 47.0628 28.7539 47.0624 28.6755Z" fill="black"/>
<path d="M40.056 29.3997V28.3218L40.0623 28.3193C40.0623 28.2822 40.0628 28.2449 40.0632 28.2077C40.0638 28.1602 40.0644 28.1128 40.064 28.0653C40.0639 28.0523 40.0637 28.0393 40.0635 28.0263C40.0631 28.0083 40.0626 27.9903 40.0618 27.9724C40.0614 27.9625 40.0609 27.9525 40.0604 27.9427C40.0599 27.9348 40.0594 27.9269 40.0589 27.919C40.0565 27.8803 40.0142 27.8122 39.986 27.8122C39.8998 27.8092 39.8135 27.8164 39.729 27.8338C39.7236 27.8344 39.7183 27.8507 39.7151 27.8684C39.7143 27.8731 39.7136 27.8779 39.7131 27.8825L39.7126 27.8873L39.7123 27.8913C39.7121 27.894 39.712 27.8966 39.712 27.8989C39.712 27.9421 39.7119 27.9851 39.7118 28.0282L39.7114 28.2012C39.7107 28.4025 39.7101 28.6038 39.712 28.8054C39.7131 28.9311 39.7165 29.0567 39.7198 29.1824C39.7217 29.2506 39.7235 29.3189 39.725 29.3871C39.726 29.4351 39.7268 29.4831 39.7274 29.5311C39.7278 29.5678 39.728 29.6045 39.728 29.6412C39.7285 29.7578 39.7951 29.7637 39.8816 29.7578C39.8859 29.7575 39.8903 29.7573 39.8947 29.7571C39.9027 29.7568 39.9108 29.7566 39.9188 29.7564C39.9956 29.7546 40.0727 29.7528 40.0652 29.6295L40.064 29.608C40.0613 29.5611 40.0586 29.5143 40.0571 29.4675L40.0566 29.4489L40.0562 29.43L40.056 29.4136L40.056 29.3997Z" fill="black"/>
<path d="M43.9703 28.3315V29.3992C43.9703 29.4795 43.9752 29.5604 43.9776 29.6412C43.9809 29.7557 43.9075 29.7568 43.8374 29.7578H43.8362C43.8229 29.7581 43.8098 29.7583 43.7974 29.7593C43.7187 29.7657 43.64 29.7622 43.639 29.6466C43.639 29.4879 43.6364 29.3292 43.6338 29.1704L43.6326 29.0976L43.6312 29.0084C43.6301 28.9301 43.6292 28.8518 43.6288 28.7735C43.6286 28.7445 43.6285 28.7156 43.6285 28.6868C43.6284 28.6488 43.6284 28.6108 43.6285 28.573L43.629 28.3762C43.6292 28.3237 43.6294 28.2713 43.6295 28.219L43.6296 28.1443C43.6296 28.1125 43.6296 28.0807 43.6295 28.0489C43.6294 28.0042 43.6292 27.9594 43.6288 27.9146C43.6288 27.8347 43.655 27.8009 43.7318 27.8034H43.8168C43.9514 27.8034 43.9786 27.8293 43.9825 27.966C43.9837 28.0157 43.9839 28.0657 43.9837 28.1156C43.9836 28.147 43.9834 28.1783 43.9831 28.2094V28.2106C43.9828 28.2509 43.9825 28.2909 43.9825 28.3306L43.9703 28.3315Z" fill="black"/>
<path d="M27.3694 27.9048V28.7676H27.3757C27.3757 29.0351 27.3723 29.3027 27.3757 29.5702C27.3757 29.7461 27.3961 29.7662 27.5472 29.7598C27.7051 29.7559 27.7168 29.7397 27.7168 29.5574V27.943C27.7178 27.8386 27.6697 27.7945 27.5672 27.8038C27.5469 27.8055 27.5265 27.8053 27.506 27.8048L27.4872 27.8043C27.4776 27.804 27.468 27.8038 27.4583 27.8038C27.3898 27.8034 27.3694 27.8401 27.3694 27.9048Z" fill="black"/>
<path d="M22.0666 27.3967C22.0661 27.5065 22.1117 27.5437 22.239 27.5437C22.3687 27.5422 22.4134 27.5045 22.4115 27.3967C22.4086 27.2742 22.3585 27.2184 22.2473 27.2184C22.1113 27.2169 22.0666 27.2605 22.0666 27.3967Z" fill="black"/>
<path d="M47.2188 15H7V33.45H61V15H49.6375V16.125H59.875V32.325H8.125V16.125H47.2188V15Z" fill="black"/>
<path d="M49.1875 17.925V15H47.6688V17.925H49.1875Z" fill="black"/>
<path d="M15.4591 19.6789L15.4577 19.6784C15.2629 19.6131 15.0731 19.5495 14.8784 19.5116C14.3601 19.4012 13.8215 19.4349 13.321 19.609C12.5276 19.894 12.1223 20.4859 12.016 21.3006C11.9506 21.7416 11.9939 22.1919 12.142 22.6123C12.4327 23.4079 13.0173 23.8292 13.8522 23.8971C14.0251 23.9116 14.2009 23.892 14.3764 23.8725L14.3795 23.8722L14.3808 23.8721C14.449 23.8645 14.5172 23.8569 14.5851 23.8515C14.7136 23.8411 14.7748 23.7867 14.7696 23.6364L14.7664 23.551C14.753 23.1851 14.7372 22.7559 14.7372 22.4005C14.7372 22.2411 14.4912 22.0462 14.2452 21.8513C13.9993 21.6564 13.7533 21.4615 13.7533 21.3022C13.7533 21.2368 13.7647 21.1985 13.844 21.1985C14.3083 21.2001 14.7724 21.2007 15.2369 21.2013L16.0725 21.2026C16.0856 21.2056 16.0983 21.2101 16.1103 21.2161C16.1111 21.2265 16.1121 21.2373 16.1132 21.2484L16.1133 21.2498C16.1143 21.2607 16.1153 21.2718 16.1162 21.2831C16.1168 21.2901 16.1173 21.2971 16.1177 21.3042C16.1186 21.318 16.1191 21.3321 16.1191 21.3462C16.1191 22.4314 16.1191 23.5172 16.1223 24.6024C16.1223 24.7113 16.0844 24.7496 15.9859 24.7771C15.1432 25.0093 14.2881 25.1363 13.4138 25.0414C11.9513 24.8828 10.8614 24.0008 10.611 22.4791C10.4913 21.7536 10.5234 21.0358 10.7706 20.3392C11.1039 19.4006 11.7714 18.7932 12.7115 18.4968C13.7419 18.1723 14.7773 18.2102 15.8066 18.5248C15.9191 18.559 15.9393 18.6098 15.917 18.7212C15.8728 18.9425 15.8356 19.1661 15.7984 19.3898C15.7834 19.4803 15.7682 19.5716 15.7527 19.6618C15.7424 19.7012 15.7341 19.7427 15.7299 19.767C15.6388 19.739 15.5495 19.7092 15.4613 19.6796L15.4591 19.6789Z" fill="#C1081A"/>
<path fill-rule="evenodd" clip-rule="evenodd" d="M21.3889 22.9839H18.3658C18.3254 23.3042 18.5555 23.6934 18.881 23.8681C19.1474 24.0111 19.436 24.0464 19.733 24.0433C20.1603 24.0399 20.5817 23.9438 20.968 23.7613C20.9793 23.7951 20.988 23.8298 20.9939 23.865L21.0031 23.9721C21.0235 24.2111 21.044 24.4503 21.0566 24.6895C21.0546 24.7139 21.0468 24.7375 21.0339 24.7583C21.0275 24.7686 21.02 24.7781 21.0115 24.7866C21.0057 24.7923 20.9996 24.7975 20.993 24.8023L20.9895 24.8048C20.9872 24.8063 20.9849 24.8078 20.9825 24.8093C20.4312 25.0272 19.8384 25.1198 19.2469 25.0803C18.8352 25.0658 18.4337 24.9488 18.0787 24.7398C17.5438 24.4169 17.2199 23.9386 17.0795 23.3405C16.9085 22.6082 16.9551 21.8893 17.3013 21.2156C17.7273 20.3864 18.4353 19.9982 19.3588 20.0205C20.371 20.0454 21.0484 20.6186 21.2945 21.6219C21.4017 22.0675 21.4336 22.5278 21.3889 22.9839ZM18.3337 22.051H20.1378C20.1792 21.6577 19.9771 21.2291 19.6687 21.0772C19.3733 20.9321 19.0707 20.9363 18.7965 21.1228C18.4757 21.3379 18.3731 21.6748 18.3337 22.051Z" fill="#C1081A"/>
<path fill-rule="evenodd" clip-rule="evenodd" d="M42.5967 22.9875H39.5727C39.5493 23.382 39.8142 23.7649 40.2127 23.9261C40.5682 24.0692 40.9409 24.0738 41.3088 24.0147C41.5121 23.9819 41.7119 23.9271 41.9167 23.871L41.9219 23.8696L41.9235 23.8691C42.0137 23.8444 42.1048 23.8195 42.1977 23.796L42.2016 23.8449C42.2075 23.919 42.2143 24.0043 42.2215 24.0899C42.226 24.1434 42.2308 24.197 42.2356 24.2506L42.2358 24.2522L42.244 24.3445C42.2463 24.37 42.2485 24.3954 42.2506 24.4209C42.2533 24.4525 42.2559 24.4841 42.2583 24.5157C42.2629 24.5755 42.267 24.6353 42.2702 24.6952C42.2702 24.7165 42.2652 24.7376 42.2556 24.7566C42.246 24.7755 42.232 24.792 42.2148 24.8046C41.313 25.1332 40.4008 25.2363 39.4934 24.8435C38.9409 24.6035 38.5662 24.1759 38.3708 23.6058C38.1013 22.8145 38.1246 22.0246 38.4859 21.2679C38.8974 20.4061 39.6126 19.9992 40.5589 20.0179C41.5918 20.0386 42.291 20.6398 42.518 21.6727C42.6164 22.1037 42.643 22.5479 42.5967 22.9875ZM41.3767 22.051C41.3587 21.9087 41.3335 21.7674 41.3011 21.6276C41.1596 21.1332 40.7491 20.8979 40.2573 21.0057C39.8188 21.1026 39.5353 21.652 39.5649 22.05L41.3767 22.051Z" fill="#C1081A"/>
<path fill-rule="evenodd" clip-rule="evenodd" d="M29.5642 23.9634L29.5644 23.9658C29.5865 24.2218 29.6078 24.4692 29.623 24.7165C29.623 24.7486 29.5712 24.8061 29.5349 24.8154C29.4569 24.8355 29.3789 24.8565 29.3009 24.8774L29.2969 24.8784C29.0354 24.9485 28.7737 25.0186 28.5077 25.058C28.0455 25.1335 27.5719 25.098 27.126 24.9544C26.2077 24.647 25.7215 23.9816 25.5873 23.0471C25.4956 22.4076 25.5629 21.7821 25.8682 21.2016C26.2999 20.3812 26.9991 19.9925 27.9169 20.0148C29.0053 20.0412 29.7251 20.7061 29.9034 21.85C29.9373 22.0625 29.9439 22.2794 29.9506 22.4962C29.952 22.5438 29.9535 22.5914 29.9552 22.6389C29.9564 22.6712 29.9577 22.7034 29.9592 22.7356C29.9609 22.7702 29.9628 22.8048 29.9651 22.8393C29.9723 22.9528 29.9298 22.985 29.8169 22.9844C28.9021 22.9839 27.9879 22.9839 27.0727 22.9839H26.9068C26.9431 23.3783 27.1006 23.68 27.4437 23.8686C27.7029 24.0096 27.9812 24.0453 28.2693 24.0443C28.6759 24.046 29.0783 23.9628 29.451 23.8002C29.4622 23.7951 29.4738 23.7906 29.4885 23.7848L29.4943 23.7826C29.5023 23.7795 29.5112 23.7759 29.5214 23.7718C29.5291 23.7687 29.5375 23.7652 29.5468 23.7613L29.5638 23.9586L29.5642 23.9634ZM28.7176 22.051C28.6964 21.6644 28.6207 21.3125 28.2755 21.1016C28.1406 21.0132 27.9824 20.9672 27.8211 20.9695C27.6598 20.9718 27.503 21.0223 27.3706 21.1145C27.041 21.3296 26.9369 21.6701 26.898 22.051H28.7176Z" fill="#C1081A"/>
<path d="M37.6598 20.1205V21.1907H36.9223C36.6082 21.1907 36.6072 21.1907 36.6082 21.51C36.6082 22.0998 36.6082 22.6895 36.616 23.2793C36.617 23.3826 36.63 23.4854 36.6549 23.5856C36.7248 23.8681 36.8782 23.9899 37.1731 23.993C37.2822 23.993 37.3913 23.9845 37.5072 23.9755C37.5563 23.9718 37.6072 23.9679 37.6592 23.9645V24.9865C37.3053 25.0729 36.9401 25.1042 36.5766 25.0793C36.4521 25.0691 36.3286 25.0495 36.2071 25.0207C35.6473 24.8818 35.3898 24.4796 35.3027 23.9474C35.2678 23.7134 35.2505 23.4771 35.2509 23.2404C35.246 22.8269 35.2477 22.4112 35.2493 21.9954V21.9925C35.2501 21.784 35.2509 21.5756 35.2509 21.3674V21.198H34.4838V20.1252H35.2545V19.1264C35.2545 18.9516 35.2545 18.8643 35.2961 18.8074C35.3377 18.7506 35.4207 18.7241 35.5868 18.6713L35.5883 18.6708C35.6537 18.6501 35.7191 18.6293 35.7845 18.6084L36.1542 18.4898L36.1705 18.4846C36.2676 18.4533 36.365 18.422 36.4621 18.3909L36.4757 18.3866L36.4921 18.3816C36.4988 18.3796 36.5057 18.3776 36.5127 18.3755L36.5405 18.3677L36.5999 18.351C36.6006 18.3621 36.6013 18.3727 36.6021 18.383L36.603 18.395L36.6031 18.397L36.6032 18.3986C36.6059 18.4351 36.6082 18.4675 36.6082 18.4982C36.6082 18.6156 36.6086 18.7645 36.609 18.9256C36.61 19.2908 36.6111 19.7196 36.6082 19.9852C36.6082 20.0951 36.6435 20.1252 36.7492 20.1226C36.918 20.1181 37.0868 20.1196 37.2557 20.1211H37.2582L37.2671 20.1212C37.3491 20.1219 37.4311 20.1226 37.5131 20.1226L37.6598 20.1205Z" fill="#C1081A"/>
<path d="M46.2298 23.9914V24.9849C45.8715 25.073 45.5016 25.1045 45.1336 25.0782C45.0135 25.0688 44.8943 25.0503 44.7771 25.0228C44.1754 24.873 43.9302 24.4299 43.852 23.865C43.8248 23.6473 43.8118 23.4281 43.8131 23.2088C43.8097 22.7983 43.8108 22.388 43.8119 21.9777V21.9767C43.8125 21.7715 43.8131 21.5664 43.8131 21.3612V21.1928H43.0378V20.4574C43.0378 20.2887 43.0378 20.2045 43.0799 20.1624C43.1219 20.1205 43.2057 20.1205 43.3731 20.1205H43.8188V18.8869C43.8188 18.8144 43.8312 18.7713 43.9116 18.7465C44.1748 18.6651 44.4366 18.5801 44.6984 18.4951C44.8217 18.455 44.945 18.415 45.0683 18.3754C45.101 18.368 45.134 18.3626 45.1673 18.3593V20.1158H46.223V21.1892H45.1767C45.1757 21.2057 45.1745 21.2215 45.1734 21.2367C45.1711 21.2688 45.1689 21.2984 45.1689 21.3265C45.1689 21.4777 45.1686 21.6288 45.1684 21.78L45.1684 21.8101C45.1676 22.2475 45.1669 22.6849 45.1715 23.1223C45.1721 23.2855 45.1895 23.4482 45.2233 23.6079C45.2751 23.8489 45.4342 23.9769 45.6804 23.9899C45.8009 23.9959 45.9212 23.9944 46.0477 23.9929H46.0551C46.0791 23.9926 46.1033 23.9923 46.1277 23.992L46.1751 23.9916C46.1932 23.9915 46.2114 23.9914 46.2298 23.9914Z" fill="#C1081A"/>
<path d="M22.6052 20.1246C22.6052 20.0552 22.6051 19.9714 22.605 19.8798C22.6045 19.5466 22.6039 19.1094 22.6083 18.8802C22.6083 18.8392 22.6389 18.7729 22.67 18.7625C23.0128 18.647 23.3573 18.5363 23.7139 18.4217L23.9563 18.3438V20.1205H24.9162C24.9721 20.1205 25.0198 20.1231 25.0198 20.1998V21.1845H23.9631C23.962 21.2053 23.9608 21.224 23.9597 21.2416C23.9576 21.2744 23.9558 21.3022 23.9558 21.3286C23.9558 21.4408 23.9557 21.553 23.9556 21.6652L23.9551 21.9298V21.9313C23.9544 22.3331 23.9537 22.735 23.9558 23.1368C23.9571 23.2871 23.9732 23.4369 24.004 23.5841C24.0559 23.8432 24.2165 23.9795 24.4829 23.9883C24.5951 23.9918 24.708 23.9845 24.8288 23.9766C24.8871 23.9728 24.9472 23.9689 25.01 23.966V24.9855C24.4881 25.0917 23.948 25.1622 23.4116 24.9735C22.955 24.8129 22.7415 24.4475 22.6622 24.0002C22.6189 23.7372 22.5967 23.4712 22.5959 23.2047C22.5892 22.7653 22.5905 22.3257 22.5918 21.8859L22.5924 21.6708C22.5926 21.5666 22.5928 21.4623 22.5928 21.3581V21.1933H21.8382V20.1226L22.6052 20.1246Z" fill="#C1081A"/>
<path d="M33.8422 20.3045C33.8038 20.5401 33.7635 20.7732 33.7232 21.0057L33.7223 21.011C33.7085 21.0906 33.6947 21.1702 33.681 21.2498C33.6794 21.2605 33.6757 21.2711 33.6732 21.2768C33.6722 21.2793 33.6709 21.2811 33.6709 21.2811C33.6709 21.2811 33.6707 21.2803 33.6717 21.2773C33.5807 21.2537 33.4905 21.2292 33.4009 21.205C33.1979 21.15 32.9967 21.0954 32.7938 21.0524C32.5762 21.007 32.3499 21.0334 32.1485 21.1275C32.0179 21.1866 31.9241 21.2804 31.9158 21.4281C31.9093 21.4979 31.925 21.568 31.9605 21.6285C31.996 21.6889 32.0497 21.7367 32.1138 21.765C32.2371 21.8224 32.3638 21.8712 32.4908 21.9202L32.4923 21.9209C32.5736 21.9522 32.655 21.9837 32.7357 22.0174C32.953 22.0994 33.1654 22.1941 33.3716 22.3008C33.9008 22.6014 34.106 23.0782 34.0589 23.6701C34.0127 24.2464 33.7184 24.6512 33.1908 24.8849C32.8083 25.0549 32.402 25.0979 31.9889 25.0881C31.574 25.0863 31.1622 25.0172 30.7694 24.8833C30.7382 24.8721 30.7074 24.8585 30.6757 24.8446C30.6653 24.84 30.6549 24.8354 30.6443 24.8309C30.6248 24.8224 30.6047 24.814 30.5839 24.8061C30.6165 24.5842 30.6481 24.3645 30.6791 24.1484L30.6794 24.146L30.7337 23.7696C30.7855 23.7857 30.8368 23.8024 30.8878 23.8193L30.9492 23.8398L30.9781 23.8494C31.1623 23.9111 31.3437 23.9717 31.5292 24.0106C31.6844 24.0434 31.8458 24.0488 32.0069 24.0543C32.0702 24.0565 32.1334 24.0586 32.1962 24.0624C32.2265 24.0627 32.2567 24.0589 32.2859 24.051C32.5336 23.9992 32.6891 23.8634 32.7171 23.6794C32.7482 23.4757 32.658 23.3125 32.4061 23.1974C32.2563 23.129 32.1018 23.0708 31.9472 23.0124C31.8195 22.9643 31.6917 22.916 31.5665 22.8621C31.2359 22.7201 30.9446 22.5242 30.7674 22.1962C30.4212 21.5499 30.6824 20.7046 31.3457 20.3133C31.6538 20.1366 32.0004 20.0382 32.3553 20.0267C32.8177 20.0009 33.2802 20.0746 33.7116 20.2428C33.7401 20.2537 33.7681 20.2646 33.7956 20.277C33.8116 20.2853 33.8272 20.2945 33.8422 20.3045Z" fill="#C1081A"/>
<path fill-rule="evenodd" clip-rule="evenodd" d="M53.6312 24.9899H52.7426L52.716 24.4493C52.7088 24.4555 52.703 24.46 52.6984 24.4635L52.6975 24.4641C52.6901 24.4698 52.6859 24.473 52.6839 24.4772C52.3354 25.1603 51.215 25.3175 50.6277 24.5995C50.3813 24.2995 50.2624 23.9495 50.2194 23.5738C50.1679 23.1203 50.2131 22.677 50.4221 22.2621C50.6202 21.868 50.9174 21.5771 51.3739 21.4982C51.852 21.4156 52.2775 21.5173 52.5949 21.9095C52.6076 21.9224 52.6209 21.9346 52.6349 21.9462V20.0065H53.6312V24.9899ZM52.6349 23.3006L52.6599 23.2958C52.6468 23.2345 52.6352 23.1726 52.6236 23.1107C52.597 22.9694 52.5704 22.8281 52.5265 22.6924C52.4487 22.4537 52.276 22.3021 52.0087 22.283C51.7414 22.2639 51.519 22.3616 51.3903 22.5948C51.147 23.0355 51.1436 23.4956 51.3866 23.9326C51.624 24.3597 52.1855 24.3649 52.4648 23.9624C52.6024 23.7619 52.6427 23.5367 52.6341 23.2999L52.6349 23.3006Z" fill="#C1081A"/>
<path fill-rule="evenodd" clip-rule="evenodd" d="M55.1705 23.5732C55.1672 23.9125 55.407 24.2007 55.7588 24.2811C56.1585 24.3729 56.5468 24.3197 56.9252 24.171L56.9373 24.1661L56.9399 24.1651C56.9596 24.1571 56.9795 24.1491 56.9995 24.1415C57.006 24.139 57.0125 24.1366 57.019 24.1343C57.0221 24.1343 57.026 24.135 57.0324 24.1362C57.036 24.1369 57.0405 24.1377 57.046 24.1387C57.0504 24.1895 57.055 24.2404 57.0595 24.2912C57.0747 24.4606 57.0899 24.6301 57.1007 24.7996C57.1007 24.8227 57.0637 24.8631 57.0382 24.87C57.0264 24.8732 57.0146 24.8763 57.0028 24.8795C56.9747 24.8871 56.9465 24.8947 56.9184 24.9025L56.8823 24.9123C56.7063 24.9607 56.5301 25.0091 56.351 25.0371C56.025 25.0929 55.6905 25.0752 55.3723 24.9854C54.7711 24.8073 54.3987 24.4089 54.2594 23.8056C54.1404 23.2916 54.1759 22.7838 54.4242 22.3095C54.7275 21.7297 55.2263 21.4565 55.877 21.4694C56.6363 21.4844 57.1443 21.928 57.2851 22.7023C57.3162 22.8727 57.3231 23.0467 57.3301 23.2213C57.3335 23.3059 57.3369 23.3907 57.3431 23.4752C57.3486 23.5512 57.3179 23.5736 57.2422 23.5732C56.8073 23.5715 56.3723 23.5721 55.9372 23.5727C55.7195 23.5729 55.5018 23.5732 55.284 23.5732H55.1705ZM56.453 22.9123C56.4401 22.6439 56.3876 22.3983 56.1482 22.247C56.0533 22.1826 55.9411 22.148 55.8262 22.1476C55.7112 22.1472 55.5988 22.1811 55.5034 22.2448C55.2614 22.395 55.1861 22.6392 55.1576 22.9123H56.453Z" fill="#C1081A"/>
<path d="M49.1874 21.4127V18.4877H47.6687V21.4127H49.1874Z" fill="#C1081A"/>
<rect x="49.1875" y="21.9751" width="2.925" height="1.51875" transform="rotate(90 49.1875 21.9751)" fill="#F8BA07"/>
</svg>
