<svg width="134" height="26" viewBox="0 0 134 26" fill="none" xmlns="http://www.w3.org/2000/svg">
<g clip-path="url(#clip0)">
<path d="M35.9609 10.5217C35.9609 7.7487 34.0115 6.34839 30.139 6.34839C26.1586 6.34839 24.0475 7.93714 23.8579 11.087H27.2158C27.3514 9.44467 28.1357 8.87935 30.1128 8.87935C31.9805 8.87935 32.6586 9.44467 32.6586 10.6013C32.6586 11.5987 32.0622 12.0016 30.6815 12.1901L28.5687 12.3785C25.0001 12.7294 23.2027 14.1557 23.2027 16.7126C23.2027 19.3784 25.206 20.886 28.2386 20.886C30.2697 20.886 31.786 20.2134 32.7337 18.8667C32.8154 19.679 32.9233 20.2394 33.1128 20.5627H36.5246C36.1455 20.025 35.956 19.1364 35.956 17.9245L35.9609 10.5217ZM32.6586 15.0703C32.6586 17.3316 31.0867 18.4622 29.0638 18.4622C27.5197 18.4622 26.7076 17.7637 26.7076 16.5778C26.7076 15.4212 27.3841 14.8022 29.2256 14.5862L31.0671 14.3718C31.7975 14.2905 32.34 14.1021 32.6651 13.8048L32.6586 15.0703Z" fill="#1A1D32"/>
<path d="M42.647 2.47729H39.2646V6.67173H37.0914V9.25955H39.2646V17.1205C39.2646 19.6238 40.6176 20.6732 43.6241 20.6732C43.9754 20.6732 44.5718 20.6472 45.4117 20.566V17.9782H44.2467C43.0816 17.9782 42.6486 17.6533 42.6486 16.7663V9.25955H45.4117V6.67173H42.647V2.47729Z" fill="#1A1D32"/>
<path d="M63.5526 8.47492C62.551 7.04862 61.1163 6.34846 59.247 6.34846C54.9693 6.34846 52.9644 9.68679 52.9644 13.6164C52.9644 17.5152 54.9954 20.886 59.247 20.886C61.1702 20.886 62.6327 20.1323 63.6588 18.6248V20.5628H66.9627V2.47729H63.5526V8.47492ZM60.033 18.0854C57.4055 18.0854 56.4578 16.0678 56.4578 13.7253C56.4578 10.8174 57.8385 9.14909 60.033 9.14909C62.2797 9.14909 63.6278 10.7102 63.6278 13.6164C63.6343 15.959 62.7127 18.0854 60.033 18.0854Z" fill="#1A1D32"/>
<path d="M81.7206 17.9245V10.5217C81.7206 7.7487 79.7712 6.34839 75.8987 6.34839C71.9183 6.34839 69.8072 7.93714 69.6177 11.087H72.9739C73.1095 9.44467 73.8954 8.87935 75.8726 8.87935C77.7402 8.87935 78.4167 9.44467 78.4167 10.6013C78.4167 11.5987 77.8219 12.0016 76.4412 12.1901L74.3285 12.3785C70.7549 12.7294 68.9673 14.1557 68.9673 16.7126C68.9673 19.3784 70.9706 20.886 74.0033 20.886C76.0343 20.886 77.5507 20.2134 78.4984 18.8667C78.5801 19.679 78.6879 20.2394 78.8775 20.5627H82.2892C81.9101 20.025 81.7206 19.1364 81.7206 17.9245ZM78.4167 15.0703C78.4167 17.3316 76.8464 18.4622 74.8219 18.4622C73.2794 18.4622 72.4673 17.7637 72.4673 16.5778C72.4673 15.4212 73.1438 14.8022 74.9853 14.5862L76.8268 14.3718C77.5572 14.2905 78.0997 14.1021 78.4232 13.8048L78.4167 15.0703Z" fill="#1A1D32"/>
<path d="M50.6357 5.65318H50.7991V2.47729H47.4412C47.4412 2.89436 47.5239 3.30734 47.6844 3.69265C47.8449 4.07797 48.0802 4.42808 48.3769 4.72298C48.6735 5.01789 49.0256 5.25182 49.4132 5.41143C49.8008 5.57103 50.2162 5.65318 50.6357 5.65318Z" fill="#1A1D32"/>
<path d="M47.4153 10.0768V13.3436V20.5758H50.827V13.3436V6.68481H47.4153V10.0768Z" fill="#1A1D32"/>
<path d="M84.0768 25.342C84.0768 25.0171 84.2157 24.8206 84.6585 24.4615C85.1487 24.0765 85.2402 23.7468 85.4608 22.7558L87.482 10.1286C87.7582 8.3417 86.1536 8.80793 86.1536 7.78937C86.1536 7.04698 87.647 6.35819 88.8382 6.35819C90.0555 6.35819 90.4984 7.12983 90.2484 8.55938L89.75 11.3941H89.8055C91.0784 7.81374 93.0163 6.33545 95.3954 6.33545C98.3578 6.33545 99.8791 9.05972 99.8791 11.8928C99.8791 17.369 96.1438 20.9185 92.4069 20.9185C90.8578 20.9185 89.4183 20.3126 88.616 19.2388L88.0621 22.6242C87.9804 23.1733 88.1176 23.3942 88.616 23.6412C89.0866 23.8897 89.4461 23.9986 89.4461 24.4388C89.4461 25.4297 86.8725 26.0081 85.1846 26.0081C84.4379 25.9999 84.0768 25.7514 84.0768 25.342ZM97.1666 12.2973C97.1666 9.27253 96.281 8.17113 94.7876 8.17113C92.4836 8.17113 90.0833 11.5338 89.5016 15.4326L89.3905 16.1766C89.1421 17.7719 90.5261 19.6693 92.5457 19.6693C95.2859 19.6709 97.1666 16.5909 97.1666 12.2973Z" fill="#00CCA2"/>
<path d="M108.823 15.4066L109.675 10.2342C109.979 8.44729 108.346 8.91352 108.346 7.89659C108.346 7.15257 109.619 6.46541 110.809 6.46541C112.054 6.46541 112.719 7.2078 112.47 8.66659L111.279 15.8144C110.92 17.9262 111.639 19.0633 113.023 19.0633C115.93 19.0633 118.116 13.285 118.578 10.231C118.856 8.36119 117.251 8.91027 117.251 7.89334C117.251 7.14932 118.524 6.46216 119.714 6.46216C120.959 6.46216 121.622 7.20455 121.374 8.66335L120.018 17.1107C119.742 18.8977 121.346 18.4314 121.346 19.45C121.346 20.1924 119.853 20.8812 118.662 20.8812C117.444 20.8812 116.918 20.1095 117.224 18.68L117.887 15.5934H117.859C116.503 19.2518 114.843 20.9039 112.518 20.9039C109.923 20.9104 108.235 18.9837 108.823 15.4066Z" fill="#00CCA2"/>
<path d="M122.654 17.8012C122.654 16.9759 123.152 16.4252 123.982 16.4252C125.919 16.4252 125.089 19.8091 128.077 19.8091C129.489 19.8091 130.402 19.039 130.402 17.7736C130.402 14.2517 124.481 14.2793 124.481 10.2895C124.481 7.75857 126.528 6.32739 129.433 6.32739C132.339 6.32739 134.008 7.75857 134.008 9.13452C134.008 9.93214 133.427 10.4341 132.79 10.4341C130.577 10.4341 132.071 7.57175 129.138 7.57175C127.83 7.57175 126.979 8.34339 126.979 9.4984C126.979 12.3315 132.901 12.6905 132.901 16.9824C132.901 19.5686 130.549 20.917 127.672 20.917C124.286 20.9105 122.654 18.9562 122.654 17.8012Z" fill="#00CCA2"/>
<path d="M101.678 18.5712L104.029 3.76882C104.307 2.00787 102.673 2.61381 102.673 1.43118C102.673 0.68716 104.168 0 105.358 0C106.797 0 107.046 0.880475 106.828 2.20119L104.475 17.0036C104.199 18.7645 105.783 18.1586 105.783 19.3412C105.783 20.0836 104.51 20.7724 103.32 20.7724C101.982 20.7724 101.456 19.9471 101.678 18.5712Z" fill="#00CCA2"/>
<path d="M18.2042 9.98243H12.1373V3.95068H6.06863V9.98243H0V16.0158H6.06863V22.0492H12.1373V16.0158H18.2042V9.98243Z" fill="#00CCA2"/>
</g>
<defs>
<clipPath id="clip0">
<rect width="134" height="26" fill="white"/>
</clipPath>
</defs>
</svg>
