<svg width="400" height="217" viewBox="0 0 400 217" fill="none" xmlns="http://www.w3.org/2000/svg">
<path d="M86.3694 54.4559C86.3694 35.6834 73.1728 26.2036 46.9567 26.2036C20.0105 26.2036 5.71887 36.9591 4.43572 58.283H27.1674C28.0855 47.1646 33.3951 43.3375 46.7797 43.3375C59.4232 43.3375 64.0138 47.1646 64.0138 54.9948C64.0138 61.7472 59.9763 64.4745 50.6292 65.7502L36.3265 67.0259C12.1678 69.4013 0 79.057 0 96.3669C0 114.414 13.5616 124.619 34.092 124.619C47.8416 124.619 58.1069 120.066 64.5226 110.949C65.0757 116.448 65.8057 120.242 67.0889 122.431H90.1856C87.6193 118.791 86.3362 112.775 86.3362 104.571L86.3694 54.4559ZM64.0138 85.2486C64.0138 100.557 53.3725 108.211 39.6781 108.211C29.2249 108.211 23.7272 103.482 23.7272 95.4542C23.7272 87.624 28.3068 83.434 40.7732 81.9714L53.2397 80.5197C58.1843 79.9698 61.8568 78.6941 64.058 76.6816L64.0138 85.2486Z" fill="#1A1D32"/>
<path d="M131.632 0H108.734V28.3952H94.0221V45.9141H108.734V99.1304C108.734 116.077 117.893 123.182 138.247 123.182C140.625 123.182 144.662 123.006 150.348 122.456V104.937H142.461C134.574 104.937 131.643 102.738 131.643 96.7329V45.9141H150.348V28.3952H131.632V0Z" fill="#1A1D32"/>
<path d="M273.163 40.6023C266.382 30.9466 256.67 26.2068 244.015 26.2068C215.056 26.2068 201.483 48.8064 201.483 75.4091C201.483 101.803 215.233 124.622 244.015 124.622C257.035 124.622 266.935 119.52 273.882 109.314V122.434H296.248V0H273.163V40.6023ZM249.336 105.663C231.549 105.663 225.133 92.0041 225.133 76.1459C225.133 56.4606 234.48 45.1663 249.336 45.1663C264.546 45.1663 273.671 55.7347 273.671 75.4091C273.716 91.2673 267.477 105.663 249.336 105.663Z" fill="#1A1D32"/>
<path d="M396.151 104.571V54.4559C396.151 35.6834 382.954 26.2036 356.738 26.2036C329.792 26.2036 315.5 36.9591 314.217 58.283H336.938C337.856 47.1646 343.176 43.3375 356.561 43.3375C369.204 43.3375 373.784 47.1646 373.784 54.9948C373.784 61.7472 369.758 64.4745 360.41 65.7502L346.108 67.0259C321.916 69.4013 309.815 79.057 309.815 96.3669C309.815 114.414 323.376 124.619 343.906 124.619C357.656 124.619 367.921 120.066 374.337 110.949C374.89 116.448 375.62 120.242 376.903 122.431H400C397.434 118.791 396.151 112.775 396.151 104.571ZM373.784 85.2486C373.784 100.557 363.154 108.211 349.448 108.211C339.006 108.211 333.509 103.482 333.509 95.4542C333.509 87.624 338.088 83.434 350.555 81.9714L363.021 80.5197C367.966 79.9698 371.638 78.6941 373.828 76.6816L373.784 85.2486Z" fill="#1A1D32"/>
<path d="M185.715 21.4999H186.822V0H164.09C164.09 2.8234 164.649 5.61916 165.736 8.22765C166.823 10.8361 168.416 13.2063 170.424 15.2027C172.432 17.1992 174.816 18.7828 177.44 19.8633C180.063 20.9438 182.876 21.4999 185.715 21.4999V21.4999Z" fill="#1A1D32"/>
<path d="M163.911 51.4465V73.5622V122.522H187.007V73.5622V28.4839H163.911V51.4465Z" fill="#1A1D32"/>
<g clip-path="url(#clip0)">
<path d="M27.7541 144.859C26.8811 145.118 26.5595 146.014 26.1166 146.709C23.8813 150.525 21.517 154.271 19.4775 158.197C22.2638 159.585 25.0733 160.986 27.5609 162.872C28.179 163.311 28.6787 163.939 29.3946 164.229C30.0281 164.032 30.5533 163.608 31.0993 163.249C33.2186 161.776 35.4152 160.422 37.6659 159.159C37.2153 158.053 36.5973 157.027 35.9922 156.003C34.0067 152.719 31.9029 149.508 29.7088 146.36C29.2839 145.783 28.8975 145.098 28.1713 144.859H27.7541ZM55.8603 153.906C55.6536 153.909 55.4453 153.946 55.2541 153.999C54.5151 154.212 53.8405 154.592 53.1478 154.92C44.3716 159.244 35.7914 164.035 27.8522 169.759C23.8529 172.713 19.9101 175.879 16.892 179.864C13.4182 184.654 11.6904 190.566 11.4148 196.43C11.2783 200.797 11.8963 205.505 14.6646 209.051C18.499 213.603 24.525 216.021 30.4195 216.069C35.0187 216.128 39.6643 214.461 42.9888 211.256C46.3082 208.02 48.605 203.899 50.4076 199.673C53.9588 191.139 55.7049 181.975 56.7298 172.828C57.2989 167.373 57.6259 161.874 57.3813 156.391C57.3298 155.654 57.3425 154.807 56.7966 154.238C56.5455 153.984 56.205 153.899 55.8603 153.906V153.906ZM185.099 155.641C181.469 155.655 177.772 155.938 174.448 157.479C171.891 158.641 169.792 160.797 168.847 163.447C167.872 165.954 167.915 168.707 167.943 171.353H163.058V181.309H167.945V215.105H181.112V181.309H186.659V171.353H181.109C181.152 169.77 181.013 167.931 182.078 166.626C183.268 165.449 185.101 165.603 186.649 165.518V155.649C186.134 155.643 185.617 155.639 185.099 155.641V155.641ZM144.834 156.757V166.726H158V156.757H144.834ZM271.005 169.839C269.001 169.872 266.961 170.093 265.115 170.914C263.232 171.696 261.759 173.144 260.646 174.818V171.353H247.484V215.105H260.646V190.726C260.668 188.609 261.309 186.313 263.075 184.983C265.334 183.3 268.293 183.154 271.005 183.049V169.839ZM92.3137 169.844C90.1291 169.871 87.947 170.311 85.9447 171.16C83.6425 172.145 81.7939 173.96 80.5346 176.097C80.496 174.517 80.5243 172.938 80.5192 171.358C76.4195 171.348 72.3196 171.355 68.2226 171.353C68.2329 185.94 68.1918 200.528 68.2433 215.115C72.6237 215.084 77.0038 215.11 81.3841 215.102C81.3893 207.168 81.3816 199.232 81.3868 191.295C81.4486 188.865 81.7784 186.23 83.4008 184.298C84.7836 182.651 87.0522 182.091 89.1304 182.191C90.9561 182.194 92.8386 183.01 93.8403 184.578C95.1897 186.636 95.3262 189.191 95.3571 191.575C95.3545 199.416 95.3545 207.261 95.3571 215.102H108.519C108.529 206.822 108.508 198.542 108.529 190.261C108.622 187.936 109.096 185.365 110.911 183.733C112.605 182.235 115.042 182.009 117.2 182.284C119 182.504 120.684 183.62 121.428 185.293C122.419 187.403 122.466 189.794 122.461 192.078C122.458 199.753 122.461 207.427 122.458 215.1C126.849 215.1 131.239 215.107 135.627 215.097C135.619 205.967 135.63 196.838 135.625 187.711C135.581 184.647 135.336 181.486 134.013 178.673C132.238 174.953 128.963 171.871 124.969 170.67C121.382 169.59 117.434 169.528 113.873 170.737C110.337 171.93 107.388 174.498 105.41 177.619C103.616 174.265 100.626 171.419 96.8867 170.408C95.5425 170.05 94.1484 169.863 92.7505 169.845C92.6049 169.843 92.4593 169.842 92.3137 169.844L92.3137 169.844ZM327.251 169.854C326.121 169.869 324.994 169.982 323.894 170.185C319.521 171.009 315.739 173.893 313.398 177.611C312.576 176.14 311.588 174.747 310.364 173.58C308.098 171.366 305.005 170.062 301.846 169.89C298.215 169.682 294.331 170.364 291.429 172.679C290.214 173.603 289.323 174.852 288.499 176.115C288.481 174.526 288.499 172.941 288.491 171.353C284.391 171.353 280.294 171.35 276.195 171.355C276.197 185.937 276.197 200.517 276.195 215.1C280.583 215.105 284.971 215.1 289.359 215.105C289.372 207.209 289.348 199.314 289.369 191.418C289.439 188.927 289.742 186.201 291.445 184.241C293.103 182.337 295.871 181.934 298.256 182.304C299.912 182.56 301.408 183.628 302.163 185.127C303.393 187.49 303.35 190.238 303.332 192.832C303.334 200.255 303.329 207.679 303.334 215.102C307.72 215.102 312.108 215.1 316.496 215.102C316.504 206.917 316.486 198.731 316.504 190.546C316.584 188.229 316.962 185.678 318.667 183.954C320.371 182.248 323.001 181.981 325.285 182.299C326.951 182.53 328.509 183.525 329.284 185.032C330.45 187.267 330.443 189.866 330.469 192.324C330.466 199.917 330.466 207.509 330.469 215.102C334.849 215.11 339.229 215.082 343.61 215.118C343.664 207.181 343.618 199.244 343.633 191.308C343.612 188.208 343.718 185.073 343.097 182.019C342.358 178.217 340.017 174.801 336.865 172.566C334.063 170.64 330.642 169.808 327.251 169.854L327.251 169.854ZM372.695 169.854C368.25 169.821 363.785 171.128 360.152 173.69C356.746 176.071 354.121 179.489 352.545 183.312C350.56 188.083 350.161 193.435 351.114 198.488C351.904 202.67 353.748 206.694 356.64 209.85C359.658 213.196 363.837 215.436 368.274 216.223C372.588 216.993 377.249 216.719 381.168 214.63C383.045 213.65 384.611 212.123 385.636 210.273L385.669 215.097L398.934 215.102V171.353L385.669 171.358L385.649 176.102C383.529 172.669 379.68 170.67 375.758 170.093C374.745 169.941 373.72 169.862 372.695 169.854V169.854ZM211.915 169.862C207.47 169.828 203.005 171.136 199.373 173.698C195.966 176.079 193.342 179.497 191.766 183.32C189.78 188.09 189.381 193.443 190.334 198.495C191.124 202.678 192.968 206.701 195.86 209.857C198.878 213.203 203.058 215.443 207.495 216.231C211.808 217.001 216.469 216.726 220.388 214.638C222.266 213.657 223.831 212.131 224.856 210.281L224.89 215.105L238.154 215.11V171.36L224.89 171.365L224.869 176.11C222.75 172.677 218.9 170.678 214.978 170.1C213.965 169.949 212.941 169.87 211.915 169.862V169.862ZM144.831 171.353V215.102H157.995V171.353L144.831 171.353ZM374.723 182.092C378.22 182.119 381.725 183.742 383.7 186.671C386.864 191.234 386.164 198.131 381.894 201.775C377.921 205.267 371.352 205.234 367.455 201.634C363.86 198.516 362.849 193.079 364.664 188.755C365.985 185.363 369.163 182.763 372.791 182.242C373.429 182.136 374.076 182.087 374.723 182.092V182.092ZM213.944 182.099C217.441 182.127 220.945 183.75 222.92 186.679C226.085 191.241 225.384 198.139 221.115 201.782C217.141 205.275 210.572 205.241 206.676 201.641C203.081 198.523 202.069 193.086 203.884 188.763C205.205 185.37 208.383 182.771 212.012 182.25C212.649 182.144 213.296 182.094 213.944 182.099V182.099Z" fill="#00CCA2"/>
<path d="M1.00231 154.031C1.81091 153.641 2.76114 153.875 3.56459 154.17C7.52002 155.722 11.3338 157.611 15.0523 159.661C18.7219 161.706 22.3091 163.923 25.6285 166.499C21.4542 169.43 17.3391 172.596 14.2618 176.704C10.8677 181.11 8.87198 186.539 8.54751 192.079C8.27969 195.91 8.75609 199.759 9.59302 203.498C7.72603 202.071 6.53889 199.97 5.62728 197.85C3.93284 193.801 3.07016 189.467 2.39032 185.151C0.922482 175.383 0.646941 165.491 0.381701 155.632C0.343073 155.05 0.404877 154.321 1.00231 154.031Z" fill="black"/>
<g clip-path="url(#clip1)">
<path d="M27.7541 144.859C26.8811 145.118 26.5595 146.014 26.1166 146.709C23.8813 150.525 21.517 154.271 19.4775 158.197C22.2638 159.585 25.0733 160.986 27.5609 162.872C28.179 163.311 28.6787 163.939 29.3946 164.229C30.0281 164.032 30.5533 163.608 31.0993 163.249C33.2186 161.776 35.4152 160.422 37.6659 159.159C37.2153 158.053 36.5973 157.027 35.9922 156.003C34.0067 152.719 31.9029 149.508 29.7088 146.36C29.2839 145.783 28.8975 145.098 28.1713 144.859H27.7541ZM55.8603 153.906C55.6536 153.909 55.4453 153.946 55.2541 153.999C54.5151 154.212 53.8405 154.592 53.1478 154.92C44.3716 159.244 35.7914 164.035 27.8522 169.759C23.8529 172.713 19.9101 175.879 16.892 179.864C13.4182 184.654 11.6904 190.566 11.4148 196.43C11.2783 200.797 11.8963 205.505 14.6646 209.051C18.499 213.603 24.525 216.021 30.4195 216.069C35.0187 216.128 39.6643 214.461 42.9888 211.256C46.3082 208.02 48.605 203.899 50.4076 199.673C53.9588 191.139 55.7049 181.975 56.7298 172.828C57.2989 167.373 57.6259 161.874 57.3813 156.391C57.3298 155.654 57.3425 154.807 56.7966 154.238C56.5455 153.984 56.205 153.899 55.8603 153.906V153.906ZM185.099 155.641C181.469 155.655 177.772 155.938 174.448 157.479C171.891 158.641 169.792 160.797 168.847 163.447C167.872 165.954 167.915 168.707 167.943 171.353H163.058V181.309H167.945V215.105H181.112V181.309H186.659V171.353H181.109C181.152 169.77 181.013 167.931 182.078 166.626C183.268 165.449 185.101 165.603 186.649 165.518V155.649C186.134 155.643 185.617 155.639 185.099 155.641V155.641ZM144.834 156.757V166.726H158V156.757H144.834ZM271.005 169.839C269.001 169.872 266.961 170.093 265.115 170.914C263.232 171.696 261.759 173.144 260.646 174.818V171.353H247.484V215.105H260.646V190.726C260.668 188.609 261.309 186.313 263.075 184.983C265.334 183.3 268.293 183.154 271.005 183.049V169.839ZM92.3137 169.844C90.1291 169.871 87.947 170.311 85.9447 171.16C83.6425 172.145 81.7939 173.96 80.5346 176.097C80.496 174.517 80.5243 172.938 80.5192 171.358C76.4195 171.348 72.3196 171.355 68.2226 171.353C68.2329 185.94 68.1918 200.528 68.2433 215.115C72.6237 215.084 77.0038 215.11 81.3841 215.102C81.3893 207.168 81.3816 199.232 81.3868 191.295C81.4486 188.865 81.7784 186.23 83.4008 184.298C84.7836 182.651 87.0522 182.091 89.1304 182.191C90.9561 182.194 92.8386 183.01 93.8403 184.578C95.1897 186.636 95.3262 189.191 95.3571 191.575C95.3545 199.416 95.3545 207.261 95.3571 215.102H108.519C108.529 206.822 108.508 198.542 108.529 190.261C108.622 187.936 109.096 185.365 110.911 183.733C112.605 182.235 115.042 182.009 117.2 182.284C119 182.504 120.684 183.62 121.428 185.293C122.419 187.403 122.466 189.794 122.461 192.078C122.458 199.753 122.461 207.427 122.458 215.1C126.849 215.1 131.239 215.107 135.627 215.097C135.619 205.967 135.63 196.838 135.625 187.711C135.581 184.647 135.336 181.486 134.013 178.673C132.238 174.953 128.963 171.871 124.969 170.67C121.382 169.59 117.434 169.528 113.873 170.737C110.337 171.93 107.388 174.498 105.41 177.619C103.616 174.265 100.626 171.419 96.8867 170.408C95.5425 170.05 94.1484 169.863 92.7505 169.845C92.6049 169.843 92.4593 169.842 92.3137 169.844L92.3137 169.844ZM327.251 169.854C326.121 169.869 324.994 169.982 323.894 170.185C319.521 171.009 315.739 173.893 313.398 177.611C312.576 176.14 311.588 174.747 310.364 173.58C308.098 171.366 305.005 170.062 301.846 169.89C298.215 169.682 294.331 170.364 291.429 172.679C290.214 173.603 289.323 174.852 288.499 176.115C288.481 174.526 288.499 172.941 288.491 171.353C284.391 171.353 280.294 171.35 276.195 171.355C276.197 185.937 276.197 200.517 276.195 215.1C280.583 215.105 284.971 215.1 289.359 215.105C289.372 207.209 289.348 199.314 289.369 191.418C289.439 188.927 289.742 186.201 291.445 184.241C293.103 182.337 295.871 181.934 298.256 182.304C299.912 182.56 301.408 183.628 302.163 185.127C303.393 187.49 303.35 190.238 303.332 192.832C303.334 200.255 303.329 207.679 303.334 215.102C307.72 215.102 312.108 215.1 316.496 215.102C316.504 206.917 316.486 198.731 316.504 190.546C316.584 188.229 316.962 185.678 318.667 183.954C320.371 182.248 323.001 181.981 325.285 182.299C326.951 182.53 328.509 183.525 329.284 185.032C330.45 187.267 330.443 189.866 330.469 192.324C330.466 199.917 330.466 207.509 330.469 215.102C334.849 215.11 339.229 215.082 343.61 215.118C343.664 207.181 343.618 199.244 343.633 191.308C343.612 188.208 343.718 185.073 343.097 182.019C342.358 178.217 340.017 174.801 336.865 172.566C334.063 170.64 330.642 169.808 327.251 169.854L327.251 169.854ZM372.695 169.854C368.25 169.821 363.785 171.128 360.152 173.69C356.746 176.071 354.121 179.489 352.545 183.312C350.56 188.083 350.161 193.435 351.114 198.488C351.904 202.67 353.748 206.694 356.64 209.85C359.658 213.196 363.837 215.436 368.274 216.223C372.588 216.993 377.249 216.719 381.168 214.63C383.045 213.65 384.611 212.123 385.636 210.273L385.669 215.097L398.934 215.102V171.353L385.669 171.358L385.649 176.102C383.529 172.669 379.68 170.67 375.758 170.093C374.745 169.941 373.72 169.862 372.695 169.854V169.854ZM211.915 169.862C207.47 169.828 203.005 171.136 199.373 173.698C195.966 176.079 193.342 179.497 191.766 183.32C189.78 188.09 189.381 193.443 190.334 198.495C191.124 202.678 192.968 206.701 195.86 209.857C198.878 213.203 203.058 215.443 207.495 216.231C211.808 217.001 216.469 216.726 220.388 214.638C222.266 213.657 223.831 212.131 224.856 210.281L224.89 215.105L238.154 215.11V171.36L224.89 171.365L224.869 176.11C222.75 172.677 218.9 170.678 214.978 170.1C213.965 169.949 212.941 169.87 211.915 169.862V169.862ZM144.831 171.353V215.102H157.995V171.353L144.831 171.353ZM374.723 182.092C378.22 182.119 381.725 183.742 383.7 186.671C386.864 191.234 386.164 198.131 381.894 201.775C377.921 205.267 371.352 205.234 367.455 201.634C363.86 198.516 362.849 193.079 364.664 188.755C365.985 185.363 369.163 182.763 372.791 182.242C373.429 182.136 374.076 182.087 374.723 182.092V182.092ZM213.944 182.099C217.441 182.127 220.945 183.75 222.92 186.679C226.085 191.241 225.384 198.139 221.115 201.782C217.141 205.275 210.572 205.241 206.676 201.641C203.081 198.523 202.069 193.086 203.884 188.763C205.205 185.37 208.383 182.771 212.012 182.25C212.649 182.144 213.296 182.094 213.944 182.099V182.099Z" fill="#00CCA2"/>
<path d="M1.00231 154.031C1.81091 153.641 2.76114 153.875 3.56459 154.17C7.52002 155.722 11.3338 157.611 15.0523 159.661C18.7219 161.706 22.3091 163.923 25.6285 166.499C21.4542 169.43 17.3391 172.596 14.2618 176.704C10.8677 181.11 8.87198 186.539 8.54751 192.079C8.27969 195.91 8.75609 199.759 9.59302 203.498C7.72603 202.071 6.53889 199.97 5.62728 197.85C3.93284 193.801 3.07016 189.467 2.39032 185.151C0.922482 175.383 0.646941 165.491 0.381701 155.632C0.343073 155.05 0.404877 154.321 1.00231 154.031Z" fill="black"/>
</g>
</g>
<defs>
<clipPath id="clip0">
<rect width="399.999" height="71.9998" fill="white" transform="translate(0 144.62)"/>
</clipPath>
<clipPath id="clip1">
<rect width="399.999" height="71.9998" fill="white" transform="translate(0 144.62)"/>
</clipPath>
</defs>
</svg>
