<svg width="80" height="80" viewBox="0 0 80 80" fill="none" xmlns="http://www.w3.org/2000/svg">
<path d="M62.9284 59.1885L72.1751 64.8595L41.103 78.0005L62.9284 59.1885Z" fill="#E5E5E5"/>
<path d="M41.1021 45.9517L67.1693 35.1748L67.152 66.6217L41.1021 78V45.9517Z" fill="#E5E5E5"/>
<path d="M39.855 22.793L52.2554 37.4748L39.4035 42.865L38.5 43.5L17.6802 34.8767L23.4185 30.0845L39.855 22.793Z" fill="#E5E5E5"/>
<path d="M31.4349 20.5835L25.8777 17.2423L25.9839 10.7542L31.6475 7.60745L37.2047 10.9487L37.0968 17.4372L31.4349 20.5835Z" fill="#E5E5E5"/>
<path d="M53.027 29.8942L46.1627 25.7656L46.2934 17.7512L53.2897 13.8633L60.154 17.992L60.0233 26.0063L53.027 29.8942Z" fill="#E5E5E5"/>
<path d="M43.1861 11.6573L39.3617 8.65165L40.0518 3.83039L44.5646 2.01435L48.3877 5.0179L47.6976 9.83916L43.1861 11.6573Z" fill="#E5E5E5"/>
<path d="M22.1787 61.1814V36.1904L28.3333 38.7129V63.5503L25.256 60.2221L22.1787 61.1814Z" fill="#1A1D32"/>
<path d="M65.4538 63.5346L65.4711 32.0859L39.4038 42.8646V74.9112L65.4538 63.5346Z" stroke="#1A1D32" stroke-linecap="round" stroke-linejoin="round"/>
<path d="M15.3274 33.1135L39.4035 42.8644V74.911L12.6079 63.0005V32.0857L39.4035 20.333L65.4707 32.0857L39.4035 42.8644L15.3274 33.1135Z" stroke="#1A1D32" stroke-linecap="round" stroke-linejoin="round"/>
<path d="M39.4033 42.8633V23.8613" stroke="#1A1D32" stroke-linecap="round" stroke-linejoin="round"/>
</svg>
