<svg width="80" height="80" viewBox="0 0 80 80" fill="none" xmlns="http://www.w3.org/2000/svg">
<path d="M62.9281 59.1885L72.1748 64.8595L41.1027 78.0005L62.9281 59.1885Z" fill="#B0E9DD"/>
<path d="M41.1019 45.9517L67.1691 35.1748L67.1518 66.6217L41.1019 78V45.9517Z" fill="#B0E9DD"/>
<path d="M39.8548 22.793L52.2553 37.4748L39.4033 42.865L38.4998 43.5L17.68 34.8767L23.4183 30.0845L39.8548 22.793Z" fill="#B0E9DD"/>
<path d="M31.4347 20.5835L25.8775 17.2423L25.9838 10.7542L31.6473 7.60745L37.2045 10.9487L37.0966 17.4372L31.4347 20.5835Z" fill="#B0E9DD"/>
<path d="M53.0267 29.8942L46.1623 25.7656L46.293 17.7512L53.2893 13.8633L60.1536 17.992L60.0229 26.0063L53.0267 29.8942Z" fill="#B0E9DD"/>
<path d="M43.1858 11.6573L39.3615 8.65165L40.0516 3.83039L44.5643 2.01435L48.3875 5.0179L47.6974 9.83916L43.1858 11.6573Z" fill="#B0E9DD"/>
<path d="M22.1785 61.1814V36.1904L28.3331 38.7129V63.5503L25.2558 60.2221L22.1785 61.1814Z" fill="#1A1D32"/>
<path d="M65.4538 63.5346L65.4711 32.0859L39.4038 42.8646V74.9112L65.4538 63.5346Z" stroke="#1A1D32" stroke-linecap="round" stroke-linejoin="round"/>
<path d="M15.3275 33.1135L39.4035 42.8644V74.911L12.608 63.0005V32.0857L39.4035 20.333L65.4708 32.0857L39.4035 42.8644L15.3275 33.1135Z" stroke="#1A1D32" stroke-linecap="round" stroke-linejoin="round"/>
<path d="M39.4033 42.8633V23.8613" stroke="#1A1D32" stroke-linecap="round" stroke-linejoin="round"/>
</svg>
