<svg width="80" height="80" viewBox="0 0 80 80" fill="none" xmlns="http://www.w3.org/2000/svg">
<path d="M21.1791 78.6442C21.1791 78.6442 24.1312 69.2113 28.7532 68.9506C33.3752 68.6899 40.923 69.2811 45.7853 69.0608C50.6476 68.8405 62.2794 65.7153 66.5396 62.5618C70.7998 59.4084 79.4985 52.6481 79.9622 48.242C80.4258 43.836 76.4656 47.4482 76.4656 47.4482C76.4656 47.4482 68.0452 56.2284 60.0735 59.5604C52.1017 62.8924 41.4827 62.4901 33.9063 61.5705C26.6455 60.6892 19.6277 60.5791 15.3306 66.5274C12.968 69.798 10.1013 74.7115 10.1013 74.7115L21.1791 78.6442Z" fill="#B0E9DD"/>
<path d="M67.6598 49.881C69.4255 46.9047 70.6297 43.6295 71.2122 40.2183C71.2122 40.2183 67.9209 44.889 64.7349 49.1784C62.6397 51.9994 59.4012 55.425 61.3672 54.5346C63.8155 53.5243 65.9768 51.9259 67.6598 49.881Z" fill="#B0E9DD"/>
<path d="M62.479 38.8248C62.8997 41.9234 62.8997 45.0645 62.479 48.1631C60.3828 50.1693 59.4679 49.8818 59.4679 49.8818C59.4679 49.8818 56.4192 49.232 57.3462 48.3998C59.208 46.7282 59.7616 38.0144 62.479 38.8248Z" fill="#B0E9DD"/>
<path d="M51.5594 48.7859C52.4004 47.6027 52.9482 46.2365 53.1576 44.8C53.3634 42.6889 53.2095 39.3801 55.1089 39.9568C57.0083 40.5334 55.8187 47.0586 55.4829 48.3812C55.1471 49.7038 51.5594 48.7859 51.5594 48.7859Z" fill="#B0E9DD"/>
<path d="M57.1707 50.72C56.0106 50.8726 54.8883 51.237 53.8597 51.7948C49.7271 54.1819 50.4556 54.6493 42.9655 55.0167C37.4603 55.7231 31.9997 56.7421 26.6102 58.0687L18.808 63.2546C28.6776 65.1537 43.8186 60.3308 46.5749 60.1379C48.9551 59.9713 51.8265 57.7157 54.7188 55.4155C55.6467 54.6777 58.128 53.7307 58.8192 53.2651L57.1707 50.72Z" fill="#B0E9DD"/>
<path d="M25.402 27.9593V35.4903C25.402 35.7173 25.4617 35.9404 25.5753 36.137C25.6888 36.3336 25.8521 36.4969 26.0487 36.6104L32.5711 40.3759C32.7678 40.4894 32.9908 40.5492 33.2179 40.5492C33.4449 40.5492 33.668 40.4894 33.8646 40.3759L40.387 36.6104C40.5837 36.4969 40.7469 36.3336 40.8605 36.137C40.974 35.9404 41.0338 35.7173 41.0338 35.4903V27.9593C41.0338 27.7323 40.974 27.5092 40.8605 27.3126C40.7469 27.116 40.5837 26.9527 40.387 26.8392L33.8646 23.0737C33.668 22.9602 33.4449 22.9004 33.2179 22.9004C32.9908 22.9004 32.7678 22.9602 32.5711 23.0737L26.0487 26.8392C25.8521 26.9527 25.6888 27.116 25.5753 27.3126C25.4617 27.5092 25.402 27.7323 25.402 27.9593Z" fill="#B0E9DD"/>
<path d="M49.2247 25.9337V29.6396C49.2247 29.7388 49.2508 29.8362 49.3004 29.9221C49.35 30.008 49.4214 30.0794 49.5073 30.129L52.7169 31.9819C52.8028 32.0315 52.9002 32.0576 52.9995 32.0576C53.0987 32.0576 53.1961 32.0315 53.282 31.9819L56.4916 30.129C56.5775 30.0794 56.6488 30.008 56.6984 29.9221C56.7481 29.8362 56.7742 29.7388 56.7742 29.6396V25.9337C56.7742 25.8345 56.7481 25.737 56.6984 25.6511C56.6488 25.5652 56.5775 25.4939 56.4916 25.4443L53.282 23.5913C53.1961 23.5417 53.0987 23.5156 52.9995 23.5156C52.9002 23.5156 52.8028 23.5417 52.7169 23.5913L49.5073 25.4443C49.4214 25.4939 49.35 25.5652 49.3004 25.6511C49.2508 25.737 49.2247 25.8345 49.2247 25.9337Z" fill="#B0E9DD"/>
<path d="M38.8134 10.7151V16.2102C38.8134 16.38 38.8581 16.5468 38.943 16.6939C39.0279 16.841 39.15 16.9631 39.2971 17.048L44.0563 19.7956C44.2034 19.8805 44.3703 19.9252 44.5401 19.9252C44.7099 19.9252 44.8768 19.8805 45.0239 19.7956L49.7831 17.048C49.9302 16.9631 50.0523 16.841 50.1372 16.6939C50.2221 16.5468 50.2668 16.38 50.2668 16.2102V10.7151C50.2668 10.5452 50.2221 10.3784 50.1372 10.2313C50.0523 10.0842 49.9302 9.9621 49.7831 9.8772L45.0239 7.12962C44.8768 7.0447 44.7099 7 44.5401 7C44.3703 7 44.2034 7.0447 44.0563 7.12962L39.2971 9.8772C39.15 9.9621 39.0279 10.0842 38.943 10.2313C38.8581 10.3784 38.8134 10.5452 38.8134 10.7151Z" fill="#B0E9DD"/>
<path d="M1 69.7213C1 69.7213 11.2702 54.4514 17.6646 51.8275C26.4123 48.2379 33.3995 51.2404 40.5056 51.3594C46.0728 51.4526 47.7467 51.3016 49.8113 50.2854C51.8758 49.2693 57.8594 47.4582 59.8721 50.3514C61.9671 53.3628 57.0925 53.7479 54.7189 55.4163C52.791 57.0683 50.3947 58.0763 47.8655 58.2991C44.8318 58.6298 41.7807 58.7756 38.7292 58.7356" stroke="#1A1D32" stroke-miterlimit="10" stroke-linecap="round"/>
<path d="M60.8085 54.7484C63.5273 53.3549 66.1176 51.7238 68.5491 49.8741C69.9651 48.1743 71.5564 46.6284 73.2966 45.2622C76.3918 43.233 79.5003 45.2427 78.6918 47.0223C77.8833 48.8019 69.2007 57.3919 65.0749 60.434C60.9491 63.4762 47.5358 66.39 46.9785 66.4087C42.3479 66.564 29.0798 66.058 26.8387 66.6127C22.7062 67.6354 19.6277 74.7132 19.6277 74.7132" stroke="#1A1D32" stroke-miterlimit="10" stroke-linecap="round"/>
<path d="M66.934 51.0297C68.0135 49.3942 68.9637 47.677 69.7759 45.8936C70.6222 44.1152 71.1102 42.1876 71.2122 40.2207C70.8756 39.0935 68.9947 35.8702 65.6863 43.4566C62.9236 49.7921 59.8719 50.3537 59.8719 50.3537" stroke="#1A1D32" stroke-miterlimit="10" stroke-linecap="round"/>
<path d="M62.4018 48.6628C62.8877 45.6055 63.161 42.5182 63.2197 39.4231C63.2129 37.4035 59.4575 37.3268 58.9577 45.0822C58.7127 46.523 57.999 47.8427 56.9274 48.8365" stroke="#1A1D32" stroke-miterlimit="10" stroke-linecap="round"/>
<path d="M55.3588 48.8129C56.0591 46.3716 56.4135 43.8441 56.4114 41.3044C56.4048 39.285 53.4458 39.1723 53.3163 43.3336C53.2019 45.7401 52.2985 48.0421 50.7454 49.8841" stroke="#1A1D32" stroke-miterlimit="10" stroke-linecap="round"/>
</svg>
