<svg width="93" height="17" viewBox="0 0 93 17" fill="none" xmlns="http://www.w3.org/2000/svg">
<path d="M6.43615 0.311279C6.23465 0.371099 6.16041 0.577799 6.05818 0.738305C5.54225 1.61901 4.99652 2.48373 4.52576 3.3899C5.16889 3.71032 5.81738 4.03369 6.39157 4.46901C6.53422 4.57028 6.64957 4.71536 6.81481 4.78229C6.96103 4.73669 7.08227 4.63894 7.20828 4.55603C7.69746 4.21606 8.20448 3.9034 8.72398 3.61201C8.61996 3.35674 8.47734 3.11981 8.33766 2.88349C7.87938 2.12539 7.39376 1.38442 6.88734 0.657706C6.78927 0.524445 6.70006 0.366361 6.53245 0.311279H6.43615ZM12.9236 2.39938C12.8759 2.40026 12.8278 2.40868 12.7837 2.4209C12.6131 2.47006 12.4574 2.55773 12.2975 2.63354C10.2718 3.63152 8.2913 4.73732 6.45879 6.05868C5.53569 6.74039 4.62561 7.47121 3.92898 8.39101C3.12715 9.49678 2.72834 10.8614 2.66474 12.2147C2.63323 13.2228 2.77587 14.3095 3.41484 15.1281C4.29989 16.1788 5.69081 16.7367 7.05138 16.7479C8.11297 16.7616 9.18526 16.3766 9.95262 15.6369C10.7188 14.89 11.2489 13.9388 11.665 12.9634C12.4847 10.9935 12.8877 8.87843 13.1243 6.76698C13.2557 5.50781 13.3311 4.23863 13.2747 2.97294C13.2628 2.80296 13.2657 2.60747 13.1397 2.47599C13.0818 2.4175 13.0031 2.39792 12.9236 2.39938ZM42.7543 2.80003C41.9165 2.80323 41.063 2.8686 40.2959 3.22411C39.7056 3.49241 39.2212 3.98993 39.0031 4.60175C38.778 5.18041 38.7878 5.81579 38.7944 6.42645H37.6668V8.72451H38.795V16.5253H41.8341V8.72451H43.1145V6.42645H41.8332C41.8433 6.06119 41.8111 5.63681 42.057 5.33555C42.3316 5.0637 42.7548 5.09924 43.112 5.0797V2.80177C42.9933 2.80035 42.8739 2.79956 42.7543 2.80003V2.80003ZM33.4603 3.05762V5.35863H36.4994V3.05762H33.4603ZM62.5829 6.07707C62.1205 6.08477 61.6497 6.13576 61.2235 6.32529C60.7888 6.50583 60.4488 6.84005 60.1919 7.22636V6.42645H57.154V16.5253H60.1919V10.8982C60.197 10.4095 60.345 9.8796 60.7527 9.57266C61.274 9.18412 61.957 9.1504 62.5829 9.12611V6.07707ZM21.3377 6.07829C20.8335 6.08442 20.3298 6.18595 19.8676 6.38203C19.3363 6.60946 18.9096 7.02824 18.6189 7.5216C18.61 7.15676 18.6165 6.7925 18.6153 6.42766C17.669 6.4253 16.7227 6.42704 15.777 6.42645C15.7794 9.79351 15.7699 13.1606 15.7818 16.5277C16.7929 16.5205 17.8039 16.5265 18.815 16.5247C18.8162 14.6934 18.8144 12.8615 18.8156 11.0296C18.8299 10.4687 18.906 9.8605 19.2804 9.41452C19.5996 9.03428 20.1233 8.90514 20.6029 8.92824C21.0244 8.92881 21.4589 9.11719 21.6901 9.47906C22.0016 9.95406 22.0331 10.5439 22.0402 11.0942C22.0396 12.9041 22.0396 14.7147 22.0402 16.5247H25.0781C25.0805 14.6135 25.0757 12.7022 25.0805 10.7909C25.1019 10.2543 25.2113 9.66089 25.6303 9.2842C26.0214 8.93832 26.5838 8.8862 27.0819 8.94958C27.4973 9.00051 27.886 9.25809 28.0578 9.64426C28.2867 10.1311 28.2974 10.6831 28.2962 11.2102C28.2956 12.9817 28.2962 14.7532 28.2956 16.5241C29.3091 16.5241 30.3224 16.5259 31.3353 16.5235C31.3335 14.4162 31.336 12.3089 31.3348 10.2022C31.3247 9.49501 31.2682 8.76538 30.9626 8.11625C30.5531 7.25746 29.797 6.54608 28.8751 6.2689C28.0472 6.01955 27.136 6.00539 26.3139 6.28435C25.4978 6.55975 24.8172 7.1526 24.3607 7.87281C23.9464 7.0987 23.2563 6.44187 22.3933 6.20852C22.083 6.1259 21.7612 6.08259 21.4385 6.07838C21.4049 6.07793 21.3713 6.07788 21.3377 6.07829L21.3377 6.07829ZM75.5657 6.08054C75.3048 6.08411 75.0446 6.11019 74.7908 6.15698C73.7816 6.3471 72.9084 7.01278 72.3681 7.87098C72.1785 7.53161 71.9503 7.21006 71.6679 6.94058C71.1449 6.42945 70.431 6.12856 69.7016 6.08887C68.8635 6.0409 67.9672 6.19839 67.2973 6.73262C67.0167 6.94584 66.8111 7.23428 66.6209 7.52568C66.6168 7.15906 66.6209 6.79307 66.6191 6.42645C65.6728 6.42645 64.7272 6.42587 63.7809 6.42706C63.7815 9.79294 63.7815 13.1582 63.7809 16.5241C64.7938 16.5253 65.8066 16.5241 66.8195 16.5253C66.8224 14.7029 66.8171 12.8805 66.8218 11.058C66.8379 10.4829 66.908 9.85388 67.3009 9.40138C67.6837 8.96192 68.3227 8.86894 68.8731 8.95423C69.2553 9.01346 69.6006 9.2599 69.7748 9.60579C70.0589 10.1513 70.0488 10.7855 70.0446 11.3843C70.0452 13.0978 70.044 14.8112 70.0452 16.5247C71.0575 16.5247 72.0703 16.5241 73.0832 16.5247C73.085 14.6353 73.0809 12.746 73.085 10.8567C73.1034 10.3218 73.1908 9.73311 73.5843 9.3351C73.9777 8.94124 74.5847 8.87966 75.1119 8.9531C75.4965 9.00641 75.856 9.23617 76.0349 9.58384C76.3042 10.0997 76.3025 10.6996 76.3084 11.267C76.3078 13.0196 76.3078 14.7722 76.3084 16.5247C77.3195 16.5265 78.3305 16.52 79.3415 16.5282C79.354 14.6963 79.3434 12.8644 79.3469 11.0325C79.3422 10.3171 79.3666 9.59335 79.2233 8.88855C79.0527 8.0108 78.5124 7.22244 77.7848 6.70657C77.138 6.26192 76.3484 6.06983 75.5657 6.08052L75.5657 6.08054ZM86.0549 6.08063C85.029 6.07291 83.9983 6.37458 83.1599 6.966C82.3736 7.51563 81.7679 8.30453 81.4041 9.18702C80.9458 10.2881 80.8537 11.5235 81.0736 12.6897C81.2561 13.6551 81.6816 14.5838 82.3492 15.3123C83.0458 16.0847 84.0105 16.6017 85.0346 16.7835C86.0302 16.9612 87.1061 16.8978 88.0108 16.4157C88.4441 16.1895 88.8054 15.8371 89.042 15.41L89.0498 16.5235L92.1115 16.5247V6.42645L89.0498 6.42766L89.045 7.52273C88.5558 6.73027 87.6672 6.26889 86.7619 6.13563C86.5281 6.10065 86.2917 6.08241 86.0549 6.08063V6.08063ZM48.9439 6.08237C47.918 6.07464 46.8874 6.37641 46.049 6.96783C45.2626 7.51745 44.6569 8.30636 44.2931 9.18885C43.8349 10.2899 43.7427 11.5254 43.9626 12.6915C44.1451 13.657 44.5707 14.5856 45.2382 15.3141C45.9348 16.0864 46.8995 16.6034 47.9237 16.7852C48.9193 16.9629 49.9951 16.8996 50.8998 16.4175C51.3331 16.1912 51.6945 15.8388 51.931 15.4118L51.9388 16.5253L55.0005 16.5264V6.42827L51.9388 6.4294L51.934 7.52455C51.4448 6.7321 50.5562 6.27072 49.6509 6.13746C49.4171 6.10248 49.1807 6.08415 48.9439 6.08237V6.08237ZM33.4597 6.42645V16.5247H36.4982V6.42645L33.4597 6.42645ZM86.5232 8.90523C87.3303 8.91153 88.1392 9.28617 88.5951 9.9623C89.3256 11.0154 89.1639 12.6074 88.1784 13.4484C87.2612 14.2545 85.7449 14.2468 84.8456 13.4159C84.0158 12.6963 83.7822 11.4413 84.2013 10.4433C84.5062 9.6603 85.2397 9.06025 86.0772 8.94002C86.2243 8.9155 86.3737 8.90406 86.5232 8.90523ZM49.4122 8.90705C50.2194 8.91334 51.0282 9.28798 51.4841 9.96412C52.2146 11.0172 52.0529 12.6092 51.0674 13.4502C50.1502 14.2563 48.634 14.2486 47.7346 13.4176C46.9049 12.698 46.6713 11.443 47.0903 10.445C47.3952 9.66203 48.1287 9.06207 48.9662 8.94184C49.1133 8.91732 49.2627 8.90588 49.4122 8.90705Z" fill="#1A1D32"/>
<path d="M0.261326 2.42826C0.447965 2.33824 0.667296 2.39213 0.852747 2.46024C1.76574 2.81857 2.64603 3.25448 3.50434 3.7277C4.35135 4.19974 5.17934 4.71147 5.94551 5.30611C4.982 5.98248 4.03216 6.71334 3.32186 7.66157C2.53845 8.6785 2.07779 9.93174 2.0029 11.2105C1.94108 12.0947 2.05104 12.9831 2.24422 13.8461C1.81329 13.5168 1.53927 13.0317 1.32886 12.5425C0.937745 11.6079 0.738624 10.6075 0.581704 9.61133C0.2429 7.35655 0.179299 5.07334 0.118077 2.79784C0.109161 2.66339 0.123426 2.49519 0.261326 2.42826Z" fill="#1A1D32"/>
<path d="M6.43615 0.311279C6.23465 0.371099 6.16041 0.577799 6.05818 0.738305C5.54225 1.61901 4.99652 2.48373 4.52576 3.3899C5.16889 3.71032 5.81738 4.03369 6.39157 4.46901C6.53422 4.57028 6.64957 4.71536 6.81481 4.78229C6.96103 4.73669 7.08227 4.63894 7.20828 4.55603C7.69746 4.21606 8.20448 3.9034 8.72398 3.61201C8.61996 3.35674 8.47734 3.11981 8.33766 2.88349C7.87938 2.12539 7.39376 1.38442 6.88734 0.657706C6.78927 0.524445 6.70006 0.366361 6.53245 0.311279H6.43615ZM12.9236 2.39938C12.8759 2.40026 12.8278 2.40868 12.7837 2.4209C12.6131 2.47006 12.4574 2.55773 12.2975 2.63354C10.2718 3.63152 8.2913 4.73732 6.45879 6.05868C5.53569 6.74039 4.62561 7.47121 3.92898 8.39101C3.12715 9.49678 2.72834 10.8614 2.66474 12.2147C2.63323 13.2228 2.77587 14.3095 3.41484 15.1281C4.29989 16.1788 5.69081 16.7367 7.05138 16.7479C8.11297 16.7616 9.18526 16.3766 9.95262 15.6369C10.7188 14.89 11.2489 13.9388 11.665 12.9634C12.4847 10.9935 12.8877 8.87843 13.1243 6.76698C13.2557 5.50781 13.3311 4.23863 13.2747 2.97294C13.2628 2.80296 13.2657 2.60747 13.1397 2.47599C13.0818 2.4175 13.0031 2.39792 12.9236 2.39938ZM42.7543 2.80003C41.9165 2.80323 41.063 2.8686 40.2959 3.22411C39.7056 3.49241 39.2212 3.98993 39.0031 4.60175C38.778 5.18041 38.7878 5.81579 38.7944 6.42645H37.6668V8.72451H38.795V16.5253H41.8341V8.72451H43.1145V6.42645H41.8332C41.8433 6.06119 41.8111 5.63681 42.057 5.33555C42.3316 5.0637 42.7548 5.09924 43.112 5.0797V2.80177C42.9933 2.80035 42.8739 2.79956 42.7543 2.80003V2.80003ZM33.4603 3.05762V5.35863H36.4994V3.05762H33.4603ZM62.5829 6.07707C62.1205 6.08477 61.6497 6.13576 61.2235 6.32529C60.7888 6.50583 60.4488 6.84005 60.1919 7.22636V6.42645H57.154V16.5253H60.1919V10.8982C60.197 10.4095 60.345 9.8796 60.7527 9.57266C61.274 9.18412 61.957 9.1504 62.5829 9.12611V6.07707ZM21.3377 6.07829C20.8335 6.08442 20.3298 6.18595 19.8676 6.38203C19.3363 6.60946 18.9096 7.02824 18.6189 7.5216C18.61 7.15676 18.6165 6.7925 18.6153 6.42766C17.669 6.4253 16.7227 6.42704 15.777 6.42645C15.7794 9.79351 15.7699 13.1606 15.7818 16.5277C16.7929 16.5205 17.8039 16.5265 18.815 16.5247C18.8162 14.6934 18.8144 12.8615 18.8156 11.0296C18.8299 10.4687 18.906 9.8605 19.2804 9.41452C19.5996 9.03428 20.1233 8.90514 20.6029 8.92824C21.0244 8.92881 21.4589 9.11719 21.6901 9.47906C22.0016 9.95406 22.0331 10.5439 22.0402 11.0942C22.0396 12.9041 22.0396 14.7147 22.0402 16.5247H25.0781C25.0805 14.6135 25.0757 12.7022 25.0805 10.7909C25.1019 10.2543 25.2113 9.66089 25.6303 9.2842C26.0214 8.93832 26.5838 8.8862 27.0819 8.94958C27.4973 9.00051 27.886 9.25809 28.0578 9.64426C28.2867 10.1311 28.2974 10.6831 28.2962 11.2102C28.2956 12.9817 28.2962 14.7532 28.2956 16.5241C29.3091 16.5241 30.3224 16.5259 31.3353 16.5235C31.3335 14.4162 31.336 12.3089 31.3348 10.2022C31.3247 9.49501 31.2682 8.76538 30.9626 8.11625C30.5531 7.25746 29.797 6.54608 28.8751 6.2689C28.0472 6.01955 27.136 6.00539 26.3139 6.28435C25.4978 6.55975 24.8172 7.1526 24.3607 7.87281C23.9464 7.0987 23.2563 6.44187 22.3933 6.20852C22.083 6.1259 21.7612 6.08259 21.4385 6.07838C21.4049 6.07793 21.3713 6.07788 21.3377 6.07829L21.3377 6.07829ZM75.5657 6.08054C75.3048 6.08411 75.0446 6.11019 74.7908 6.15698C73.7816 6.3471 72.9084 7.01278 72.3681 7.87098C72.1785 7.53161 71.9503 7.21006 71.6679 6.94058C71.1449 6.42945 70.431 6.12856 69.7016 6.08887C68.8635 6.0409 67.9672 6.19839 67.2973 6.73262C67.0167 6.94584 66.8111 7.23428 66.6209 7.52568C66.6168 7.15906 66.6209 6.79307 66.6191 6.42645C65.6728 6.42645 64.7272 6.42587 63.7809 6.42706C63.7815 9.79294 63.7815 13.1582 63.7809 16.5241C64.7938 16.5253 65.8066 16.5241 66.8195 16.5253C66.8224 14.7029 66.8171 12.8805 66.8218 11.058C66.8379 10.4829 66.908 9.85388 67.3009 9.40138C67.6837 8.96192 68.3227 8.86894 68.8731 8.95423C69.2553 9.01346 69.6006 9.2599 69.7748 9.60579C70.0589 10.1513 70.0488 10.7855 70.0446 11.3843C70.0452 13.0978 70.044 14.8112 70.0452 16.5247C71.0575 16.5247 72.0703 16.5241 73.0832 16.5247C73.085 14.6353 73.0809 12.746 73.085 10.8567C73.1034 10.3218 73.1908 9.73311 73.5843 9.3351C73.9777 8.94124 74.5847 8.87966 75.1119 8.9531C75.4965 9.00641 75.856 9.23617 76.0349 9.58384C76.3042 10.0997 76.3025 10.6996 76.3084 11.267C76.3078 13.0196 76.3078 14.7722 76.3084 16.5247C77.3195 16.5265 78.3305 16.52 79.3415 16.5282C79.354 14.6963 79.3434 12.8644 79.3469 11.0325C79.3422 10.3171 79.3666 9.59335 79.2233 8.88855C79.0527 8.0108 78.5124 7.22244 77.7848 6.70657C77.138 6.26192 76.3484 6.06983 75.5657 6.08052L75.5657 6.08054ZM86.0549 6.08063C85.029 6.07291 83.9983 6.37458 83.1599 6.966C82.3736 7.51563 81.7679 8.30453 81.4041 9.18702C80.9458 10.2881 80.8537 11.5235 81.0736 12.6897C81.2561 13.6551 81.6816 14.5838 82.3492 15.3123C83.0458 16.0847 84.0105 16.6017 85.0346 16.7835C86.0302 16.9612 87.1061 16.8978 88.0108 16.4157C88.4441 16.1895 88.8054 15.8371 89.042 15.41L89.0498 16.5235L92.1115 16.5247V6.42645L89.0498 6.42766L89.045 7.52273C88.5558 6.73027 87.6672 6.26889 86.7619 6.13563C86.5281 6.10065 86.2917 6.08241 86.0549 6.08063V6.08063ZM48.9439 6.08237C47.918 6.07464 46.8874 6.37641 46.049 6.96783C45.2626 7.51745 44.6569 8.30636 44.2931 9.18885C43.8349 10.2899 43.7427 11.5254 43.9626 12.6915C44.1451 13.657 44.5707 14.5856 45.2382 15.3141C45.9348 16.0864 46.8995 16.6034 47.9237 16.7852C48.9193 16.9629 49.9951 16.8996 50.8998 16.4175C51.3331 16.1912 51.6945 15.8388 51.931 15.4118L51.9388 16.5253L55.0005 16.5264V6.42827L51.9388 6.4294L51.934 7.52455C51.4448 6.7321 50.5562 6.27072 49.6509 6.13746C49.4171 6.10248 49.1807 6.08415 48.9439 6.08237V6.08237ZM33.4597 6.42645V16.5247H36.4982V6.42645L33.4597 6.42645ZM86.5232 8.90523C87.3303 8.91153 88.1392 9.28617 88.5951 9.9623C89.3256 11.0154 89.1639 12.6074 88.1784 13.4484C87.2612 14.2545 85.7449 14.2468 84.8456 13.4159C84.0158 12.6963 83.7822 11.4413 84.2013 10.4433C84.5062 9.6603 85.2397 9.06025 86.0772 8.94002C86.2243 8.9155 86.3737 8.90406 86.5232 8.90523ZM49.4122 8.90705C50.2194 8.91334 51.0282 9.28798 51.4841 9.96412C52.2146 11.0172 52.0529 12.6092 51.0674 13.4502C50.1502 14.2563 48.634 14.2486 47.7346 13.4176C46.9049 12.698 46.6713 11.443 47.0903 10.445C47.3952 9.66203 48.1287 9.06207 48.9662 8.94184C49.1133 8.91732 49.2627 8.90588 49.4122 8.90705Z" fill="#1A1D32"/>
<path d="M0.261326 2.42826C0.447965 2.33824 0.667296 2.39213 0.852747 2.46024C1.76574 2.81857 2.64603 3.25448 3.50434 3.7277C4.35135 4.19974 5.17934 4.71147 5.94551 5.30611C4.982 5.98248 4.03216 6.71334 3.32186 7.66157C2.53845 8.6785 2.07779 9.93174 2.0029 11.2105C1.94108 12.0947 2.05104 12.9831 2.24422 13.8461C1.81329 13.5168 1.53927 13.0317 1.32886 12.5425C0.937745 11.6079 0.738624 10.6075 0.581704 9.61133C0.2429 7.35655 0.179299 5.07334 0.118077 2.79784C0.109161 2.66339 0.123426 2.49519 0.261326 2.42826Z" fill="#1A1D32"/>
</svg>
