<svg width="171" height="92" viewBox="0 0 171 92" fill="none" xmlns="http://www.w3.org/2000/svg">
<path d="M98.5825 6.97293V13.3117C98.5825 13.5028 98.6328 13.6906 98.7284 13.8561C98.8239 14.0216 98.9613 14.159 99.1268 14.2545L104.616 17.424C104.782 17.5195 104.97 17.5698 105.161 17.5698C105.352 17.5698 105.54 17.5195 105.705 17.424L111.195 14.2545C111.36 14.159 111.498 14.0216 111.593 13.8561C111.689 13.6906 111.739 13.5028 111.739 13.3117V6.97293C111.739 6.78183 111.689 6.59408 111.593 6.42858C111.498 6.26308 111.36 6.12564 111.195 6.03009L105.705 2.8607C105.54 2.76515 105.352 2.71484 105.161 2.71484C104.97 2.71484 104.782 2.76515 104.616 2.8607L99.1268 6.03009C98.9613 6.12564 98.8239 6.26308 98.7284 6.42858C98.6328 6.59408 98.5825 6.78183 98.5825 6.97293Z" fill="#B0E9DD"/>
<path d="M87.6997 2.83532V5.95456C87.6997 6.03806 87.7217 6.12007 87.7634 6.19238C87.8052 6.26469 87.8652 6.32473 87.9376 6.36648L90.6389 7.92608C90.7112 7.96783 90.7932 7.98983 90.8767 7.98983C90.9602 7.98983 91.0422 7.96783 91.1145 7.92608L93.8159 6.36648C93.8882 6.32473 93.9482 6.2647 93.99 6.19238C94.0317 6.12007 94.0537 6.03806 94.0537 5.95456V2.83532C94.0537 2.75182 94.0317 2.6698 93.99 2.59749C93.9482 2.52519 93.8882 2.46514 93.8159 2.4234L91.1145 0.863774C91.0422 0.822021 90.9602 0.800049 90.8767 0.800049C90.7932 0.800049 90.7112 0.822021 90.6389 0.863774L87.9376 2.4234C87.8652 2.46514 87.8052 2.52519 87.7634 2.59749C87.7217 2.6698 87.6997 2.75182 87.6997 2.83532Z" fill="#B0E9DD"/>
<path d="M76.2588 22.3095C76.424 22.2535 85.9135 16.8699 86.6718 16.3845C87.4301 15.8991 91.2458 13.7624 92.1002 18.2804L76.2588 22.3095Z" fill="#B0E9DD"/>
<path d="M63.0528 32.2624C60.8659 33.1362 61.0218 31.1908 62.8281 30.5824C63.1154 30.4856 84.6788 20.1702 84.6788 20.1702L90.9012 18.5996L91.2808 20.9839L63.0528 32.2624Z" fill="#B0E9DD"/>
<path d="M59.2227 34.3133C59.2227 34.3133 60.4464 36.9651 64.2759 35.6392C67.4605 34.5366 93.5123 23.8465 95.5567 22.9357C98.1326 21.7882 99.6772 22.0184 100.814 25.3096C102.465 30.0908 107.35 43.9771 107.453 44.2727C108.1 46.1157 108.298 47.6977 106.404 48.8815C105.217 49.6231 78.1757 60.6825 75.9974 61.5348C75.0334 62.0577 73.957 62.3391 72.8605 62.3552C71.9891 62.4744 71.1017 62.3452 70.3006 61.9822C69.4995 61.6192 68.8172 61.0373 68.3323 60.3035C66.7461 57.2853 59.2227 34.3133 59.2227 34.3133ZM97.0455 36.5809C97.7134 36.5809 98.3662 36.3829 98.9215 36.0118C99.4768 35.6408 99.9096 35.1134 100.165 34.4964C100.421 33.8794 100.488 33.2005 100.357 32.5455C100.227 31.8904 99.9055 31.2888 99.4332 30.8165C98.961 30.3443 98.3593 30.0227 97.7043 29.8924C97.0493 29.7621 96.3703 29.829 95.7533 30.0846C95.1363 30.3401 94.6089 30.7729 94.2379 31.3282C93.8669 31.8835 93.6689 32.5364 93.6689 33.2042C93.6689 34.0998 94.0246 34.9587 94.6579 35.5919C95.2911 36.2252 96.15 36.5809 97.0455 36.5809Z" fill="#B0E9DD"/>
<path d="M92.8553 59.1692H71.5255C71.1055 59.1704 70.7031 59.3378 70.4061 59.6348C70.1091 59.9318 69.9417 60.3343 69.9404 60.7543C69.9404 61.6261 71.6882 62.3568 72.8602 62.3568L92.8198 62.3394C103.119 62.3394 108.302 61.6261 108.302 60.7543C108.302 59.8825 103.545 59.1692 92.8553 59.1692Z" fill="#B0E9DD"/>
<path d="M96.7494 18.8374L95.4063 16.3494L67.6299 29.5413L67.8366 30.3512L96.259 18.9946" fill="#1A1D32"/>
<path d="M98.0127 36.583C99.4524 36.583 100.62 35.4158 100.62 33.9761C100.62 32.5363 99.4524 31.3691 98.0127 31.3691C96.5729 31.3691 95.4058 32.5363 95.4058 33.9761C95.4058 35.4158 96.5729 36.583 98.0127 36.583Z" fill="#1A1D32"/>
<path d="M64.9214 28.0369L62.3155 29.4327C60.3755 30.4292 59.6042 31.712 60.3469 33.7849L68.0787 55.4699L69.0103 57.8939C69.9806 60.602 71.9984 61.1138 74.4139 60.2484L106.583 47.1276C108.998 46.2622 109.82 44.7906 108.954 42.3751L101.312 21.0442C100.446 18.6288 98.6736 18.1294 96.2581 18.9949L63.0526 32.2622C60.6231 33.1327 61.3667 31.278 62.8279 30.5821" stroke="#1A1D32" stroke-linecap="round" stroke-linejoin="round"/>
<path d="M90.8761 18.6045L90.5556 17.7097C90.4002 17.3566 90.1732 17.0396 89.8889 16.7788C89.6046 16.518 89.2693 16.319 88.9042 16.1945C88.539 16.07 88.152 16.0227 87.7676 16.0555C87.3832 16.0883 87.0098 16.2006 86.6711 16.3852L74.3955 22.9607" stroke="#1A1D32" stroke-linecap="round" stroke-linejoin="round"/>
<path d="M65.6646 30.7944L64.2754 25.6339L94.7859 17.5701L95.4062 19.2977" stroke="#1A1D32" stroke-linecap="round" stroke-linejoin="round"/>
<path d="M73.6792 76.0681C72.9325 76.0681 72.4555 76.6904 72.4555 77.3541C72.4555 78.4326 73.5755 78.5363 73.5755 80.0504C73.5755 80.9008 73.3059 81.9172 72.8703 82.9957C72.0407 84.7172 71.1695 85.381 70.4229 85.381C69.6554 85.381 69.2406 84.8624 69.1162 83.5142L68.6184 78.3082C68.5147 77.1881 69.4273 77.6445 69.4273 76.8355C69.4273 76.5037 69.1576 76.3792 68.7428 76.3792H66.2124C65.6316 76.3792 65.3827 76.5659 65.3827 76.9185C65.3827 77.52 66.3368 77.2711 66.4613 78.4326L67.0628 83.6802C67.3117 85.8995 68.3072 86.8536 69.7591 86.8536C70.1117 86.8536 70.4229 86.7914 70.734 86.6462C69.3028 88.4921 67.5398 89.8818 65.9635 89.8818C64.7397 89.8818 65.0923 88.5544 63.8893 88.5544C63.2464 88.5544 62.8315 88.9899 62.8315 89.55C62.8315 90.5041 63.7856 91.1055 65.3412 91.1055C69.9251 91.1055 75.0689 83.2653 75.0689 77.8311C75.0689 76.6281 74.5089 76.0681 73.6792 76.0681Z" fill="#1A1D32"/>
<path d="M48.7467 86.7498H50.5927C51.2564 86.7498 51.5053 86.5839 51.5053 86.2728C51.5053 85.7335 50.3645 85.7127 50.489 84.8831L52.0446 75.0725L54.5128 82.7675C54.8031 83.6386 55.0728 83.7423 55.5913 83.7423C56.1513 83.7423 56.4002 83.4934 57.1469 82.3319L62.1663 74.4502L60.4863 84.8831C60.3618 85.7127 59.0758 85.7127 59.0758 86.3557C59.0758 86.7083 59.387 86.7498 59.9262 86.7498H62.5604C63.1411 86.7498 63.473 86.6254 63.473 86.2728C63.473 85.7335 62.3322 85.7127 62.4567 84.8831L64.116 74.4917C64.2404 73.6621 65.5679 73.5998 65.5679 73.0606C65.5679 72.7287 65.3812 72.625 64.8004 72.625H63.2656C62.5189 72.625 62.1041 72.8324 61.8344 73.2058L56.255 82.0623L54.015 75.0932C53.6001 73.7865 53.455 72.6665 52.3349 72.625H50.966C50.3645 72.625 50.0949 72.7909 50.0949 73.102C50.0949 73.7243 51.2149 73.6621 51.0905 74.4917L49.4311 84.8831C49.3067 85.7127 48 85.7335 48 86.3557C48 86.6668 48.2282 86.7498 48.7467 86.7498Z" fill="#1A1D32"/>
<path d="M87.2379 78.8564C87.2379 76.7403 85.762 75.6768 82.8212 75.6768C79.8043 75.6768 78.2091 76.8922 78.0572 79.2905H80.6074C80.705 78.0425 81.3019 77.6084 82.7995 77.6084C84.2102 77.6084 84.7311 78.0425 84.7311 78.9215C84.7311 79.6812 84.2753 79.985 83.2335 80.1369L81.6383 80.278C78.9253 80.5385 77.5688 81.6236 77.5688 83.577C77.5688 85.6063 79.0881 86.7566 81.3887 86.7566C82.9297 86.7566 84.08 86.2465 84.7962 85.2156C84.8613 85.8342 84.9373 86.2574 85.0784 86.507H87.6611C87.379 86.0946 87.227 85.4218 87.227 84.4994V78.8564H87.2379ZM84.7311 82.3182C84.7311 84.0436 83.5374 84.9009 82.0073 84.9009C80.8353 84.9009 80.2276 84.3692 80.2276 83.4685C80.2276 82.5895 80.7376 82.112 82.1375 81.9492L83.5374 81.7864C84.0908 81.7213 84.5032 81.5802 84.7528 81.3523V82.3182H84.7311Z" fill="#1A1D32"/>
<path d="M92.3057 72.7251H89.7447V75.9264H88.0952V77.9014H89.7338V83.8917C89.7338 85.8016 90.7647 86.6047 93.0328 86.6047C93.3041 86.6047 93.749 86.583 94.3893 86.5178V84.5428H93.5103C92.6313 84.5428 92.2949 84.2932 92.2949 83.6204V77.8906H94.3893V75.9264H92.2949V72.7251H92.3057Z" fill="#1A1D32"/>
<path d="M108.139 77.2937C107.379 76.2086 106.294 75.6768 104.872 75.6768C101.627 75.6768 100.108 78.2162 100.108 81.2221C100.108 84.1955 101.649 86.7674 104.872 86.7674C106.326 86.7674 107.433 86.1923 108.215 85.042V86.5178H110.721V72.7359H108.139V77.2937ZM105.469 84.6188C103.483 84.6188 102.756 83.0778 102.756 81.2981C102.756 79.0843 103.798 77.8146 105.469 77.8146C107.173 77.8146 108.193 79.0083 108.193 81.2221C108.204 83.0018 107.509 84.6188 105.469 84.6188Z" fill="#1A1D32"/>
<path d="M121.91 84.4994V78.8564C121.91 76.7403 120.434 75.6768 117.493 75.6768C114.476 75.6768 112.881 76.8922 112.729 79.2905H115.268C115.366 78.0425 115.963 77.6084 117.46 77.6084C118.871 77.6084 119.392 78.0425 119.392 78.9215C119.392 79.6812 118.936 79.985 117.894 80.1369L116.31 80.2672C113.597 80.5385 112.251 81.6236 112.251 83.5661C112.251 85.5954 113.771 86.7457 116.071 86.7457C117.612 86.7457 118.763 86.2357 119.479 85.2048C119.544 85.8233 119.62 86.2465 119.761 86.4961H122.344C122.051 86.0946 121.91 85.4218 121.91 84.4994ZM119.403 82.3182C119.403 84.0436 118.209 84.9009 116.679 84.9009C115.507 84.9009 114.899 84.3692 114.899 83.4685C114.899 82.5895 115.409 82.112 116.809 81.9492L118.209 81.7864C118.763 81.7213 119.175 81.5802 119.425 81.3523V82.3182H119.403Z" fill="#1A1D32"/>
<path d="M98.3502 75.1451H98.4696V72.7251H95.9302C95.9302 74.0599 97.0154 75.1451 98.3502 75.1451Z" fill="#1A1D32"/>
<path d="M95.9085 86.5178H98.5021V75.9264H95.9085V86.5178Z" fill="#1A1D32"/>
</svg>
