<svg width="90" height="24" viewBox="0 0 90 24" fill="none" xmlns="http://www.w3.org/2000/svg">
<path d="M31.19 4.88171C30.2939 4.88171 29.7215 5.6284 29.7215 6.42487C29.7215 7.71912 31.0655 7.84357 31.0655 9.66051C31.0655 10.681 30.7419 11.9006 30.2193 13.1948C29.2237 15.2607 28.1783 16.0571 27.2823 16.0571C26.3614 16.0571 25.8636 15.4349 25.7143 13.8171L25.1169 7.56979C24.9925 6.22575 26.0876 6.77332 26.0876 5.80263C26.0876 5.4044 25.764 5.25506 25.2662 5.25506H22.2297C21.5328 5.25506 21.2341 5.47906 21.2341 5.90219C21.2341 6.62398 22.3791 6.32531 22.5284 7.71912L23.2502 14.0162C23.5489 16.6794 24.7436 17.8243 26.4858 17.8243C26.909 17.8243 27.2823 17.7496 27.6556 17.5754C25.9383 19.7906 23.8227 21.4582 21.931 21.4582C20.4626 21.4582 20.8857 19.8652 19.4421 19.8652C18.6705 19.8652 18.1727 20.3879 18.1727 21.0599C18.1727 22.2048 19.3176 22.9266 21.1844 22.9266C26.685 22.9266 32.8576 13.5184 32.8576 6.99733C32.8576 5.55373 32.1855 4.88171 31.19 4.88171Z" fill="#1A1D32"/>
<path d="M1.27102 17.6998H3.48619C4.28266 17.6998 4.58133 17.5007 4.58133 17.1273C4.58133 16.4802 3.21241 16.4553 3.36175 15.4597L5.22846 3.68697L8.19032 12.921C8.53877 13.9663 8.86233 14.0908 9.48457 14.0908C10.1566 14.0908 10.4553 13.7921 11.3513 12.3983L17.3746 2.94028L15.3585 15.4597C15.2092 16.4553 13.666 16.4553 13.666 17.2269C13.666 17.65 14.0394 17.6998 14.6865 17.6998H17.8475C18.5444 17.6998 18.9426 17.5504 18.9426 17.1273C18.9426 16.4802 17.5737 16.4553 17.723 15.4597L19.7142 2.99006C19.8635 1.99448 21.4564 1.91981 21.4564 1.27268C21.4564 0.874448 21.2324 0.75 20.5355 0.75H18.6937C17.7977 0.75 17.2999 0.998897 16.9763 1.44691L10.281 12.0747L7.59297 3.71185C7.09518 2.14382 6.92095 0.79978 5.57691 0.75H3.9342C3.21241 0.75 2.88884 0.949117 2.88884 1.32246C2.88884 2.06915 4.23288 1.99448 4.08354 2.99006L2.09238 15.4597C1.94304 16.4553 0.375 16.4802 0.375 17.2269C0.375 17.6002 0.648785 17.6998 1.27102 17.6998Z" fill="#1A1D32"/>
<path d="M47.4605 8.2277C47.4605 5.68835 45.6895 4.41217 42.1604 4.41217C38.5403 4.41217 36.626 5.87067 36.4437 8.74859H39.5039C39.6211 7.25103 40.3373 6.73014 42.1344 6.73014C43.8273 6.73014 44.4524 7.25103 44.4524 8.30583C44.4524 9.21739 43.9054 9.58201 42.6553 9.76432L40.741 9.93361C37.4854 10.2461 35.8577 11.5484 35.8577 13.8924C35.8577 16.3275 37.6808 17.7079 40.4415 17.7079C42.2907 17.7079 43.671 17.0959 44.5305 15.8587C44.6086 16.601 44.6998 17.1089 44.8691 17.4084H47.9684C47.6298 16.9135 47.4475 16.1062 47.4475 14.9993V8.2277H47.4605ZM44.4524 12.3818C44.4524 14.4523 43.0199 15.4811 41.1838 15.4811C39.7774 15.4811 39.0481 14.843 39.0481 13.7622C39.0481 12.7074 39.6602 12.1344 41.34 11.939L43.0199 11.7437C43.684 11.6656 44.1789 11.4963 44.4784 11.2228V12.3818H44.4524Z" fill="#1A1D32"/>
<path d="M53.5419 0.870117H50.4686V4.71168H48.4893V7.08174H50.4556V14.27C50.4556 16.5619 51.6927 17.5256 54.4144 17.5256C54.7399 17.5256 55.2739 17.4995 56.0422 17.4214V15.0514H54.9874C53.9326 15.0514 53.5289 14.7519 53.5289 13.9445V7.06871H56.0422V4.71168H53.5289V0.870117H53.5419Z" fill="#1A1D32"/>
<path d="M72.5414 6.35249C71.6298 5.05026 70.3276 4.41217 68.6217 4.41217C64.728 4.41217 62.9049 7.45938 62.9049 11.0665C62.9049 14.6346 64.7541 17.7209 68.6217 17.7209C70.3667 17.7209 71.6949 17.0307 72.6325 15.6504V17.4214H75.6407V0.88314H72.5414V6.35249ZM69.3379 15.1425C66.9548 15.1425 66.0823 13.2934 66.0823 11.1577C66.0823 8.50116 67.3325 6.97756 69.3379 6.97756C71.3824 6.97756 72.6065 8.41001 72.6065 11.0665C72.6195 13.2022 71.7861 15.1425 69.3379 15.1425Z" fill="#1A1D32"/>
<path d="M89.0666 14.9993V8.2277C89.0666 5.68835 87.2956 4.41217 83.7666 4.41217C80.1464 4.41217 78.2321 5.87067 78.0498 8.74859H81.097C81.2142 7.25103 81.9304 6.73014 83.7275 6.73014C85.4204 6.73014 86.0455 7.25103 86.0455 8.30583C86.0455 9.21739 85.4985 9.58201 84.2484 9.76432L82.3471 9.92059C79.0916 10.2461 77.4768 11.5484 77.4768 13.8794C77.4768 16.3145 79.2999 17.6949 82.0607 17.6949C83.9098 17.6949 85.2902 17.0828 86.1496 15.8457C86.2278 16.588 86.3189 17.0959 86.4882 17.3954H89.5875C89.2359 16.9135 89.0666 16.1062 89.0666 14.9993ZM86.0585 12.3818C86.0585 14.4523 84.626 15.4811 82.7899 15.4811C81.3835 15.4811 80.6543 14.843 80.6543 13.7622C80.6543 12.7074 81.2663 12.1344 82.9462 11.939L84.626 11.7437C85.2902 11.6656 85.785 11.4963 86.0845 11.2228V12.3818H86.0585Z" fill="#1A1D32"/>
<path d="M60.7953 3.77408H60.9385V0.870117H57.8913C57.8913 2.47186 59.1936 3.77408 60.7953 3.77408Z" fill="#1A1D32"/>
<path d="M57.8653 17.4214H60.9776V4.71168H57.8653V17.4214Z" fill="#1A1D32"/>
</svg>
