<svg width="23" height="22" viewBox="0 0 23 22" fill="none" xmlns="http://www.w3.org/2000/svg">
<g id="Icon">
<path d="M16.5001 20H7.01006C6.78561 20.0083 6.5649 19.9408 6.3835 19.8083C6.20209 19.6759 6.07054 19.4863 6.01006 19.27L2.83006 7.99997H21.5001C21.7653 7.99997 22.0196 7.89461 22.2072 7.70708C22.3947 7.51954 22.5001 7.26519 22.5001 6.99997C22.5001 6.73475 22.3947 6.4804 22.2072 6.29286C22.0196 6.10533 21.7653 5.99997 21.5001 5.99997H19.0401L15.3301 0.449969C15.1738 0.255928 14.9506 0.127226 14.7044 0.0890692C14.4582 0.0509121 14.2066 0.106049 13.9989 0.243681C13.7912 0.381313 13.6424 0.591526 13.5815 0.83315C13.5207 1.07477 13.5523 1.3304 13.6701 1.54997L16.6701 5.99997H6.37006L9.37006 1.54997C9.48783 1.3304 9.5194 1.07477 9.45857 0.83315C9.39775 0.591526 9.24891 0.381313 9.04121 0.243681C8.83351 0.106049 8.58191 0.0509121 8.33569 0.0890692C8.08947 0.127226 7.86636 0.255928 7.71006 0.449969L3.96006 5.99997H1.50006C1.34481 5.99997 1.1917 6.03611 1.05284 6.10554C0.913986 6.17497 0.793202 6.27577 0.700055 6.39997C0.601607 6.51958 0.532296 6.66043 0.497588 6.81141C0.46288 6.96239 0.463725 7.11937 0.500055 7.26997L4.12006 19.82C4.29865 20.4485 4.67756 21.0015 5.19919 21.395C5.72082 21.7885 6.35666 22.0009 7.01006 22H16.5001C16.7653 22 17.0196 21.8946 17.2072 21.7071C17.3947 21.5195 17.5001 21.2652 17.5001 21C17.5001 20.7348 17.3947 20.4804 17.2072 20.2929C17.0196 20.1053 16.7653 20 16.5001 20Z" fill="#1A1D32"/>
<path d="M21.5001 13H19.5001V11C19.5001 10.7348 19.3947 10.4804 19.2072 10.2929C19.0196 10.1053 18.7653 9.99997 18.5001 9.99997C18.2348 9.99997 17.9805 10.1053 17.7929 10.2929C17.6054 10.4804 17.5001 10.7348 17.5001 11V13H15.5001C15.2348 13 14.9805 13.1053 14.7929 13.2929C14.6054 13.4804 14.5001 13.7348 14.5001 14C14.5001 14.2652 14.6054 14.5195 14.7929 14.7071C14.9805 14.8946 15.2348 15 15.5001 15H17.5001V17C17.5001 17.2652 17.6054 17.5195 17.7929 17.7071C17.9805 17.8946 18.2348 18 18.5001 18C18.7653 18 19.0196 17.8946 19.2072 17.7071C19.3947 17.5195 19.5001 17.2652 19.5001 17V15H21.5001C21.7653 15 22.0196 14.8946 22.2072 14.7071C22.3947 14.5195 22.5001 14.2652 22.5001 14C22.5001 13.7348 22.3947 13.4804 22.2072 13.2929C22.0196 13.1053 21.7653 13 21.5001 13Z" fill="#1A1D32"/>
</g>
</svg>
