<svg width="23" height="22" viewBox="0 0 23 22" fill="none" xmlns="http://www.w3.org/2000/svg">
<path d="M17.0005 20H7.51054C7.2861 20.0083 7.06539 19.9408 6.88398 19.8084C6.70258 19.6759 6.57103 19.4863 6.51054 19.27L3.33054 8H22.0005C22.2658 8 22.5201 7.89464 22.7077 7.70711C22.8952 7.51957 23.0005 7.26522 23.0005 7C23.0005 6.73478 22.8952 6.48043 22.7077 6.29289C22.5201 6.10536 22.2658 6 22.0005 6H19.5405L15.8305 0.45C15.6742 0.255959 15.4511 0.127257 15.2049 0.0890997C14.9587 0.0509427 14.7071 0.106079 14.4994 0.243712C14.2917 0.381344 14.1429 0.591557 14.082 0.83318C14.0212 1.0748 14.0528 1.33043 14.1705 1.55L17.1705 6H6.87054L9.87054 1.55C9.98832 1.33043 10.0199 1.0748 9.95906 0.83318C9.89824 0.591557 9.7494 0.381344 9.5417 0.243712C9.334 0.106079 9.0824 0.0509427 8.83618 0.0890997C8.58995 0.127257 8.36684 0.255959 8.21054 0.45L4.46054 6H2.00054C1.8453 6 1.69219 6.03615 1.55333 6.10557C1.41447 6.175 1.29369 6.2758 1.20054 6.4C1.1021 6.51961 1.03278 6.66046 0.998077 6.81144C0.963369 6.96242 0.964213 7.1194 1.00054 7.27L4.62054 19.82C4.79914 20.4485 5.17805 21.0015 5.69968 21.395C6.22131 21.7885 6.85715 22.0009 7.51054 22H17.0005C17.2658 22 17.5201 21.8946 17.7077 21.7071C17.8952 21.5196 18.0005 21.2652 18.0005 21C18.0005 20.7348 17.8952 20.4804 17.7077 20.2929C17.5201 20.1054 17.2658 20 17.0005 20Z" fill="white"/>
<path d="M22.0005 13H20.0005V11C20.0005 10.7348 19.8952 10.4804 19.7077 10.2929C19.5201 10.1054 19.2658 10 19.0005 10C18.7353 10 18.481 10.1054 18.2934 10.2929C18.1059 10.4804 18.0005 10.7348 18.0005 11V13H16.0005C15.7353 13 15.481 13.1054 15.2934 13.2929C15.1059 13.4804 15.0005 13.7348 15.0005 14C15.0005 14.2652 15.1059 14.5196 15.2934 14.7071C15.481 14.8946 15.7353 15 16.0005 15H18.0005V17C18.0005 17.2652 18.1059 17.5196 18.2934 17.7071C18.481 17.8946 18.7353 18 19.0005 18C19.2658 18 19.5201 17.8946 19.7077 17.7071C19.8952 17.5196 20.0005 17.2652 20.0005 17V15H22.0005C22.2658 15 22.5201 14.8946 22.7077 14.7071C22.8952 14.5196 23.0005 14.2652 23.0005 14C23.0005 13.7348 22.8952 13.4804 22.7077 13.2929C22.5201 13.1054 22.2658 13 22.0005 13Z" fill="white"/>
</svg>
