<svg width="161" height="160" viewBox="0 0 161 160" fill="none" xmlns="http://www.w3.org/2000/svg">
<path fill-rule="evenodd" clip-rule="evenodd" d="M72.0088 68.6833C77.5873 72.6709 84.4142 77.2205 89.972 80.9243C94.1774 83.7269 97.6562 86.0452 99.3175 87.2694C103.153 90.0959 106.989 97.757 109.952 103.674C111.618 107.002 113.008 109.778 113.967 110.833C116.63 113.764 147.261 140.012 147.261 140.012L137.006 156C123.993 141.261 109.489 127.91 93.7243 116.163C92.1732 114.914 90.9208 113.137 89.9155 111.177C85.2674 115.036 80.5722 117.856 76.3871 119.363C63.6776 123.94 30.5873 115.339 16.6328 79.43C11.8859 67.2148 10.3176 43.7192 28.3633 35.794C38.9037 31.1649 45.7892 35.3805 51.0419 38.5964C55.0427 41.0459 58.0962 42.9154 61.0961 39.8553C70.3895 30.3755 102.196 9.92596 113.2 44.665C115.934 53.295 116.196 61.83 114.758 69.8881C113.9 69.6855 112.996 69.6056 112.035 69.7564C110.741 69.9596 109.771 70.2766 108.932 70.5504C107.553 71.0007 106.532 71.3343 105.02 70.853C102.886 69.8798 100.482 69.6709 98.2126 70.2613C96.8381 70.8936 95.5888 71.7687 94.5246 72.8444C89.997 70.2779 82.282 65.7888 75.679 61.3601L75.0349 60.9279C65.5605 54.5707 63.9097 53.463 62.8157 55.5182C61.1375 58.6721 64.3555 62.4761 71.4584 68.2417C71.6308 68.3815 71.8144 68.5288 72.0088 68.6833Z" fill="#B0E9DD"/>
<path d="M87.6038 96.6611C87.6038 96.6611 65.6227 57.3877 61.4733 64.7533C57.324 72.119 59.0516 113.05 73.5999 115.462C96.5481 119.266 87.6038 96.6611 87.6038 96.6611Z" fill="#00CCA2"/>
<path d="M84.4662 111.695C84.4662 111.695 86.4611 110.488 88.4611 109.295C89.7067 108.542 90.8678 107.658 91.9244 106.657L88.1514 95.0418C88.1514 95.0418 86.0738 91.114 85.3931 89.8705C84.7124 88.6271 86.4616 86.6099 87.5403 86.6858C87.5403 86.6858 68.2533 69.172 64.9853 65.1095C61.7174 61.0471 62.1554 60.9892 62.1554 60.9892C62.1554 60.9892 59.8086 59.3594 58.2992 60.7362C56.7899 62.113 59.942 65.7548 61.4733 67.7977C63.0045 69.8407 79.2743 88.4493 79.2743 88.4493C79.2743 88.4493 77.7428 89.2487 78.8526 93.157C81.7044 98.9956 83.5998 105.255 84.4662 111.695Z" fill="#1A1D32"/>
<path d="M158.889 130.214C151.511 123.708 144.863 116.417 139.064 108.47C135.601 102.513 127.923 81.1522 122.223 78.0559C120.707 77.2325 118.798 78.0685 116.018 77.4369C113.628 76.8936 111.227 74.265 107.842 74.4945C104.54 74.7184 103.32 75.8904 101.069 74.949C99.1182 73.8437 96.8473 73.4426 94.6365 73.8128C93.2757 74.1873 92.0422 74.9247 91.0679 75.9463" stroke="#1A1D32" stroke-linecap="round" stroke-linejoin="round"/>
<path d="M94.4142 78.3483C94.4142 78.3483 82.9248 70.7047 73.9244 63.4436C64.924 56.1825 63.4056 54.8921 62.1642 56.7988C60.3005 59.6613 63.0461 63.5538 69.3272 69.6417C75.6082 75.7297 99.2142 95.5611 102.322 105.803" stroke="#1A1D32" stroke-linecap="round" stroke-linejoin="round"/>
<path d="M134.922 148.285C127.829 140.038 119.757 132.686 110.886 126.392C99.3327 119.097 94.0302 112.45 91.9239 106.657C89.7282 100.618 88.8404 94.7558 85.9993 91.1806C84.7502 89.6088 85.4066 86.8233 88.1837 87.3299" stroke="#1A1D32" stroke-linecap="round" stroke-linejoin="round"/>
<path d="M115.433 77.2646C121.233 64.8602 122.788 50.8895 119.857 37.5124C111.103 -1.42089 76.9719 17.5241 66.7432 26.8721C59.1063 33.8516 53.1012 12.1125 33.4521 19.0565C14.3558 25.805 14.2486 51.5277 18.227 65.3088C29.9224 105.821 63.2488 118.612 76.6247 114.953C82.196 113.214 87.3954 110.454 91.9577 106.813" stroke="#1A1D32" stroke-linejoin="round"/>
</svg>
