<svg width="100" height="100" viewBox="0 0 100 100" fill="none" xmlns="http://www.w3.org/2000/svg">
<path d="M58.6381 53.2528C58.6381 53.2528 55.3433 52.1731 54.7641 54.8784C54.3955 56.5999 57.4387 57.5646 58.925 58.1696C58.925 58.1696 65.3729 61.1364 67.7131 59.5419C69.0469 58.6333 68.4627 56.7357 65.5991 55.5979C63.5548 54.7856 61.2704 54.0256 58.6381 53.2528Z" fill="#00CCA2"/>
<path d="M32.9277 88.0355L47.2922 96.8751C47.2922 96.8751 55.7203 75.0343 59.0427 73.3268C62.3651 71.6194 71.5917 71.8563 74.0521 70.5034C76.5124 69.1504 91.4432 60.3026 94.2039 60.2515C96.9646 60.2003 96.2786 55.5243 86.9692 58.035C79.8004 59.9684 75.4545 64.0727 69.7649 64.3814C64.0752 64.69 51.7773 62.2576 47.9053 65.4981C44.0333 68.7387 32.9277 88.0355 32.9277 88.0355Z" fill="#B0E9DD"/>
<path d="M71.1682 57.6555C71.1682 57.6555 82.9708 49.997 84.7136 47.9746C86.4564 45.9521 92.1094 34.5789 94.2036 34.8131C96.2978 35.0474 89.3268 48.8411 87.8915 50.4255C86.4563 52.0099 79.0751 58.0349 79.0751 58.0349C79.0751 58.0349 68.4475 59.792 71.1682 57.6555Z" fill="#B0E9DD"/>
<path d="M63.0308 46.6209C63.0308 46.6209 69.3532 35.0605 70.1902 32.4307C71.0271 29.8009 73.3482 36.5482 64.627 47.0883C63.6459 48.5839 62.2956 47.9422 63.0308 46.6209Z" fill="#B0E9DD"/>
<path d="M68.3102 47.9745C70.3976 45.7285 72.2524 43.2758 73.8461 40.654C74.7688 38.4422 77.4343 29.4407 78.7157 29.4407C79.9972 29.4407 78.0493 35.7675 75.8965 40.7569C73.7436 45.7463 71.609 47.5198 70.4722 48.2019C69.3354 48.884 67.4901 49.5855 68.3102 47.9745Z" fill="#B0E9DD"/>
<path d="M74.5641 49.0865C76.5427 46.993 78.2794 44.6819 79.7412 42.1973C80.8689 39.6769 85.3029 28.515 86.2895 29.4409C87.2762 30.3668 85.1561 36.8721 83.3524 41.2715C81.6324 44.7364 79.1322 47.752 76.0498 50.0795C74.4616 51.5075 73.3311 50.4765 74.5641 49.0865Z" fill="#B0E9DD"/>
<path d="M60.483 56.3165C60.483 56.3165 59.2788 55.5981 59.866 53.5382C60.0354 53.0577 60.3413 52.6375 60.746 52.3296C61.1507 52.0216 61.6364 51.8394 62.1432 51.8054C60.9616 51.3338 59.7347 50.9855 58.482 50.7659C57.6927 50.808 56.0287 50.6141 55.3433 52.1734C55.2263 52.407 55.1577 52.6619 55.1414 52.9229C55.1252 53.1838 55.1618 53.4453 55.2488 53.6917C55.3359 53.9381 55.4717 54.1643 55.6482 54.3567C55.8246 54.549 56.038 54.7036 56.2755 54.8111C56.7221 55.0364 60.483 56.3165 60.483 56.3165Z" fill="#1A1D32"/>
<path d="M65.4398 14.8584C61.9449 8.6753 51.4912 7.99958 42.0914 13.3504C32.6907 18.7 27.9032 28.0491 31.3981 34.2322C34.8927 40.4163 45.3456 41.0908 54.7462 35.7412C64.1459 30.3913 68.9337 21.0412 65.4398 14.8584ZM52.8623 23.8444C49.4439 24.9015 41.4427 27.4404 42.7604 23.6532C44.0774 19.8659 53.9801 16.1879 58.2798 18.6882C62.5806 21.1878 56.2809 22.7865 52.8623 23.8444Z" fill="#B0E9DD"/>
<path d="M42.1885 19.3749C49.6476 14.2874 58.0186 13.1937 62.3615 17.0375C62.1483 16.5407 61.8808 16.0672 61.5636 15.6249C58.0897 10.7813 48.7882 10.9954 40.626 16.5624C32.4639 22.1285 28.3556 31.1591 32.1465 36.3071C32.4747 36.7418 32.8501 37.1417 33.2664 37.4999C31.251 32.1874 34.7293 24.4624 42.1885 19.3749Z" fill="#1A1D32"/>
<path d="M5.82544 59.5032L30.3822 42.2007L29.5364 40.7339L5.48242 58.9087L5.82544 59.5032Z" fill="#1A1D32"/>
<path d="M60.5165 51.0905C59.8783 50.8385 59.1934 50.7273 58.5084 50.7646C57.8235 50.8019 57.1546 50.9868 56.5473 51.3067C56.251 51.5533 56.0264 51.8756 55.8973 52.2395C55.7683 52.6035 55.7394 52.9956 55.8138 53.3746C55.8882 53.7537 56.0631 54.1056 56.3201 54.3932C56.5771 54.6808 56.9066 54.8935 57.274 55.009C58.5535 55.4616 62.2978 56.7085 63.9517 57.2762C65.1092 57.6734 67.3917 58.1502 68.1091 56.1589C68.213 55.8671 68.2578 55.5574 68.2409 55.248C68.224 54.9387 68.1457 54.6358 68.0106 54.3572C67.8755 54.0785 67.6864 53.8297 67.4543 53.6254C67.2221 53.4211 66.9517 53.2653 66.6588 53.1672C65.8203 52.7366 62.6124 51.7461 60.5165 51.0905Z" stroke="#1A1D32" stroke-width="0.59375" stroke-miterlimit="10"/>
<path d="M53.9269 36.0485C62.0471 30.2733 65.5718 21.2619 61.7995 15.9208C58.0273 10.5797 48.3866 10.9316 40.2664 16.7067C32.1462 22.4819 28.6215 31.4934 32.3937 36.8344C36.166 42.1755 45.8067 41.8236 53.9269 36.0485Z" stroke="#1A1D32" stroke-width="0.59375" stroke-miterlimit="10" stroke-linecap="round"/>
<path d="M55.8351 38.7514C63.9553 32.9762 67.48 23.9647 63.7078 18.6237C59.9355 13.2826 50.2948 13.6345 42.1746 19.4096C34.0544 25.1848 30.5297 34.1962 34.3019 39.5373C38.0742 44.8784 47.7149 44.5265 55.8351 38.7514Z" stroke="#1A1D32" stroke-width="0.59375" stroke-miterlimit="10" stroke-linecap="round"/>
<path d="M29.078 39.9419L4.375 56.9921L5.82502 59.5033L30.3818 42.2008L29.078 39.9419Z" stroke="#1A1D32" stroke-width="0.59375" stroke-miterlimit="10" stroke-linecap="round"/>
<path d="M32.7331 38.3232L29.4629 40.6103" stroke="#1A1D32" stroke-width="0.59375" stroke-miterlimit="10" stroke-linecap="round"/>
<path d="M33.2165 38.8914L29.9463 41.1784" stroke="#1A1D32" stroke-width="0.59375" stroke-miterlimit="10" stroke-linecap="round"/>
<path d="M34.086 39.2309L32.4521 36.8979" stroke="#1A1D32" stroke-width="0.59375" stroke-miterlimit="10" stroke-linecap="round"/>
<path d="M47.8369 90.9083C47.8369 90.9083 55.4037 73.5667 59.0971 71.4047C62.7905 69.2427 66.9226 70.4207 71.7179 69.0823C76.2346 67.6972 80.5476 65.7151 84.5432 63.1882C89.5859 60.0629 91.5454 58.7447 94.6232 58.6325C95.7767 58.5905 97.3535 54.9359 90.2116 54.4593C87.2062 54.4214 84.2478 55.2104 81.6577 56.7408C79.5551 57.9525 77.1934 58.6397 74.771 58.7448" stroke="#1A1D32" stroke-width="0.59375" stroke-linecap="round" stroke-linejoin="round"/>
<path d="M29.7148 80.1498C29.7148 80.1498 36.8613 70.5236 38.5541 65.1702C40.247 59.8167 42.1959 55.5763 49.9165 52.3782C64.7672 46.2268 65.3058 37.7101 67.3064 34.3641C69.307 31.0181 71.5869 31.2585 70.7177 34.3641C68.2041 43.3441 65.1848 47.055 65.1848 47.055C65.9983 46.8875 68.9603 42.9205 70.3013 41.3185C71.9527 38.8453 73.1835 36.1143 73.9436 33.2367C75.6453 27.9547 78.9194 28.2434 79.0042 29.7877C78.0838 34.0168 76.7318 38.1396 74.9695 42.0906C73.8142 44.3284 72.386 46.4133 70.7178 48.2973C72.1274 47.9951 76.4631 42.3661 77.1299 41.6454C78.8022 39.2281 80.1799 36.6186 81.2338 33.8725C83.5421 28.7763 85.2862 28.2101 86.7226 29.1366C87.6841 29.7569 84.3584 38.0518 81.439 43.6788C80.0652 45.9704 78.4482 48.1061 76.6162 50.0484C78.4999 49.3277 82.1059 45.5062 83.5422 44.3737C84.9785 43.2412 87.7999 38.0421 90.2109 35.7256C92.6219 33.4092 94.9302 34.4902 94.7763 35.7256C92.4612 40.6704 89.7327 45.4095 86.62 49.8919C85.1324 51.6008 76.4426 58.7076 76.4426 58.7076" stroke="#1A1D32" stroke-width="0.59375" stroke-linejoin="round"/>
</svg>
