<?xml version="1.0" encoding="utf-8"?>
<!-- Generator: Adobe Illustrator 25.2.3, SVG Export Plug-In . SVG Version: 6.00 Build 0)  -->
<svg version="1.1" id="Layer_1" xmlns="http://www.w3.org/2000/svg" xmlns:xlink="http://www.w3.org/1999/xlink" x="0px" y="0px"
	 viewBox="0 0 431 429" style="enable-background:new 0 0 431 429;" xml:space="preserve">
<style type="text/css">
	.st0{fill:#B1E8DC;}
	.st1{fill:#080909;}
	.st2{fill:#04CCA3;}
	.st3{fill:#FDFDFD;}
	.st4{fill:#FBFBFB;}
</style>
<g>
	<path class="st0" d="M162.28,282.15c-1.83-1.82-0.32-3.66,0.12-5.37c3.68-14.3,6.38-28.79,8.64-43.38
		c0.54-3.53-0.52-4.73-3.55-5.71c-12.34-3.97-24.56-8.27-36.35-13.73c-6.51-3.02-12.9-6.22-18.09-11.3
		c-3.03-2.96-2.83-6.75,0.71-8.77c3.6-2.05,7.61-3.33,11.92-2.43c10.41,2.17,19.1,7.57,26.72,14.71
		c5.83,5.47,11.32,11.3,16.97,16.95c0.68,0.69,1.33,1.73,2.42,1.47c1.25-0.3,0.92-1.57,1.03-2.52c0.98-8.72,1.87-17.46,2.96-26.16
		c0.48-3.82-0.96-5.7-4.68-6.78c-18.11-5.26-35.61-11.97-51.09-23.08c-3.8-2.73-7.3-5.78-9.27-10.22c-1.32-2.97-1.5-5.94,0.59-8.48
		c2.14-2.61,5.2-2.8,8.25-1.86c9.58,2.97,17.23,9.21,25.16,14.95c10.61,7.69,20.12,16.72,30.63,25.35c2.09-7.7,1.3-15.13,1.48-22.48
		c0.08-3.11-2.42-4.12-4.69-5.18c-14.47-6.76-28.85-13.67-41.97-22.92c-7.64-5.38-15.22-10.78-19.96-19.16
		c-3.02-5.33-4.22-10.69-0.74-16.39c3.04-4.96,7.13-6.72,12.71-4.99c11.08,3.44,18.23,11.97,25.46,20.2
		c10.63,12.11,19.44,25.63,29.87,38.64c0-4.95,0.39-9.94-0.1-14.83c-0.57-5.66-0.69-11.23-0.05-16.87
		c0.64-5.64-1.42-10.4-5.47-14.32c-7.66-7.4-15.48-14.66-21-23.93c-2.72-4.57-5.36-9.17-6.56-14.47c-0.91-4.02,0.11-7.68,2.17-10.92
		c3.55-5.57,8.53-5.49,12.33-0.04c6.96,9.97,10.5,21.42,13.98,32.88c1.34,4.43,3.13,8.42,7.94,10.09c2.6,0.9,2.07,3.18,2,5.08
		c-0.37,9.46,1.16,18.79,1.21,29.81c4.26-5.08,7.45-9.13,10.89-12.95c13.43-14.93,28.47-27.58,48.63-32.3
		c8.51-1.99,17.13-1.4,25.53,0.97c5.61,1.58,6.68,5.97,2.47,10.11c-7,6.89-15.73,11.13-24.59,14.96
		c-18.92,8.19-38.2,15.46-57.9,21.57c-3.77,1.17-5.47,3.13-5.29,7.18c0.33,7.47,0.06,14.94-0.81,22.39
		c-0.14,1.21-0.62,2.83,0.84,3.63c1.52,0.84,2.35-0.61,3.4-1.35c13.6-9.65,27.76-18.32,43.54-23.96c4.34-1.55,8.9-2.3,13.63-1.39
		c6.93,1.33,9.43,3.9,10.38,11.23c-18.43,0.02-34.87,5.83-49.48,16.98c-5.75,0.33-11.51,0.57-17.25,1.01
		c-3.4,0.26-5.17,1.84-5.29,5.72c-0.2,6.22-1.21,12.41-1.63,18.63c-0.13,2-1.62,4.83,1.97,5.68c-2.91,9.35-4.32,18.97-5,28.71
		c-1.93,2.44-1.3,5.53-1.97,8.29c-0.48,1.97,1.24,2.74,3.1,2.74c0.74,0.6,0.61,1.4,0.5,2.2c-2.47-0.18-5.21,0.19-5.51,2.94
		c-1.08,9.81-4.65,19.14-5.38,28.99C166.03,278.51,163.85,279.85,162.28,282.15z"/>
	<path class="st1" d="M179.62,246.04c0.11-0.79,0.24-1.59-0.5-2.19c-0.38-3.67-0.75-7.35-1.13-11.02c0.68-9.74,2.09-19.36,5-28.71
		c5.3-11.85,12.26-22.5,22.2-31.02c14.61-11.15,31.05-16.96,49.48-16.98c24.07,1.22,43.88,10.59,58.54,30.17
		c17.99,24.02,19.92,56.18,4.71,82.05c-4.02,6.84-2.74,9.45,5.22,10.52c1.81,0.24,2.88,1.52,4.12,2.59
		c20.16,17.34,40.35,34.64,60.47,52.03c8.45,7.31,8.73,15.2,0.92,23.12c-4.32,4.38-8.63,8.82-13.26,12.85
		c-6.45,5.61-13.23,5.2-18.89-1.06c-18.87-20.85-36.31-42.92-54.62-64.25c-1.17-1.37-1.4-2.75-1.5-4.51
		c-0.26-4.97-3.88-7.02-8.19-4.66c-22.59,12.33-45.78,13.56-69.61,4.04c-0.74-0.3-1.54-0.46-2.31-0.69
		c-0.35,4.46-5.61,5.53-6.59,9.25c-0.82,3.09-0.5,6.11,4.2,6.73c4.83,0.63,6.81,4.36,6.82,9.03c0.04,13.98,0.08,27.96,0.01,41.95
		c-0.04,6.76-2.35,8.99-8.93,8.99c-18.31-0.01-36.62-0.05-54.93-0.08c-2.61-2.09-4.06-4.7-4.05-8.14
		c0.04-14.3-0.02-28.59,0.03-42.89c0.02-4.95,2.35-8.27,7.43-9.06c2.29-0.36,3.85-1.08,3.67-3.67c-0.15-2.29,1.03-5.31-2.91-5.69
		c-1.43-1.35-2.69-2.82-3.27-4.75c0.03-5.68,0.07-11.36,0.1-17.04c0.29-0.18,0.43-0.44,0.43-0.77c1.56-2.3,3.75-3.64,6.45-4.18
		c8.53,0,17.05,0,26.29,0C187.88,267.78,182.06,257.7,179.62,246.04z M218.6,267.77c5.83,0,11.65-0.03,17.48,0.01
		c10.54,0.07,15.4,5.19,15.84,15.53c0.21,4.96-2.94,11.78,1.73,14.45c4.1,2.34,10.36-0.01,15.58-1.15c0.16-0.04,0.31-0.11,0.48-0.15
		c28.78-7.61,45.3-27.11,50.86-55.4c4.49-22.9-3.09-42.92-19.69-59.42c-23.7-23.57-63.57-25.44-90.33-4.33
		c-22.09,17.42-36.64,55.14-15.63,87.81c1.2,1.87,2.4,2.79,4.73,2.72C205.95,267.66,212.27,267.77,218.6,267.77z M190.95,369.91
		c7.65,0,15.31-0.13,22.96,0.06c3.8,0.09,5.47-1.27,5.44-5.16c-0.11-13.31-0.11-26.62-0.05-39.93c0.01-3.05-0.69-5.06-4.18-5.54
		c-4.86-0.68-7.28-3.88-7.2-8.64c0.06-3.35-1.61-3.8-4.34-3.77c-8.65,0.09-17.3,0.13-25.95-0.02c-3.03-0.05-4.07,0.96-4.05,4.02
		c0.02,4.52-2.28,7.62-6.94,8.32c-3.28,0.49-4.52,2.28-4.52,5.41c0.03,13.3,0.05,26.61-0.01,39.91c-0.02,4.08,1.9,5.51,5.88,5.4
		C175.64,369.76,183.3,369.91,190.95,369.91z M388.02,345.56c0.09-3.82-2.52-6.02-5.03-8.19c-16.73-14.47-33.49-28.91-50.24-43.34
		c-10.54-9.08-8.83-7.91-17.3,0.3c-7.54,7.3-7.61,7.23-0.96,15.05c0.86,1.01,1.69,2.05,2.56,3.07
		c14.58,17.08,28.54,34.69,43.53,51.44c3.31,3.7,6.76,4.07,10.49,1.24c5.71-4.34,10.72-9.46,15.36-14.92
		C387.55,348.87,387.91,347.25,388.02,345.56z M190.8,300.21c6.15,0,12.3,0.05,18.44-0.03c1.82-0.03,4.2,0.86,4.87-2.05
		c0.58-2.49-0.23-4.35-2.13-6.16c-6.11-5.83-12.73-9.78-21.72-8.37c-3.89,0.61-7.96,0.1-11.95,0.1c-12.19,0-12.13,0-11.22,12.51
		c0.21,2.9,1.27,4.11,4.26,4.05C177.84,300.11,184.32,300.21,190.8,300.21z M202.97,276.07c10.75,11.04,22.67,18.06,36.93,20.82
		c1.15,0.22,3.7,2.04,3.81-0.97c0.17-4.78,0.7-9.62-0.38-14.36c-0.69-3.04-2.88-5.31-5.83-5.38
		C226.32,275.91,215.13,276.07,202.97,276.07z"/>
	<path class="st1" d="M144.27,374.52c-19.35,0.03-38.7,0.06-58.04,0.09c-1.02-1.46-0.86-3.13-0.97-4.78
		c-0.71-10.63,1.18-21.18,0.77-31.8c1.03-13.01,1.71-26.03,1.79-39.08c0.87-14.2,1.74-28.4,2.61-42.6
		c0.64-5.75,3.71-9.94,8.72-12.52c2.49-1.28,3.76-2.7,3.94-5.62c0.32-5.13,1.31-10.22,1.69-15.35c0.19-2.59,1.18-3.62,3.66-3.42
		c0.17,0.01,0.33,0.01,0.5,0c16.27-0.68,16.34-0.68,17.83,15.49c0.41,4.47,1.31,7.92,6.05,10.21c4.93,2.38,6.77,7.49,7.09,12.94
		c0.63,10.62,1.27,21.24,1.9,31.86c0.2,18.95,1.68,37.85,2.53,56.78C144.76,355.98,145.59,365.26,144.27,374.52z M136.81,306.12
		c0.03,0,0.05,0,0.08,0c-0.72-15.79-1.4-31.58-2.16-47.37c-0.32-6.6-4.48-11.2-10.79-11.51c-5.81-0.28-11.66-0.28-17.47,0.05
		c-6.4,0.37-10.4,4.53-10.73,10.95c-1.62,31.4-3.11,62.82-4.76,94.22c-0.19,3.53,1.06,4.71,4.52,4.68
		c13.15-0.12,26.3-0.15,39.45,0.02c3.61,0.05,4.47-1.17,4.25-4.66C138.25,337.03,137.58,321.57,136.81,306.12z M114.95,368.91
		c6.82,0,13.63-0.1,20.45,0.05c2.68,0.06,3.93-0.65,3.97-3.57c0.05-3.05-1.08-4.03-4.1-4c-13.63,0.11-27.26,0.08-40.89-0.04
		c-2.92-0.02-3.61,1.22-3.67,3.89c-0.06,2.87,1.01,3.77,3.79,3.72C101.32,368.81,108.13,368.91,114.95,368.91z M115.03,242.79
		c7.62,0.01,7.62,0.01,6.55-7.35c-0.33-2.3-0.75-4.6-0.95-6.92c-0.23-2.68-1.54-3.54-4.22-3.68c-4.27-0.23-7.26,0.36-6.89,5.67
		c0.12,1.79-0.5,3.62-0.67,5.44C108.23,242.77,108.25,242.78,115.03,242.79z"/>
	<path class="st0" d="M86.03,338.03c0.41,10.61-1.47,21.17-0.77,31.8c0.11,1.66-0.05,3.33,0.97,4.78
		c-9.98,0.08-19.97,0.16-29.95,0.22c-1.92,0.01-3.76-0.57-4.93-2.05c-6.62-8.34-13.1-16.79-15.59-27.48
		c-1.67-7.19,1.34-11.06,8.76-11.4c8.69-0.4,17.18,1.36,25.72,2.39C75.5,336.93,80.69,338.1,86.03,338.03z"/>
	<path class="st2" d="M24.12,145.08c-0.55-2.13,1.08-2.53,2.5-2.9c7.88-2.02,15.78-3.94,23.66-5.95c2.28-0.58,3.32,0.18,3.81,2.5
		c0.86,4.05,2.13,8.02,2.98,12.08c0.69,3.31,1.76,5.19,5.63,3.5c2.09-0.92,4.61-0.83,6.75-1.67c3.14-1.22,4.55-0.27,5.27,2.9
		c1.66,7.28,3.32,14.57,5.4,21.74c0.91,3.15-0.02,4.11-2.89,4.76c-7.45,1.68-14.9,3.37-22.23,5.49c-3.43,0.99-4.43-0.26-5.06-3.2
		c-0.91-4.21-2.09-8.37-3.09-12.56c-0.52-2.19-1.5-2.93-3.91-2.34c-3.95,0.96-8.83,4.26-11.69,1.79c-2.59-2.23-2.46-7.63-3.49-11.64
		C26.52,154.74,25.33,149.91,24.12,145.08z"/>
	<path class="st0" d="M144.27,374.52c1.32-9.26,0.49-18.54,0.08-27.8c-0.84-18.93-2.33-37.82-2.53-56.78
		c3.7,4.14,5.68,9.18,7.6,14.28c0.48,1.29,0.34,3.36,2.33,3.28c1.53-0.07,1.61-1.84,2.08-3.02c2.06-5.2,3.93-10.46,5.34-15.89
		c0.51-1.98,0.69-4.31,2.69-5.66c-0.03,5.68-0.07,11.36-0.1,17.04c-1.65,1.96-3.11,4.42-1.19,6.47c1.28,1.36,3.23-0.33,4.46-1.72
		c3.94,0.38,2.76,3.39,2.91,5.69c0.17,2.59-1.38,3.31-3.67,3.67c-5.08,0.79-7.41,4.12-7.43,9.06c-0.05,14.3,0.01,28.59-0.03,42.89
		c-0.01,3.44,1.44,6.05,4.05,8.14C155.34,375.54,149.8,374.8,144.27,374.52z"/>
	<path class="st2" d="M399.81,260.39c-2.42-1.46-5.31-2.84-7.77-4.77c-2.64-2.08-3.95-1.36-5.21,1.32c-0.77,1.64-2.06,3.04-2.8,4.7
		c-1.59,3.58-3.36,3.84-6.71,1.63c-7.71-5.07-7.92-4.91-2.85-13.1c1.58-2.56,2.38-4.09-1-6.09c-9.39-5.57-9.2-5.69-2.76-15.03
		c1.32-1.92,2.2-1.85,3.88-0.8c3.09,1.93,6.53,5.43,9.36,5.02c2.94-0.42,4.06-5.53,6.04-8.55c1.08-1.64,2.1-2.58,3.92-1.06
		c0.13,0.11,0.27,0.2,0.41,0.28c9.4,5.11,9.51,5.19,3.98,14.3c-1.68,2.77-1.4,3.97,1.4,5.65c9.22,5.53,9.35,7.11,2.27,15.43
		C401.46,259.92,401.23,260.83,399.81,260.39z"/>
	<path class="st0" d="M90.42,256.35c-0.87,14.2-1.74,28.4-2.61,42.6c-9.98-10.63-21.19-20.25-28.48-33.14
		c-4.91-8.68-2.37-12.66,7.52-12.87C74.92,252.77,82.66,254.58,90.42,256.35z"/>
	<path class="st1" d="M253.46,365.23c0.13,4.82-3.76,9.07-8.54,9.34c-5.27,0.29-9.67-3.88-9.67-9.17c0-4.78,4.08-9.09,8.7-9.19
		C248.87,356.11,253.32,360.33,253.46,365.23z"/>
	<path class="st2" d="M386.48,176.33c0.05,1.11-1.38,1.17-2.36,1.48c-11.06,3.45-22.15,6.84-33.23,10.23
		c-1.17,0.36-2.47,1.26-3.2-0.82c-0.73-2.1,0.46-2.6,2.03-3.08c11.08-3.39,22.17-6.75,33.21-10.27
		C385.1,173.17,386.01,173.77,386.48,176.33z"/>
	<path class="st2" d="M293.34,135.57c-1.55-0.39-3-0.69-2.34-2.89c3.47-11.58,6.88-23.18,10.31-34.77c0.39-1.31,1.04-1.92,2.55-1.27
		c1.31,0.57,1.7,1.13,1.26,2.6c-3.48,11.58-6.87,23.19-10.27,34.79C294.6,134.87,294.34,135.62,293.34,135.57z"/>
	<path class="st2" d="M358.04,128.21c-0.88,0.61-1.48,0.94-1.96,1.38c-8.39,7.79-16.76,15.6-25.17,23.38
		c-1.11,1.02-2.1,2.86-3.98,0.77c-2.05-2.28,0.55-2.91,1.44-3.76c8.03-7.69,16.17-15.27,24.34-22.82c0.83-0.76,1.55-2.51,3.19-1.37
		C356.62,126.33,357.13,127.18,358.04,128.21z"/>
	<path class="st1" d="M269.98,367.88c-0.35,2.58-1.94,4.19-4.9,4.07c-2.83-0.11-4.25-1.94-4.18-4.57c0.08-2.94,1.88-4.61,4.86-4.39
		C268.41,363.19,269.92,364.78,269.98,367.88z"/>
	<path class="st3" d="M218.6,267.77c-6.32,0-12.65-0.11-18.97,0.06c-2.33,0.06-3.52-0.85-4.73-2.72
		c-21.01-32.67-6.45-70.39,15.63-87.81c26.76-21.1,66.63-19.24,90.33,4.33c16.59,16.5,24.18,36.52,19.69,59.42
		c-5.55,28.29-22.08,47.79-50.86,55.4c-0.16,0.04-0.31,0.12-0.48,0.15c-5.22,1.14-11.48,3.5-15.58,1.15
		c-4.67-2.67-1.52-9.5-1.73-14.45c-0.44-10.34-5.3-15.46-15.84-15.53C230.25,267.74,224.42,267.77,218.6,267.77z M267.86,221.13
		c0.02-1.65-0.63-2.54-1.66-3.23c-1.56-1.06-2.92-0.42-4.04,0.64c-2.64,2.53-5.26,5.1-7.73,7.8c-1.46,1.6-2.57,1.58-4.02,0.08
		c-2.55-2.63-5.16-5.2-7.83-7.7c-1.69-1.58-3.68-1.82-5.27,0.01c-1.41,1.62-0.96,3.42,0.52,4.89c2.47,2.48,4.9,4.99,7.47,7.35
		c1.81,1.66,1.62,2.9-0.13,4.46c-2.23,1.99-4.23,4.23-6.37,6.32c-1.74,1.71-3.53,3.53-1.39,5.94c2.26,2.54,4.1,0.73,5.84-0.99
		c2.24-2.23,4.63-4.31,6.77-6.63c1.63-1.77,2.82-1.69,4.42,0.04c2.48,2.69,5.15,5.2,7.76,7.77c1.45,1.43,2.94,1.25,4.45,0.05
		c1.64-1.3,1.62-2.87,0.53-4.38c-0.97-1.34-2.18-2.51-3.35-3.68c-6.77-6.8-6.75-6.77-0.12-13.69
		C265.28,224.54,267.38,223.26,267.86,221.13z"/>
	<path class="st4" d="M190.95,369.91c-7.65,0-15.31-0.14-22.96,0.06c-3.99,0.11-5.9-1.32-5.88-5.4c0.05-13.3,0.04-26.61,0.01-39.91
		c-0.01-3.13,1.24-4.92,4.52-5.41c4.66-0.69,6.96-3.8,6.94-8.32c-0.01-3.06,1.03-4.07,4.05-4.02c8.65,0.15,17.3,0.11,25.95,0.02
		c2.73-0.03,4.39,0.42,4.34,3.77c-0.08,4.76,2.34,7.96,7.2,8.64c3.49,0.49,4.19,2.5,4.18,5.54c-0.06,13.31-0.06,26.62,0.05,39.93
		c0.03,3.89-1.64,5.25-5.44,5.16C206.26,369.78,198.6,369.91,190.95,369.91z M190.79,326.99c-4.12-1.01-5.59,0.77-4.92,4.68
		c0.75,4.34-1.31,5.67-5.28,4.98c-3.97-0.7-4.67,1.28-4.63,4.8c0.04,3.41,0.51,5.64,4.57,4.9c4.49-0.82,6.15,1.1,5.32,5.42
		c-0.91,4.76,2.18,4.29,5.33,4.52c3.76,0.28,5.27-0.94,4.61-4.69c-0.7-3.96,0.63-6,4.97-5.26c3.8,0.65,5.13-0.77,5.11-4.83
		c-0.02-3.96-1.14-5.49-5.04-4.88c-3.6,0.56-5.82-0.38-5.06-4.68C196.47,328.03,195.26,325.77,190.79,326.99z"/>
	<path class="st4" d="M388.02,345.56c-0.11,1.69-0.47,3.31-1.6,4.64c-4.65,5.46-9.65,10.58-15.36,14.92
		c-3.73,2.83-7.18,2.45-10.49-1.24c-14.99-16.74-28.95-34.35-43.53-51.44c-0.86-1.01-1.69-2.05-2.56-3.07
		c-6.65-7.82-6.58-7.74,0.96-15.05c8.47-8.21,6.76-9.38,17.3-0.3c16.76,14.44,33.52,28.87,50.24,43.34
		C385.5,339.54,388.11,341.75,388.02,345.56z"/>
	<path class="st0" d="M190.8,300.21c-6.48,0-12.96-0.1-19.44,0.04c-2.99,0.07-4.05-1.14-4.26-4.05
		c-0.91-12.52-0.98-12.51,11.22-12.51c3.99,0,8.05,0.51,11.95-0.1c9-1.4,15.61,2.54,21.72,8.37c1.9,1.81,2.7,3.67,2.13,6.16
		c-0.67,2.91-3.05,2.02-4.87,2.05C203.09,300.26,196.95,300.21,190.8,300.21z"/>
	<path class="st0" d="M202.97,276.07c12.16,0,23.35-0.16,34.52,0.11c2.95,0.07,5.14,2.34,5.83,5.38c1.08,4.74,0.55,9.58,0.38,14.36
		c-0.11,3.01-2.65,1.19-3.81,0.97C225.64,294.13,213.72,287.1,202.97,276.07z"/>
	<path class="st4" d="M136.81,306.12c0.77,15.46,1.44,30.92,2.39,46.36c0.21,3.5-0.64,4.71-4.25,4.66
		c-13.15-0.17-26.3-0.14-39.45-0.02c-3.46,0.03-4.7-1.14-4.52-4.68c1.65-31.4,3.14-62.81,4.76-94.22
		c0.33-6.41,4.33-10.58,10.73-10.95c5.81-0.33,11.66-0.33,17.47-0.05c6.3,0.3,10.47,4.91,10.79,11.51
		c0.76,15.79,1.45,31.58,2.16,47.37C136.86,306.11,136.83,306.11,136.81,306.12z M114.71,344.93c3.66,0,7.31-0.08,10.96,0.03
		c2.14,0.07,2.93-0.72,2.9-2.88c-0.09-6.48-0.1-12.96,0-19.44c0.03-2.3-1.06-2.74-3.05-2.73c-7.14,0.07-14.29,0.1-21.43-0.02
		c-2.38-0.04-3.19,0.75-3.14,3.14c0.13,6.14,0.19,12.3-0.02,18.44c-0.11,3.04,1.17,3.64,3.81,3.49
		C108.06,344.79,111.39,344.93,114.71,344.93z"/>
	<path class="st4" d="M114.95,368.91c-6.82,0-13.63-0.09-20.45,0.04c-2.78,0.06-3.85-0.85-3.79-3.72c0.05-2.66,0.74-3.91,3.67-3.89
		c13.63,0.12,27.26,0.14,40.89,0.04c3.02-0.02,4.14,0.95,4.1,4c-0.04,2.92-1.29,3.62-3.97,3.57
		C128.58,368.81,121.76,368.91,114.95,368.91z"/>
	<path class="st4" d="M115.03,242.79c-6.78-0.01-6.8-0.01-6.17-6.85c0.17-1.82,0.79-3.65,0.67-5.44c-0.37-5.31,2.62-5.9,6.89-5.67
		c2.68,0.14,3.99,1,4.22,3.68c0.2,2.32,0.61,4.61,0.95,6.92C122.65,242.8,122.65,242.8,115.03,242.79z"/>
	<path class="st1" d="M267.86,221.13c-0.48,2.13-2.58,3.41-4.15,5.05c-6.63,6.91-6.65,6.88,0.12,13.69
		c1.17,1.18,2.38,2.35,3.35,3.68c1.09,1.51,1.11,3.08-0.53,4.38c-1.51,1.2-3,1.38-4.45-0.05c-2.61-2.57-5.28-5.08-7.76-7.77
		c-1.6-1.73-2.79-1.8-4.42-0.04c-2.14,2.32-4.53,4.41-6.77,6.63c-1.74,1.73-3.58,3.53-5.84,0.99c-2.14-2.41-0.35-4.23,1.39-5.94
		c2.13-2.1,4.14-4.33,6.37-6.32c1.75-1.57,1.93-2.81,0.13-4.46c-2.57-2.36-5.01-4.88-7.47-7.35c-1.47-1.48-1.93-3.28-0.52-4.89
		c1.59-1.83,3.59-1.59,5.27-0.01c2.67,2.5,5.28,5.08,7.83,7.7c1.46,1.5,2.56,1.52,4.02-0.08c2.46-2.7,5.08-5.27,7.73-7.8
		c1.11-1.07,2.48-1.7,4.04-0.64C267.23,218.6,267.88,219.48,267.86,221.13z"/>
	<path class="st2" d="M190.79,326.99c4.46-1.22,5.67,1.04,4.98,4.97c-0.76,4.3,1.46,5.24,5.06,4.68c3.91-0.61,5.02,0.92,5.04,4.88
		c0.02,4.05-1.31,5.48-5.11,4.83c-4.35-0.74-5.67,1.3-4.97,5.26c0.66,3.75-0.84,4.96-4.61,4.69c-3.15-0.23-6.24,0.24-5.33-4.52
		c0.83-4.33-0.84-6.25-5.32-5.42c-4.06,0.74-4.53-1.49-4.57-4.9c-0.04-3.53,0.66-5.5,4.63-4.8c3.97,0.7,6.02-0.64,5.28-4.98
		C185.2,327.76,186.67,325.98,190.79,326.99z"/>
	<path class="st2" d="M114.71,344.93c-3.32,0-6.65-0.13-9.97,0.04c-2.65,0.14-3.92-0.46-3.81-3.49c0.22-6.14,0.15-12.29,0.02-18.44
		c-0.05-2.38,0.77-3.18,3.14-3.14c7.14,0.12,14.29,0.08,21.43,0.02c1.99-0.02,3.08,0.42,3.05,2.73c-0.1,6.48-0.09,12.96,0,19.44
		c0.03,2.16-0.76,2.94-2.9,2.88C122.02,344.85,118.37,344.93,114.71,344.93z"/>
</g>
</svg>
