<svg width="160" height="160" viewBox="0 0 160 160" fill="none" xmlns="http://www.w3.org/2000/svg">
<path d="M61.4875 68.5083C61.4875 68.5083 76.0736 33.5273 84.2401 35.0482C92.4065 36.5691 70.2654 90.818 70.2654 90.818C70.2654 90.818 95.9264 42.6528 113.43 42.6528C130.933 42.6528 107.01 95.8848 84.8514 113.632C84.8514 113.632 119.841 76.1129 140.252 84.2302C160.664 92.3476 99.4288 130.362 99.4288 130.362C99.4288 130.362 135.003 119.211 130.924 127.833C126.845 136.454 115.762 137.966 115.762 137.966L156 140H16L47.4954 136.958C47.4954 136.958 14.8296 120.732 23.5813 114.144C32.3329 107.557 51.5743 121.749 51.5743 121.749C51.5743 121.749 18.332 85.2471 24.7429 71.5502C31.1538 57.8532 59.7407 96.3976 59.7407 96.3976C59.7407 96.3976 36.4118 47.2155 41.0758 38.6202C45.7398 30.0248 61.4875 68.5083 61.4875 68.5083Z" fill="#B0E9DD"/>
<rect x="39" y="69" width="75" height="58" fill="white"/>
<path d="M67.7817 127.924H85.8069L89.9666 140.403H63.6221L67.7817 127.924Z" fill="#E5E5E5"/>
<path d="M10.9024 105.803L16.5247 109.261L19.9749 103.651L25.5988 107.11L22.1486 112.72L27.7725 116.179L24.3214 121.79L18.6975 118.331L15.2464 123.942L9.6225 120.483L13.0736 114.872L7.45125 111.414L10.9024 105.803Z" fill="#00CCA2"/>
<path d="M94.495 140.304H58.7729V137.773H63.4975L64.8049 129.097H36.6597V67.3351H116.606V129.097H88.5405L89.8479 137.773H94.4925V140.304H94.495ZM66.0248 137.773H87.3206L86.0132 129.097H67.3347L66.0248 137.773ZM39.1595 126.566H114.106V115.847H39.1595V126.566ZM39.1595 113.313H114.106V69.8661H39.1595V113.313Z" fill="#1A1D32"/>
<path d="M74.7144 120.991H76.1007V119.605H77.4873V120.991H78.874V122.378H77.4873V123.765H76.1007V122.378H74.7144V120.991Z" fill="#00CCA2"/>
<path d="M116.414 62.3532C117.06 62.1937 117.702 62.0431 118.34 61.8933C119.79 61.5531 121.223 61.2167 122.656 60.789C123.569 60.552 123.857 60.789 124.049 61.6422C124.385 63.0404 124.745 64.4268 125.105 65.8133C125.465 67.1996 125.826 68.5863 126.162 69.9844C126.306 70.6006 126.498 70.8376 127.218 70.648C128.754 70.2689 130.285 69.8898 131.816 69.5107L131.817 69.5104C134.88 68.752 137.942 67.9936 141.047 67.2353C141.911 67.0457 142.007 66.6665 141.815 65.9081C140.663 61.5 139.558 57.1393 138.502 52.7312C138.262 51.8306 137.926 51.641 137.014 51.878C136.029 52.1387 135.045 52.3757 134.061 52.6126C133.076 52.8496 132.092 53.0867 131.107 53.3473C130.243 53.5843 130.051 53.1578 129.907 52.5416C129.235 49.745 128.514 46.9485 127.794 44.1993C127.65 43.5831 127.458 43.2039 126.69 43.3935C122.08 44.5785 117.518 45.7161 112.909 46.8537C112.141 47.0433 112.045 47.3277 112.237 47.9913C112.978 50.8592 113.68 53.7468 114.381 56.6287C114.769 58.2239 115.156 59.8178 115.55 61.4052L115.561 61.4735C115.651 62.0113 115.723 62.4441 116.414 62.3532Z" fill="#00CCA2"/>
<path d="M77.6179 84.611C78.6712 83.526 79.691 82.4578 80.7109 81.423C80.9283 81.206 81.1623 81.0057 81.4299 80.8722C81.8144 80.6719 82.433 80.8221 82.6671 81.1392C83.1018 81.7067 83.1687 82.1741 82.7674 82.608C81.9314 83.5094 81.062 84.3773 80.1926 85.2619C79.9753 85.4956 79.7412 85.7126 79.5239 85.9295C79.2898 86.1632 79.2731 86.3802 79.5406 86.6473C80.5437 87.632 81.5302 88.6168 82.4999 89.6182C82.7005 89.8185 82.8677 90.0689 82.968 90.336C83.1352 90.82 82.9346 91.2873 82.4832 91.5878C81.9481 91.955 81.6472 91.9717 81.1456 91.6212C81.0119 91.521 80.8948 91.4042 80.7778 91.2873C79.8248 90.336 78.8718 89.3846 77.9188 88.4332C77.5343 88.0493 77.4005 88.066 77.0327 88.4332C76.0295 89.4346 75.0264 90.4361 74.0232 91.4209C73.5384 91.9049 73.0869 91.9884 72.6021 91.7046C72.0671 91.3708 71.7828 90.8033 72.0336 90.2525C72.2008 89.8853 72.5519 89.5849 72.8529 89.2844C73.6888 88.4165 74.5415 87.5653 75.4109 86.7307C75.7286 86.4303 75.6784 86.2133 75.4109 85.9462C74.5248 85.0783 73.6554 84.1937 72.786 83.3258C72.6188 83.1588 72.4516 82.9919 72.3011 82.8083C71.833 82.2909 71.8664 81.5899 72.3847 81.1059C72.8027 80.7053 73.5885 80.722 74.0399 81.1559C75.0431 82.1407 76.0295 83.1255 77.016 84.1102C77.1497 84.2271 77.3336 84.3606 77.6179 84.611Z" fill="#1A1D32"/>
<path d="M72.85 103.795C73.0892 103.795 73.2447 103.637 73.2447 103.401C73.2447 103.165 73.0773 103.052 72.85 103.052H72.2877V98.6751C72.2877 98.2025 72.0484 98 71.7135 98C71.3546 98 71.1392 98.1575 70.7684 98.5963L67.1555 102.928C67.0598 103.086 67 103.232 67 103.356C67 103.615 67.2034 103.795 67.634 103.795H70.876V104.706C70.876 105.179 70.1224 105.201 70.1224 105.527C70.1224 105.752 70.3138 105.831 70.6846 105.831H72.4073C72.7782 105.831 72.9696 105.752 72.9696 105.527C72.9696 105.201 72.2877 105.19 72.2877 104.729V103.795H72.85ZM67.8853 103.052L70.876 99.4515V103.052H67.8853Z" fill="black"/>
<path d="M77.6787 106C79.88 106 81.1839 104.143 81.1839 101.983C81.1839 99.7665 79.8919 98 77.6787 98C75.3699 98 74.1616 99.7328 74.1616 101.983C74.1616 104.233 75.4297 106 77.6787 106ZM77.6907 105.347C76.5183 105.347 75.6929 104.188 75.6929 101.983C75.6929 99.7665 76.5183 98.6413 77.6907 98.6413C78.8152 98.6413 79.6527 99.789 79.6527 101.983C79.6527 104.166 78.8152 105.347 77.6907 105.347Z" fill="black"/>
<path d="M87.6052 103.795C87.8445 103.795 88 103.637 88 103.401C88 103.165 87.8325 103.052 87.6052 103.052H87.043V98.6751C87.043 98.2025 86.8037 98 86.4687 98C86.1098 98 85.8945 98.1575 85.5236 98.5963L81.9108 102.928C81.8151 103.086 81.7553 103.232 81.7553 103.356C81.7553 103.615 81.9586 103.795 82.3893 103.795H85.6313V104.706C85.6313 105.179 84.8776 105.201 84.8776 105.527C84.8776 105.752 85.069 105.831 85.4399 105.831H87.1626C87.5334 105.831 87.7248 105.752 87.7248 105.527C87.7248 105.201 87.043 105.19 87.043 104.729V103.795H87.6052ZM82.6405 103.052L85.6313 99.4515V103.052H82.6405Z" fill="black"/>
</svg>
