<svg width="161" height="160" viewBox="0 0 161 160" fill="none" xmlns="http://www.w3.org/2000/svg">
<path d="M85.3047 143.202C83.4426 145.385 81.3082 147.332 78.9509 149C104.5 154.5 114.5 156.692 125.5 153.5C134.354 150.93 141.5 144.187 144.57 139.87C149.177 133.391 149.57 122.438 149.57 122.438C149.469 120.425 150.053 118.089 150 116C149.713 104.731 148.773 93.0969 140.78 85.7278C135.018 80.1775 128.652 76.4205 122.418 74.5C120.65 80.9863 118.496 87.2011 116.231 92.9159C137.96 98.3274 148.007 111.848 149 119C148.977 119.375 149.132 120.104 149 120.5C146.484 132.863 134.935 149.805 116 150.5C106.177 150.861 96.0817 145.591 89.4251 138.805C88.9903 139.339 88.5135 139.909 88 140.5C87.6701 140.88 87.1502 141.373 86.6416 141.855C86.1037 142.365 85.5786 142.863 85.3047 143.202Z" fill="#B0E9DD"/>
<path d="M122.418 74.5C122.418 74.5 114.579 73.2528 113.282 73.3005C111.985 73.3481 110.706 73.471 109.45 73.6651C109.207 80.0014 108.713 85.9409 108.068 91.3733C110.967 91.7602 113.686 92.2822 116.231 92.9159C118.496 87.2011 120.65 80.9863 122.418 74.5Z" fill="#B0E9DD"/>
<path d="M109.45 73.6651C106.042 74.339 102.983 75.3026 100.244 76.5156C98.4328 77.6806 96.7909 79.1368 95.3627 80.887C92.3453 84.585 93.1486 90.2897 101.412 90.7505C103.73 90.8797 105.947 91.0904 108.068 91.3733C108.713 85.9409 109.207 80.0014 109.45 73.6651Z" fill="#B0E9DD"/>
<path fill-rule="evenodd" clip-rule="evenodd" d="M62.5045 91.9564C76.0135 65.2356 76.2076 24.2893 76.2084 22.1514C76.2161 22.1716 76.4116 22.2735 76.7665 22.4586C79.456 23.8608 91.3017 30.0367 100 41.6382L100.244 76.5156C83.3336 84.0044 78.6192 101.002 79.2099 118.076C79.5111 126.784 83.2892 134.217 88 140.5C87.6701 140.88 87.1502 141.373 86.6416 141.855C86.1037 142.365 85.5786 142.863 85.3047 143.202C83.4426 145.385 81.3082 147.332 78.9509 149L9.5 135.327L17.0193 128.26C18.2559 127.736 19.6339 127.198 21.1244 126.615C32.6353 122.115 50.8586 114.992 62.5045 91.9564ZM109.469 73.2197C113.535 72.6891 117.942 73.1212 122.418 74.5C122.418 74.5 114.579 73.2528 113.282 73.3005C111.985 73.3481 110.706 73.471 109.45 73.6651C106.042 74.339 102.983 75.3026 100.244 76.5156C102.983 74.7537 106.109 73.658 109.469 73.2197ZM100.2 124.725C100.069 124.907 100 125 100 125C100.064 124.918 100.13 124.826 100.2 124.725Z" fill="#B0E9DD"/>
<path d="M39.2676 32.1173H46.4394L46.9027 24.3007L39.8647 24.2539L39.2676 32.1173Z" fill="#1A1D32"/>
<path d="M38.1318 48.105H45.1595L45.4547 40.2884L38.4167 40.2416L38.1318 48.105Z" fill="#1A1D32"/>
<path d="M37.9531 80.5447L44.9705 80.8791L45.4029 73.253L38.3752 73.0223L37.9531 80.5447Z" fill="#1A1D32"/>
<path d="M37.9531 64.1327L44.9843 64.2898L45.0254 56.4732L37.9874 56.4231L37.9531 64.1327Z" fill="#1A1D32"/>
<path d="M36.9531 97.5224L43.9705 97.8567L44.8045 90.2307L37.8145 90L36.9531 97.5224Z" fill="#1A1D32"/>
<path d="M33.8145 114.522L40.8145 114.857L42.4045 107.231L35.4145 107L33.8145 114.522Z" fill="#1A1D32"/>
<path d="M85 137C84 138.5 82.3472 140 82.3472 140L17 128.267C17 128.267 28.6701 109.205 28.5283 71.6946C28.4243 49.265 29.8567 26.8535 32.816 4.60852L99.065 4C99.065 4 95.8145 39.6779 95.8145 49C95.8145 49 96 72.7835 96 78.5" stroke="#1A1D32" stroke-linecap="round" stroke-linejoin="round"/>
<path d="M51.4707 28.2463H73.9248" stroke="#1A1D32" stroke-linecap="round" stroke-linejoin="round"/>
<path d="M49.7949 43.9972L76.6133 44.1822" stroke="#1A1D32" stroke-linecap="round" stroke-linejoin="round"/>
<path d="M49.9824 76.8038L75.9085 77.8995" stroke="#1A1D32" stroke-linecap="round" stroke-linejoin="round"/>
<path d="M49.8477 60.0743L59.4255 60.2883" stroke="#1A1D32" stroke-linecap="round" stroke-linejoin="round"/>
<path d="M48.8477 94L58.4255 94.4" stroke="#1A1D32" stroke-linecap="round" stroke-linejoin="round"/>
<path d="M46.8477 111L72.7777 112.5" stroke="#1A1D32" stroke-linecap="round" stroke-linejoin="round"/>
<path d="M149.63 113.078C148.895 134.324 132.449 150.966 112.897 150.247C110.527 150.16 108.221 149.823 105.999 149.258C129 150.247 143 132.5 145.63 115.078C146.5 101.5 141 81 113.455 73.2968C114.152 73.2781 114.853 73.2814 115.558 73.3073C135.111 74.0253 150.365 91.8311 149.63 113.078Z" fill="#00CCA2"/>
<path d="M115.944 150.251C135.496 149.533 150.75 131.725 150.015 110.476C149.28 89.2261 132.834 72.5821 113.282 73.3001C93.7293 74.0181 78.4748 91.8263 79.2099 113.076C79.945 134.325 96.3913 150.969 115.944 150.251Z" stroke="#1A1D32" stroke-miterlimit="10"/>
<path d="M79.2107 113.076C79.9458 134.325 97.2606 150.937 117.884 150.18L114.005 150.323C93.3809 151.08 76.0661 134.468 75.331 113.218C74.5959 91.9689 90.7189 74.1288 111.343 73.3714L115.222 73.229C94.5987 73.9863 78.4756 91.8264 79.2107 113.076Z" fill="#1A1D32"/>
<path d="M117.228 118.184C119.371 118.105 121.031 115.804 120.935 113.045C120.84 110.285 119.025 108.111 116.883 108.19C114.74 108.269 113.08 110.57 113.176 113.329C113.271 116.089 115.086 118.263 117.228 118.184Z" fill="#1A1D32"/>
<path d="M90.444 129.995L116.549 113.404L116.412 89.1947" stroke="#1A1D32" stroke-linejoin="round"/>
</svg>
