<svg width="12" height="14" viewBox="0 0 12 14" fill="none" xmlns="http://www.w3.org/2000/svg">
<path d="M9.90457 5.06347C8.7741 3.81489 8.10228 2.71577 7.73771 2.01356C7.34289 1.25297 7.2135 0.78133 7.21251 0.777577L7.09498 0.333252L6.67524 0.520475C6.62618 0.542343 5.46646 1.07122 4.81664 2.37083C4.49044 3.02326 4.42521 3.74965 4.42794 4.2441C4.42953 4.53185 4.22565 4.78171 3.94319 4.83819C3.74515 4.87776 3.54143 4.81619 3.39849 4.67325L2.61663 3.89139L2.34767 4.26227C2.31975 4.30076 1.66245 5.20727 1.54279 5.38839C0.958447 6.27295 0.653751 7.30336 0.661649 8.36824C0.672231 9.79045 1.23153 11.1229 2.2365 12.1202C3.24143 13.1174 4.57815 13.6666 6.00045 13.6666C8.94432 13.6666 11.3393 11.2716 11.3393 8.32768C11.3394 7.2603 10.8164 6.07056 9.90457 5.06347ZM7.31601 10.6083C6.77236 10.6083 6.36202 10.2493 6.36202 9.60821C6.36202 8.97223 6.77233 8.60806 7.31601 8.60806C7.85969 8.60806 8.27001 8.97221 8.27001 9.60821C8.27001 10.2493 7.85967 10.6083 7.31601 10.6083ZM6.79287 6.96679H7.65965L5.20801 10.557H4.34122L6.79287 6.96679ZM3.73089 7.91565C3.73089 7.27967 4.1412 6.91552 4.68489 6.91552C5.22857 6.91552 5.63888 7.27967 5.63888 7.91565C5.63888 8.55676 5.22857 8.9158 4.68489 8.9158C4.1412 8.9158 3.73089 8.55676 3.73089 7.91565Z" fill="white"/>
</svg>
