<svg width="160" height="160" viewBox="0 0 160 160" fill="none" xmlns="http://www.w3.org/2000/svg">
<path d="M93.8202 85.2046C93.8202 85.2046 88.5485 83.4772 87.6219 87.8056C87.0322 90.56 91.9013 92.1035 94.2793 93.0715C94.2793 93.0715 104.596 97.8185 108.34 95.2672C110.474 93.8134 109.54 90.7773 104.958 88.9568C101.687 87.6572 98.032 86.4411 93.8202 85.2046Z" fill="#00CCA2"/>
<path d="M52.6831 140.857L75.6663 155.001C75.6663 155.001 89.1512 120.055 94.4671 117.323C99.7829 114.591 114.545 114.97 118.482 112.806C122.419 110.641 146.308 96.4845 150.725 96.4027C155.142 96.3209 154.045 88.8393 139.149 92.8564C127.679 95.9498 120.726 102.517 111.623 103.011C102.519 103.504 82.8425 99.6125 76.6472 104.797C70.452 109.982 52.6831 140.857 52.6831 140.857Z" fill="#B0E9DD"/>
<path d="M113.868 92.2488C113.868 92.2488 132.752 79.9953 135.541 76.7593C138.329 73.5233 147.374 55.3262 150.725 55.701C154.076 56.0758 142.922 78.1458 140.625 80.6808C138.329 83.2158 126.519 92.8559 126.519 92.8559C126.519 92.8559 109.515 95.6672 113.868 92.2488Z" fill="#B0E9DD"/>
<path d="M100.849 74.5937C100.849 74.5937 110.965 56.0971 112.304 51.8894C113.643 47.6817 117.357 58.4773 103.403 75.3416C101.833 77.7345 99.6727 76.7078 100.849 74.5937Z" fill="#B0E9DD"/>
<path d="M109.296 76.7596C112.636 73.1661 115.604 69.2417 118.154 65.0468C119.63 61.5079 123.895 47.1055 125.945 47.1055C127.995 47.1055 124.879 57.2283 121.434 65.2114C117.99 73.1945 114.574 76.032 112.755 77.1234C110.937 78.2147 107.984 79.3371 109.296 76.7596Z" fill="#B0E9DD"/>
<path d="M119.302 78.5386C122.468 75.1889 125.246 71.4913 127.585 67.5159C129.389 63.4833 136.484 45.6242 138.062 47.1056C139.641 48.587 136.249 58.9956 133.363 66.0345C130.611 71.5784 126.611 76.4034 121.679 80.1274C119.138 82.4121 117.329 80.7626 119.302 78.5386Z" fill="#B0E9DD"/>
<path d="M96.7722 90.1066C96.7722 90.1066 94.8454 88.9572 95.785 85.6613C96.056 84.8925 96.5455 84.2202 97.1931 83.7275C97.8406 83.2348 98.6177 82.9432 99.4285 82.8889C97.5379 82.1343 95.5749 81.5769 93.5706 81.2256C92.3077 81.293 89.6453 80.9827 88.5487 83.4776C88.3616 83.8514 88.2517 84.2593 88.2257 84.6768C88.1998 85.0943 88.2582 85.5127 88.3976 85.9069C88.5369 86.3012 88.7542 86.6631 89.0365 86.9709C89.3188 87.2786 89.6602 87.526 90.0402 87.698C90.7548 88.0585 96.7722 90.1066 96.7722 90.1066Z" fill="#1A1D32"/>
<path d="M104.703 23.7736C99.1113 13.8807 82.3854 12.7995 67.3456 21.3609C52.3046 29.9203 44.6445 44.8788 50.2363 54.7717C55.8277 64.6663 72.5524 65.7454 87.5934 57.1861C102.633 48.6263 110.293 33.6662 104.703 23.7736ZM84.5791 38.1512C79.1097 39.8426 66.3078 43.9048 68.4161 37.8453C70.5232 31.7856 86.3676 25.9009 93.247 29.9013C100.128 33.9007 90.0488 36.4586 84.5791 38.1512Z" fill="#B0E9DD"/>
<path d="M67.4998 31.0003C79.4343 22.8604 92.8279 21.1104 99.7766 27.2604C99.4355 26.4657 99.0075 25.7081 98.4999 25.0003C92.9417 17.2506 78.0593 17.5932 64.9998 26.5003C51.9404 35.4061 45.3672 49.8551 51.4326 58.0918C51.9578 58.7874 52.5584 59.4272 53.2244 60.0003C49.9998 51.5003 55.5651 39.1404 67.4998 31.0003Z" fill="#1A1D32"/>
<path d="M9.31982 95.2058L48.6107 67.5217L47.2573 65.1748L8.771 94.2545L9.31982 95.2058Z" fill="#1A1D32"/>
<path d="M96.8263 81.7446C95.805 81.3413 94.7092 81.1635 93.6133 81.2232C92.5174 81.2829 91.4472 81.5787 90.4755 82.0906C90.0014 82.4852 89.6421 83.0007 89.4356 83.583C89.229 84.1653 89.1828 84.7928 89.3019 85.3992C89.4209 86.0057 89.7008 86.5687 90.1119 87.0289C90.5231 87.4891 91.0504 87.8294 91.6382 88.0141C93.6855 88.7383 99.6763 90.7334 102.323 91.6417C104.174 92.2773 107.827 93.0402 108.974 89.854C109.141 89.3872 109.212 88.8917 109.185 88.3967C109.158 87.9017 109.033 87.4171 108.817 86.9713C108.601 86.5254 108.298 86.1274 107.927 85.8004C107.555 85.4735 107.123 85.2243 106.654 85.0673C105.312 84.3784 100.18 82.7936 96.8263 81.7446Z" stroke="#1A1D32" stroke-miterlimit="10"/>
<path d="M86.2823 57.6778C99.2746 48.4375 104.914 34.0192 98.8786 25.4734C92.843 16.9277 77.4179 17.4907 64.4255 26.731C51.4332 35.9712 45.7937 50.3896 51.8293 58.9353C57.8648 67.481 73.29 66.918 86.2823 57.6778Z" stroke="#1A1D32" stroke-miterlimit="10" stroke-linecap="round"/>
<path d="M89.3365 62.002C102.329 52.7618 107.968 38.3434 101.933 29.7977C95.8972 21.252 80.4721 21.815 67.4797 31.0552C54.4874 40.2954 48.8479 54.7138 54.8835 63.2595C60.919 71.8052 76.3442 71.2422 89.3365 62.002Z" stroke="#1A1D32" stroke-miterlimit="10" stroke-linecap="round"/>
<path d="M46.5247 63.9067L7 91.1871L9.32003 95.205L48.6109 67.521L46.5247 63.9067Z" stroke="#1A1D32" stroke-miterlimit="10" stroke-linecap="round"/>
<path d="M52.3735 61.3174L47.1411 64.9766" stroke="#1A1D32" stroke-miterlimit="10" stroke-linecap="round"/>
<path d="M53.1459 62.2261L47.9136 65.8853" stroke="#1A1D32" stroke-miterlimit="10" stroke-linecap="round"/>
<path d="M54.5374 62.7698L51.9233 59.0371" stroke="#1A1D32" stroke-miterlimit="10" stroke-linecap="round"/>
<path d="M76.5381 145.453C76.5381 145.453 88.6449 117.707 94.5543 114.248C100.464 110.788 107.075 112.673 114.748 110.532C121.974 108.316 128.875 105.144 135.268 101.101C143.336 96.1007 146.472 93.9916 151.396 93.8121C153.242 93.7448 155.765 87.8975 144.338 87.1349C139.529 87.0742 134.795 88.3367 130.651 90.7853C127.287 92.7239 123.508 93.8236 119.633 93.9917" stroke="#1A1D32" stroke-linecap="round" stroke-linejoin="round"/>
<path d="M47.5439 128.24C47.5439 128.24 58.9783 112.838 61.6868 104.272C64.3953 95.7065 67.5137 88.9219 79.8667 83.805C103.628 73.9627 104.489 60.336 107.69 54.9824C110.891 49.6287 114.539 50.0134 113.148 54.9824C109.127 69.3504 104.296 75.2878 104.296 75.2878C105.597 75.0198 110.337 68.6726 112.482 66.1094C115.124 62.1524 117.094 57.7827 118.31 53.1785C121.033 44.7274 126.271 45.1893 126.407 47.6602C124.934 54.4267 122.771 61.0231 119.951 67.3448C118.103 70.9253 115.818 74.2611 113.149 77.2755C115.404 76.7919 122.341 67.7856 123.408 66.6325C126.084 62.7648 128.288 58.5895 129.974 54.1958C133.668 46.0419 136.458 45.1359 138.756 46.6184C140.295 47.6109 134.974 60.8827 130.303 69.8858C128.105 73.5525 125.517 76.9695 122.586 80.0773C125.6 78.9242 131.37 72.8097 133.668 70.9977C135.966 69.1858 140.48 60.8672 144.338 57.1608C148.195 53.4545 151.889 55.1841 151.642 57.1608C147.938 65.0725 143.572 72.655 138.592 79.8268C136.212 82.561 122.308 93.9319 122.308 93.9319" stroke="#1A1D32" stroke-linejoin="round"/>
</svg>
