<svg width="80" height="80" viewBox="0 0 80 80" fill="none" xmlns="http://www.w3.org/2000/svg">
<path d="M51.6304 44.3779C53.6234 40.9587 52.1076 36.3961 48.2449 34.187C44.3822 31.978 39.6352 32.959 37.6423 36.3782C35.6494 39.7975 37.1651 44.3601 41.0278 46.5692C44.8905 48.7782 49.6375 47.7972 51.6304 44.3779Z" fill="#B0E9DD"/>
<path d="M19.0993 38.5989C18.975 39.3097 18.9988 40.0382 19.1693 40.7396C19.3398 41.4409 19.6533 42.1003 20.0906 42.6772C21.9039 46.033 31.4812 63.8537 37.5703 74.1849C41.4287 80.7313 48.2986 76.8671 48.2986 76.8671L57.0981 73.2228L26.0059 44.2984C25.2024 43.6144 24.5605 42.7637 24.1259 41.8065C23.6913 40.8494 23.4746 39.8093 23.4912 38.7599L23.1769 26.915L22.7036 27.4103C22.7036 27.4103 19.5659 37.1286 19.0993 38.5989Z" fill="#B0E9DD"/>
<path d="M75.138 51.8125C75.8909 52.5582 77.2084 55.0751 75.138 56.6598C73.0676 58.2445 65.4784 65.5155 65.4784 65.5155L55.8749 69.8968L51.9814 69.0966L73.4364 50.4111C74.0386 50.8349 74.6074 51.3033 75.138 51.8125Z" fill="#B0E9DD"/>
<path d="M21.9037 39.7402C21.9114 40.1982 22.0164 40.6495 22.2119 41.0646C22.4074 41.4797 22.6891 41.8493 23.0385 42.1494L51.8532 67.9287C52.7193 68.6805 53.8313 69.0956 54.9829 69.0968C56.1345 69.098 57.2474 68.6854 58.1151 67.9354L65.0214 61.6819C65.5042 62.396 65.8765 63.1776 66.1258 64.0009C66.3915 65.0962 66.3365 66.8161 63.7478 67.9192L52.2947 72.7996C51.565 72.5999 50.8963 72.225 50.3478 71.7081L23.9254 45.5494C23.5855 45.235 23.3159 44.8535 23.1341 44.4294C22.9523 44.0054 22.8622 43.5483 22.8698 43.0877" fill="#1A1D32"/>
<path d="M21.7411 25.4082L17.0971 38.7993C16.9525 39.2343 16.9022 39.6947 16.9494 40.1504C16.9966 40.606 17.1402 41.0467 17.3709 41.4437L36.0513 75.1615C36.6206 76.153 37.5337 76.9063 38.6211 77.2817C39.7085 77.657 40.8964 77.6288 41.9645 77.2025L64.1822 67.7349C64.6394 67.5398 65.0478 67.2476 65.3784 66.8789C65.709 66.5102 65.9538 66.0741 66.0955 65.6014C66.2371 65.1287 66.2722 64.6309 66.1983 64.1432C66.1243 63.6556 65.9431 63.19 65.6675 62.7794L65.0213 61.6829" stroke="#1A1D32" stroke-linejoin="round"/>
<path d="M22.9673 42.1498L51.7822 67.9299C52.6484 68.6815 53.7604 69.0963 54.9119 69.0975C56.0635 69.0986 57.1763 68.6859 58.044 67.936L75.8958 51.7717C76.2631 51.4388 76.552 51.0301 76.7422 50.5744C76.9324 50.1186 77.0192 49.6271 76.9965 49.1345C76.9737 48.6419 76.842 48.1603 76.6106 47.7237C76.3792 47.287 76.0538 46.9061 75.6574 46.6078L47.5694 22.7848C46.8131 22.1642 45.8765 21.7993 44.8961 21.7432L26.3797 20.495C25.8481 20.4117 25.3051 20.4354 24.783 20.5647C24.2609 20.694 23.7705 20.9261 23.341 21.2473C22.9115 21.5685 22.5518 21.9721 22.2833 22.4341C22.0148 22.8961 21.843 23.4069 21.7783 23.9361L21.8326 39.7409C21.8403 40.1988 21.9452 40.6501 22.1407 41.0651C22.3362 41.4802 22.6179 41.8498 22.9673 42.1498V42.1498Z" stroke="#1A1D32" stroke-linejoin="round"/>
<path d="M29.2354 31.3285C30.8858 31.3285 32.2238 30.0032 32.2238 28.3684C32.2238 26.7335 30.8858 25.4082 29.2354 25.4082C27.5849 25.4082 26.2469 26.7335 26.2469 28.3684C26.2469 30.0032 27.5849 31.3285 29.2354 31.3285Z" stroke="#1A1D32" stroke-linejoin="round"/>
<path d="M21.7785 12.2887C24.906 15.374 30.9368 25.408 28.328 27.4636C24.9888 30.0947 15.499 26.022 10.1167 21.011C4.73442 16 5.09431 11.3467 8.83708 9.31731C13.4328 6.82541 17.3276 7.89781 21.7785 12.2887Z" stroke="#1A1D32" stroke-linejoin="round"/>
<path d="M46.3589 61.0089C46.57 60.831 46.597 60.5156 46.4191 60.3044C46.2411 60.0932 45.9257 60.0663 45.7145 60.2442L46.3589 61.0089ZM48.4789 57.9151C48.2677 58.093 48.2407 58.4084 48.4187 58.6196C48.5966 58.8308 48.912 58.8577 49.1232 58.6798L48.4789 57.9151ZM51.1965 56.933C51.4076 56.755 51.4346 56.4396 51.2567 56.2284C51.0787 56.0173 50.7633 55.9903 50.5521 56.1682L51.1965 56.933ZM53.3165 53.8391C53.1053 54.017 53.0783 54.3325 53.2563 54.5436C53.4342 54.7548 53.7496 54.7818 53.9608 54.6038L53.3165 53.8391ZM56.0341 52.857C56.2452 52.6791 56.2722 52.3636 56.0943 52.1525C55.9163 51.9413 55.6009 51.9143 55.3897 52.0923L56.0341 52.857ZM58.1541 49.7631C57.9429 49.9411 57.9159 50.2565 58.0939 50.4677C58.2718 50.6788 58.5872 50.7058 58.7984 50.5279L58.1541 49.7631ZM60.8716 48.781C61.0828 48.6031 61.1098 48.2877 60.9318 48.0765C60.7539 47.8653 60.4385 47.8383 60.2273 48.0163L60.8716 48.781ZM62.9916 45.6871C62.7805 45.8651 62.7535 46.1805 62.9314 46.3917C63.1094 46.6029 63.4248 46.6298 63.636 46.4519L62.9916 45.6871ZM65.7092 44.705C65.9204 44.5271 65.9474 44.2117 65.7694 44.0005C65.5915 43.7893 65.2761 43.7624 65.0649 43.9403L65.7092 44.705ZM67.8292 41.6112C67.6181 41.7891 67.5911 42.1045 67.769 42.3157C67.947 42.5269 68.2624 42.5538 68.4736 42.3759L67.8292 41.6112ZM45.3222 61.8824L46.3589 61.0089L45.7145 60.2442L44.6779 61.1176L45.3222 61.8824ZM49.1232 58.6798L51.1965 56.933L50.5521 56.1682L48.4789 57.9151L49.1232 58.6798ZM53.9608 54.6038L56.0341 52.857L55.3897 52.0923L53.3165 53.8391L53.9608 54.6038ZM58.7984 50.5279L60.8716 48.781L60.2273 48.0163L58.1541 49.7631L58.7984 50.5279ZM63.636 46.4519L65.7092 44.705L65.0649 43.9403L62.9916 45.6871L63.636 46.4519ZM68.4736 42.3759L69.5102 41.5025L68.8659 40.7377L67.8292 41.6112L68.4736 42.3759Z" fill="#1A1D32"/>
</svg>
