<svg width="80" height="80" viewBox="0 0 80 80" fill="none" xmlns="http://www.w3.org/2000/svg">
<path d="M42.1693 44.0959L42.1963 51.5429L11.9258 37.9571V30.9678L42.1693 44.0959Z" fill="#B0E9DD"/>
<path d="M41.6533 35.6755L68.8485 24.4717L68.8304 62.1714L41.6533 74.0005V40.6828" fill="#B0E9DD"/>
<path d="M57.85 56.5165V36.7148L51.4292 39.5092V58.9792L54.6396 55.5191L57.85 56.5165Z" fill="#1A1D32"/>
<path d="M52.4585 29.0016L22.9712 16.8501L29.9053 14.041L59.2753 26.1926L52.4585 29.0016Z" fill="#1A1D32"/>
<path d="M59.2753 36.0935V26.1924L52.4585 29.0014V39.0791L59.2753 36.0935Z" fill="#1A1D32"/>
<path d="M39.906 34.1708L68.9998 22.185L39.906 9.99023L10 22.1022" stroke="#1A1D32" stroke-linecap="round" stroke-linejoin="round"/>
<path d="M39.8813 44.5238V70.791L67.0584 58.9619L67.0765 32.7002" stroke="#1A1D32" stroke-linecap="round" stroke-linejoin="round"/>
<path d="M11.9258 32.1279V58.4077L39.8807 70.7917" stroke="#1A1D32" stroke-linecap="round" stroke-linejoin="round"/>
<path d="M68.9815 31.8704L68.9996 22.1855L39.9058 34.1713V44.5247L68.9815 31.8704Z" stroke="#1A1D32" stroke-linecap="round" stroke-linejoin="round"/>
<path d="M10 31.2757L39.906 44.5246V34.1712L10 22.1025V31.2757Z" stroke="#1A1D32" stroke-linecap="round" stroke-linejoin="round"/>
</svg>
