<svg width="80" height="80" viewBox="0 0 80 80" fill="none" xmlns="http://www.w3.org/2000/svg">
<path d="M56.7437 8.71616V16.6397C56.7437 16.8785 56.8065 17.1132 56.926 17.3201C57.0454 17.5269 57.2172 17.6987 57.4241 17.8182L64.286 21.7799C64.4929 21.8994 64.7276 21.9622 64.9665 21.9622C65.2053 21.9622 65.44 21.8994 65.6469 21.7799L72.5088 17.8182C72.7157 17.6987 72.8875 17.5269 73.0069 17.3201C73.1264 17.1132 73.1892 16.8785 73.1893 16.6397V8.71616C73.1893 8.47728 73.1264 8.2426 73.0069 8.03573C72.8875 7.82885 72.7157 7.65705 72.5088 7.53761L65.6469 3.57588C65.44 3.45644 65.2053 3.39355 64.9665 3.39355C64.7276 3.39355 64.4929 3.45644 64.286 3.57588L57.4241 7.53761C57.2172 7.65705 57.0454 7.82885 56.926 8.03573C56.8065 8.2426 56.7437 8.47728 56.7437 8.71616Z" fill="#B0E9DD"/>
<path d="M43.1401 3.54408V7.44314C43.1401 7.54751 43.1676 7.65003 43.2198 7.74042C43.272 7.83081 43.3471 7.90585 43.4374 7.95804L46.8141 9.90754C46.9045 9.95973 47.007 9.98723 47.1114 9.98723C47.2157 9.98723 47.3183 9.95973 47.4087 9.90754L50.7853 7.95804C50.8757 7.90586 50.9508 7.83081 51.003 7.74042C51.0552 7.65003 51.0826 7.54751 51.0826 7.44314V3.54408C51.0826 3.43972 51.0552 3.33719 51.003 3.24681C50.9508 3.15642 50.8757 3.08137 50.7853 3.02919L47.4087 1.07966C47.3183 1.02747 47.2157 1 47.1114 1C47.007 1 46.9045 1.02747 46.8141 1.07966L43.4374 3.02919C43.3471 3.08137 43.272 3.15642 43.2198 3.24681C43.1676 3.33719 43.1401 3.43972 43.1401 3.54408Z" fill="#B0E9DD"/>
<path d="M28.8394 27.8868C29.0459 27.8169 40.9077 21.0874 41.8556 20.4806C42.8035 19.8738 47.5731 17.203 48.6411 22.8505L28.8394 27.8868Z" fill="#B0E9DD"/>
<path d="M12.3317 40.3278C9.59808 41.42 9.79301 38.9882 12.0508 38.2277C12.41 38.1068 39.3643 25.2126 39.3643 25.2126L47.1422 23.2493L47.6168 26.2296L12.3317 40.3278Z" fill="#B0E9DD"/>
<path d="M7.54395 42.8916C7.54395 42.8916 9.07367 46.2063 13.8605 44.5489C17.8412 43.1706 50.406 29.8079 52.9615 28.6695C56.1813 27.2351 58.1121 27.5229 59.5327 31.6369C61.5964 37.6133 67.7028 54.9713 67.8325 55.3408C68.6411 57.6446 68.888 59.622 66.5203 61.1018C65.0372 62.0288 31.2353 75.853 28.5124 76.9183C27.3074 77.5719 25.9619 77.9238 24.5912 77.9438C23.502 78.0929 22.3928 77.9313 21.3914 77.4776C20.39 77.0239 19.5371 76.2965 18.931 75.3793C16.9482 71.6064 7.54395 42.8916 7.54395 42.8916ZM54.8225 45.726C55.6573 45.726 56.4734 45.4785 57.1676 45.0147C57.8617 44.5509 58.4026 43.8917 58.7221 43.1204C59.0416 42.3492 59.1252 41.5005 58.9623 40.6817C58.7994 39.8629 58.3975 39.1109 57.8072 38.5206C57.2169 37.9303 56.4648 37.5282 55.646 37.3654C54.8272 37.2025 53.9786 37.2861 53.2073 37.6056C52.436 37.9251 51.7768 38.4661 51.313 39.1602C50.8492 39.8543 50.6017 40.6703 50.6017 41.5052C50.6017 42.6246 51.0464 43.6982 51.8379 44.4898C52.6295 45.2813 53.7031 45.726 54.8225 45.726Z" fill="#B0E9DD"/>
<path d="M49.585 73.9614H22.9228C22.3978 73.963 21.8947 74.1722 21.5234 74.5435C21.1522 74.9147 20.9429 75.4178 20.9414 75.9428C20.9414 77.0326 23.1261 77.9459 24.5911 77.9459L49.5406 77.9242C62.4149 77.9242 68.8929 77.0326 68.8929 75.9428C68.8929 74.853 62.9476 73.9614 49.585 73.9614Z" fill="#B0E9DD"/>
<path d="M54.4522 23.5465L52.7733 20.4365L18.0527 36.9264L18.3112 37.9388L53.8391 23.743" fill="#1A1D32"/>
<path d="M56.0316 45.7287C57.8313 45.7287 59.2902 44.2698 59.2902 42.4701C59.2902 40.6704 57.8313 39.2114 56.0316 39.2114C54.2319 39.2114 52.7729 40.6704 52.7729 42.4701C52.7729 44.2698 54.2319 45.7287 56.0316 45.7287Z" fill="#1A1D32"/>
<path d="M14.6674 35.0462L11.41 36.7909C8.98501 38.0366 8.02092 39.64 8.9493 42.2312L18.614 69.3374L19.7785 72.3674C20.9914 75.7526 23.5137 76.3923 26.533 75.3105L66.7441 58.9096C69.7634 57.8278 70.7903 55.9883 69.7085 52.969L60.1552 26.3054C59.0734 23.286 56.8577 22.6619 53.8383 23.7437L12.3314 40.3278C9.29445 41.4159 10.224 39.0976 12.0506 38.2277" stroke="#1A1D32" stroke-linecap="round" stroke-linejoin="round"/>
<path d="M47.111 23.2557L46.7103 22.1373C46.5161 21.6959 46.2323 21.2997 45.877 20.9736C45.5217 20.6476 45.1025 20.3989 44.6461 20.2433C44.1897 20.0877 43.7059 20.0285 43.2254 20.0695C42.7449 20.1105 42.2782 20.2509 41.8547 20.4817L26.5103 28.701" stroke="#1A1D32" stroke-linecap="round" stroke-linejoin="round"/>
<path d="M15.5959 38.4933L13.8594 32.0426L51.9975 21.9629L52.7729 24.1224" stroke="#1A1D32" stroke-linecap="round" stroke-linejoin="round"/>
</svg>
