<svg width="68" height="48" viewBox="0 0 68 48" fill="none" xmlns="http://www.w3.org/2000/svg">
<path d="M13.4414 16.6663V16.903C13.2568 16.9719 13.1245 17.157 13.1245 17.3745C13.1245 17.6507 13.3372 17.8749 13.5997 17.8749C13.8623 17.8749 14.0746 17.6507 14.0746 17.3745C14.0746 17.157 13.9423 16.972 13.758 16.903V16.6663H14.0746V16.3333H13.758V16H13.4414V16.3333H13.1245V16.6663H13.4414Z" fill="#193C6B"/>
<path d="M13.1244 20.8571V19C12.6001 19 12.1747 19.4476 12.1747 20.0003C12.1747 20.3638 12.3589 20.6824 12.6352 20.8571H11.4074C11.2902 20.5972 11.2246 20.3067 11.2246 20.0003C11.2246 19.6485 11.3109 19.3182 11.4622 19.0313C11.386 19.011 11.3067 18.9999 11.2246 18.9999C10.7002 18.9999 10.2748 19.4476 10.2748 20.0003C10.2748 20.3638 10.4594 20.6824 10.7353 20.8571H9.50757C9.39034 20.5972 9.32471 20.3067 9.32471 20.0003C9.32471 18.8956 10.1755 18 11.2246 18C11.5706 18 11.8953 18.0973 12.1747 18.2673C12.4541 18.0973 12.7787 18 13.1244 18C13.2887 18 13.448 18.0217 13.5997 18.063C13.7513 18.0217 13.9103 18 14.0742 18C14.4206 18 14.7449 18.0973 15.0243 18.2673C15.304 18.0973 15.6283 18 15.9748 18C17.0235 18 17.8746 18.8956 17.8746 20.0003C17.8746 20.3067 17.8086 20.5972 17.6918 20.8571H16.464C16.7399 20.6824 16.9245 20.3638 16.9245 20.0003C16.9245 19.4476 16.4991 18.9999 15.9748 18.9999C15.8926 18.9999 15.8133 19.011 15.7368 19.0313C15.8884 19.3182 15.9748 19.6485 15.9748 20.0003C15.9748 20.3067 15.9088 20.5972 15.7915 20.8571H14.5642C14.8397 20.6824 15.0243 20.3638 15.0243 20.0003C15.0243 19.4476 14.5993 19 14.0742 19V20.8571H13.1244Z" fill="#193C6B"/>
<path fill-rule="evenodd" clip-rule="evenodd" d="M21.1993 23.9995C21.1993 28.4182 17.7968 31.9998 13.5995 31.9998C9.40242 31.9998 6 28.4182 6 23.9995H10.7495V25.3538C11.4462 24.5238 12.4647 23.9995 13.5995 23.9995C15.447 23.9995 16.9868 25.3877 17.3286 27.2269C17.9544 26.4168 18.3349 25.3877 18.3493 24.265V23.9995H21.1993ZM12.6497 28C12.6497 28.5516 13.0751 29.0004 13.5995 29.0004C14.1238 29.0004 14.5496 28.5516 14.5496 28C14.5496 27.4477 14.1238 26.9997 13.5995 26.9997C13.0751 26.9997 12.6497 27.4477 12.6497 28ZM19.2475 24.9998C18.986 26.9953 17.76 28.667 16.0812 29.476C15.3831 29.8123 14.6071 29.9999 13.7897 29.9999H13.5995C12.55 29.9999 11.6996 29.1047 11.6996 28C11.6996 26.8954 12.55 26.0001 13.5995 26.0001C14.6485 26.0001 15.4993 26.8954 15.4993 28C15.4993 28.2463 15.4568 28.4819 15.38 28.7002C15.7626 28.5498 16.1213 28.347 16.4477 28.1003C16.4477 28.1003 16.4489 28.0335 16.4489 28C16.4489 26.343 15.1731 24.9998 13.5993 24.9998C12.0255 24.9998 10.7494 26.343 10.7494 28C10.7494 29.6562 12.0255 30.9998 13.5993 30.9998C14.767 30.9998 15.8642 30.6827 16.8182 30.1267C18.6008 29.0866 19.8812 27.2095 20.1816 24.9998L19.2475 24.9998ZM9.79973 24.9998H7.0175C7.31758 27.2095 8.59832 29.0866 10.3806 30.1268C10.0124 29.511 9.79973 28.7813 9.79973 28V24.9998Z" fill="#193C6B"/>
<path d="M10.082 21.125C9.76473 21.125 9.50781 21.3956 9.50781 21.729C9.50781 22.063 9.76473 22.3333 10.082 22.3333C10.3986 22.3333 10.6555 22.063 10.6555 21.729C10.6555 21.3956 10.3986 21.125 10.082 21.125Z" fill="#193C6B"/>
<path d="M16.5435 21.729C16.5435 21.3956 16.8007 21.125 17.1173 21.125C17.4346 21.125 17.6915 21.3956 17.6915 21.729C17.6915 22.063 17.4346 22.3333 17.1173 22.3333C16.8007 22.3333 16.5435 22.063 16.5435 21.729Z" fill="#193C6B"/>
<path d="M15.3586 21.125C15.0417 21.125 14.7844 21.3956 14.7844 21.729C14.7844 22.063 15.0417 22.3333 15.3586 22.3333C15.6756 22.3333 15.9325 22.063 15.9325 21.729C15.9325 21.3956 15.6756 21.125 15.3586 21.125Z" fill="#193C6B"/>
<path d="M13.0259 21.729C13.0259 21.3956 13.2828 21.125 13.6001 21.125C13.9167 21.125 14.1736 21.3956 14.1736 21.729C14.1736 22.063 13.9167 22.3333 13.6001 22.3333C13.2828 22.3333 13.0259 22.063 13.0259 21.729Z" fill="#193C6B"/>
<path d="M11.8405 21.125C11.5235 21.125 11.2666 21.3956 11.2666 21.729C11.2666 22.063 11.5235 22.3333 11.8405 22.3333C12.1574 22.3333 12.4143 22.063 12.4143 21.729C12.4143 21.3956 12.1574 21.125 11.8405 21.125Z" fill="#193C6B"/>
<path d="M10.7495 22.667H16.4495V23.6673H10.7495V22.667Z" fill="#193C6B"/>
<path d="M30.3919 27.7095C29.5216 28.2559 28.4633 28.6854 27.6265 28.7275C26.7231 28.7744 25.7295 28.6055 25.4504 27.6553C25.04 26.2578 25.8583 24.4759 26.924 23.8796C28.3997 23.0531 29.6253 23.5006 30.0457 23.9543L30.3534 22.2862C29.729 21.9962 28.8732 21.8735 28.554 21.8735C26.3268 21.8735 25.2555 23.0147 24.586 23.9617C23.8344 25.0271 22.8313 27.7101 24.6963 29.5645C25.2525 30.1177 26.2676 30.4567 27.2297 30.3867C28.7474 30.2751 29.6769 29.8208 30.5638 29.1492C30.6079 29.2502 30.659 29.345 30.7171 29.4329C31.105 30.0198 31.8125 30.3141 32.8351 30.3141C34.5363 30.3141 35.6587 29.6134 36.0019 27.5953L36.1112 26.9236C36.1237 26.8599 36.1357 26.7868 36.1462 26.7083C36.1738 26.5067 36.1918 26.272 36.1918 26.0804C36.1918 24.5565 35.3054 23.8933 33.7311 23.8933C32.048 23.8933 30.9531 24.5849 30.5728 26.602L30.6729 26.5331C31.562 25.9208 32.4433 25.314 33.5772 25.314C34.2291 25.314 34.4275 25.5887 34.4275 26.0998C34.4275 26.2667 34.4196 26.4425 34.3754 26.7083C34.3735 26.7188 34.3718 26.729 34.3701 26.7392C34.3683 26.7501 34.3665 26.7611 34.3644 26.7725L34.2466 27.4352C34.0387 28.5143 33.7581 28.8933 32.9619 28.8933C32.3561 28.8933 32.1296 28.6759 32.1296 28.1264C32.1207 27.9358 32.1602 27.57 32.1832 27.4352C32.2068 27.3009 32.3676 26.5141 32.3676 26.5141C32.3676 26.5141 31.2703 27.1584 30.3919 27.7095Z" fill="#193C6B"/>
<path d="M38.8705 24.5717C39.529 24.0142 40.2786 23.9111 40.9099 23.9111L40.6483 25.4692C40.0075 25.4692 39.2854 25.5919 38.8069 25.7435L38.0578 30.1535H36.2805L37.3092 24.0717H38.9517L38.8705 24.5717Z" fill="#193C6B"/>
<path d="M45.0334 23.9111C44.4026 23.9111 43.662 24.0142 42.9941 24.5717L43.0843 24.0717H41.4423L40.4136 30.1535H42.1909L42.94 25.7435C43.4185 25.5919 44.14 25.4692 44.7809 25.4692L45.0334 23.9111Z" fill="#193C6B"/>
<path d="M61.8195 25.2802C61.0975 25.2044 60.4025 25.1576 59.9605 25.1576C59.5361 25.1576 59.022 25.1766 59.022 25.6962C59.022 25.9504 59.2114 26.0551 59.6894 26.2625L60.1775 26.4605C61.1876 26.8763 61.594 27.3485 61.594 28.1986C61.594 29.7856 60.3393 30.3041 58.6883 30.3041C57.8761 30.3041 56.9556 30.163 56.6479 30.0683L56.8288 28.955C57.1199 28.9691 57.3497 28.9888 57.5708 29.0079C57.9261 29.0384 58.2589 29.067 58.787 29.067C59.3557 29.067 59.8162 28.9628 59.8162 28.4438C59.8162 28.1511 59.6804 28.0569 59.0581 27.7827L58.6247 27.6026C57.7403 27.2358 57.2618 26.7067 57.2618 25.8187C57.2618 24.2127 58.5706 23.9111 59.9239 23.9111C60.7993 23.9111 61.5579 24.0333 61.9999 24.1564L61.8195 25.2802Z" fill="#193C6B"/>
<path fill-rule="evenodd" clip-rule="evenodd" d="M54.1033 23.9111C52.4157 23.9111 51.3238 24.5996 50.9541 26.612L50.8368 27.1973C50.7646 27.5658 50.7646 27.849 50.7646 28.1322C50.7646 29.5866 51.6034 30.314 53.2004 30.314C54.9065 30.314 56.0259 29.615 56.3686 27.6026L56.4768 26.9331C56.5129 26.7062 56.558 26.3567 56.558 26.0919C56.558 24.5717 55.6736 23.9111 54.1033 23.9111ZM54.7351 26.782L54.6089 27.4426C54.4104 28.5196 54.1303 28.897 53.3366 28.897C52.7318 28.897 52.4968 28.6796 52.4968 28.1322C52.4968 27.9248 52.5064 27.7074 52.56 27.4426L52.6867 26.782C52.8757 25.705 53.1738 25.3276 53.9499 25.3276C54.6003 25.3276 54.7897 25.6013 54.7897 26.1114C54.7897 26.2909 54.7897 26.4793 54.7351 26.782Z" fill="#193C6B"/>
<path fill-rule="evenodd" clip-rule="evenodd" d="M44.7183 26.7821C45.061 24.647 46.2616 23.9106 47.9487 23.9106C49.6538 23.9106 50.3403 24.8171 50.3403 26.1393C50.3403 26.5652 50.2862 26.99 50.1689 27.6127H46.3513C46.3067 27.8864 46.2796 28.057 46.2796 28.1891C46.2796 28.6802 46.5321 28.9265 47.4706 28.9265C48.0749 28.9265 48.581 28.897 49.6723 28.8218L49.4834 30.0498C49.0049 30.1625 48.1651 30.3136 47.1274 30.3136C45.4578 30.3136 44.5649 29.6619 44.5649 28.1233C44.5649 27.8206 44.6095 27.4711 44.6732 27.1031L44.7183 26.7821ZM46.5231 26.602H48.6076C48.6436 26.3767 48.6702 26.1866 48.6702 26.0446C48.6702 25.5919 48.4728 25.2329 47.7868 25.2329C46.92 25.2329 46.6584 25.8556 46.5502 26.5173L46.5231 26.602Z" fill="#193C6B"/>
</svg>
