<svg width="68" height="48" viewBox="0 0 68 48" fill="none" xmlns="http://www.w3.org/2000/svg">
<path d="M13.84 30.0755H6V19.7979H13.84V21.7084H7.91059V24.0802H13.6424V25.859H7.91059V28.1649H13.84V30.0755Z" fill="#D73A43"/>
<path d="M14.9596 22.8945L18.5832 26.4522L14.8279 30.0757H17.7267L21.3503 26.4522L17.7926 22.8945H14.9596Z" fill="#D73A43"/>
<path d="M23.8542 33.1052V22.8275H25.5013L25.6331 23.8158C26.1601 23.0252 27.1484 22.6299 28.0049 22.6299C30.2449 22.6299 31.6943 24.2769 31.6943 26.3852C31.6943 28.4934 30.3766 30.1405 28.0707 30.1405C27.2801 30.1405 26.1601 29.877 25.699 29.0864V33.1052H23.8542ZM29.8496 26.4511C29.8496 25.3311 29.059 24.4087 27.8072 24.4087C26.4895 24.4087 25.7648 25.3311 25.7648 26.4511C25.7648 27.5711 26.6213 28.4934 27.8072 28.4934C29.059 28.5593 29.8496 27.637 29.8496 26.4511Z" fill="#D73A43"/>
<path d="M34.7249 22.8944L34.8567 23.7509C35.3838 22.8285 36.1744 22.6968 36.8991 22.6968C37.6238 22.6968 38.3485 22.9603 38.7438 23.3556L37.9532 24.9368C37.5579 24.6074 37.2285 24.4756 36.6355 24.4756C35.7132 24.4756 34.8567 25.0027 34.8567 26.3203V30.1415H33.0779V22.8944H34.7249Z" fill="#D73A43"/>
<path d="M41.1814 27.1099C41.3131 28.0323 42.1037 28.6252 43.3555 28.6252C44.0143 28.6252 44.8708 28.3617 45.2661 27.9664L46.3861 29.0864C45.5955 29.877 44.4096 30.2723 43.2896 30.2723C40.7861 30.2723 39.3367 28.757 39.3367 26.3852C39.3367 24.2111 40.852 22.6299 43.1579 22.6299C45.5955 22.6299 47.1108 24.1452 46.7814 27.1099H41.1814ZM45.0685 25.6605C44.9367 24.7381 44.212 24.2769 43.2237 24.2769C42.2355 24.2769 41.4449 24.7381 41.1814 25.6605H45.0685Z" fill="#D73A43"/>
<path d="M53.1723 24.804C52.6452 24.3428 52.0523 24.1452 51.3935 24.1452C50.537 24.1452 50.0758 24.4087 50.0758 24.8699C50.0758 25.3311 50.4711 25.5946 51.3935 25.6605C52.777 25.7264 54.4899 26.0558 54.4899 27.9664C54.4899 29.2181 53.4358 30.3381 51.3935 30.3381C50.2735 30.3381 49.0876 30.1405 48.0334 29.0205L48.8899 27.7687C49.417 28.3617 50.6029 28.757 51.3935 28.757C52.0523 28.757 52.7111 28.4275 52.7111 27.9005C52.7111 27.3734 52.3158 27.1758 51.2617 27.1099C49.8782 26.9781 48.297 26.517 48.297 24.8699C48.297 23.2228 50.0099 22.6299 51.3276 22.6299C52.4476 22.6299 53.3041 22.8275 54.1605 23.5522L53.1723 24.804Z" fill="#D73A43"/>
<path d="M60.6823 24.804C60.1552 24.3428 59.5623 24.1452 58.9035 24.1452C58.047 24.1452 57.5858 24.4087 57.5858 24.8699C57.5858 25.3311 57.9811 25.5946 58.9035 25.6605C60.287 25.7264 62 26.0558 62 27.9664C62 29.2181 60.9458 30.3381 58.9035 30.3381C57.7835 30.3381 56.5976 30.1405 55.5435 29.0205L56.3999 27.7687C56.927 28.3617 58.1129 28.757 58.9035 28.757C59.5623 28.757 60.2211 28.4275 60.2211 27.9005C60.2211 27.3734 59.8258 27.1758 58.7717 27.1099C57.3882 26.9781 55.807 26.517 55.807 24.8699C55.807 23.2228 57.5199 22.6299 58.8376 22.6299C59.9576 22.6299 60.8141 22.8275 61.6705 23.5522L60.6823 24.804Z" fill="#D73A43"/>
<path d="M19.9789 25.0485L18.5806 26.4453L19.9773 27.8437L21.3757 26.4469L19.9789 25.0485Z" fill="#D73A43"/>
<path d="M21.3642 26.4263L19.9668 27.8242L21.3648 29.2216L22.7621 27.8236L21.3642 26.4263Z" fill="#1D4F7F"/>
<path d="M21.3584 23.6632L19.9604 25.0605L21.3578 26.4585L22.7558 25.0611L21.3584 23.6632Z" fill="#1D4F7F"/>
<path d="M45.9908 15.4497C45.5297 15.4497 44.9367 15.5156 44.4755 15.9109L44.5414 15.5815H43.2896L42.5649 19.9297H43.8826L44.4097 16.7674C44.7391 16.6356 45.332 16.5697 45.7932 16.5697L45.9908 15.4497Z" fill="#1D4F7F"/>
<path d="M49.087 15.4497C48.6258 15.4497 48.0988 15.5156 47.5717 15.9109L47.6376 15.5815H46.3858L45.6611 19.9297H46.9788L47.5058 16.7674C47.8353 16.6356 48.4282 16.5697 48.8894 16.5697L49.087 15.4497Z" fill="#1D4F7F"/>
<path d="M60.1554 16.3052C60.4848 16.3052 61.0119 16.3711 61.539 16.3711L61.6707 15.5805C61.3413 15.5146 60.7484 15.3828 60.1554 15.3828C59.1672 15.3828 58.1789 15.5805 58.1789 16.7663C58.1789 17.4252 58.5084 17.7546 59.1672 18.0181L59.4966 18.1499C59.9578 18.3475 60.0895 18.4134 60.0895 18.6111C60.0895 19.0064 59.7601 19.0722 59.299 19.0722C58.6401 19.0722 58.3766 19.0064 57.8495 19.0064L57.7178 19.7969C57.9154 19.8628 58.6401 19.9946 59.2331 19.9946C60.4848 19.9946 61.4072 19.5993 61.4072 18.4793C61.4072 17.8864 61.0778 17.5569 60.3531 17.2275L59.9578 17.0958C59.6284 16.964 59.4307 16.8981 59.4307 16.7005C59.4966 16.3052 59.826 16.3052 60.1554 16.3052Z" fill="#1D4F7F"/>
<path d="M55.8072 15.4497C54.5555 15.4497 53.7649 15.9109 53.4355 17.3603L53.3696 17.7556C53.3037 18.0191 53.3037 18.2168 53.3037 18.4144C53.3037 19.4685 53.8967 19.9956 55.0825 19.9956C56.3343 19.9956 57.1908 19.4685 57.4543 18.085L57.5202 17.6238C57.5202 17.4921 57.5861 17.2285 57.5861 17.0309C57.652 15.9109 56.9931 15.4497 55.8072 15.4497ZM56.2684 17.4921L56.2025 17.9532C56.0708 18.7438 55.8731 19.0074 55.2802 19.0074C54.819 19.0074 54.6872 18.8756 54.6872 18.4803C54.6872 18.3485 54.6872 18.1509 54.7531 18.0191V17.4921C54.8849 16.7015 55.0825 16.4379 55.6755 16.4379C56.1367 16.4379 56.2684 16.6356 56.2684 17.0309C56.3343 17.1627 56.3343 17.2944 56.2684 17.4921Z" fill="#1D4F7F"/>
<path d="M51.2616 15.4497C50.0098 15.4497 49.0875 15.9768 48.8898 17.4921L48.8239 17.7556C48.7581 18.0191 48.7581 18.2827 48.7581 18.4803C48.7581 19.6003 49.4169 20.0615 50.6687 20.0615C51.4592 20.0615 52.0522 19.9297 52.4475 19.8638L52.5792 19.0074C51.7887 19.0732 51.3934 19.0732 50.9322 19.0732C50.2075 19.0732 50.0757 18.8756 50.0757 18.5462C50.0757 18.4803 50.0757 18.3485 50.1416 18.1509H52.9745C53.0404 17.6897 53.1063 17.4262 53.1063 17.0968C53.0404 16.1085 52.5134 15.4497 51.2616 15.4497ZM51.7228 17.3603H50.1416V17.2944C50.2075 16.8332 50.4051 16.3721 51.0639 16.3721C51.591 16.3721 51.7228 16.6356 51.7228 16.965C51.7887 17.0968 51.7887 17.2285 51.7228 17.3603Z" fill="#1D4F7F"/>
<path d="M38.1509 18.1506C37.4921 18.5459 36.7015 18.8753 36.1086 18.8753C35.4497 18.9412 34.6591 18.8094 34.4615 18.0847C34.1321 17.0965 34.7909 15.8447 35.5815 15.3835C36.7015 14.7906 37.6239 15.12 37.8874 15.4494L38.1509 14.2635C37.6897 14.0659 37.2286 14 36.8333 14C35.1203 14 34.3297 14.7906 33.8686 15.5153C33.2756 16.24 32.5509 18.1506 33.9344 19.4683C34.3297 19.8635 35.1203 20.1271 35.845 20.0612C36.965 19.9953 37.6239 19.6659 38.2827 19.2047C38.2827 19.2706 38.3486 19.3365 38.4145 19.4024C38.678 19.7977 39.205 20.0612 39.9956 20.0612C41.2474 20.0612 42.1039 19.5341 42.3674 18.1506L42.4333 17.6894C42.4333 17.6235 42.4333 17.6235 42.4333 17.5577C42.4333 17.4259 42.4992 17.2282 42.4992 17.0965C42.4992 16.0424 41.8403 15.5153 40.6545 15.5153C39.4027 15.5153 38.5462 15.9765 38.2827 17.4259C38.9415 16.9647 39.6662 16.5035 40.5227 16.5035C40.9839 16.5035 41.1815 16.7012 41.1815 17.0306C41.1815 17.1624 41.1815 17.2941 41.1156 17.4918C41.1156 17.4918 41.1156 17.4918 41.1156 17.5577L41.0498 17.953C40.918 18.7435 40.6545 19.0071 40.0615 19.0071C39.6003 19.0071 39.4686 18.8753 39.4686 18.48C39.4686 18.3482 39.4686 18.0847 39.5345 18.0188C39.5345 17.953 39.6662 17.36 39.6662 17.36C39.6662 17.36 38.8097 17.7553 38.1509 18.1506Z" fill="#1D4F7F"/>
</svg>
