<svg width="68" height="48" viewBox="0 0 68 48" fill="none" xmlns="http://www.w3.org/2000/svg">
<title>DHL</title>
<path d="M59 19V30H8V19H59Z" fill="#FECC00"/>
<path d="M24.4435 23.5962C24.2207 23.8911 23.8478 24.4039 23.6208 24.7034C23.5056 24.8557 23.2976 25.1322 23.9873 25.1322C24.7172 25.1322 27.619 25.1322 27.619 25.1322C27.619 25.1322 28.2044 24.354 28.6951 23.7031C29.3625 22.8177 28.7528 20.9753 26.3666 20.9753C24.2308 20.9753 16.9691 20.9753 16.9691 20.9753L15.3397 23.139C15.3397 23.139 23.7868 23.139 24.2204 23.139C24.6687 23.139 24.6626 23.3057 24.4435 23.5962ZM21.7755 25.6659C21.0857 25.6659 21.2938 25.3888 21.409 25.2365C21.6359 24.9371 22.0149 24.4297 22.2378 24.1347C22.4572 23.8443 22.463 23.6776 22.0141 23.6776C21.5808 23.6776 17.9526 23.6776 17.9526 23.6776L14.6801 28.0241C14.6801 28.0241 20.5248 28.0241 22.6606 28.0241C25.2964 28.0241 26.7639 26.272 27.2163 25.6662C27.2163 25.6659 22.5051 25.6659 21.7755 25.6659ZM26.967 28.0241H31.6486L33.4234 25.6656L28.7424 25.6662C28.7409 25.6659 26.967 28.0241 26.967 28.0241ZM39.0461 20.9753L37.2504 23.3591H35.161L36.9559 20.9753H32.2757L29.1446 25.1322H40.5954L43.7257 20.9753H39.0461ZM33.738 28.0241H38.4178L40.1935 25.6662H35.5136C35.5119 25.6659 33.738 28.0241 33.738 28.0241ZM8 26.5962V27.097H14.5199L14.8966 26.5962H8ZM15.5974 25.6659H8V26.1662H15.2199L15.5974 25.6659ZM8 28.0241H13.8215L14.1964 27.5261H8V28.0241ZM52.1295 27.0967H59V26.5959H52.5067L52.1295 27.0967ZM51.4316 28.0241H59V27.5261H51.8062L51.4316 28.0241ZM53.2064 25.6659L52.83 26.1668H59V25.6659H53.2064ZM47.0765 25.1322L50.2073 20.9753H45.2506C45.2489 20.9753 42.1174 25.1322 42.1174 25.1322H47.0765ZM41.7161 25.6659C41.7161 25.6659 41.374 26.1228 41.2077 26.3429C40.6201 27.1188 41.1398 28.0241 43.0579 28.0241C45.2738 28.0241 50.5741 28.0241 50.5741 28.0241L52.3498 25.6662H41.7161V25.6659Z" fill="#D50029"/>
</svg>
