<svg width="68" height="48" viewBox="0 0 68 48" fill="none" xmlns="http://www.w3.org/2000/svg">
<path fill-rule="evenodd" clip-rule="evenodd" d="M31.9058 30.8461H34.1246L35.1206 22.7386H32.9012L31.9058 30.8461ZM47.8519 30.8461H50.0706L51.0666 22.7386H48.8478L47.8519 30.8461ZM49.0407 21.3807H51.2595L51.5287 19.1906H49.3094L49.0407 21.3807ZM44.3882 30.8461H46.6076L48.0521 19.1906H45.8333L44.3882 30.8461ZM24.12 22.7386H26.4423L27.7188 28.453L30.2922 22.7386H32.5308L28.5135 30.8147H26.3167L24.12 22.7386ZM17.3008 22.7386C17.9874 22.7386 18.674 22.7386 19.3606 22.7386C19.3471 22.8487 19.3335 22.9587 19.3199 23.0687C19.3171 23.2716 19.4557 23.368 19.6875 23.1719C20.7429 22.3077 21.6886 22.3937 22.5126 22.7386C23.8214 23.4541 24.206 24.6563 24.0731 26.1944C23.8893 27.7347 23.706 29.2756 23.5222 30.8147C22.7796 30.8147 22.0364 30.8147 21.2938 30.8147C21.4923 29.2026 21.6914 27.591 21.8905 25.9783C21.938 25.5548 21.8667 25.2184 21.6846 25.0069C20.9352 24.1336 19.3787 24.7253 19.075 25.8546C18.8748 27.5671 18.7147 29.1034 18.5145 30.8147C17.8019 30.8147 17.0898 30.8147 16.3772 30.8147C16.6854 28.1229 16.9931 25.4305 17.3008 22.7386ZM41.9879 23.5624C42.032 23.2876 42.0767 23.0134 42.1208 22.7386C42.7769 22.7386 43.433 22.7386 44.089 22.7386C43.7695 25.4305 43.4499 28.1229 43.1304 30.8147C42.4505 30.8147 41.7707 30.8147 41.0903 30.8147C41.1039 30.577 41.1175 30.3393 41.131 30.1005C39.6549 31.3232 37.4231 31.3574 36.2665 29.8439C34.8553 27.908 35.2292 25.7731 36.5006 24.1381C37.7692 22.5414 40.3799 21.8414 41.9879 23.5624ZM37.9677 28.2523C38.6939 29.2864 40.2312 28.9295 40.9359 28.0419C41.2114 27.6953 41.4223 27.2478 41.467 26.6806C41.5071 24.4739 39.6351 24.1615 38.4841 25.138C37.6357 25.858 37.3162 27.3242 37.9677 28.2523ZM57.8989 23.5624C57.943 23.2876 57.9871 23.0134 58.0318 22.7386C58.6879 22.7386 59.3439 22.7386 60 22.7386C59.6805 25.4305 59.3609 28.1229 59.0413 30.8147C58.3615 30.8147 57.6811 30.8147 57.0013 30.8147C57.0149 30.577 57.0284 30.3393 57.042 30.1005C55.5658 31.3232 53.334 31.3574 52.1774 29.8439C50.7663 27.908 51.1402 25.7731 52.4116 24.1381C53.6802 22.5414 56.2909 21.8414 57.8989 23.5624ZM53.8787 28.2523C54.6049 29.2864 56.1422 28.9295 56.8469 28.0419C57.1223 27.6953 57.3333 27.2478 57.378 26.6806C57.4181 24.4739 55.546 24.1615 54.3951 25.138C53.5467 25.858 53.2272 27.3242 53.8787 28.2523ZM9.71972 23.6336C8.85438 24.3639 8.26221 25.3809 8.03994 26.659C7.91212 27.7649 8.09763 28.628 8.50315 29.2984C9.18128 30.4203 10.3554 30.902 11.6229 30.9362C13.4452 30.9858 15.0475 29.9055 15.8648 28.1474C15.1103 28.1474 14.3564 28.1474 13.6019 28.1474C12.3514 29.6136 10.3899 29.1496 10.054 27.5483C12.042 27.5483 14.0877 27.5483 16.0757 27.5483C16.2895 25.9458 16.1566 24.6187 15.4281 23.7556C13.8801 21.9223 11.3062 22.2946 9.71972 23.6336ZM10.3209 25.8466C11.632 25.8466 12.922 25.8466 14.2325 25.8466C13.5849 23.6513 11.1218 23.9101 10.3209 25.8466ZM33.9023 21.1909C38.3953 21.2069 44.3215 19.2772 43.653 17.408C43.4578 17.0579 43.4041 16.8892 43.9997 17.079C45.9379 17.644 45.9464 18.4945 44.7344 19.4437C42.9692 20.7856 37.1906 22.2279 33.6371 21.4993C32.9448 21.3317 32.8373 21.1687 33.9023 21.1909Z" fill="#E95500"/>
</svg>
