<svg width="68" height="48" viewBox="0 0 68 48" fill="none" xmlns="http://www.w3.org/2000/svg">
<g clip-path="url(#clip0)">
<path fill-rule="evenodd" clip-rule="evenodd" d="M48.0979 28.2302L49.652 20.189H46.9434L44.8564 30.9553H49.8296L50.3181 28.2302H48.0979Z" fill="#184991"/>
<path fill-rule="evenodd" clip-rule="evenodd" d="M56.0463 22.5567C56.4903 22.5567 57.1563 22.6461 57.5116 22.8248L57.9556 20.3677C57.3784 20.2784 56.7567 20.2337 56.0907 20.2337C53.16 20.2337 51.7391 22.0206 51.7391 23.9863C51.7391 26.5773 54.3589 26.5327 54.3589 27.6495C54.3589 28.1856 53.9593 28.4983 53.1156 28.4983C52.5384 28.4983 51.7391 28.3643 51.2507 28.1856L50.8511 30.8213C51.3839 30.9107 52.1832 31 52.938 31C55.5578 31 57.4228 29.2131 57.4228 27.1134C57.4228 24.6117 54.803 24.567 54.803 23.4502C54.803 22.9141 55.1138 22.5567 56.0463 22.5567Z" fill="#184991"/>
<path fill-rule="evenodd" clip-rule="evenodd" d="M42.7249 20.189C38.6842 20.189 36.0645 23.2268 36.0645 26.9793C36.0645 29.347 37.3077 30.9553 40.3716 30.9553C41.6149 30.9553 42.9026 30.7319 43.9238 30.2852L44.9007 25.1031H42.1921L41.6149 28.2749C41.3928 28.3195 41.082 28.3642 40.86 28.3642C39.4835 28.3642 38.9951 27.6048 38.9951 26.622C38.9951 24.7457 40.1496 22.8247 42.4585 22.8247C43.1246 22.8247 43.835 22.9587 44.4567 23.1374C44.5011 23.1374 44.5899 23.1821 44.6787 23.1821C44.9007 23.2714 45.1227 23.3608 45.2559 23.4055L45.7888 20.591C44.8563 20.3677 43.7462 20.189 42.7249 20.189Z" fill="#184991"/>
<path fill-rule="evenodd" clip-rule="evenodd" d="M22.3441 20.2337L21.6336 23.8076H26.6512C22.4773 30.0172 14.1738 28.9897 11.9981 26.3986C10.1331 24.165 11.7317 20.3677 17.3265 18.0447C11.8205 19.6976 8.71223 24.165 10.5328 27.1581C12.6197 30.5533 19.0582 31.9828 24.7862 30.3299C28.6049 28.9897 30.2478 27.0687 30.8695 26.0412L29.937 30.9553H33.7113L35.7539 20.2337H22.3441Z" fill="#F5BF45"/>
</g>
<defs>
<clipPath id="clip0">
<rect width="48" height="13" fill="white" transform="translate(10 18)"/>
</clipPath>
</defs>
</svg>
