<svg width="68" height="48" viewBox="0 0 68 48" fill="none" xmlns="http://www.w3.org/2000/svg">
<title>Hermes</title>
<path fill-rule="evenodd" clip-rule="evenodd" d="M17.6707 22.9049L18.3024 20.3289H6.25122L8.33466 22.9049H17.6707Z" fill="url(#paint0_linear)"/>
<path fill-rule="evenodd" clip-rule="evenodd" d="M6.25122 20.9934L8.17066 22.9049H8.33466L6.25122 20.3289V20.9934Z" fill="url(#paint1_linear)"/>
<path fill-rule="evenodd" clip-rule="evenodd" d="M11.3293 25.9238L9.28833 23.4048H17.5249L16.9175 25.9238H11.3293Z" fill="url(#paint2_linear)"/>
<path fill-rule="evenodd" clip-rule="evenodd" d="M11.1835 25.9238L9.28833 24.0377V23.4048L11.3293 25.9238H11.1835Z" fill="url(#paint3_linear)"/>
<path fill-rule="evenodd" clip-rule="evenodd" d="M14.7185 29.0886L12.6533 26.5569H16.7595L16.1277 29.0886H14.7185Z" fill="url(#paint4_linear)"/>
<path fill-rule="evenodd" clip-rule="evenodd" d="M12.6533 27.1898L14.5971 29.0886H14.7185L12.6533 26.5569V27.1898Z" fill="url(#paint5_linear)"/>
<path fill-rule="evenodd" clip-rule="evenodd" d="M16.5452 29.0885H17.7134L18.3319 26.5627H17.1637L16.5452 29.0885Z" fill="url(#paint6_linear)"/>
<path fill-rule="evenodd" clip-rule="evenodd" d="M17.3354 25.9004H18.4865L19.105 23.4165H17.9368L17.3354 25.9004Z" fill="url(#paint7_linear)"/>
<path fill-rule="evenodd" clip-rule="evenodd" d="M18.0913 22.8928H19.2682L19.8695 20.3418H18.6926L18.0913 22.8928Z" fill="url(#paint8_linear)"/>
<path d="M29.1548 29.0978C28.5987 28.9678 28.3006 28.7249 28.0722 28.2156C27.9476 27.9378 27.9409 27.8877 27.9448 27.2626C27.9478 26.7794 27.9769 26.4656 28.0535 26.0897C28.2956 24.9024 28.8182 23.5883 29.252 23.0757C29.7378 22.5017 30.3827 22.2125 31.3613 22.1297C32.306 22.0498 33.0968 22.176 33.4844 22.4686C33.8809 22.7678 34.0142 23.1164 34.0142 23.8541C34.0142 24.3918 33.8799 25.1851 33.7255 25.5589C33.5656 25.9464 33.5838 25.9431 31.5818 25.9431H29.8437L29.7971 26.1264C29.5784 26.9868 29.6153 27.352 29.9434 27.5748C30.1824 27.7372 31.0222 27.7965 31.6971 27.6987C32.202 27.6255 32.5399 27.4819 32.7973 27.231C33.1589 26.8785 33.1818 26.9236 33.0017 27.6348C32.7073 28.7976 32.6535 28.8896 32.1711 29.0536C31.8371 29.1673 29.5925 29.2002 29.1548 29.0978ZM32.5071 24.6359C32.6399 24.0863 32.6072 23.8057 32.3852 23.5874C32.052 23.26 31.1844 23.277 30.7536 23.6194C30.562 23.7716 30.3801 24.0812 30.2315 24.5079L30.1231 24.8191H31.293H32.4629L32.5071 24.6359ZM50.4828 29.069C49.997 28.9364 49.7436 28.7342 49.538 28.3153L49.3738 27.9808L49.374 27.243C49.3742 26.6481 49.3955 26.4058 49.4842 25.9924C49.7636 24.6887 50.2358 23.5683 50.7411 23.0103C51.3217 22.3689 52.0146 22.1245 53.2665 22.1196C54.5064 22.1148 55.0664 22.3705 55.34 23.0663C55.4655 23.3855 55.4523 24.3555 55.3146 24.9358C55.1836 25.488 55.0632 25.7709 54.9241 25.8534C54.8399 25.9034 54.3974 25.9244 53.032 25.9431L51.2498 25.9676L51.1653 26.3097C51.0535 26.7626 51.0461 27.1477 51.1455 27.3431C51.1938 27.438 51.3097 27.541 51.4479 27.6119C51.6542 27.7178 51.7294 27.7268 52.3988 27.726C53.3948 27.7248 53.8428 27.6009 54.2435 27.2161C54.4276 27.0393 54.5562 26.969 54.5562 27.0453C54.5562 27.1396 54.1691 28.5621 54.1123 28.6766C53.9234 29.0572 53.4185 29.1695 51.914 29.1658C50.9979 29.1636 50.7737 29.1484 50.4828 29.069ZM53.9401 24.5422C54.1088 23.6667 53.816 23.325 52.9359 23.3704C52.2471 23.4059 51.912 23.7032 51.6433 24.5171C51.5945 24.6648 51.5547 24.7931 51.5547 24.8024C51.5547 24.8116 52.0794 24.8191 52.7207 24.8191H53.8867L53.9401 24.5422ZM19.9537 29.061C19.8645 28.9681 19.8869 28.7124 20.0354 28.1256C20.7343 25.3651 21.7833 21.0476 21.7873 20.9156C21.7908 20.8002 21.7612 20.7243 21.689 20.6634C21.6322 20.6155 21.5858 20.5413 21.5858 20.4986C21.5858 20.43 21.7035 20.4209 22.5908 20.4209C23.4697 20.4209 23.6056 20.4312 23.6746 20.5031C23.7834 20.6164 23.7612 20.7492 23.3765 22.2875C23.1971 23.0051 23.062 23.6044 23.0762 23.6192C23.0905 23.6341 23.6478 23.6463 24.3148 23.6463H25.5273L25.5722 23.5363C25.631 23.3925 26.1715 21.2151 26.2084 20.9737C26.2326 20.8154 26.2186 20.7696 26.1156 20.6689C25.8723 20.4312 25.9097 20.4209 27.0167 20.4209C28.1226 20.4209 28.1517 20.4276 28.1517 20.6827C28.1517 20.8001 27.5735 23.2141 27.0028 25.4789C26.3351 28.1293 26.2221 28.6426 26.2765 28.7794C26.3066 28.8552 26.3609 28.929 26.3973 28.9436C26.4336 28.9581 26.4633 29.0036 26.4633 29.0448C26.4633 29.1097 26.3278 29.1196 25.4409 29.1196C24.3377 29.1196 24.3059 29.1124 24.3059 28.8618C24.3059 28.7844 24.5064 27.9167 24.7515 26.9335C24.9965 25.9503 25.197 25.1163 25.197 25.0802C25.197 25.027 24.961 25.0147 23.9425 25.0148L22.6879 25.015L22.2522 26.8108C22.0125 27.7984 21.8173 28.646 21.8184 28.6943C21.8194 28.7425 21.8688 28.8326 21.9282 28.8945C21.9875 28.9563 22.028 29.0323 22.0181 29.0633C21.992 29.1447 20.0319 29.1425 19.9537 29.061ZM34.2286 29.0428C34.188 29.0006 34.1549 28.9373 34.1549 28.9022C34.1549 28.8671 34.5028 27.424 34.9281 25.6952C35.6479 22.7694 35.6965 22.5443 35.6305 22.4395C35.5916 22.3775 35.5391 22.3268 35.5139 22.3268C35.4887 22.3268 35.4681 22.2938 35.4681 22.2535C35.4681 22.1909 35.6001 22.1802 36.3753 22.1802C37.5607 22.1802 37.5187 22.143 37.313 23.011C37.2943 23.0899 37.3718 23.012 37.532 22.7911C37.6683 22.6029 37.8335 22.3885 37.899 22.3146L38.0182 22.1802H38.8536C39.3131 22.1802 39.689 22.1949 39.689 22.2129C39.689 22.3202 39.4292 23.2487 39.3748 23.3359C39.2693 23.5049 39.0976 23.5424 38.3524 23.5586C37.7494 23.5718 37.6221 23.5885 37.4613 23.6756C37.1249 23.8579 37.0664 24.0186 36.4833 26.3585C36.1887 27.5412 35.9347 28.5676 35.9189 28.6394C35.8976 28.7365 35.9203 28.8074 36.0074 28.9153C36.0719 28.9951 36.1247 29.0738 36.1247 29.09C36.1247 29.1063 35.7146 29.1196 35.2135 29.1196C34.4476 29.1196 34.2905 29.1074 34.2286 29.0428ZM39.0123 29.0428C38.9718 29.0006 38.9386 28.9401 38.9385 28.9085C38.9385 28.8768 39.2785 27.4654 39.6942 25.7721C40.1099 24.0788 40.4503 22.6397 40.4506 22.5741C40.4509 22.5085 40.4063 22.417 40.3515 22.3708C40.1463 22.1976 40.2204 22.1802 41.163 22.1802C42.3019 22.1802 42.324 22.1943 42.1481 22.8114C42.1076 22.9534 42.083 23.0783 42.0933 23.089C42.1036 23.0998 42.1832 23.0053 42.2702 22.8791C42.7595 22.1691 42.836 22.1338 43.8899 22.1324C44.6712 22.1314 44.6966 22.1346 44.9451 22.2657C45.209 22.405 45.3516 22.6149 45.4432 22.9989L45.4811 23.1578L45.7397 22.7557C46.1294 22.1496 46.1693 22.133 47.2399 22.1326C48.053 22.1323 48.1223 22.1395 48.342 22.247C48.471 22.3102 48.6127 22.4042 48.6568 22.4561C48.7903 22.6128 48.8814 22.8962 48.8814 23.155C48.8814 23.3064 48.6388 24.4123 48.246 26.0519C47.8855 27.5565 47.622 28.7508 47.6369 28.8126C47.6513 28.8724 47.705 28.9447 47.7563 28.9733C47.9725 29.0939 47.8255 29.1196 46.921 29.1196C45.934 29.1196 45.8798 29.1074 45.8798 28.8844C45.8798 28.8196 46.1331 27.7278 46.4426 26.4583C46.7521 25.1887 47.0054 24.0746 47.0054 23.9823C47.0054 23.6268 46.7104 23.461 46.1873 23.5227C45.6877 23.5816 45.472 23.7478 45.2978 24.2083C45.2209 24.4115 44.2229 28.323 44.1668 28.6409C44.1395 28.796 44.1522 28.8385 44.2562 28.9389C44.3229 29.0034 44.3638 29.0704 44.347 29.0879C44.3302 29.1053 43.9127 29.1196 43.4191 29.1196C42.4624 29.1196 42.4092 29.107 42.4092 28.8805C42.4092 28.8135 42.6625 27.73 42.972 26.4727C43.2816 25.2153 43.5348 24.097 43.5348 23.9875C43.5348 23.6028 43.1891 23.4348 42.6222 23.544C42.2463 23.6164 42.0788 23.7308 41.9332 24.0148C41.8007 24.2733 40.7208 28.4746 40.7208 28.7318C40.7208 28.8215 40.7556 28.8971 40.8146 28.9355C40.8662 28.9691 40.9084 29.0242 40.9084 29.0581C40.9084 29.1055 40.6986 29.1196 39.9972 29.1196C39.2314 29.1196 39.0743 29.1074 39.0123 29.0428ZM55.7048 29.0036C55.6335 28.8902 55.6406 28.8379 55.8321 28.0614C55.9888 27.4261 56.0532 27.2356 56.1158 27.223C56.1662 27.2129 56.2173 27.2539 56.2513 27.3317C56.3354 27.5241 56.4914 27.6019 56.9103 27.6607C57.4407 27.735 58.7476 27.6923 58.9696 27.5933C59.1754 27.5015 59.3213 27.2981 59.3815 27.019C59.4346 26.7731 59.3893 26.6144 59.2364 26.51C59.1771 26.4695 58.7082 26.3152 58.1943 26.1671C57.1635 25.8699 56.8954 25.7353 56.7235 25.4283C56.6249 25.2522 56.6169 25.19 56.6356 24.7458C56.679 23.7152 57.1518 22.7166 57.7454 22.402C58.1177 22.2046 58.3704 22.1802 60.0411 22.1802H61.6287L61.5107 22.6322C61.3707 23.1684 61.298 23.3287 61.1569 23.4127C61.0834 23.4565 60.7204 23.4826 59.9475 23.4997C58.9972 23.5207 58.8256 23.5361 58.7171 23.6103C58.5546 23.7214 58.4635 23.8711 58.4251 24.0909C58.3696 24.4077 58.4874 24.4852 59.5042 24.8002C60.7655 25.1909 61.0065 25.3392 61.1234 25.7965C61.239 26.2488 61.0484 27.4113 60.7531 28.0553C60.5501 28.4979 60.3255 28.7471 59.9606 28.9343L59.6471 29.0952L57.7137 29.1095L55.7803 29.1237L55.7048 29.0036Z" fill="#484649"/>
<defs>
<linearGradient id="paint0_linear" x1="7.53979" y1="21.8447" x2="18.3365" y2="20.6777" gradientUnits="userSpaceOnUse">
<stop stop-color="#EEF7FE"/>
<stop offset="1" stop-color="#1E97D0"/>
</linearGradient>
<linearGradient id="paint1_linear" x1="6.22777" y1="20.7561" x2="8.44377" y2="22.8381" gradientUnits="userSpaceOnUse">
<stop stop-color="#D6E9F7"/>
<stop offset="1" stop-color="#48A2D7"/>
</linearGradient>
<linearGradient id="paint2_linear" x1="10.6255" y1="25.0884" x2="17.5724" y2="23.6611" gradientUnits="userSpaceOnUse">
<stop stop-color="#D4EAF7"/>
<stop offset="1" stop-color="#1493C5"/>
</linearGradient>
<linearGradient id="paint3_linear" x1="9.26488" y1="23.4048" x2="11.4525" y2="25.8593" gradientUnits="userSpaceOnUse">
<stop stop-color="#D9EBF7"/>
<stop offset="1" stop-color="#318ABB"/>
</linearGradient>
<linearGradient id="paint4_linear" x1="13.8559" y1="28.0197" x2="16.8036" y2="26.652" gradientUnits="userSpaceOnUse">
<stop stop-color="#9DC4DF"/>
<stop offset="1" stop-color="#137EAB"/>
</linearGradient>
<linearGradient id="paint5_linear" x1="12.6299" y1="26.5325" x2="14.8432" y2="29.0231" gradientUnits="userSpaceOnUse">
<stop stop-color="#DEEEF8"/>
<stop offset="1" stop-color="#3586B3"/>
</linearGradient>
<linearGradient id="paint6_linear" x1="17.4385" y1="29.1129" x2="17.4385" y2="26.5383" gradientUnits="userSpaceOnUse">
<stop stop-color="#646368"/>
<stop offset="1" stop-color="#646368"/>
</linearGradient>
<linearGradient id="paint7_linear" x1="18.2288" y1="25.9248" x2="18.2288" y2="23.4164" gradientUnits="userSpaceOnUse">
<stop stop-color="#636267"/>
<stop offset="1" stop-color="#646368"/>
</linearGradient>
<linearGradient id="paint8_linear" x1="19.0964" y1="22.893" x2="19.0964" y2="20.3418" gradientUnits="userSpaceOnUse">
<stop stop-color="#6B6A6F"/>
<stop offset="1" stop-color="#EAEBED"/>
</linearGradient>
</defs>
</svg>
