<svg width="68" height="48" viewBox="0 0 68 48" fill="none" xmlns="http://www.w3.org/2000/svg">
<path d="M63.3284 22.962C63.7936 22.7957 64.0162 22.5046 64.0162 22.0627C64.0162 21.6292 63.8371 21.4187 63.3738 21.3081C63.2204 21.2715 63.0431 21.262 62.3423 21.253L61.4961 21.2421V22.1484V23.0546L62.3052 23.0465L63.1144 23.0385L63.3284 22.962ZM58.9184 28.001C58.9093 27.9919 58.9018 26.0289 58.9018 23.6389V19.2934L61.6258 19.3023C64.3104 19.311 64.3533 19.3119 64.5955 19.3646C65.2502 19.5072 65.6848 19.7266 66.0329 20.0902C66.4286 20.5035 66.5859 20.9432 66.5857 21.6355C66.5855 22.4867 66.3831 23.0632 65.9351 23.4887C65.7306 23.683 65.5594 23.7888 65.2828 23.8915C65.1624 23.9363 65.1144 23.9633 65.1538 23.964C65.2755 23.9664 65.5134 24.041 65.7173 24.1408C66.0557 24.3065 66.2909 24.5867 66.3982 24.9519C66.4333 25.0716 66.66 27.6417 66.66 27.9208V28.0173H65.3257H63.9915L63.991 27.6899C63.9901 27.0373 63.9436 25.9956 63.9078 25.8237C63.8104 25.3567 63.5299 25.0794 63.0254 24.9513C62.8477 24.9061 62.723 24.8968 62.1571 24.8861L61.4964 24.8737L61.49 26.4393L61.4837 28.0049L60.2094 28.0114C59.5085 28.0149 58.9276 28.0102 58.9184 28.0011L58.9184 28.001ZM43.5583 23.6564V19.2955H46.795H50.0317V20.3579V21.4203H48.0798H46.1279V22.0504V22.6804H47.981H49.834V23.6564V24.6323H47.981H46.1279V25.2624V25.8924H48.1292H50.1305V26.9549V28.0173H46.8444H43.5583V23.6564ZM53.6514 28.1785C51.8444 27.9702 50.8743 27.1463 50.5699 25.5614C50.5182 25.2926 50.517 25.2272 50.5081 22.2913L50.4989 19.2955H51.7838H53.0686L53.0773 22.143C53.0853 24.7491 53.0898 25.0063 53.1293 25.1759C53.25 25.693 53.5138 25.9787 53.99 26.1081C54.2135 26.1689 54.7823 26.1676 54.9856 26.106C55.4443 25.9668 55.6855 25.6999 55.8037 25.2006C55.8441 25.0299 55.8482 24.7906 55.8561 22.1554L55.8647 19.2955H57.1485H58.4323V22.1342C58.4323 23.9289 58.4228 25.0671 58.4065 25.2289C58.3496 25.7924 58.1863 26.3289 57.949 26.7321C57.7997 26.9857 57.4398 27.3699 57.1905 27.5418C56.7389 27.8532 56.1973 28.0483 55.4872 28.1554C55.1275 28.2096 54.0401 28.2233 53.6514 28.1785V28.1785ZM38.3317 28.2396C37.3256 28.0872 36.5789 27.7545 36.0315 27.2145C35.6546 26.8427 35.4271 26.4403 35.2945 25.9109C35.2368 25.6802 35.1747 25.1439 35.2002 25.0956C35.2056 25.0854 35.824 25.0771 36.5745 25.0771H37.9389L37.9679 25.3494C38.0254 25.8905 38.2131 26.1132 38.7279 26.251C38.9646 26.3143 39.5014 26.3279 39.7529 26.277C40.2739 26.1714 40.5194 25.9299 40.5191 25.5231C40.5191 25.3735 40.508 25.3183 40.4635 25.2448C40.3209 25.0094 40.1821 24.9569 38.3944 24.4628C37.0973 24.1043 36.5549 23.8667 36.1017 23.4588C35.855 23.2367 35.6381 22.874 35.5497 22.5357C35.4503 22.1556 35.4637 21.5448 35.5808 21.1163C35.6459 20.8776 35.8419 20.4808 35.9919 20.2838C36.5116 19.601 37.3838 19.1619 38.4926 19.0249C38.7576 18.9921 39.6215 18.9916 39.9139 19.024C41.6488 19.2165 42.6831 20.0236 42.9256 21.374C42.946 21.4878 42.9661 21.6532 42.9702 21.7415L42.9777 21.9021H41.6558H40.3339L40.3186 21.7597C40.2855 21.4511 40.1551 21.277 39.8421 21.1233C39.6077 21.0082 39.3739 20.9686 39.0121 20.9827C38.4137 21.006 38.1643 21.1752 38.1632 21.5585C38.1626 21.7463 38.2399 21.8908 38.4037 22.0084C38.6502 22.1855 38.9639 22.2806 39.9659 22.4819C41.5027 22.7907 42.244 23.0887 42.7574 23.6041C43.1739 24.022 43.3606 24.5278 43.3606 25.2377C43.3606 26.3773 42.8308 27.2305 41.7971 27.7556C41.3241 27.9959 40.6889 28.1724 40.0127 28.2515C39.5605 28.3044 38.7202 28.2985 38.3317 28.2396V28.2396Z" fill="#E95128"/>
<path d="M2.02471 28.0172C2.00836 28.0117 2 26.5353 2 23.6522V19.2954H17.4794H32.9587V23.6696V28.0438L17.5041 28.0346C9.00402 28.0296 2.03831 28.0217 2.02471 28.0172Z" fill="#BDD1EC"/>
<path d="M32.9584 19.2954H7.15186V28.0209H32.9584V19.2954Z" fill="#6D9AD3"/>
<path d="M32.9584 19.2954H14.8828V28.0209H32.9584V19.2954Z" fill="#1C64B0"/>
</svg>
